<svg width="41" height="41" viewBox="0 0 41 41" fill="none" xmlns="http://www.w3.org/2000/svg">
<path d="M20.4505 3.41675C11.0205 3.41675 3.36719 11.0701 3.36719 20.5001C3.36719 29.9301 11.0205 37.5834 20.4505 37.5834C29.8805 37.5834 37.5339 29.9301 37.5339 20.5001C37.5339 11.0701 29.8976 3.41675 20.4505 3.41675ZM29.7268 28.068C27.6255 31.0917 24.1747 32.8855 20.5018 32.8855C16.8289 32.8855 13.378 31.0917 11.2768 28.068C10.8668 27.4872 11.0205 26.6842 11.6014 26.2913C12.1822 25.8813 12.9851 26.0351 13.378 26.6159C15.0009 28.9392 17.6659 30.3401 20.5018 30.3401C23.3376 30.3401 26.0026 28.9563 27.6255 26.6159C28.0355 26.0351 28.8214 25.8984 29.4022 26.2913C30.0001 26.6842 30.1368 27.4872 29.7268 28.068Z" fill="#292D32"/>
</svg>
