<svg width="41" height="41" viewBox="0 0 41 41" fill="none" xmlns="http://www.w3.org/2000/svg">
<path d="M37.5141 19.9191C35.4812 18.6378 33.1237 17.9374 30.6979 17.9374C23.6254 17.9374 17.8854 23.6774 17.8854 30.7499C17.8854 33.1757 18.5687 35.5161 19.85 37.5491C19.0641 37.532 18.2612 37.4466 17.4412 37.327C10.42 36.1311 4.7654 30.4424 3.60373 23.4041C1.67332 11.702 11.65 1.72532 23.3521 3.65573C30.3904 4.8174 36.0792 10.472 37.275 17.4932C37.4117 18.3132 37.4971 19.1332 37.5141 19.9191Z" fill="#292D32"/>
<path d="M22.858 37.3442C21.3546 35.5675 20.4492 33.2613 20.4492 30.75C20.4492 25.0954 25.0446 20.5 30.6992 20.5C33.2105 20.5 35.5167 21.4054 37.2934 22.9088" fill="#292D32"/>
</svg>
