<svg width="41" height="41" viewBox="0 0 41 41" fill="none" xmlns="http://www.w3.org/2000/svg">
<path d="M19.2201 6.66253V22.0717C19.2201 22.6354 18.9468 23.1479 18.4855 23.4725L6.16842 32.0996C5.1605 32.8 3.7255 32.2534 3.50342 31.0404C3.24717 29.5713 3.58884 27.8459 4.61384 25.9838L9.94384 16.4L14.9663 7.36294C15.3593 6.66253 15.7863 6.04753 16.2305 5.51794C17.2555 4.32211 19.2201 5.09086 19.2201 6.66253Z" fill="#292D32"/>
<path d="M34.8329 32.0996L22.5158 23.4725C22.0546 23.1479 21.7812 22.6354 21.7812 22.0717V6.66253C21.7812 5.09086 23.7458 4.32211 24.7708 5.51794C25.215 6.04753 25.6421 6.66253 26.035 7.36294L31.0575 16.4L36.3875 25.9838C37.4125 27.8459 37.7542 29.5713 37.4979 31.0404C37.2758 32.2534 35.8408 32.8 34.8329 32.0996Z" fill="#292D32"/>
<path d="M8.98655 32.6974L19.4928 25.6933C20.0565 25.3174 20.979 25.3174 21.5428 25.6933L32.049 32.6974C34.8336 34.5595 34.3724 36.0799 31.024 36.0799H9.99446C6.66321 36.0628 6.20196 34.5424 8.98655 32.6974Z" fill="#292D32"/>
</svg>
