<svg width="41" height="41" viewBox="0 0 41 41" fill="none" xmlns="http://www.w3.org/2000/svg">
<path d="M33.0232 9.70343L22.3119 3.92927C21.1844 3.31427 19.8178 3.31427 18.6903 3.92927L7.97901 9.70343C7.19318 10.1305 6.71484 10.9505 6.71484 11.8901C6.71484 12.8126 7.19318 13.6497 7.97901 14.0768L18.6903 19.8509C19.254 20.1584 19.8861 20.3122 20.5011 20.3122C21.1161 20.3122 21.7482 20.1584 22.3119 19.8509L33.0232 14.0768C33.809 13.6497 34.2873 12.8297 34.2873 11.8901C34.2873 10.9505 33.809 10.1305 33.0232 9.70343Z" fill="#292D32"/>
<path d="M16.9309 21.8495L6.95422 16.8612C6.18547 16.4853 5.29714 16.5195 4.57964 16.9637C3.84505 17.4249 3.41797 18.1937 3.41797 19.0478V28.4608C3.41797 30.0837 4.32339 31.5528 5.77547 32.2874L15.7351 37.2758C16.0767 37.4466 16.4526 37.532 16.8284 37.532C17.2726 37.532 17.7167 37.4124 18.1096 37.1733C18.8442 36.7291 19.2713 35.9433 19.2713 35.0891V25.6762C19.2884 24.0362 18.383 22.567 16.9309 21.8495Z" fill="#292D32"/>
<path d="M36.4221 16.9637C35.6876 16.5196 34.7992 16.4683 34.0476 16.8612L24.088 21.8496C22.6359 22.5842 21.7305 24.0362 21.7305 25.6762V35.0892C21.7305 35.9433 22.1576 36.7292 22.8921 37.1733C23.2851 37.4125 23.7292 37.5321 24.1734 37.5321C24.5492 37.5321 24.9251 37.4467 25.2667 37.2758L35.2263 32.2875C36.6784 31.5529 37.5838 30.1008 37.5838 28.4608V19.0479C37.5838 18.1937 37.1567 17.425 36.4221 16.9637Z" fill="#292D32"/>
</svg>
