<svg width="41" height="41" viewBox="0 0 41 41" fill="none" xmlns="http://www.w3.org/2000/svg">
<path d="M35.8408 5.15913C34.3545 3.67288 32.2533 3.09205 30.2204 3.60455L13.4787 7.78996C10.66 8.49038 8.49038 10.677 7.78996 13.4787L3.60455 30.2375C3.09205 32.2704 3.67288 34.3716 5.15913 35.8579C6.28663 36.9683 7.77288 37.5833 9.31038 37.5833C9.78871 37.5833 10.2841 37.532 10.7625 37.3954L27.5212 33.21C30.3229 32.5095 32.5095 30.34 33.21 27.5212L37.3954 10.7625C37.9079 8.72955 37.327 6.6283 35.8408 5.15913ZM20.5 27.1283C16.8441 27.1283 13.8716 24.1558 13.8716 20.5C13.8716 16.8441 16.8441 13.8716 20.5 13.8716C24.1558 13.8716 27.1283 16.8441 27.1283 20.5C27.1283 24.1558 24.1558 27.1283 20.5 27.1283Z" fill="#292D32"/>
</svg>
