<svg width="27" height="24" viewBox="0 0 27 24" fill="none" xmlns="http://www.w3.org/2000/svg">
<g clip-path="url(#clip0_16920_20299)">
<path d="M8.60516 20.9098C8.57141 20.9098 8.52641 20.9298 8.49266 20.9298C6.31016 19.9698 4.53266 18.3798 3.44141 16.4398C3.44141 16.4098 3.46391 16.3698 3.46391 16.3398C4.83641 16.6998 6.25391 16.9698 7.66016 17.1798C7.90766 18.4398 8.20016 19.6898 8.60516 20.9098Z" fill="white"/>
<path d="M23.5594 16.4498C22.4456 18.4398 20.5894 20.0498 18.3281 21.0198C18.7556 19.7498 19.1156 18.4698 19.3519 17.1798C20.7694 16.9698 22.1644 16.6998 23.5369 16.3398C23.5256 16.3798 23.5594 16.4198 23.5594 16.4498Z" fill="white"/>
<path d="M23.6494 7.70998C22.2319 7.32998 20.8031 7.01998 19.3519 6.79998C19.1156 5.50998 18.7669 4.22998 18.3281 2.97998C20.6569 3.96998 22.5356 5.63998 23.6494 7.70998Z" fill="white"/>
<path d="M8.60531 3.09006C8.20031 4.31006 7.90781 5.55006 7.67156 6.81006C6.22031 7.01006 4.78031 7.33006 3.35156 7.71006C4.44281 5.70006 6.25406 4.05006 8.49281 3.06006C8.52656 3.06006 8.57156 3.09006 8.60531 3.09006Z" fill="white"/>
<path d="M17.4267 6.59C14.8167 6.33 12.1842 6.33 9.57422 6.59C9.85547 5.22 10.2155 3.85 10.7217 2.53C10.7442 2.45 10.733 2.39 10.7442 2.31C11.633 2.12 12.5442 2 13.5005 2C14.4455 2 15.368 2.12 16.2455 2.31C16.2567 2.39 16.2567 2.45 16.2792 2.53C16.7855 3.86 17.1455 5.22 17.4267 6.59Z" fill="white"/>
<path d="M7.41375 15.4898C5.86125 15.2398 4.33125 14.9198 2.84625 14.4698C2.75625 14.4498 2.68875 14.4598 2.59875 14.4498C2.385 13.6598 2.25 12.8498 2.25 11.9998C2.25 11.1598 2.385 10.3398 2.59875 9.55977C2.68875 9.54977 2.75625 9.54977 2.84625 9.52977C4.3425 9.08977 5.86125 8.75977 7.41375 8.50977C7.1325 10.8298 7.1325 13.1698 7.41375 15.4898Z" fill="white"/>
<path d="M24.7497 11.9998C24.7497 12.8498 24.6147 13.6598 24.4009 14.4498C24.3109 14.4598 24.2434 14.4498 24.1534 14.4698C22.6572 14.9098 21.1272 15.2398 19.5859 15.4898C19.8784 13.1698 19.8784 10.8298 19.5859 8.50977C21.1272 8.75977 22.6684 9.07977 24.1534 9.52977C24.2434 9.54977 24.3109 9.55977 24.4009 9.55977C24.6147 10.3498 24.7497 11.1598 24.7497 11.9998Z" fill="white"/>
<path d="M17.4267 17.4102C17.1455 18.7902 16.7855 20.1502 16.2792 21.4702C16.2567 21.5502 16.2567 21.6102 16.2455 21.6902C15.368 21.8802 14.4455 22.0002 13.5005 22.0002C12.5442 22.0002 11.633 21.8802 10.7442 21.6902C10.733 21.6102 10.7442 21.5502 10.7217 21.4702C10.2267 20.1402 9.85547 18.7902 9.57422 17.4102C10.8792 17.5402 12.1842 17.6302 13.5005 17.6302C14.8167 17.6302 16.133 17.5402 17.4267 17.4102Z" fill="white"/>
<path d="M17.7337 15.7633C14.92 16.0789 12.08 16.0789 9.26625 15.7633C8.91125 13.2622 8.91125 10.7378 9.26625 8.23667C12.08 7.92111 14.92 7.92111 17.7337 8.23667C18.0887 10.7378 18.0887 13.2622 17.7337 15.7633Z" fill="white"/>
</g>
<defs>
<clipPath id="clip0_16920_20299">
<rect width="27" height="24" fill="white"/>
</clipPath>
</defs>
</svg>
