<svg width="24" height="24" viewBox="0 0 24 24" fill="none" xmlns="http://www.w3.org/2000/svg">
<path d="M20.9616 17.84L19.3316 18.39C18.8816 18.54 18.5216 18.89 18.3716 19.35L17.8216 20.98C17.3516 22.39 15.3716 22.36 14.9316 20.95L13.0816 15C12.7216 13.82 13.8116 12.72 14.9816 13.09L20.9416 14.94C22.3416 15.38 22.3616 17.37 20.9616 17.84Z" fill="white"/>
<path d="M20.9994 11.4999C20.9994 11.9299 20.9694 12.3599 20.9194 12.7799C20.8794 13.0799 20.5694 13.2599 20.2794 13.1699L15.4294 11.6599C14.3494 11.3299 13.1994 11.6099 12.3994 12.3999C11.5994 13.1999 11.3094 14.3699 11.6494 15.4499L13.1494 20.2799C13.2394 20.5699 13.0494 20.8799 12.7494 20.9199C12.3294 20.9699 11.9194 20.9999 11.4994 20.9999C6.15942 20.9999 1.85942 16.6099 1.99942 11.2299C2.13942 6.26991 6.26942 2.13991 11.2294 1.99991C16.6094 1.85991 20.9994 6.15991 20.9994 11.4999Z" fill="white"/>
</svg>
