<svg width="27" height="24" viewBox="0 0 27 24" fill="none" xmlns="http://www.w3.org/2000/svg">
<path d="M13.4341 2.20983L10.7228 7.81983H8.01156C7.56156 7.81983 7.12281 7.84983 6.69531 7.92983L7.82031 5.52983L7.86531 5.43983L7.93281 5.27983C7.96656 5.20983 7.98906 5.14983 8.02281 5.09983C9.32781 2.40983 10.7903 1.56983 13.4341 2.20983Z" fill="white"/>
<path d="M21.073 8.09002L21.0505 8.08002C20.3755 7.91002 19.6892 7.82002 18.9917 7.82002H11.9492L14.4805 2.59002L14.5142 2.52002C14.6717 2.57002 14.8405 2.64002 15.0092 2.69002L17.4955 3.62002C18.8792 4.13002 19.8467 4.66002 20.443 5.30002C20.5442 5.42002 20.6342 5.53002 20.7242 5.66002C20.8255 5.80002 20.9042 5.94002 20.9492 6.09002C20.9942 6.18002 21.028 6.26002 21.0505 6.35002C21.2192 6.86002 21.2305 7.44002 21.073 8.09002Z" fill="white"/>
<path d="M14.0859 17.6601H14.3672C14.7047 17.6601 14.9859 17.3901 14.9859 17.0601C14.9859 16.6401 14.8509 16.5801 14.5584 16.4801L14.0859 16.3301V17.6601Z" fill="white"/>
<path d="M20.5758 9.51982C20.0695 9.38982 19.5408 9.31982 18.9895 9.31982H8.00953C7.24453 9.31982 6.52453 9.44982 5.84953 9.70982C3.89203 10.4598 2.51953 12.1898 2.51953 14.1998V16.1498C2.51953 16.3898 2.54203 16.6198 2.57578 16.8598C2.82328 20.0398 4.73578 21.7398 8.31328 21.9498C8.57203 21.9798 8.83078 21.9998 9.11203 21.9998H17.887C22.0495 21.9998 24.2433 20.2398 24.457 16.7398C24.4683 16.5498 24.4795 16.3498 24.4795 16.1498V14.1998C24.4795 11.9898 22.8258 10.1298 20.5758 9.51982ZM14.9395 15.4998C15.457 15.6598 16.1545 15.9998 16.1545 17.0598C16.1545 17.9698 15.3558 18.6998 14.3658 18.6998H14.0845V18.9198C14.0845 19.2098 13.8258 19.4398 13.4995 19.4398C13.1733 19.4398 12.9145 19.2098 12.9145 18.9198V18.6998H12.8133C11.7333 18.6998 10.8445 17.8898 10.8445 16.8898C10.8445 16.5998 11.1033 16.3698 11.4295 16.3698C11.7558 16.3698 12.0145 16.5998 12.0145 16.8898C12.0145 17.3098 12.3745 17.6598 12.8133 17.6598H12.9145V15.9698L12.0595 15.6998C11.542 15.5398 10.8445 15.1998 10.8445 14.1398C10.8445 13.2298 11.6433 12.4998 12.6333 12.4998H12.9145V12.2798C12.9145 11.9898 13.1733 11.7598 13.4995 11.7598C13.8258 11.7598 14.0845 11.9898 14.0845 12.2798V12.4998H14.1858C15.2658 12.4998 16.1545 13.3098 16.1545 14.3098C16.1545 14.5998 15.8958 14.8298 15.5695 14.8298C15.2433 14.8298 14.9845 14.5998 14.9845 14.3098C14.9845 13.8898 14.6245 13.5398 14.1858 13.5398H14.0845V15.2298L14.9395 15.4998Z" fill="white"/>
<path d="M12.0156 14.14C12.0156 14.56 12.1506 14.62 12.4431 14.72L12.9156 14.87V13.54H12.6344C12.2856 13.54 12.0156 13.81 12.0156 14.14Z" fill="white"/>
</svg>
