<svg width="27" height="24" viewBox="0 0 27 24" fill="none" xmlns="http://www.w3.org/2000/svg">
<path d="M23.625 22.75H3.375C2.91375 22.75 2.53125 22.41 2.53125 22C2.53125 21.59 2.91375 21.25 3.375 21.25H23.625C24.0863 21.25 24.4688 21.59 24.4688 22C24.4688 22.41 24.0863 22.75 23.625 22.75Z" fill="white"/>
<path d="M6.3 8.37988H4.5C3.88125 8.37988 3.375 8.82988 3.375 9.37988V17.9999C3.375 18.5499 3.88125 18.9999 4.5 18.9999H6.3C6.91875 18.9999 7.425 18.5499 7.425 17.9999V9.37988C7.425 8.81988 6.91875 8.37988 6.3 8.37988Z" fill="white"/>
<path d="M14.4016 5.18994H12.6016C11.9828 5.18994 11.4766 5.63994 11.4766 6.18994V17.9999C11.4766 18.5499 11.9828 18.9999 12.6016 18.9999H14.4016C15.0203 18.9999 15.5266 18.5499 15.5266 17.9999V6.18994C15.5266 5.63994 15.0203 5.18994 14.4016 5.18994Z" fill="white"/>
<path d="M22.4992 2H20.6992C20.0805 2 19.5742 2.45 19.5742 3V18C19.5742 18.55 20.0805 19 20.6992 19H22.4992C23.118 19 23.6242 18.55 23.6242 18V3C23.6242 2.45 23.118 2 22.4992 2Z" fill="white"/>
</svg>
