<svg width="27" height="24" viewBox="0 0 27 24" fill="none" xmlns="http://www.w3.org/2000/svg">
<path d="M16.8747 22.75C16.571 22.75 16.2897 22.6 16.1435 22.37C15.9972 22.14 15.9972 21.85 16.1547 21.62L17.336 19.87C17.5722 19.51 18.0897 19.4 18.4947 19.61C18.8997 19.82 19.0235 20.28 18.7872 20.64L18.4835 21.09C21.5885 20.44 23.9172 17.96 23.9172 15C23.9172 14.59 24.2997 14.25 24.761 14.25C25.2222 14.25 25.6047 14.59 25.6047 15C25.5935 19.27 21.6785 22.75 16.8747 22.75Z" fill="white"/>
<path d="M2.25 9.75C1.78875 9.75 1.40625 9.41 1.40625 9C1.40625 4.73 5.32125 1.25 10.125 1.25C10.4288 1.25 10.71 1.4 10.8562 1.63C11.0025 1.86 11.0025 2.15 10.845 2.38L9.66375 4.14C9.4275 4.49 8.91 4.61 8.505 4.39C8.11125 4.18 7.97625 3.72 8.22375 3.36L8.5275 2.91C5.41125 3.56 3.09375 6.04 3.09375 9C3.09375 9.41 2.71125 9.75 2.25 9.75Z" fill="white"/>
<path d="M12.0019 13.8499L8.46938 12.1599C8.09812 11.9799 7.64812 11.9799 7.27687 12.1599L3.74437 13.8499C3.48562 13.9699 3.32812 14.2199 3.32812 14.4899C3.32812 14.7599 3.48562 15.0099 3.74437 15.1299L7.27687 16.8199C7.46812 16.9099 7.67062 16.9499 7.87313 16.9499C8.07562 16.9499 8.27813 16.9099 8.46938 16.8199L12.0019 15.1299C12.2606 15.0099 12.4181 14.7599 12.4181 14.4899C12.4181 14.2199 12.2494 13.9799 12.0019 13.8499Z" fill="white"/>
<path d="M6.69375 17.4101L3.40875 15.9501C3.16125 15.8401 2.86875 15.8501 2.62125 15.9801C2.39625 16.1101 2.25 16.3401 2.25 16.5901V19.3501C2.25 19.8301 2.5425 20.2601 3.02625 20.4701L6.31125 21.9301C6.42375 21.9701 6.5475 22.0001 6.67125 22.0001C6.8175 22.0001 6.96375 21.9601 7.09875 21.8901C7.335 21.7601 7.48125 21.5301 7.48125 21.2801V18.5201C7.48125 18.0501 7.1775 17.6201 6.69375 17.4101Z" fill="white"/>
<path d="M13.1183 15.9801C12.882 15.8501 12.5895 15.8401 12.3308 15.9501L9.04578 17.4101C8.56203 17.6201 8.26953 18.0501 8.26953 18.5301V21.2901C8.26953 21.5401 8.41578 21.7701 8.65203 21.9001C8.78703 21.9601 8.93328 22.0001 9.07953 22.0001C9.20328 22.0001 9.32703 21.9701 9.43953 21.9201L12.7245 20.4601C13.2083 20.2501 13.5008 19.8201 13.5008 19.3401V16.5801C13.5008 16.3401 13.3545 16.1101 13.1183 15.9801Z" fill="white"/>
<path d="M23.2519 3.82988L19.7194 2.13988C19.3481 1.95988 18.8981 1.95988 18.5269 2.13988L14.9944 3.82988C14.7356 3.94988 14.5781 4.19988 14.5781 4.46988C14.5781 4.73988 14.7356 4.98988 14.9944 5.10988L18.5269 6.79988C18.7181 6.88988 18.9206 6.92988 19.1231 6.92988C19.3256 6.92988 19.5281 6.88988 19.7194 6.79988L23.2519 5.10988C23.5106 4.98988 23.6681 4.73988 23.6681 4.46988C23.6681 4.18988 23.4994 3.94988 23.2519 3.82988Z" fill="white"/>
<path d="M17.9437 7.37986L14.6587 5.91986C14.4112 5.80986 14.1187 5.81986 13.8712 5.94986C13.6462 6.07986 13.5 6.30986 13.5 6.55986V9.31986C13.5 9.79986 13.7925 10.2299 14.2762 10.4399L17.5612 11.8999C17.6737 11.9499 17.7975 11.9799 17.9212 11.9799C18.0675 11.9799 18.2137 11.9399 18.3487 11.8699C18.585 11.7399 18.7312 11.5099 18.7312 11.2599V8.49986C18.7312 8.01986 18.4275 7.58986 17.9437 7.37986Z" fill="white"/>
<path d="M24.3683 5.94986C24.132 5.81986 23.8395 5.80986 23.5808 5.91986L20.2958 7.37986C19.812 7.58986 19.5195 8.01986 19.5195 8.49986V11.2599C19.5195 11.5099 19.6658 11.7399 19.902 11.8699C20.037 11.9399 20.1833 11.9799 20.3295 11.9799C20.4533 11.9799 20.577 11.9499 20.6895 11.8999L23.9745 10.4399C24.4583 10.2199 24.7508 9.78986 24.7508 9.31986V6.55986C24.7508 6.30986 24.6045 6.07986 24.3683 5.94986Z" fill="white"/>
</svg>
