<svg width="27" height="24" viewBox="0 0 27 24" fill="none" xmlns="http://www.w3.org/2000/svg">
<path d="M18.2138 2H8.78625C4.69125 2 2.25 4.17 2.25 7.81V16.18C2.25 19.83 4.69125 22 8.78625 22H18.2025C22.2975 22 24.7388 19.83 24.7388 16.19V7.81C24.75 4.17 22.3088 2 18.2138 2ZM7.27875 7.72C7.605 7.43 8.145 7.43 8.47125 7.72C9.27 8.43 10.575 8.43 11.3737 7.72C11.7 7.43 12.24 7.43 12.5662 7.72C12.8925 8.01 12.8925 8.49 12.5662 8.78C11.835 9.43 10.8787 9.75 9.9225 9.75C8.96625 9.75 8.01 9.43 7.27875 8.78C6.9525 8.48 6.9525 8.01 7.27875 7.72ZM13.5 18.78C10.4738 18.78 8.01 16.59 8.01 13.9C8.01 13.2 8.65125 12.62 9.43875 12.62H17.5387C18.3263 12.62 18.9675 13.19 18.9675 13.9C18.99 16.59 16.5262 18.78 13.5 18.78ZM19.7213 8.78C18.99 9.43 18.0338 9.75 17.0775 9.75C16.1213 9.75 15.165 9.43 14.4338 8.78C14.1075 8.49 14.1075 8.01 14.4338 7.72C14.76 7.43 15.3 7.43 15.6263 7.72C16.425 8.43 17.73 8.43 18.5287 7.72C18.855 7.43 19.395 7.43 19.7213 7.72C20.0475 8.01 20.0475 8.48 19.7213 8.78Z" fill="white"/>
</svg>
