<svg width="27" height="24" viewBox="0 0 27 24" fill="none" xmlns="http://www.w3.org/2000/svg">
<path d="M22.4547 8.9599C21.701 8.2199 20.5647 7.7899 18.9897 7.6399V6.8799C18.9897 5.5099 18.3372 4.1899 17.1897 3.2699C16.031 2.3299 14.5235 1.8899 12.9597 2.0199C10.271 2.2499 8.00971 4.5599 8.00971 7.0599V7.6399C6.43471 7.7899 5.29846 8.2199 4.54471 8.9599C3.45346 10.0399 3.48721 11.4799 3.61096 12.4799L4.39846 18.0499C4.63471 19.9999 5.52346 21.9999 10.361 21.9999H16.6385C21.476 21.9999 22.3647 19.9999 22.601 18.0599L23.3885 12.4699C23.5122 11.4799 23.5347 10.0399 22.4547 8.9599ZM13.1172 3.4099C14.2422 3.3199 15.311 3.6299 16.1435 4.2999C16.9647 4.9599 17.426 5.8999 17.426 6.8799V7.5799H9.57346V7.0599C9.57346 5.2799 11.2272 3.5699 13.1172 3.4099ZM9.47221 13.1499H9.46096C8.84221 13.1499 8.33596 12.6999 8.33596 12.1499C8.33596 11.5999 8.84221 11.1499 9.46096 11.1499C10.091 11.1499 10.5972 11.5999 10.5972 12.1499C10.5972 12.6999 10.091 13.1499 9.47221 13.1499ZM17.3472 13.1499H17.336C16.7172 13.1499 16.211 12.6999 16.211 12.1499C16.211 11.5999 16.7172 11.1499 17.336 11.1499C17.966 11.1499 18.4722 11.5999 18.4722 12.1499C18.4722 12.6999 17.966 13.1499 17.3472 13.1499Z" fill="white"/>
</svg>
