<svg width="232" height="88" viewBox="0 0 232 88" fill="none" xmlns="http://www.w3.org/2000/svg">
<rect width="95" height="88" rx="6" fill="white"/>
<g clip-path="url(#clip0_17423_6742)">
<path d="M232 17H91V72H232V17Z" fill="#0B1A2A"/>
<path d="M143.32 23.0269V66.1385" stroke="#FCB32F" stroke-miterlimit="10"/>
<path d="M149.602 39.7015C150.145 39.6639 150.509 39.5501 150.695 39.3602C150.881 39.1703 150.974 38.7837 150.974 38.2012V30.9343C150.974 30.3176 150.88 29.9275 150.692 29.765C150.503 29.6025 150.14 29.4922 149.602 29.434V29.0166H154.921C156.33 29.0166 157.403 29.2441 158.137 29.6983C158.871 30.1525 159.238 30.9334 159.238 32.0402C159.238 32.5808 159.095 33.0872 158.806 33.5602C158.519 34.0332 158.044 34.4146 157.382 34.7029C156.882 34.9065 156.381 35.0288 155.881 35.0715C155.381 35.1143 154.639 35.1357 153.654 35.1357V38.1995C153.654 38.8042 153.756 39.1994 153.96 39.3867C154.165 39.574 154.546 39.6784 155.107 39.6998V40.1172H149.602V39.6998L149.602 39.7015ZM155.622 34.2307C156.144 33.8989 156.405 33.1855 156.405 32.089C156.405 31.3406 156.279 30.7358 156.026 30.2765C155.773 29.8163 155.288 29.5871 154.573 29.5871C154.245 29.5871 154.009 29.6256 153.867 29.7034C153.724 29.7813 153.652 29.9318 153.652 30.1568V34.5686C154.637 34.5524 155.293 34.4403 155.621 34.2316L155.622 34.2307Z" fill="#FCB32F"/>
<path d="M149.602 56.3807C150.161 56.3542 150.543 56.2498 150.748 56.0676C150.953 55.8863 151.054 55.4903 151.054 54.8804V47.6135C151.054 46.9805 150.933 46.5682 150.691 46.3767C150.529 46.2492 150.166 46.1611 149.602 46.1132V45.6958H154.92C156.022 45.6958 156.916 45.8104 157.599 46.0405C158.923 46.5058 159.584 47.3423 159.584 48.5509C159.584 49.4439 159.237 50.147 158.545 50.6602C158.015 51.0451 157.454 51.2914 156.862 51.3983L160.374 56.0745C160.466 56.2028 160.563 56.2875 160.665 56.3268C160.768 56.367 160.894 56.3927 161.045 56.4029V56.7955H157.596L153.741 51.6618H153.734V54.8779C153.734 55.4552 153.831 55.8444 154.025 56.0445C154.219 56.2447 154.606 56.3559 155.187 56.3773V56.7947H149.602V56.3773L149.602 56.3807ZM156.053 50.6816C156.519 50.3959 156.751 49.7339 156.751 48.6963C156.751 48.06 156.663 47.557 156.485 47.1884C156.179 46.5631 155.619 46.2501 154.806 46.2501C154.365 46.2501 154.076 46.3048 153.939 46.4143C153.802 46.5238 153.733 46.7042 153.733 46.9557V51.1349C154.815 51.1186 155.588 50.9681 156.053 50.6816Z" fill="#FCB32F"/>
<path d="M162.733 50.0879C163.409 49.39 164.223 49.041 165.177 49.041C165.72 49.041 166.232 49.183 166.712 49.4661C167.191 49.7492 167.56 50.1427 167.819 50.6456C168.012 51.0254 168.147 51.5172 168.222 52.1211C168.26 52.4042 168.279 52.6215 168.279 52.7711H164.058C164.096 53.4289 164.203 53.9986 164.381 54.4793C164.705 55.3834 165.274 55.835 166.088 55.835C166.476 55.835 166.843 55.7144 167.188 55.474C167.398 55.3295 167.659 55.0865 167.973 54.7444L168.352 54.9771C167.84 55.811 167.248 56.3918 166.574 56.7177C166.138 56.9264 165.637 57.0307 165.072 57.0307C164.258 57.0307 163.496 56.7125 162.785 56.0762C162.074 55.4398 161.719 54.4237 161.719 53.0286C161.719 51.767 162.057 50.7868 162.733 50.0888V50.0879ZM166.246 52.1613C166.235 51.193 166.16 50.5173 166.019 50.1316C165.879 49.7467 165.598 49.5542 165.177 49.5542C164.755 49.5542 164.449 49.7766 164.289 50.2197C164.13 50.6636 164.04 51.3102 164.018 52.1604H166.245L166.246 52.1613Z" fill="#FCB32F"/>
<path d="M170.266 53.5034C170.981 53.0698 172.103 52.6327 173.632 52.1939V50.999C173.632 50.5123 173.528 50.1531 173.321 49.9204C173.114 49.6878 172.747 49.5714 172.219 49.5714C171.923 49.5714 171.68 49.6262 171.489 49.7357C171.298 49.8452 171.202 49.9829 171.202 50.1488C171.202 50.213 171.213 50.2668 171.235 50.3096C171.256 50.3524 171.288 50.3977 171.331 50.4456L171.428 50.5577C171.503 50.6483 171.564 50.7493 171.609 50.8587C171.655 50.9682 171.678 51.0845 171.678 51.2077C171.678 51.5182 171.575 51.7568 171.367 51.9253C171.16 52.0938 170.92 52.1777 170.645 52.1777C170.328 52.1777 170.058 52.0844 169.835 51.898C169.611 51.7115 169.5 51.4421 169.5 51.0897C169.5 50.4601 169.799 49.9615 170.396 49.5937C170.993 49.2259 171.727 49.042 172.599 49.042C173.535 49.042 174.317 49.2208 174.947 49.5791C175.571 49.9427 175.884 50.6115 175.884 51.5849V55.5631C175.884 55.6811 175.915 55.7812 175.977 55.8642C176.039 55.9471 176.107 55.9882 176.182 55.9882C176.247 55.9882 176.305 55.9762 176.356 55.9523C176.407 55.9283 176.486 55.8625 176.595 55.7555L176.845 56.1003C176.522 56.4749 176.164 56.7366 175.772 56.8863C175.524 56.983 175.263 57.0309 174.989 57.0309C174.499 57.0309 174.141 56.8889 173.916 56.6049C173.787 56.4441 173.693 56.2055 173.633 55.8898C173.176 56.3457 172.659 56.6665 172.084 56.8538C171.734 56.9718 171.39 57.0309 171.052 57.0309C170.6 57.0309 170.177 56.8872 169.785 56.6015C169.392 56.3149 169.195 55.8693 169.195 55.2637C169.195 54.5247 169.553 53.938 170.268 53.5043L170.266 53.5034ZM173.147 55.6178C173.276 55.5212 173.429 55.3715 173.608 55.1679V52.7636C173.166 52.8705 172.779 53.0398 172.446 53.2699C171.881 53.6617 171.598 54.1603 171.598 54.7659C171.598 55.1252 171.68 55.3972 171.844 55.5819C172.009 55.7667 172.193 55.859 172.397 55.859C172.665 55.859 172.916 55.7786 173.147 55.6178Z" fill="#FCB32F"/>
<path d="M177.383 56.4048C177.674 56.3355 177.879 56.2431 178 56.1276C178.121 56.013 178.181 55.7735 178.181 55.41V47.0439C178.181 46.6932 178.125 46.4632 178.012 46.3554C177.899 46.2476 177.689 46.1587 177.383 46.0894V45.6968H180.514V55.41C180.514 55.7735 180.574 56.0113 180.692 56.1242C180.81 56.2363 181.02 56.3304 181.321 56.4048V56.7974H177.383V56.4048Z" fill="#FCB32F"/>
<path d="M183.17 50.0879C183.846 49.39 184.661 49.041 185.614 49.041C186.158 49.041 186.67 49.183 187.149 49.4661C187.629 49.7492 187.998 50.1427 188.256 50.6456C188.45 51.0254 188.585 51.5172 188.66 52.1211C188.698 52.4042 188.716 52.6215 188.716 52.7711H184.495C184.533 53.4289 184.641 53.9986 184.819 54.4793C185.142 55.3834 185.711 55.835 186.525 55.835C186.914 55.835 187.28 55.7144 187.625 55.474C187.835 55.3295 188.097 55.0865 188.41 54.7444L188.79 54.9771C188.278 55.811 187.685 56.3918 187.012 56.7177C186.575 56.9264 186.074 57.0307 185.509 57.0307C184.696 57.0307 183.933 56.7125 183.223 56.0762C182.512 55.4398 182.156 54.4237 182.156 53.0286C182.156 51.767 182.494 50.7868 183.17 50.0888V50.0879ZM186.683 52.1613C186.672 51.193 186.597 50.5173 186.456 50.1316C186.315 49.7467 186.035 49.5542 185.613 49.5542C185.192 49.5542 184.885 49.7766 184.726 50.2197C184.567 50.6636 184.476 51.3102 184.455 52.1604H186.682L186.683 52.1613Z" fill="#FCB32F"/>
<path d="M189.635 54.3106H190.095C190.257 55.0967 190.558 55.6518 190.999 55.9751C191.44 56.2984 191.892 56.4601 192.354 56.4601C192.779 56.4601 193.091 56.3652 193.29 56.1753C193.489 55.9854 193.589 55.7356 193.589 55.4251C193.589 55.1309 193.481 54.8794 193.266 54.6707C193.147 54.5587 192.956 54.4381 192.693 54.3098L191.467 53.7162C190.821 53.4006 190.358 53.0584 190.079 52.6898C189.794 52.3211 189.651 51.8849 189.651 51.382C189.651 50.7456 189.874 50.1965 190.32 49.7337C190.767 49.271 191.391 49.04 192.193 49.04C192.542 49.04 192.914 49.0973 193.307 49.2128C193.699 49.3283 193.944 49.3856 194.041 49.3856C194.175 49.3856 194.27 49.3574 194.327 49.3018C194.384 49.2453 194.431 49.1666 194.468 49.0648H194.832V51.4393H194.412C194.256 50.8833 194 50.4368 193.645 50.0998C193.289 49.7628 192.875 49.5943 192.402 49.5943C192.036 49.5943 191.764 49.6961 191.583 49.8988C191.403 50.1024 191.313 50.3213 191.313 50.5566C191.313 50.749 191.394 50.9415 191.554 51.1339C191.71 51.3315 192.006 51.5351 192.443 51.7438L193.346 52.1766C193.906 52.4443 194.314 52.7035 194.573 52.9549C195.003 53.3826 195.218 53.9095 195.218 54.5347C195.218 55.16 194.996 55.7125 194.552 56.2394C194.108 56.7663 193.443 57.0298 192.554 57.0298C192.334 57.0298 192.112 57.0067 191.888 56.9613C191.666 56.916 191.389 56.8373 191.061 56.7244L190.779 56.6277C190.677 56.5901 190.614 56.5687 190.59 56.5636C190.566 56.5585 190.535 56.5559 190.497 56.5559C190.406 56.5559 190.326 56.5918 190.258 56.6645C190.191 56.7364 190.115 56.8578 190.029 57.0298H189.633V54.3106H189.635Z" fill="#FCB32F"/>
<path d="M195.992 49.9555V49.4979C196.138 49.3644 196.317 49.2062 196.533 49.0249C196.817 48.7631 197.087 48.4929 197.34 48.2149C197.84 47.6692 198.295 47.0841 198.704 46.458H199.124V49.2336H200.698V49.9555H199.124V54.8968C199.124 55.1269 199.159 55.3193 199.229 55.4741C199.336 55.7145 199.514 55.8351 199.762 55.8351C199.977 55.8351 200.157 55.759 200.302 55.6067C200.447 55.4545 200.593 55.2449 200.737 54.9772L201.132 55.1696C200.939 55.6187 200.708 55.9856 200.439 56.2687C199.965 56.7657 199.388 57.0146 198.706 57.0146C198.318 57.0146 197.98 56.9428 197.69 56.7982C197.131 56.5202 196.85 56.0147 196.848 55.2825V49.9563H195.992V49.9555Z" fill="#FCB32F"/>
<path d="M202.805 53.5034C203.52 53.0698 204.642 52.6327 206.171 52.1939V50.999C206.171 50.5123 206.067 50.1531 205.86 49.9204C205.653 49.6878 205.286 49.5714 204.758 49.5714C204.462 49.5714 204.219 49.6262 204.028 49.7357C203.837 49.8452 203.741 49.9829 203.741 50.1488C203.741 50.213 203.752 50.2668 203.774 50.3096C203.795 50.3524 203.827 50.3977 203.87 50.4456L203.967 50.5577C204.042 50.6483 204.103 50.7493 204.148 50.8587C204.194 50.9682 204.217 51.0845 204.217 51.2077C204.217 51.5182 204.114 51.7568 203.906 51.9253C203.699 52.0938 203.459 52.1777 203.184 52.1777C202.867 52.1777 202.597 52.0844 202.374 51.898C202.15 51.7115 202.039 51.4421 202.039 51.0897C202.039 50.4601 202.338 49.9615 202.935 49.5937C203.532 49.2259 204.266 49.042 205.138 49.042C206.074 49.042 206.857 49.2208 207.486 49.5791C208.11 49.9427 208.423 50.6115 208.423 51.5849V55.5631C208.423 55.6811 208.454 55.7812 208.516 55.8642C208.578 55.9471 208.647 55.9882 208.721 55.9882C208.786 55.9882 208.844 55.9762 208.895 55.9523C208.946 55.9283 209.025 55.8625 209.134 55.7555L209.384 56.1003C209.061 56.4749 208.703 56.7366 208.311 56.8863C208.063 56.983 207.802 57.0309 207.528 57.0309C207.038 57.0309 206.68 56.8889 206.455 56.6049C206.326 56.4441 206.232 56.2055 206.172 55.8898C205.715 56.3457 205.198 56.6665 204.623 56.8538C204.273 56.9718 203.929 57.0309 203.591 57.0309C203.139 57.0309 202.716 56.8872 202.324 56.6015C201.931 56.3149 201.734 55.8693 201.734 55.2637C201.734 54.5247 202.092 53.938 202.808 53.5043L202.805 53.5034ZM205.686 55.6178C205.815 55.5212 205.968 55.3715 206.147 55.1679V52.7636C205.705 52.8705 205.318 53.0398 204.985 53.2699C204.42 53.6617 204.137 54.1603 204.137 54.7659C204.137 55.1252 204.219 55.3972 204.383 55.5819C204.548 55.7667 204.732 55.859 204.936 55.859C205.204 55.859 205.455 55.7786 205.686 55.6178Z" fill="#FCB32F"/>
<path d="M209.93 49.9555V49.4979C210.075 49.3644 210.255 49.2062 210.47 49.0249C210.755 48.7631 211.024 48.4929 211.277 48.2149C211.777 47.6692 212.233 47.0841 212.641 46.458H213.061V49.2336H214.635V49.9555H213.061V54.8968C213.061 55.1269 213.097 55.3193 213.166 55.4741C213.274 55.7145 213.451 55.8351 213.699 55.8351C213.914 55.8351 214.095 55.759 214.239 55.6067C214.385 55.4545 214.53 55.2449 214.675 54.9772L215.07 55.1696C214.876 55.6187 214.646 55.9856 214.376 56.2687C213.903 56.7657 213.326 57.0146 212.643 57.0146C212.256 57.0146 211.918 56.9428 211.628 56.7982C211.068 56.5202 210.788 56.0147 210.785 55.2825V49.9563H209.93V49.9555Z" fill="#FCB32F"/>
<path d="M216.623 50.0879C217.3 49.39 218.114 49.041 219.067 49.041C219.611 49.041 220.123 49.183 220.602 49.4661C221.082 49.7492 221.451 50.1427 221.709 50.6456C221.903 51.0254 222.038 51.5172 222.113 52.1211C222.151 52.4042 222.17 52.6215 222.17 52.7711H217.948C217.986 53.4289 218.094 53.9986 218.272 54.4793C218.596 55.3834 219.164 55.835 219.979 55.835C220.367 55.835 220.733 55.7144 221.078 55.474C221.288 55.3295 221.55 55.0865 221.863 54.7444L222.243 54.9771C221.731 55.811 221.139 56.3918 220.465 56.7177C220.028 56.9264 219.528 57.0307 218.962 57.0307C218.149 57.0307 217.386 56.7125 216.676 56.0762C215.965 55.4398 215.609 54.4237 215.609 53.0286C215.609 51.767 215.948 50.7868 216.623 50.0888V50.0879ZM220.136 52.1613C220.125 51.193 220.05 50.5173 219.909 50.1316C219.769 49.7467 219.488 49.5542 219.066 49.5542C218.645 49.5542 218.338 49.7766 218.179 50.2197C218.02 50.6636 217.93 51.3102 217.908 52.1604H220.135L220.136 52.1613Z" fill="#FCB32F"/>
<path d="M115.386 67.1239H106.57V32.0499L115.386 21.8765V67.1239Z" fill="#FCB32F"/>
<path d="M105.243 67.1236C102.533 67.1236 100.336 64.9399 100.336 62.2464V39.4354L105.243 32.6885V67.1244V67.1236Z" fill="#FCB32F"/>
<path d="M116.711 21.8765H118.957C129.346 21.8765 137.768 30.2468 137.768 40.5725L116.711 54.7685V21.8765Z" fill="#FCB32F"/>
<path d="M160 32.828V32.4173H162.801V33.62C163.414 32.7204 164.142 32.2707 164.985 32.2707C165.297 32.2707 165.598 32.3684 165.889 32.564C166.18 32.7498 166.421 33.1018 166.612 33.62L165.271 34.324C165.131 33.9231 164.965 33.6542 164.774 33.5173C164.594 33.3707 164.398 33.2973 164.187 33.2973C163.966 33.2973 163.75 33.3658 163.539 33.5027C163.329 33.6396 163.113 33.8938 162.892 34.2653V38.6213C162.892 38.9538 162.907 39.1542 162.937 39.2227C162.967 39.2813 163.062 39.3204 163.223 39.34L164.353 39.4427V39.8533H160V39.4427L160.828 39.34C160.989 39.3204 161.084 39.2813 161.115 39.2227C161.145 39.1542 161.16 38.9538 161.16 38.6213V33.6493C161.16 33.3169 161.145 33.1213 161.115 33.0627C161.084 32.9942 160.989 32.9502 160.828 32.9307L160 32.828Z" fill="#FCB32F"/>
<path d="M174.565 39.4867C174.404 39.6333 174.208 39.7556 173.977 39.8533C173.756 39.9511 173.485 40 173.164 40C172.752 40 172.406 39.912 172.125 39.736C171.854 39.56 171.673 39.3107 171.583 38.988C171.251 39.34 170.885 39.5991 170.483 39.7653C170.092 39.9218 169.69 40 169.278 40C168.585 40 168.068 39.8142 167.727 39.4427C167.386 39.0613 167.215 38.5871 167.215 38.02C167.215 37.4431 167.431 36.9787 167.862 36.6267C168.294 36.2649 169.057 36.084 170.152 36.084H171.522V34.896C171.522 34.0844 171.412 33.532 171.191 33.2387C170.98 32.9356 170.684 32.784 170.302 32.784C170.051 32.784 169.82 32.8476 169.61 32.9747C169.399 33.092 169.248 33.3169 169.158 33.6493C169.077 33.972 169.092 34.4413 169.203 35.0573L167.546 34.8227C167.466 34.3729 167.516 33.9573 167.697 33.576C167.888 33.1849 168.204 32.872 168.646 32.6373C169.087 32.3929 169.65 32.2707 170.333 32.2707C171.106 32.2707 171.703 32.3929 172.125 32.6373C172.547 32.8818 172.838 33.2044 172.998 33.6053C173.169 34.0062 173.254 34.4364 173.254 34.896V38.284C173.254 38.7827 173.3 39.0956 173.39 39.2227C173.48 39.3498 173.581 39.4133 173.691 39.4133C173.872 39.4133 174.073 39.3107 174.294 39.1053L174.565 39.4867ZM169.941 39.2227C170.202 39.2227 170.458 39.1591 170.709 39.032C170.97 38.8951 171.241 38.6458 171.522 38.284V36.5973H170.393C169.901 36.5973 169.544 36.7098 169.323 36.9347C169.103 37.1596 168.992 37.5116 168.992 37.9907C168.992 38.3818 169.072 38.6849 169.233 38.9C169.394 39.1151 169.63 39.2227 169.941 39.2227Z" fill="#FCB32F"/>
<path d="M178.422 37.0813L177.382 36.8467C176.71 36.6902 176.208 36.4116 175.876 36.0107C175.555 35.6 175.394 35.116 175.394 34.5587C175.394 34.148 175.485 33.7716 175.665 33.4293C175.856 33.0773 176.152 32.7987 176.554 32.5933C176.956 32.3782 177.478 32.2707 178.12 32.2707C178.813 32.2707 179.376 32.3782 179.807 32.5933C180.239 32.8084 180.545 33.092 180.726 33.444C180.907 33.796 180.962 34.1724 180.892 34.5733L179.235 34.8667C179.376 34.2018 179.335 33.6884 179.115 33.3267C178.904 32.9649 178.547 32.784 178.045 32.784C177.694 32.784 177.403 32.8867 177.172 33.092C176.941 33.2876 176.825 33.5711 176.825 33.9427C176.825 34.2849 176.926 34.588 177.126 34.852C177.327 35.1062 177.623 35.2773 178.015 35.3653L179.054 35.6C179.797 35.7662 180.334 36.0302 180.666 36.392C180.997 36.744 181.163 37.184 181.163 37.712C181.163 38.3671 180.912 38.9147 180.41 39.3547C179.918 39.7849 179.18 40 178.196 40C177.854 40 177.478 39.9511 177.066 39.8533C176.665 39.7458 176.293 39.5551 175.952 39.2813C175.62 39.0076 175.379 38.6164 175.229 38.108L176.208 37.7267C176.278 38.372 176.504 38.8267 176.885 39.0907C177.277 39.3547 177.714 39.4867 178.196 39.4867C178.648 39.4867 179.014 39.3889 179.295 39.1933C179.586 38.988 179.732 38.6947 179.732 38.3133C179.732 38.0493 179.637 37.8098 179.446 37.5947C179.265 37.3698 178.924 37.1987 178.422 37.0813Z" fill="#FCB32F"/>
<path d="M184.242 31.156C183.931 31.156 183.68 31.0631 183.489 30.8773C183.299 30.6818 183.203 30.4324 183.203 30.1293C183.203 29.8262 183.299 29.5818 183.489 29.396C183.68 29.2102 183.931 29.1173 184.242 29.1173C184.544 29.1173 184.795 29.2102 184.995 29.396C185.196 29.5818 185.297 29.8262 185.297 30.1293C185.297 30.4324 185.196 30.6818 184.995 30.8773C184.795 31.0631 184.544 31.156 184.242 31.156ZM182.224 32.828V32.4173H185.116V38.6213C185.116 38.9538 185.131 39.1542 185.161 39.2227C185.191 39.2813 185.287 39.3204 185.447 39.34L186.276 39.4427V39.8533H182.224V39.4427L183.053 39.34C183.213 39.3204 183.309 39.2813 183.339 39.2227C183.369 39.1542 183.384 38.9538 183.384 38.6213V33.6493C183.384 33.3169 183.369 33.1213 183.339 33.0627C183.309 32.9942 183.213 32.9502 183.053 32.9307L182.224 32.828Z" fill="#FCB32F"/>
<path d="M195.081 39.4427V39.8533H192.279V38.636C191.998 39.0858 191.682 39.428 191.331 39.6627C190.989 39.8876 190.582 40 190.111 40C189.267 40 188.594 39.6773 188.092 39.032C187.6 38.3769 187.354 37.4627 187.354 36.2893V35.996C187.354 34.8618 187.641 33.9573 188.213 33.2827C188.795 32.608 189.588 32.2707 190.593 32.2707C191.195 32.2707 191.727 32.4173 192.189 32.7107V30.232C192.189 29.8996 192.174 29.704 192.144 29.6453C192.114 29.5769 192.018 29.5329 191.858 29.5133L191.029 29.4107V29H193.921V38.6213C193.921 38.9538 193.936 39.1542 193.966 39.2227C193.996 39.2813 194.092 39.3204 194.252 39.34L195.081 39.4427ZM189.207 36.7293C189.207 37.6387 189.322 38.3036 189.553 38.724C189.784 39.1444 190.101 39.3547 190.502 39.3547C190.753 39.3547 191.014 39.2569 191.285 39.0613C191.566 38.856 191.868 38.4453 192.189 37.8293V33.4C191.807 33.0284 191.341 32.8427 190.788 32.8427C190.236 32.8427 189.834 33.0871 189.583 33.576C189.332 34.0551 189.207 34.7151 189.207 35.556V36.7293Z" fill="#FCB32F"/>
<path d="M204.433 39.4427V39.8533H200.382V39.4427L201.21 39.34C201.371 39.3204 201.466 39.2813 201.496 39.2227C201.526 39.1542 201.541 38.9538 201.541 38.6213V34.9253C201.541 34.2507 201.436 33.7618 201.225 33.4587C201.024 33.1458 200.723 32.9893 200.322 32.9893C200.151 32.9893 199.95 33.0333 199.719 33.1213C199.498 33.1996 199.272 33.3462 199.041 33.5613C198.82 33.7764 198.625 34.0942 198.454 34.5147V38.6213C198.454 38.9538 198.469 39.1542 198.499 39.2227C198.529 39.2813 198.625 39.3204 198.785 39.34L199.614 39.4427V39.8533H195.562V39.4427L196.391 39.34C196.551 39.3204 196.647 39.2813 196.677 39.2227C196.707 39.1542 196.722 38.9538 196.722 38.6213V30.232C196.722 29.8996 196.707 29.704 196.677 29.6453C196.647 29.5769 196.551 29.5329 196.391 29.5133L195.562 29.4107V29H198.454V33.5613C198.745 33.1116 199.107 32.784 199.538 32.5787C199.98 32.3733 200.422 32.2707 200.864 32.2707C201.607 32.2707 202.194 32.5004 202.626 32.96C203.058 33.4196 203.274 34.0698 203.274 34.9107V38.6213C203.274 38.9538 203.289 39.1542 203.319 39.2227C203.349 39.2813 203.444 39.3204 203.605 39.34L204.433 39.4427Z" fill="#FCB32F"/>
<path d="M206.967 31.156C206.655 31.156 206.404 31.0631 206.214 30.8773C206.023 30.6818 205.927 30.4324 205.927 30.1293C205.927 29.8262 206.023 29.5818 206.214 29.396C206.404 29.2102 206.655 29.1173 206.967 29.1173C207.268 29.1173 207.519 29.2102 207.72 29.396C207.921 29.5818 208.021 29.8262 208.021 30.1293C208.021 30.4324 207.921 30.6818 207.72 30.8773C207.519 31.0631 207.268 31.156 206.967 31.156ZM204.949 32.828V32.4173H207.84V38.6213C207.84 38.9538 207.855 39.1542 207.885 39.2227C207.916 39.2813 208.011 39.3204 208.172 39.34L209 39.4427V39.8533H204.949V39.4427L205.777 39.34C205.938 39.3204 206.033 39.2813 206.063 39.2227C206.093 39.1542 206.108 38.9538 206.108 38.6213V33.6493C206.108 33.3169 206.093 33.1213 206.063 33.0627C206.033 32.9942 205.938 32.9502 205.777 32.9307L204.949 32.828Z" fill="#FCB32F"/>
</g>
<g clip-path="url(#clip1_17423_6742)">
<path d="M43.3416 54.6542H34.3281V18.4896L43.3416 8V54.6542Z" fill="#0B1A2A"/>
<path d="M32.9703 54.654C30.1999 54.654 27.9531 52.4027 27.9531 49.6247V26.1034L32.9703 19.146V54.653V54.654Z" fill="#0B1A2A"/>
<path d="M44.5156 8H46.8115C57.4328 8 66.0426 16.6306 66.0426 27.2775L44.5156 41.9153V8Z" fill="#0B1A2A"/>
<path d="M14.1484 70.7217C14.7449 70.68 15.1456 70.554 15.3498 70.3437C15.554 70.1333 15.656 69.706 15.656 69.0598V61.01C15.656 60.3269 15.5521 59.8948 15.346 59.7148C15.139 59.5348 14.7401 59.4125 14.1494 59.3481V58.8857H19.9907C21.539 58.8857 22.7167 59.1378 23.523 59.6409C24.3292 60.144 24.7328 61.0091 24.7328 62.2351C24.7328 62.8339 24.575 63.3948 24.2583 63.9188C23.9417 64.4427 23.4209 64.8653 22.694 65.1846C22.1449 65.4101 21.5947 65.5456 21.0456 65.593C20.4964 65.6404 19.6807 65.6641 18.5994 65.6641V69.0579C18.5994 69.7278 18.7119 70.1656 18.9359 70.3731C19.1608 70.5806 19.5796 70.6962 20.1949 70.7198V71.1822H14.1494V70.7198L14.1484 70.7217ZM20.7601 64.6616C21.3329 64.294 21.6203 63.5038 21.6203 62.2891C21.6203 61.4601 21.4813 60.7902 21.2034 60.2804C20.9255 59.7707 20.3934 59.5168 19.6079 59.5168C19.2478 59.5168 18.9888 59.5604 18.8319 59.6456C18.675 59.7318 18.5966 59.8986 18.5966 60.1478V65.0349C19.6779 65.0169 20.3991 64.8928 20.7592 64.6616H20.7601Z" fill="#0B1A2A"/>
<path d="M25.3594 70.7482C25.7082 70.7065 25.9501 70.6241 26.0862 70.5C26.2223 70.3759 26.2961 70.1352 26.3074 69.7799L26.3254 69.2464V64.2977C26.3254 63.9149 26.2602 63.6553 26.1307 63.518C26.0002 63.3806 25.7431 63.2877 25.3594 63.2403V62.8045H28.798V64.2352C29.1827 63.7321 29.5646 63.3322 29.9436 63.0357C30.3226 62.7401 30.7612 62.5913 31.2584 62.5913C31.6317 62.5913 31.9673 62.7116 32.2669 62.9514C32.5656 63.1911 32.7159 63.5426 32.7159 64.004C32.7159 64.3593 32.61 64.653 32.4002 64.8842C32.1904 65.1154 31.9162 65.231 31.5779 65.231C31.1932 65.231 30.8595 65.05 30.5788 64.689C30.2971 64.3281 30.1005 64.1471 29.988 64.1471C29.7451 64.1471 29.5003 64.2968 29.2555 64.5952C29.0097 64.8946 28.8869 65.3229 28.8869 65.881V69.327C28.8869 69.9277 28.9738 70.3029 29.1487 70.4526C29.3226 70.6033 29.6704 70.7018 30.1903 70.7482V71.1841H25.3594V70.7482Z" fill="#0B1A2A"/>
<path d="M34.8243 67.5344C35.6097 67.054 36.8423 66.5699 38.521 66.0838V64.7602C38.521 64.221 38.4075 63.8231 38.1797 63.5654C37.9519 63.3077 37.5483 63.1788 36.9699 63.1788C36.6447 63.1788 36.3772 63.2394 36.1674 63.3607C35.9576 63.482 35.8527 63.6345 35.8527 63.8184C35.8527 63.8894 35.864 63.9491 35.8886 63.9965C35.9122 64.0439 35.9472 64.0941 35.9944 64.1481L36.1003 64.2722C36.1835 64.3726 36.2496 64.4844 36.2997 64.6057C36.3498 64.727 36.3753 64.8559 36.3753 64.9923C36.3753 65.3362 36.261 65.6006 36.0341 65.7872C35.8073 65.9739 35.5426 66.0677 35.2411 66.0677C34.8923 66.0677 34.5955 65.9644 34.3507 65.7579C34.105 65.5513 33.983 65.2529 33.983 64.8625C33.983 64.1651 34.311 63.6128 34.967 63.2053C35.623 62.7979 36.4292 62.5933 37.3867 62.5933C38.4151 62.5933 39.2743 62.7922 39.9662 63.1883C40.6514 63.591 40.9946 64.3319 40.9946 65.4101V69.8169C40.9946 69.9476 41.0286 70.0585 41.0966 70.1504C41.1647 70.2423 41.2403 70.2878 41.3225 70.2878C41.3934 70.2878 41.4568 70.2745 41.5135 70.248C41.5692 70.2215 41.6571 70.1495 41.7753 70.0301L42.0503 70.4119C41.6959 70.8269 41.3027 71.1168 40.8717 71.2827C40.5995 71.3888 40.3131 71.4428 40.0115 71.4428C39.4737 71.4428 39.0805 71.2855 38.8329 70.9709C38.6911 70.7928 38.5871 70.5285 38.5229 70.1788C38.0209 70.6838 37.4529 71.0392 36.8215 71.2476C36.4368 71.3784 36.0587 71.4437 35.6872 71.4437C35.191 71.4437 34.7269 71.2846 34.2959 70.9681C33.8649 70.6507 33.6484 70.157 33.6484 69.4862C33.6484 68.6676 34.0416 68.0176 34.8271 67.5372L34.8243 67.5344ZM37.9888 69.8766C38.1306 69.7695 38.2988 69.6037 38.4945 69.3773V66.7139C38.0096 66.8323 37.5843 67.0199 37.2185 67.2748C36.5984 67.7087 36.2874 68.2611 36.2874 68.9319C36.2874 69.3299 36.3772 69.6312 36.5578 69.8358C36.7383 70.0405 36.9406 70.1428 37.1646 70.1428C37.4595 70.1428 37.7346 70.0538 37.9888 69.8756V69.8766Z" fill="#0B1A2A"/>
<path d="M42.8153 68.4288H43.321C43.4987 69.2995 43.8295 69.9144 44.3135 70.2726C44.7974 70.6307 45.2946 70.8098 45.8022 70.8098C46.2691 70.8098 46.6113 70.7046 46.8306 70.4943C47.0489 70.2839 47.1585 70.0073 47.1585 69.6633C47.1585 69.3374 47.0404 69.0588 46.8041 68.8286C46.6737 68.7045 46.4638 68.5709 46.1746 68.4288L44.8277 67.7712C44.1188 67.4216 43.6102 67.0426 43.3031 66.6342C42.9902 66.2259 42.8333 65.7426 42.8333 65.1855C42.8333 64.4806 43.0781 63.8723 43.5687 63.3597C44.0592 62.8471 44.7445 62.5913 45.6254 62.5913C46.0092 62.5913 46.4175 62.6548 46.8485 62.7827C47.2795 62.9106 47.5489 62.9741 47.6548 62.9741C47.8022 62.9741 47.9071 62.9428 47.9695 62.8812C48.0319 62.8187 48.083 62.7315 48.1245 62.6188H48.5234V65.249H48.0622C47.8911 64.6331 47.6103 64.1386 47.22 63.7652C46.8296 63.3919 46.375 63.2053 45.8551 63.2053C45.4534 63.2053 45.1538 63.318 44.9553 63.5426C44.7568 63.7681 44.6585 64.0106 44.6585 64.2712C44.6585 64.4844 44.7473 64.6976 44.9241 64.9108C45.0952 65.1296 45.4203 65.3551 45.8986 65.5863L46.8911 66.0657C47.5054 66.3623 47.9544 66.6494 48.238 66.928C48.7106 67.4017 48.9469 67.9853 48.9469 68.678C48.9469 69.3706 48.703 69.9826 48.2153 70.5663C47.7276 71.15 46.9969 71.4418 46.0215 71.4418C45.7795 71.4418 45.5356 71.4162 45.2899 71.366C45.0441 71.3158 44.7417 71.2286 44.3815 71.1035L44.0715 70.9965C43.959 70.9548 43.89 70.9311 43.8636 70.9254C43.8371 70.9197 43.8031 70.9169 43.7615 70.9169C43.6613 70.9169 43.5734 70.9567 43.4997 71.0372C43.4259 71.1168 43.3418 71.2513 43.2473 71.4418H42.8125V68.4297L42.8153 68.4288Z" fill="#0B1A2A"/>
<path d="M49.7969 70.7481C50.1164 70.6951 50.3347 70.6145 50.4528 70.5084C50.6305 70.3483 50.7184 70.0612 50.7184 69.6462V64.2977C50.7184 63.9272 50.6561 63.6752 50.5322 63.5406C50.4084 63.4061 50.1627 63.3066 49.7969 63.2403V62.8044H53.2809V69.7173C53.2809 70.1143 53.3395 70.3691 53.4586 70.4819C53.5767 70.5946 53.7979 70.6828 54.1231 70.7481V71.184H49.7978V70.7481H49.7969ZM51.0067 59.0239C51.2818 58.7482 51.6136 58.6108 52.0039 58.6108C52.3943 58.6108 52.7176 58.7482 52.9926 59.0239C53.2677 59.2997 53.4047 59.6322 53.4047 60.0235C53.4047 60.4149 53.2677 60.7474 52.9926 61.0231C52.7176 61.2989 52.3886 61.4362 52.0039 61.4362C51.6192 61.4362 51.2818 61.2989 51.0067 61.0231C50.7317 60.7474 50.5946 60.4149 50.5946 60.0235C50.5946 59.6322 50.7326 59.2997 51.0067 59.0239Z" fill="#0B1A2A"/>
<path d="M56.1262 63.8401C56.8086 63.0082 57.629 62.5913 58.5856 62.5913C59.0639 62.5913 59.4901 62.7098 59.8616 62.9466C60.0922 63.0888 60.3815 63.3436 60.7302 63.7103V60.378C60.7302 59.9175 60.6414 59.6323 60.4646 59.5224C60.2879 59.4125 59.9212 59.3443 59.3654 59.3206V58.8848H63.2747V69.3602C63.2747 69.7363 63.3456 69.9959 63.4874 70.14C63.6292 70.284 63.9071 70.373 64.3201 70.409V70.8269C63.304 70.9273 62.6481 71.0031 62.3522 71.0533C62.0564 71.1035 61.5365 71.2324 60.7926 71.4399V70.2404C60.4495 70.5957 60.1367 70.8591 59.8531 71.0315C59.4041 71.3035 58.9192 71.4399 58.3994 71.4399C57.5128 71.4399 56.7415 71.0638 56.0855 70.3114C55.4295 69.5591 55.1016 68.5378 55.1016 67.2463C55.1016 65.8071 55.4428 64.6711 56.1252 63.8392L56.1262 63.8401ZM60.2643 69.887C60.5752 69.5373 60.7312 69.292 60.7312 69.1498V64.7251C60.7312 64.5773 60.5979 64.3574 60.3314 64.0675C60.0648 63.7776 59.7123 63.6326 59.2737 63.6326C58.6281 63.6326 58.1895 64.0798 57.958 64.9743C57.8332 65.4537 57.7718 66.1321 57.7718 67.0085C57.7718 67.9446 57.8313 68.6496 57.9495 69.1233C58.1688 69.9827 58.5894 70.4119 59.2123 70.4119C59.6036 70.4119 59.9542 70.2375 60.2662 69.8879L60.2643 69.887Z" fill="#0B1A2A"/>
<path d="M65.1172 70.7483C65.448 70.7066 65.6919 70.6166 65.8488 70.4773C66.0057 70.338 66.0832 70.0613 66.0832 69.6463V60.379C66.0832 60.0142 66.018 59.7593 65.8885 59.6125C65.758 59.4665 65.5009 59.369 65.1172 59.3216V58.8857H68.6267V64.0041C68.9991 63.554 69.3905 63.2063 69.8016 62.9599C70.2128 62.7136 70.675 62.5914 71.1892 62.5914C71.8867 62.5914 72.4624 62.7941 72.9179 63.1996C73.3726 63.6052 73.6004 64.2968 73.6004 65.2746V69.6463C73.6004 70.0547 73.6694 70.3228 73.8093 70.4508C73.9482 70.5777 74.1798 70.6772 74.5049 70.7483V71.1841H70.2411V70.7483C70.5663 70.6829 70.7875 70.5948 70.9056 70.482C71.0238 70.3693 71.0833 70.1144 71.0833 69.7174V65.3106C71.0833 64.8956 71.0417 64.5849 70.9595 64.3774C70.8177 64.0041 70.537 63.8174 70.1173 63.8174C69.8044 63.8174 69.4802 63.9624 69.1466 64.2533C68.8129 64.5432 68.6456 64.7422 68.6456 64.8483V69.7174C68.6456 70.1144 68.7042 70.3693 68.8233 70.482C68.9415 70.5948 69.1627 70.6829 69.4878 70.7483V71.1841H65.1181V70.7483H65.1172Z" fill="#0B1A2A"/>
<path d="M75.3047 70.7481C75.6242 70.6951 75.8425 70.6145 75.9607 70.5084C76.1384 70.3483 76.2263 70.0612 76.2263 69.6462V64.2977C76.2263 63.9272 76.1639 63.6752 76.0401 63.5406C75.9162 63.4061 75.6705 63.3066 75.3047 63.2403V62.8044H78.7878V69.7173C78.7878 70.1143 78.8464 70.3691 78.9655 70.4819C79.0836 70.5946 79.3048 70.6828 79.6299 70.7481V71.184H75.3047V70.7481ZM76.5146 59.0239C76.7896 58.7482 77.1214 58.6108 77.5117 58.6108C77.9021 58.6108 78.2254 58.7482 78.5004 59.0239C78.7755 59.2997 78.9125 59.6322 78.9125 60.0235C78.9125 60.4149 78.7755 60.7474 78.5004 61.0231C78.2254 61.2989 77.8964 61.4362 77.5117 61.4362C77.127 61.4362 76.7896 61.2989 76.5146 61.0231C76.2395 60.7474 76.1024 60.4149 76.1024 60.0235C76.1024 59.6322 76.2395 59.2997 76.5146 59.0239Z" fill="#0B1A2A"/>
<path d="M18.0122 80.0128C17.8846 80.0773 17.6219 80.1436 17.2882 80.1436C16.5169 80.1436 15.9375 79.6537 15.9375 78.7527C15.9375 77.8516 16.5169 77.3125 17.3676 77.3125C17.706 77.3125 17.9243 77.3845 18.0179 77.4328L17.9309 77.7218C17.7977 77.6583 17.6077 77.6091 17.3799 77.6091C16.7362 77.6091 16.3118 78.0212 16.3118 78.7423C16.3118 79.414 16.6984 79.8432 17.3619 79.8432C17.5793 79.8432 17.7986 79.7997 17.9423 79.7305L18.0132 80.0128H18.0122Z" fill="#0B1A2A"/>
<path d="M20.196 79.0964C20.196 79.826 19.6912 80.1453 19.2186 80.1453C18.6855 80.1453 18.2734 79.7559 18.2734 79.1305C18.2734 78.4711 18.7054 78.0854 19.2498 78.0854C19.7943 78.0854 20.196 78.4967 20.196 79.0964ZM18.6373 79.1192C18.6373 79.5512 18.884 79.8771 19.2328 79.8771C19.5816 79.8771 19.8321 79.5559 19.8321 79.1087C19.8321 78.7752 19.6648 78.3536 19.2394 78.3536C18.8141 78.3536 18.6373 78.7458 18.6373 79.1192Z" fill="#0B1A2A"/>
<path d="M20.6723 78.6625C20.6723 78.4569 20.6657 78.2939 20.6562 78.13H20.9719L20.9918 78.454H21.0022C21.0986 78.2693 21.3273 78.0854 21.6525 78.0854C21.9228 78.0854 22.3453 78.2484 22.3453 78.9249V80.1007H21.9899V78.9647C21.9899 78.6464 21.8699 78.3792 21.5353 78.3792C21.3009 78.3792 21.1175 78.5459 21.0532 78.7468C21.0381 78.7904 21.0287 78.8539 21.0287 78.9126V80.0998H20.6733V78.6615L20.6723 78.6625Z" fill="#0B1A2A"/>
<path d="M22.9458 78.6625C22.9458 78.4569 22.9391 78.2939 22.9297 78.13H23.2454L23.2652 78.454H23.2756C23.372 78.2693 23.6008 78.0854 23.9259 78.0854C24.1963 78.0854 24.6188 78.2484 24.6188 78.9249V80.1007H24.2634V78.9647C24.2634 78.6464 24.1433 78.3792 23.8087 78.3792C23.5743 78.3792 23.3909 78.5459 23.3267 78.7468C23.3115 78.7904 23.3021 78.8539 23.3021 78.9126V80.0998H22.9467V78.6615L22.9458 78.6625Z" fill="#0B1A2A"/>
<path d="M25.4212 79.1798C25.4279 79.664 25.735 79.8639 26.0942 79.8639C26.3504 79.8639 26.5063 79.8175 26.6387 79.7635L26.701 80.0183C26.5763 80.0752 26.3579 80.1444 26.0451 80.1444C25.4411 80.1444 25.0781 79.7407 25.0781 79.1495C25.0781 78.5583 25.4288 78.0864 26.0025 78.0864C26.6434 78.0864 26.8116 78.6502 26.8116 79.0131C26.8116 79.0879 26.8069 79.1419 26.7993 79.1808H25.4212V79.1798ZM26.4676 78.9221C26.4714 78.6966 26.3749 78.3422 25.9742 78.3422C25.6093 78.3422 25.4543 78.6729 25.425 78.9221H26.4666H26.4676Z" fill="#0B1A2A"/>
<path d="M28.6782 80.0297C28.5837 80.0761 28.3786 80.1434 28.1139 80.1434C27.5213 80.1434 27.1328 79.7388 27.1328 79.1372C27.1328 78.5355 27.5459 78.0864 28.1886 78.0864C28.3994 78.0864 28.5894 78.1404 28.6858 78.1916L28.6064 78.4664C28.5185 78.4199 28.3852 78.3716 28.1886 78.3716C27.7406 78.3716 27.4939 78.7089 27.4948 79.1182C27.4948 79.5749 27.7878 79.8554 28.1792 79.8554C28.3795 79.8554 28.5156 79.8042 28.6168 79.7606L28.6773 80.0297H28.6782Z" fill="#0B1A2A"/>
<path d="M29.6003 77.5635V78.131H30.1136V78.4029H29.6003V79.4651C29.6003 79.7105 29.6712 79.8488 29.8707 79.8488C29.9633 79.8488 30.0304 79.8374 30.0777 79.8232L30.0937 80.0952C30.0247 80.1226 29.9132 80.1444 29.7743 80.1444C29.6098 80.1444 29.4737 80.0904 29.3886 79.9928C29.2903 79.8839 29.2497 79.7105 29.2497 79.4793V78.4029H28.9453V78.131H29.2497V77.6563L29.6003 77.5635Z" fill="#0B1A2A"/>
<path d="M30.9355 77.5737C30.9355 77.696 30.8504 77.7964 30.7077 77.7964C30.5782 77.7964 30.4912 77.696 30.4922 77.5737C30.4922 77.4506 30.5839 77.3511 30.7143 77.3511C30.8448 77.3511 30.9346 77.4487 30.9355 77.5737ZM30.5357 80.1007V78.1309H30.8911V80.1007H30.5357Z" fill="#0B1A2A"/>
<path d="M31.5083 78.6625C31.5083 78.4569 31.5016 78.2939 31.4922 78.13H31.8079L31.8277 78.454H31.8381C31.9345 78.2693 32.1633 78.0854 32.4884 78.0854C32.7588 78.0854 33.1813 78.2484 33.1813 78.9249V80.1007H32.8259V78.9647C32.8259 78.6464 32.7058 78.3792 32.3712 78.3792C32.1368 78.3792 31.9534 78.5459 31.8901 78.7468C31.875 78.7904 31.8655 78.8539 31.8655 78.9126V80.0998H31.5101V78.6615L31.5083 78.6625Z" fill="#0B1A2A"/>
<path d="M35.4809 78.13C35.4715 78.2693 35.4639 78.4294 35.4639 78.6691V79.8137C35.4639 80.2694 35.3713 80.5433 35.1832 80.7157C34.9904 80.8929 34.7153 80.9526 34.4667 80.9526C34.2181 80.9526 33.9705 80.8967 33.8108 80.7905L33.9006 80.5148C34.0319 80.5973 34.2342 80.6731 34.479 80.6731C34.8439 80.6731 35.1123 80.4817 35.1123 79.9823V79.7625H35.1038C34.996 79.9473 34.7824 80.0941 34.479 80.0941C33.9894 80.0941 33.6406 79.6763 33.6406 79.1306C33.6406 78.4626 34.0745 78.0864 34.5282 78.0864C34.8694 78.0864 35.0537 78.2627 35.1416 78.4266H35.1501L35.1652 78.1319H35.4809V78.13ZM35.1085 78.905C35.1085 78.8463 35.1029 78.7932 35.0887 78.7449C35.0225 78.5365 34.8505 78.364 34.5868 78.364C34.2456 78.364 34.0017 78.653 34.0017 79.1107C34.0017 79.4963 34.2002 79.8203 34.5839 79.8203C34.8061 79.8203 35.0046 79.6801 35.0811 79.4508C35.1 79.393 35.1095 79.3229 35.1095 79.2604V78.905H35.1085Z" fill="#0B1A2A"/>
<path d="M37.0916 78.1299L37.5207 79.2943C37.567 79.4251 37.6152 79.5795 37.6474 79.6961H37.6578C37.6928 79.5805 37.7362 79.4289 37.7835 79.2858L38.1729 78.1289H38.5519L38.0141 79.5321C37.7599 80.2096 37.5841 80.5545 37.3411 80.7677C37.1644 80.9212 36.9905 80.9818 36.9026 80.9979L36.8137 80.6985C36.9035 80.6701 37.0198 80.6142 37.1266 80.5232C37.223 80.4446 37.343 80.3062 37.4253 80.1243C37.4432 80.0864 37.4527 80.0599 37.4527 80.0381C37.4527 80.0182 37.447 79.9898 37.4281 79.9462L36.7031 78.1289H37.0916V78.1299Z" fill="#0B1A2A"/>
<path d="M40.6335 79.0964C40.6335 79.826 40.1287 80.1453 39.6561 80.1453C39.123 80.1453 38.7109 79.7559 38.7109 79.1305C38.7109 78.4711 39.1429 78.0854 39.6873 78.0854C40.2318 78.0854 40.6335 78.4967 40.6335 79.0964ZM39.0758 79.1192C39.0758 79.5512 39.3225 79.8771 39.6713 79.8771C40.02 79.8771 40.2705 79.5559 40.2705 79.1087C40.2705 78.7752 40.1032 78.3536 39.6779 78.3536C39.2525 78.3536 39.0758 78.7458 39.0758 79.1192Z" fill="#0B1A2A"/>
<path d="M42.7497 79.5616C42.7497 79.7681 42.7564 79.9453 42.7658 80.1007H42.4501L42.4312 79.7785H42.4208C42.3301 79.9368 42.1221 80.1452 41.7705 80.1452C41.4633 80.1452 41.0938 79.9728 41.0938 79.2821V78.1309H41.4491V79.2195C41.4491 79.5947 41.5654 79.8505 41.8887 79.8505C42.1278 79.8505 42.296 79.6828 42.3613 79.5218C42.3802 79.4706 42.3934 79.4062 42.3934 79.338V78.1309H42.7488V79.5616H42.7497Z" fill="#0B1A2A"/>
<path d="M44.6785 77.5635V78.131H45.1917V78.4029H44.6785V79.4651C44.6785 79.7105 44.7494 79.8488 44.9488 79.8488C45.0414 79.8488 45.1085 79.8374 45.1558 79.8232L45.1719 80.0952C45.1029 80.1226 44.9913 80.1444 44.8524 80.1444C44.6879 80.1444 44.5518 80.0904 44.4667 79.9928C44.3684 79.8839 44.3278 79.7105 44.3278 79.4793V78.4029H44.0234V78.131H44.3278V77.6563L44.6785 77.5635Z" fill="#0B1A2A"/>
<path d="M47.3679 79.0964C47.3679 79.826 46.8631 80.1453 46.3905 80.1453C45.8574 80.1453 45.4453 79.7559 45.4453 79.1305C45.4453 78.4711 45.8773 78.0854 46.4217 78.0854C46.9661 78.0854 47.3679 78.4967 47.3679 79.0964ZM45.8102 79.1192C45.8102 79.5512 46.0569 79.8771 46.4056 79.8771C46.7544 79.8771 47.0049 79.5559 47.0049 79.1087C47.0049 78.7752 46.8376 78.3536 46.4123 78.3536C45.9869 78.3536 45.8102 78.7458 45.8102 79.1192Z" fill="#0B1A2A"/>
<path d="M49.155 77.5635V78.131H49.6683V78.4029H49.155V79.4651C49.155 79.7105 49.2259 79.8488 49.4254 79.8488C49.518 79.8488 49.5851 79.8374 49.6324 79.8232L49.6484 80.0952C49.5794 80.1226 49.4679 80.1444 49.3289 80.1444C49.1645 80.1444 49.0284 80.0904 48.9433 79.9928C48.845 79.8839 48.8044 79.7105 48.8044 79.4793V78.4029H48.5V78.131H48.8044V77.6563L49.155 77.5635Z" fill="#0B1A2A"/>
<path d="M50.0859 77.208H50.4413V78.4378H50.4498C50.5094 78.3374 50.5982 78.2474 50.7069 78.1848C50.8109 78.1233 50.9376 78.0854 51.0727 78.0854C51.3374 78.0854 51.758 78.2474 51.758 78.9267V80.0997H51.4026V78.9656C51.4026 78.6472 51.2826 78.381 50.948 78.381C50.7145 78.381 50.534 78.5449 50.4659 78.7382C50.447 78.7884 50.4423 78.8424 50.4423 78.9087V80.0997H50.0869V77.207L50.0859 77.208Z" fill="#0B1A2A"/>
<path d="M52.5619 79.1798C52.5685 79.664 52.8757 79.8639 53.2348 79.8639C53.491 79.8639 53.647 79.8175 53.7793 79.7635L53.8417 80.0183C53.7169 80.0752 53.4986 80.1444 53.1857 80.1444C52.5817 80.1444 52.2188 79.7407 52.2188 79.1495C52.2188 78.5583 52.5694 78.0864 53.1432 78.0864C53.784 78.0864 53.9523 78.6502 53.9523 79.0131C53.9523 79.0879 53.9475 79.1419 53.94 79.1808H52.5619V79.1798ZM53.6082 78.9221C53.612 78.6966 53.5156 78.3422 53.1148 78.3422C52.75 78.3422 52.5949 78.6729 52.5656 78.9221H53.6073H53.6082Z" fill="#0B1A2A"/>
<path d="M55.3051 78.7724C55.3051 78.5213 55.2985 78.3166 55.2891 78.1309H55.6085L55.6284 78.4663H55.6369C55.7796 78.2257 56.015 78.0854 56.3345 78.0854C56.8099 78.0854 57.1691 78.4872 57.1691 79.085C57.1691 79.7957 56.7362 80.1453 56.2749 80.1453C56.0121 80.1453 55.7862 80.0306 55.669 79.8345H55.6605V80.9071H55.3051V78.7724ZM55.6605 79.2992C55.6605 79.3494 55.6653 79.3987 55.6757 79.4451C55.7399 79.6952 55.9564 79.8648 56.2106 79.8648C56.5897 79.8648 56.808 79.5531 56.808 79.1012C56.808 78.7079 56.6029 78.3697 56.2239 78.3697C55.9809 78.3697 55.7513 78.5421 55.6832 78.8122C55.6719 78.8586 55.6605 78.9107 55.6605 78.9581V79.2992Z" fill="#0B1A2A"/>
<path d="M57.8431 79.1798C57.8497 79.664 58.1569 79.8639 58.5161 79.8639C58.7722 79.8639 58.9282 79.8175 59.0605 79.7635L59.1229 80.0183C58.9981 80.0752 58.7798 80.1444 58.4669 80.1444C57.863 80.1444 57.5 79.7407 57.5 79.1495C57.5 78.5583 57.8507 78.0864 58.4244 78.0864C59.0653 78.0864 59.2335 78.6502 59.2335 79.0131C59.2335 79.0879 59.2288 79.1419 59.2212 79.1808H57.8431V79.1798ZM58.8894 78.9221C58.8932 78.6966 58.7968 78.3422 58.3961 78.3422C58.0312 78.3422 57.8762 78.6729 57.8469 78.9221H58.8885H58.8894Z" fill="#0B1A2A"/>
<path d="M59.6958 78.744C59.6958 78.5109 59.6901 78.3128 59.6797 78.13H59.9935L60.0067 78.5166H60.019C60.1107 78.2522 60.3272 78.0854 60.5663 78.0854C60.605 78.0854 60.6334 78.0883 60.6655 78.0959V78.4332C60.6287 78.4256 60.5928 78.4228 60.5436 78.4228C60.2912 78.4228 60.1135 78.6132 60.0653 78.8813C60.0559 78.9316 60.0512 78.9903 60.0512 79.049V80.1017H59.6958V78.7449V78.744Z" fill="#0B1A2A"/>
<path d="M61.2038 80.1007V78.4019H60.9297V78.13H61.2038V78.0352C61.2038 77.7576 61.2671 77.5056 61.4325 77.3445C61.5668 77.2147 61.7463 77.1626 61.9099 77.1626C62.0394 77.1626 62.1462 77.1901 62.2152 77.2204L62.1679 77.4961C62.1131 77.4724 62.0431 77.4516 61.9382 77.4516C61.6367 77.4516 61.5573 77.7197 61.5573 78.0239V78.13H62.0318V78.4019H61.5592V80.1007H61.2038Z" fill="#0B1A2A"/>
<path d="M62.5228 79.1798C62.5294 79.664 62.8366 79.8639 63.1958 79.8639C63.4519 79.8639 63.6079 79.8175 63.7402 79.7635L63.8026 80.0183C63.6778 80.0752 63.4595 80.1444 63.1466 80.1444C62.5426 80.1444 62.1797 79.7407 62.1797 79.1495C62.1797 78.5583 62.5304 78.0864 63.1041 78.0864C63.7449 78.0864 63.9132 78.6502 63.9132 79.0131C63.9132 79.0879 63.9085 79.1419 63.9009 79.1808H62.5228V79.1798ZM63.5682 78.9221C63.572 78.6966 63.4756 78.3422 63.0748 78.3422C62.7099 78.3422 62.5549 78.6729 62.5256 78.9221H63.5672H63.5682Z" fill="#0B1A2A"/>
<path d="M65.7798 80.0297C65.6853 80.0761 65.4802 80.1434 65.2155 80.1434C64.6229 80.1434 64.2344 79.7388 64.2344 79.1372C64.2344 78.5355 64.6474 78.0864 65.2902 78.0864C65.5009 78.0864 65.6909 78.1404 65.7873 78.1916L65.7079 78.4664C65.62 78.4199 65.4868 78.3716 65.2902 78.3716C64.8421 78.3716 64.5954 78.7089 64.5964 79.1182C64.5964 79.5749 64.8894 79.8554 65.2807 79.8554C65.4811 79.8554 65.6172 79.8042 65.7183 79.7606L65.7788 80.0297H65.7798Z" fill="#0B1A2A"/>
<path d="M66.7019 77.5635V78.131H67.2151V78.4029H66.7019V79.4651C66.7019 79.7105 66.7728 79.8488 66.9722 79.8488C67.0649 79.8488 67.132 79.8374 67.1792 79.8232L67.1953 80.0952C67.1263 80.1226 67.0148 80.1444 66.8758 80.1444C66.7114 80.1444 66.5752 80.0904 66.4902 79.9928C66.3919 79.8839 66.3512 79.7105 66.3512 79.4793V78.4029H66.0469V78.131H66.3512V77.6563L66.7019 77.5635Z" fill="#0B1A2A"/>
<path d="M68.5234 77.208H68.8788V78.4378H68.8873C68.9469 78.3374 69.0357 78.2474 69.1444 78.1848C69.2484 78.1233 69.3751 78.0854 69.5102 78.0854C69.7749 78.0854 70.1955 78.2474 70.1955 78.9267V80.0997H69.8401V78.9656C69.8401 78.6472 69.7201 78.381 69.3855 78.381C69.152 78.381 68.9715 78.5449 68.9034 78.7382C68.8845 78.7884 68.8798 78.8424 68.8798 78.9087V80.0997H68.5244V77.207L68.5234 77.208Z" fill="#0B1A2A"/>
<path d="M72.5788 79.0964C72.5788 79.826 72.0741 80.1453 71.6015 80.1453C71.0684 80.1453 70.6562 79.7559 70.6562 79.1305C70.6562 78.4711 71.0882 78.0854 71.6326 78.0854C72.1771 78.0854 72.5788 78.4967 72.5788 79.0964ZM71.0202 79.1192C71.0202 79.5512 71.2669 79.8771 71.6156 79.8771C71.9644 79.8771 72.2149 79.5559 72.2149 79.1087C72.2149 78.7752 72.0476 78.3536 71.6223 78.3536C71.1969 78.3536 71.0202 78.7458 71.0202 79.1192Z" fill="#0B1A2A"/>
<path d="M73.0473 78.6625C73.0473 78.4569 73.0407 78.2939 73.0312 78.13H73.3422L73.3611 78.4474H73.3715C73.4812 78.2598 73.6645 78.0854 73.9916 78.0854C74.2581 78.0854 74.4613 78.2484 74.5455 78.4805H74.554C74.6173 78.3687 74.6948 78.2835 74.7761 78.2238C74.8952 78.1338 75.0228 78.0854 75.209 78.0854C75.4718 78.0854 75.8583 78.255 75.8583 78.9401V80.1007H75.5096V78.9865C75.5096 78.6047 75.3697 78.3792 75.0833 78.3792C74.8782 78.3792 74.7213 78.5289 74.6579 78.7013C74.6409 78.7534 74.6286 78.8169 74.6286 78.8813V80.1007H74.2799V78.9183C74.2799 78.6047 74.1419 78.3792 73.8715 78.3792C73.6485 78.3792 73.4859 78.5573 73.4263 78.7373C73.4084 78.7894 73.3989 78.852 73.3989 78.9136V80.1017H73.0501V78.6634L73.0473 78.6625Z" fill="#0B1A2A"/>
<path d="M76.6556 79.1798C76.6622 79.664 76.9694 79.8639 77.3286 79.8639C77.5847 79.8639 77.7407 79.8175 77.873 79.7635L77.9354 80.0183C77.8106 80.0752 77.5923 80.1444 77.2794 80.1444C76.6755 80.1444 76.3125 79.7407 76.3125 79.1495C76.3125 78.5583 76.6632 78.0864 77.2369 78.0864C77.8778 78.0864 78.046 78.6502 78.046 79.0131C78.046 79.0879 78.0413 79.1419 78.0337 79.1808H76.6556V79.1798ZM77.7019 78.9221C77.7057 78.6966 77.6093 78.3422 77.2086 78.3422C76.8437 78.3422 76.6887 78.6729 76.6594 78.9221H77.701H77.7019Z" fill="#0B1A2A"/>
<path d="M9 74.8003H85" stroke="#062323" stroke-width="0.7" stroke-miterlimit="10"/>
</g>
<defs>
<clipPath id="clip0_17423_6742">
<rect x="91" y="17" width="141" height="55" rx="6" fill="white"/>
</clipPath>
<clipPath id="clip1_17423_6742">
<rect width="76" height="73" fill="white" transform="translate(9 8)"/>
</clipPath>
</defs>
</svg>
