<svg width="108" height="102" viewBox="0 0 108 102" fill="none" xmlns="http://www.w3.org/2000/svg">
<rect width="108" height="102" rx="9" fill="white"/>
<path d="M57.8264 23.9043C59.0148 23.9043 60.161 24.0733 61.2651 24.4121C59.7528 19.4311 55.1122 16 49.887 16C43.3661 16 38 21.3427 38 27.8374C38 28.998 38.1716 30.1518 38.5089 31.2618C39.6552 35.025 42.6262 37.9846 46.4473 39.168C46.1109 38.0581 45.9394 36.9032 45.9394 35.7427C45.9394 29.249 51.3045 23.9053 57.8264 23.9043Z" fill="#1C62AF"/>
<path d="M61.309 24.4121C61.6473 25.524 61.8189 26.6798 61.8189 27.8413C61.8189 34.334 56.4557 39.6758 49.9357 39.6758C48.7684 39.6758 47.6087 39.504 46.4922 39.1681C48.0036 44.1491 52.6451 47.5811 57.8703 47.5811C64.3912 47.5811 69.7573 42.2374 69.7573 35.7427C69.7573 34.5831 69.5867 33.4283 69.2493 32.3183C68.1031 28.5552 65.1311 25.5956 61.31 24.4121" fill="#F26322"/>
<path d="M36.8374 60.7861C36.8374 61.6651 36.7041 62.4745 36.4377 63.2141C36.1722 63.9538 35.7764 64.5951 35.2503 65.1401C34.7241 65.6851 34.0695 66.1107 33.2846 66.4171C32.5006 66.7244 31.5968 66.8771 30.5733 66.8771C29.5497 66.8771 28.6258 66.7235 27.8409 66.4171C27.0569 66.1107 26.4014 65.6841 25.8762 65.1401C25.351 64.5961 24.9551 63.9547 24.6887 63.2141C24.4232 62.4745 24.2891 61.6651 24.2891 60.7861V51.6821H27.5677V60.6611C27.5677 61.1211 27.6415 61.5477 27.7891 61.9381C27.9367 62.3294 28.1428 62.6673 28.4083 62.9536C28.6747 63.2389 28.9938 63.4623 29.3647 63.6236C29.7356 63.7839 30.1391 63.8641 30.5733 63.8641C31.0074 63.8641 31.4071 63.7839 31.7713 63.6236C32.1364 63.4632 32.4517 63.2389 32.7172 62.9536C32.9836 62.6673 33.1907 62.3294 33.3373 61.9381C33.4849 61.5477 33.5577 61.1221 33.5577 60.6611V51.6821H36.8364V60.7861H36.8374Z" fill="black"/>
<path d="M46.4207 58.84H43.6462V62.2309C43.6462 62.5106 43.6605 62.7654 43.6883 62.9954C43.7171 63.2254 43.7803 63.4239 43.8771 63.5919C43.9759 63.7589 44.1263 63.8887 44.3295 63.9794C44.5317 64.0701 44.802 64.1149 45.1384 64.1149C45.3061 64.1149 45.5275 64.0977 45.8006 64.0634C46.0738 64.0281 46.2808 63.9479 46.4198 63.8219V66.4379C46.0699 66.5639 45.7048 66.6469 45.3272 66.6889C44.9496 66.7309 44.5777 66.7519 44.2135 66.7519C43.6816 66.7519 43.1909 66.6966 42.7424 66.5849C42.2939 66.4732 41.9019 66.2948 41.5655 66.0514C41.2291 65.8071 40.9665 65.4893 40.7777 65.0989C40.5889 64.7086 40.494 64.2342 40.494 63.6759V58.8409H38.4766V56.3289H40.494V53.3149H43.6462V56.3289H46.4207V58.8409V58.84Z" fill="black"/>
<path d="M48.0567 56.3282H51.2089V66.5002H48.0567V56.3282ZM47.8047 53.1262C47.8047 52.6242 47.9839 52.1956 48.3414 51.8396C48.6989 51.4836 49.1292 51.3052 49.6333 51.3052C50.1374 51.3052 50.5687 51.4836 50.9262 51.8396C51.2837 52.1956 51.4619 52.6242 51.4619 53.1262C51.4619 53.6282 51.2837 54.0577 50.9262 54.4137C50.5687 54.7696 50.1374 54.9472 49.6333 54.9472C49.1292 54.9472 48.6989 54.7696 48.3414 54.4137C47.9839 54.0577 47.8047 53.6282 47.8047 53.1262Z" fill="black"/>
<path d="M56.6756 50.6768H53.5234V66.4997H56.6756V50.6768Z" fill="black"/>
<path d="M58.9942 56.3282H62.1464V66.5002H58.9942V56.3282ZM58.7422 53.1262C58.7422 52.6242 58.9214 52.1956 59.2789 51.8396C59.6364 51.4836 60.0667 51.3052 60.5708 51.3052C61.0749 51.3052 61.5062 51.4836 61.8637 51.8396C62.2212 52.1956 62.3994 52.6242 62.3994 53.1262C62.3994 53.6282 62.2212 54.0577 61.8637 54.4137C61.5062 54.7696 61.0749 54.9472 60.5708 54.9472C60.0667 54.9472 59.6364 54.7696 59.2789 54.4137C58.9214 54.0577 58.7422 53.6282 58.7422 53.1262Z" fill="black"/>
<path d="M71.366 58.84H68.5915V62.2309C68.5915 62.5106 68.6058 62.7654 68.6336 62.9954C68.6624 63.2254 68.7256 63.4239 68.8224 63.5919C68.9212 63.7589 69.0716 63.8887 69.2748 63.9794C69.477 64.0701 69.7473 64.1149 70.0837 64.1149C70.2514 64.1149 70.4728 64.0977 70.746 64.0634C71.0191 64.0281 71.2261 63.9479 71.3651 63.8219V66.4379C71.0153 66.5639 70.6501 66.6469 70.2725 66.6889C69.8939 66.7309 69.523 66.7519 69.1588 66.7519C68.6269 66.7519 68.1362 66.6966 67.6877 66.5849C67.2392 66.4732 66.8472 66.2948 66.5108 66.0514C66.1744 65.8071 65.9118 65.4893 65.723 65.0989C65.5342 64.7086 65.4393 64.2342 65.4393 63.6759V58.8409H63.4219V56.3289H65.4393V53.3149H68.5915V56.3289H71.366V58.8409V58.84Z" fill="black"/>
<path d="M78.85 68.1541C78.6401 68.6981 78.4369 69.1801 78.2404 69.5981C78.0449 70.0171 77.7957 70.3692 77.4948 70.6556C77.1929 70.9409 76.8115 71.1576 76.3486 71.3046C75.8866 71.4515 75.2771 71.5241 74.5199 71.5241C73.7082 71.5241 72.9223 71.3981 72.1661 71.1471L72.5869 68.5731C73.0632 68.7821 73.5539 68.8871 74.058 68.8871C74.4088 68.8871 74.6963 68.8489 74.9196 68.7725C75.1439 68.6952 75.3298 68.5845 75.4774 68.4375C75.625 68.2906 75.7477 68.113 75.8445 67.9031C75.9432 67.6941 76.0476 67.4497 76.1598 67.1701L76.3907 66.5841L71.9141 56.3281H75.3192L77.9462 63.0461H77.9884L80.2368 56.3281H83.4733L78.849 68.1531L78.85 68.1541Z" fill="black"/>
<path d="M33.2871 74.1742C32.8663 73.6302 32.3344 73.2112 31.6894 72.9182C31.0454 72.6252 30.3793 72.4782 29.6931 72.4782C28.8525 72.4782 28.0925 72.6347 27.413 72.9487C26.7326 73.2627 26.1518 73.6922 25.6687 74.2362C25.1857 74.7802 24.81 75.4187 24.5436 76.1507C24.2781 76.8837 24.1439 77.6682 24.1439 78.5062C24.1439 79.2869 24.2704 80.0266 24.5225 80.7252C24.7746 81.4228 25.1397 82.0365 25.6151 82.5672C26.0914 83.0969 26.6731 83.5158 27.3594 83.8232C28.0465 84.1295 28.8238 84.2832 29.6921 84.2832C30.5604 84.2832 31.2974 84.1085 31.9405 83.7602C32.5855 83.4109 33.1318 82.9232 33.5803 82.2952L35.2824 83.5722C35.1703 83.7258 34.9748 83.9453 34.694 84.2307C34.4141 84.517 34.0423 84.8033 33.5803 85.0887C33.1184 85.375 32.5615 85.626 31.9098 85.8417C31.2581 86.0584 30.5048 86.1662 29.6499 86.1662C28.473 86.1662 27.4121 85.9429 26.4661 85.4962C25.5202 85.0496 24.7142 84.4636 24.0491 83.7382C23.383 83.0119 22.875 82.193 22.5252 81.2787C22.1754 80.3654 22 79.4406 22 78.5062C22 77.3619 22.1888 76.3054 22.5674 75.3347C22.9459 74.3651 23.474 73.5281 24.1545 72.8228C24.834 72.1184 25.6505 71.5706 26.6022 71.1802C27.5558 70.7889 28.6062 70.5942 29.7544 70.5942C30.7358 70.5942 31.699 70.7823 32.6449 71.1592C33.5909 71.5362 34.3652 72.1146 34.9671 72.8962L33.2861 74.1732L33.2871 74.1742Z" fill="black"/>
<path d="M37.2344 69.9678H39.1263V77.3978H39.1684C39.4071 76.8671 39.8201 76.4386 40.4086 76.1103C40.997 75.7829 41.6775 75.6188 42.4471 75.6188C42.9234 75.6188 43.3825 75.6913 43.8243 75.8383C44.2661 75.9853 44.6505 76.2114 44.9801 76.5188C45.3089 76.8251 45.5724 77.2193 45.7679 77.7013C45.9644 78.1823 46.0622 78.7511 46.0622 79.4077V85.7917H44.1703V79.9317C44.1703 79.4717 44.107 79.0766 43.9815 78.7492C43.855 78.4218 43.6873 78.1565 43.4774 77.9542C43.2675 77.7528 43.026 77.6058 42.7528 77.5142C42.4797 77.4235 42.195 77.3787 41.9008 77.3787C41.5088 77.3787 41.1446 77.4417 40.8082 77.5667C40.4718 77.6927 40.1776 77.8902 39.9256 78.1632C39.6735 78.4362 39.477 78.7807 39.3371 79.1997C39.1972 79.6187 39.1272 80.113 39.1272 80.6857V85.7927H37.2353V69.9697L37.2344 69.9678Z" fill="black"/>
<path d="M50.4549 80.8297C50.4549 81.3317 50.5326 81.7955 50.6859 82.2212C50.8402 82.6468 51.0578 83.0095 51.3376 83.3092C51.6184 83.6098 51.9615 83.8465 52.3679 84.0212C52.7752 84.1958 53.2295 84.2836 53.7336 84.2836C54.2377 84.2836 54.6939 84.1968 55.0993 84.0212C55.5066 83.8475 55.8488 83.6098 56.1296 83.3092C56.4104 83.0095 56.627 82.6468 56.7813 82.2212C56.9356 81.7955 57.0123 81.3317 57.0123 80.8297C57.0123 80.3277 56.9356 79.8638 56.7813 79.4372C56.627 79.0115 56.4104 78.6498 56.1296 78.3492C55.8498 78.0495 55.5066 77.8128 55.0993 77.6372C54.693 77.4635 54.2377 77.3757 53.7336 77.3757C53.2295 77.3757 52.7743 77.4626 52.3679 77.6372C51.9615 77.8119 51.6184 78.0495 51.3376 78.3492C51.0578 78.6498 50.8412 79.0125 50.6859 79.4372C50.5316 79.8629 50.4549 80.3267 50.4549 80.8297ZM48.4375 80.8297C48.4375 80.1034 48.5746 79.4277 48.8477 78.7997C49.1208 78.1717 49.4956 77.62 49.9719 77.1466C50.4482 76.6733 51.0089 76.2982 51.6529 76.0262C52.2979 75.7542 52.9908 75.6187 53.7336 75.6187C54.4764 75.6187 55.1702 75.7542 55.8143 76.0262C56.4593 76.2982 57.02 76.6714 57.4953 77.1466C57.9716 77.62 58.3473 78.1726 58.6205 78.7997C58.8936 79.4267 59.0297 80.1043 59.0297 80.8297C59.0297 81.555 58.8936 82.2355 58.6205 82.8702C58.3473 83.5058 57.9726 84.0565 57.4953 84.5232C57.02 84.9908 56.4583 85.3602 55.8143 85.6322C55.1702 85.9042 54.4764 86.0407 53.7336 86.0407C52.9908 86.0407 52.2979 85.9042 51.6529 85.6322C51.0089 85.3602 50.4482 84.9908 49.9719 84.5232C49.4965 84.0565 49.1208 83.5049 48.8477 82.8702C48.5746 82.2355 48.4375 81.555 48.4375 80.8297Z" fill="black"/>
<path d="M61.559 75.8697H63.4509V85.7907H61.559V75.8697ZM61.1172 72.3117C61.1172 71.9347 61.2542 71.6102 61.5274 71.3382C61.8005 71.0662 62.1264 70.9307 62.504 70.9307C62.8816 70.9307 63.2084 71.0662 63.4816 71.3382C63.7547 71.6102 63.8908 71.9347 63.8908 72.3117C63.8908 72.6887 63.7547 73.0122 63.4816 73.2842C63.2084 73.5562 62.8826 73.6927 62.504 73.6927C62.1254 73.6927 61.8005 73.5562 61.5274 73.2842C61.2542 73.0122 61.1172 72.6877 61.1172 72.3117Z" fill="black"/>
<path d="M73.5862 78.5066C73.2364 78.143 72.8684 77.8681 72.4831 77.6792C72.0969 77.4912 71.6388 77.3967 71.1059 77.3967C70.573 77.3967 70.136 77.4902 69.7507 77.6792C69.3645 77.8672 69.0425 78.1258 68.7837 78.4532C68.524 78.7815 68.3285 79.1585 68.1953 79.5832C68.062 80.0089 67.9949 80.4527 67.9949 80.9127C67.9949 81.3727 68.0726 81.8089 68.2259 82.2202C68.3802 82.6325 68.5978 82.9914 68.8776 83.2987C69.1584 83.605 69.4948 83.8465 69.8868 84.0202C70.2798 84.1949 70.7206 84.2827 71.2113 84.2827C71.7442 84.2827 72.1994 84.1882 72.577 84.0002C72.9547 83.8121 73.3064 83.5363 73.6275 83.1737L74.973 84.5136C74.4833 85.0576 73.9121 85.448 73.2604 85.6856C72.6087 85.9223 71.9186 86.0416 71.1893 86.0416C70.4187 86.0416 69.7143 85.9156 69.077 85.6646C68.4387 85.4136 67.8895 85.0615 67.4266 84.6072C66.9647 84.1538 66.6072 83.6098 66.3551 82.9742C66.1031 82.3395 65.9766 81.638 65.9766 80.8707C65.9766 80.1034 66.1031 79.398 66.3551 78.7567C66.6072 78.1144 66.9608 77.5637 67.417 77.1037C67.8723 76.6437 68.4186 76.2838 69.0569 76.0252C69.6942 75.7675 70.4053 75.6387 71.1893 75.6387C71.9186 75.6387 72.6154 75.7675 73.2805 76.0252C73.9456 76.2838 74.5236 76.6771 75.0143 77.2077L73.5853 78.5057L73.5862 78.5066Z" fill="black"/>
<path d="M78.0106 81.5201C78.0106 81.9525 78.1055 82.3466 78.2943 82.7026C78.4831 83.0586 78.7322 83.3621 79.0399 83.6131C79.3485 83.8641 79.706 84.0598 80.1114 84.1991C80.5187 84.3385 80.9385 84.4081 81.3726 84.4081C81.9611 84.4081 82.4729 84.2717 82.907 83.9996C83.3421 83.7276 83.7408 83.3688 84.105 82.9221L85.534 84.0101C84.4836 85.3635 83.0115 86.0402 81.1206 86.0402C80.3366 86.0402 79.6245 85.9075 78.9881 85.6422C78.3498 85.3768 77.8112 85.0113 77.3694 84.5427C76.9276 84.076 76.5883 83.5244 76.3497 82.8897C76.112 82.255 75.9922 81.5678 75.9922 80.8282C75.9922 80.0885 76.1216 79.4014 76.3813 78.7657C76.6401 78.1311 76.9975 77.5804 77.4528 77.1127C77.908 76.646 78.4505 76.2786 79.0811 76.0142C79.7117 75.7489 80.3989 75.6162 81.1407 75.6162C82.0234 75.6162 82.77 75.7699 83.3795 76.0762C83.9891 76.3826 84.4903 76.7844 84.8823 77.2797C85.2752 77.7751 85.558 78.3334 85.7343 78.9537C85.9087 79.5751 85.9969 80.2059 85.9969 80.8482V81.5182H78.0106V81.5201ZM83.9795 80.0131C83.9661 79.5941 83.899 79.2105 83.7801 78.8621C83.6603 78.5128 83.4821 78.2103 83.2434 77.9516C83.0057 77.6939 82.7077 77.4916 82.3502 77.3446C81.9927 77.1976 81.5758 77.1251 81.0995 77.1251C80.6232 77.1251 80.213 77.212 79.8287 77.3866C79.4424 77.5613 79.1175 77.7875 78.8511 78.0671C78.5856 78.3458 78.3786 78.6569 78.232 78.9976C78.0844 79.3403 78.0106 79.6781 78.0106 80.0131H83.9795Z" fill="black"/>
</svg>
