<svg width="24" height="24" viewBox="0 0 24 24" fill="none" xmlns="http://www.w3.org/2000/svg">
<path d="M12.4987 5.48027C12.5787 5.48027 12.6587 5.48027 12.7487 5.49027V2.53027C12.7487 2.12027 12.4087 1.78027 11.9987 1.78027C11.5887 1.78027 11.2487 2.12027 11.2487 2.53027V5.49027C11.3287 5.48027 11.4087 5.48027 11.4987 5.48027C6.88875 5.71027 3.21875 9.51027 3.21875 14.1803V16.1203C3.21875 17.2203 4.11875 18.1203 5.21875 18.1203H18.7788C19.8787 18.1203 20.7788 17.2203 20.7788 16.1203V14.1803C20.7788 9.51027 17.1087 5.71027 12.4987 5.48027Z" fill="white"/>
<path d="M14.7311 19.1104C15.0611 19.1104 15.3011 19.4204 15.2211 19.7404C14.8411 21.1704 13.5411 22.2204 12.0011 22.2204C10.4611 22.2204 9.16111 21.1704 8.78111 19.7404C8.70111 19.4204 8.94111 19.1104 9.27111 19.1104H14.7311Z" fill="white"/>
</svg>
