<svg width="49" height="49" viewBox="0 0 49 49" fill="none" xmlns="http://www.w3.org/2000/svg">
<path d="M24.5008 28.0524C22.9083 28.0524 21.3975 27.4399 20.2338 26.2966C18.7433 24.8062 18.1513 22.6624 18.6413 20.5595C19.1517 18.4158 20.8667 16.7007 23.0104 16.1903C25.0929 15.6799 27.2367 16.272 28.7475 17.7829C30.2583 19.2937 30.83 21.417 30.34 23.5199C29.8296 25.6637 28.1146 27.3786 25.9708 27.889C25.4808 27.9911 24.9908 28.0524 24.5008 28.0524ZM24.5008 19.0691C24.2558 19.0691 23.9904 19.1099 23.7454 19.1712C22.7246 19.4162 21.8875 20.2532 21.6425 21.274C21.3771 22.3357 21.6629 23.377 22.4183 24.112C23.1737 24.8674 24.1946 25.1328 25.2767 24.8878C26.2975 24.6428 27.1346 23.8057 27.3796 22.7849C27.645 21.7232 27.3592 20.682 26.6038 19.947C26.0321 19.3754 25.2971 19.0691 24.5008 19.0691Z" fill="#292D32"/>
<path d="M12.2918 36.6886C11.9243 36.6886 11.5363 36.5458 11.2505 36.2804C7.28966 32.6054 5.02344 27.4195 5.02344 22.0295C5.02344 11.2903 13.7618 2.552 24.5009 2.552C35.2401 2.552 43.9784 11.2903 43.9784 22.0295C43.9784 27.4603 41.7938 32.4828 37.833 36.2191C37.2205 36.7907 36.2405 36.7704 35.6688 36.1579C35.0972 35.5454 35.1176 34.5654 35.7301 33.9937C39.0784 30.8496 40.9159 26.6232 40.9159 22.0499C40.9159 13.0053 33.5455 5.63494 24.5009 5.63494C15.4563 5.63494 8.08594 13.0053 8.08594 22.0499C8.08594 26.6641 9.94384 30.9107 13.333 34.0549C13.9455 34.6266 13.9864 35.6066 13.4147 36.2191C13.1084 36.5253 12.7001 36.6886 12.2918 36.6886Z" fill="#292D32"/>
<path d="M32.6675 31.2375C32.3 31.2375 31.9121 31.0946 31.6263 30.8292C31.0138 30.2575 30.9729 29.2775 31.565 28.665C33.2596 26.8684 34.1987 24.5 34.1987 22.05C34.1987 16.7009 29.85 12.3726 24.5212 12.3726C19.1925 12.3726 14.8438 16.7213 14.8438 22.05C14.8438 24.5205 15.7829 26.8684 17.4775 28.665C18.0492 29.2775 18.0287 30.2575 17.4162 30.8292C16.8037 31.4008 15.8237 31.3805 15.2521 30.768C13.0267 28.3997 11.7812 25.2963 11.7812 22.05C11.7812 15.0267 17.4979 9.31006 24.5212 9.31006C31.5446 9.31006 37.2612 15.0267 37.2612 22.05C37.2612 25.2963 36.0362 28.3997 33.7904 30.768C33.4842 31.0742 33.0758 31.2375 32.6675 31.2375Z" fill="#292D32"/>
<path d="M27.4415 46.4479H21.5819C19.2544 46.4479 17.1923 45.1413 16.1919 43.0588C15.1915 40.9763 15.4569 38.5466 16.9065 36.7295L19.8465 33.075C20.9898 31.6458 22.6844 30.8291 24.5219 30.8291C26.3594 30.8291 28.054 31.6458 29.1973 33.075L32.1373 36.7295C33.5869 38.5466 33.8727 40.9763 32.8519 43.0588C31.8106 45.1413 29.7486 46.4479 27.4415 46.4479ZM22.2148 34.9737L19.2748 38.6283C18.5602 39.5266 18.4173 40.6904 18.9277 41.7112C19.4177 42.7525 20.4181 43.365 21.5615 43.365H27.421C28.5644 43.365 29.5648 42.7525 30.0548 41.7112C30.5448 40.67 30.4223 39.5266 29.7077 38.6283L26.7677 34.9737C25.6652 33.5854 23.3377 33.5854 22.2148 34.9737Z" fill="#292D32"/>
</svg>
