<svg width="38" height="38" viewBox="0 0 38 38" fill="none" xmlns="http://www.w3.org/2000/svg">
<path d="M25.6355 3.1665H12.3671C6.6038 3.1665 3.16797 6.60234 3.16797 12.3657V25.6182C3.16797 31.3973 6.6038 34.8332 12.3671 34.8332H25.6196C31.383 34.8332 34.8188 31.3973 34.8188 25.634V12.3657C34.8346 6.60234 31.3988 3.1665 25.6355 3.1665ZM15.6921 25.634C15.6921 26.6473 14.8688 27.4707 13.8396 27.4707C12.8263 27.4707 12.003 26.6473 12.003 25.634V20.4723C12.003 19.459 12.8263 18.6357 13.8396 18.6357C14.8688 18.6357 15.6921 19.459 15.6921 20.4723V25.634ZM25.9996 25.634C25.9996 26.6473 25.1763 27.4707 24.163 27.4707C23.1338 27.4707 22.3105 26.6473 22.3105 25.634V12.3657C22.3105 11.3523 23.1338 10.529 24.163 10.529C25.1763 10.529 25.9996 11.3523 25.9996 12.3657V25.634Z" fill="white"/>
</svg>
