<svg width="19" height="19" viewBox="0 0 19 19" fill="none" xmlns="http://www.w3.org/2000/svg">
<path d="M9.41094 18.8219C14.6085 18.8219 18.8219 14.6085 18.8219 9.41094C18.8219 4.21342 14.6085 0 9.41094 0C4.21342 0 0 4.21342 0 9.41094C0 14.6085 4.21342 18.8219 9.41094 18.8219Z" fill="#32BA7C"/>
<path d="M7.00781 13.6562L11.8469 18.4953C15.8547 17.4266 18.8234 13.775 18.8234 9.41094C18.8234 9.32188 18.8234 9.23281 18.8234 9.14375L15.0234 5.64062L7.00781 13.6562Z" fill="#0AA06E"/>
<path d="M9.64687 11.5185C10.0625 11.9341 10.0625 12.6466 9.64687 13.0622L8.78594 13.9231C8.37031 14.3388 7.65781 14.3388 7.24219 13.9231L3.47187 10.1231C3.05625 9.70752 3.05625 8.99502 3.47187 8.57939L4.33281 7.71846C4.74844 7.30283 5.46094 7.30283 5.87656 7.71846L9.64687 11.5185Z" fill="white"/>
<path d="M12.9406 4.95771C13.3563 4.54209 14.0687 4.54209 14.4844 4.95771L15.3453 5.81865C15.7609 6.23428 15.7609 6.94678 15.3453 7.3624L8.81406 13.864C8.39844 14.2796 7.68594 14.2796 7.27031 13.864L6.40937 13.003C5.99375 12.5874 5.99375 11.8749 6.40937 11.4593L12.9406 4.95771Z" fill="white"/>
</svg>
