<svg width="180" height="50" viewBox="0 0 180 50" fill="none" xmlns="http://www.w3.org/2000/svg">
<g opacity="0.6">
<path d="M32.3366 9.03164L26.2423 20.663H36.405L46.9525 0H10.4576L5.99609 9.0281H32.3366" fill="white"/>
<path d="M32.2974 9.06875L26.2031 20.7001H36.3658L46.9145 0.0371094" fill="#D6D6D6"/>
<path d="M14.6159 33.5805L26.7537 12.9683H16.5911L0 41.2733H33.0204V33.5805H14.6194" fill="#D6D6D6"/>
<path d="M0.0585938 41.2695H33.079V33.5767H14.678" fill="white"/>
<path d="M33.2384 39.6431L32.8477 40.0126L33.2384 40.4175V39.6431Z" fill="#0072FE"/>
<path d="M33.2362 37.0449H29.9766L32.8454 40.0118L33.2362 39.6423V37.0449Z" fill="white"/>
<path d="M33.2406 39.6399V37.0449H33.2383V39.6423L33.2406 39.6399Z" fill="#0072FE"/>
<path d="M47.8766 28.1284C46.938 26.6834 45.6098 25.5783 43.8921 24.8121C42.1743 24.0482 40.1306 23.6646 37.7576 23.6646H25.8984V49.6107H33.2383V42.7184H29.9774L32.8439 40.0124L29.9751 37.0455H33.2359V29.446H29.9751L33.2359 26.0742V29.446H37.3149C38.845 29.446 39.989 29.7801 40.7422 30.4483C41.4954 31.1165 41.8709 32.0787 41.8709 33.2664C41.8709 34.2369 41.6147 35.0291 41.1117 35.6524L41.8732 35.5568L40.6206 42.5023C41.8154 42.3181 42.9086 42.0147 43.8897 41.585C45.6075 40.8317 46.9357 39.7456 47.8742 38.3241C48.8128 36.9039 49.2815 35.2416 49.2815 33.2641C49.2815 31.2865 48.8128 29.5747 47.8742 28.1296L47.8766 28.1284Z" fill="white"/>
<path d="M33.2378 39.642V40.4165L32.847 40.0115L29.9805 42.7163H33.2401V39.6396L33.2378 39.642Z" fill="white"/>
<path d="M29.9766 29.4451H33.2362V26.0732L29.9766 29.4451Z" fill="white"/>
<path d="M42.7682 49.7525L38.2855 40.7586C36.8274 38.1684 41.4873 37.2877 41.8745 32.6963L50.5614 49.7525H42.7682Z" fill="#D6D6D6"/>
<path d="M62.5312 31.1763V25.5484L77.669 7.92665L78.7953 11.1096H62.9197V4.00586H86.8683V9.63381L71.7305 27.2555L70.6054 24.0726H87.4905V31.1752H62.5324L62.5312 31.1763Z" fill="white"/>
<path d="M96.8426 31.1756H90.5547V4.00391H111.088V9.04982H96.8426V31.1744V31.1756ZM96.3774 16.2314H109.42V21.2774H96.3774V16.2314Z" fill="white"/>
<path d="M124.322 31.4875C122.096 31.4875 120.123 31.0211 118.402 30.0896C116.681 29.1581 115.322 27.8842 114.327 26.2668C113.33 24.6494 112.832 22.8065 112.832 20.7357C112.832 18.6649 113.33 16.783 114.327 15.1656C115.322 13.5481 116.681 12.2802 118.402 11.3617C120.122 10.4431 122.095 9.98389 124.322 9.98389C126.548 9.98389 128.488 10.4431 130.221 11.3617C131.954 12.2802 133.313 13.5422 134.297 15.1455C135.28 16.7499 135.771 18.6129 135.771 20.7345C135.771 22.856 135.279 24.6482 134.297 26.2656C133.313 27.8831 131.954 29.1569 130.221 30.0884C128.487 31.0199 126.52 31.4863 124.322 31.4863V31.4875ZM124.322 26.5183C125.331 26.5183 126.237 26.2857 127.038 25.8194C127.84 25.353 128.475 24.6872 128.94 23.8206C129.407 22.954 129.639 21.9257 129.639 20.7345C129.639 19.5433 129.407 18.4831 128.94 17.6295C128.474 16.7759 127.84 16.116 127.038 15.6496C126.235 15.1833 125.33 14.9507 124.322 14.9507C123.313 14.9507 122.407 15.1833 121.605 15.6496C120.802 16.116 120.162 16.7747 119.684 17.6295C119.205 18.4831 118.966 19.5185 118.966 20.7345C118.966 21.9505 119.205 22.954 119.684 23.8206C120.162 24.6883 120.803 25.3542 121.605 25.8194C122.407 26.2857 123.313 26.5183 124.322 26.5183Z" fill="white"/>
<path d="M148.618 31.4872C146.884 31.4872 145.338 31.1507 143.979 30.4778C142.62 29.8048 141.566 28.7765 140.817 27.3917C140.066 26.008 139.691 24.2418 139.691 22.0931V10.293H145.747V21.1994C145.747 22.9337 146.115 24.2076 146.853 25.0222C147.591 25.8368 148.632 26.2453 149.978 26.2453C150.91 26.2453 151.737 26.0446 152.462 25.6432C153.186 25.243 153.756 24.6208 154.17 23.7802C154.584 22.9396 154.791 21.8853 154.791 20.6174V10.293H160.847V31.1755H155.102V25.4307L156.15 27.1001C155.451 28.5499 154.423 29.6419 153.064 30.3798C151.705 31.1177 150.224 31.486 148.62 31.486L148.618 31.4872Z" fill="white"/>
<path d="M166.473 31.1767V10.2941H172.256V16.1936L171.442 14.4853C172.063 13.0107 173.059 11.8915 174.431 11.1276C175.803 10.3649 177.471 9.98242 179.438 9.98242V15.5714C179.18 15.5454 178.946 15.5265 178.739 15.5136C178.531 15.5006 178.312 15.4947 178.079 15.4947C176.423 15.4947 175.084 15.9669 174.062 16.9114C173.039 17.8559 172.528 19.3246 172.528 21.3162V31.1755H166.473V31.1767Z" fill="white"/>
<path d="M63.6055 46.96V39.5793H66.5137C67.1671 39.5793 67.7246 39.6813 68.1863 39.8851C68.6479 40.089 69.003 40.3842 69.2516 40.7708C69.5001 41.1574 69.6244 41.6178 69.6244 42.152C69.6244 42.6862 69.5001 43.1466 69.2516 43.5333C69.003 43.9128 68.6479 44.2081 68.1863 44.4189C67.7246 44.6228 67.1671 44.7247 66.5137 44.7247H64.1914L64.6708 44.2291V46.96H63.6055ZM64.6708 44.3346L64.1914 43.8074H66.4818C67.1636 43.8074 67.6785 43.6633 68.0265 43.3751C68.3816 43.0869 68.5591 42.6792 68.5591 42.152C68.5591 41.6248 68.3816 41.2171 68.0265 40.9289C67.6785 40.6407 67.1636 40.4966 66.4818 40.4966H64.1914L64.6708 39.9695V44.3346Z" fill="white"/>
<path d="M73.4378 47.0232C72.8696 47.0232 72.3654 46.9002 71.9251 46.6542C71.4847 46.4082 71.1367 46.0708 70.8811 45.642C70.6254 45.2062 70.4976 44.7142 70.4976 44.1659C70.4976 43.6106 70.6254 43.1185 70.8811 42.6898C71.1367 42.261 71.4847 41.9271 71.9251 41.6881C72.3654 41.4421 72.8696 41.3191 73.4378 41.3191C73.9989 41.3191 74.4995 41.4421 74.9399 41.6881C75.3873 41.9271 75.7353 42.261 75.9839 42.6898C76.2395 43.1115 76.3674 43.6035 76.3674 44.1659C76.3674 44.7212 76.2395 45.2132 75.9839 45.642C75.7353 46.0708 75.3873 46.4082 74.9399 46.6542C74.4995 46.9002 73.9989 47.0232 73.4378 47.0232ZM73.4378 46.1376C73.8 46.1376 74.1231 46.0567 74.4072 45.8951C74.6984 45.7334 74.9257 45.5049 75.089 45.2097C75.2524 44.9075 75.334 44.5595 75.334 44.1659C75.334 43.7652 75.2524 43.4208 75.089 43.1326C74.9257 42.8374 74.6984 42.6089 74.4072 42.4472C74.1231 42.2856 73.8 42.2047 73.4378 42.2047C73.0756 42.2047 72.7525 42.2856 72.4684 42.4472C72.1843 42.6089 71.957 42.8374 71.7866 43.1326C71.6161 43.4208 71.5309 43.7652 71.5309 44.1659C71.5309 44.5595 71.6161 44.9075 71.7866 45.2097C71.957 45.5049 72.1843 45.7334 72.4684 45.8951C72.7525 46.0567 73.0756 46.1376 73.4378 46.1376Z" fill="white"/>
<path d="M78.8188 46.96L76.7202 41.3718H77.6896L79.5539 46.4328H79.0958L81.0347 41.3718H81.8975L83.7938 46.4328H83.3464L85.2533 41.3718H86.1694L84.0601 46.96H83.08L81.301 42.3418H81.5993L79.7989 46.96H78.8188Z" fill="white"/>
<path d="M89.5652 47.0232C88.9616 47.0232 88.4289 46.9002 87.9673 46.6542C87.5127 46.4082 87.1576 46.0708 86.902 45.642C86.6534 45.2132 86.5291 44.7212 86.5291 44.1659C86.5291 43.6106 86.6499 43.1185 86.8913 42.6898C87.1399 42.261 87.4772 41.9271 87.9034 41.6881C88.3366 41.4421 88.8231 41.3191 89.3628 41.3191C89.9097 41.3191 90.3926 41.4386 90.8116 41.6776C91.2307 41.9165 91.5573 42.2539 91.7917 42.6898C92.0332 43.1185 92.1539 43.6211 92.1539 44.1975C92.1539 44.2397 92.1504 44.2889 92.1433 44.3451C92.1433 44.4014 92.1397 44.4541 92.1326 44.5033H87.3281V43.7758H91.6L91.1845 44.0288C91.1916 43.6703 91.117 43.3505 90.9608 43.0693C90.8045 42.7882 90.5879 42.5703 90.3109 42.4156C90.0411 42.2539 89.725 42.1731 89.3628 42.1731C89.0077 42.1731 88.6917 42.2539 88.4147 42.4156C88.1377 42.5703 87.9211 42.7917 87.7649 43.0799C87.6086 43.361 87.5305 43.6844 87.5305 44.0499V44.2186C87.5305 44.5911 87.6157 44.925 87.7862 45.2203C87.9637 45.5085 88.2087 45.7334 88.5212 45.8951C88.8337 46.0567 89.1924 46.1376 89.5972 46.1376C89.931 46.1376 90.2328 46.0813 90.5027 45.9689C90.7797 45.8564 91.0211 45.6877 91.2271 45.4628L91.7917 46.1165C91.536 46.4117 91.2164 46.6366 90.8329 46.7913C90.4565 46.9459 90.034 47.0232 89.5652 47.0232Z" fill="white"/>
<path d="M93.574 46.96V41.3718H94.5541V42.8901L94.4582 42.5105C94.6145 42.1239 94.8772 41.8287 95.2465 41.6248C95.6158 41.421 96.0704 41.3191 96.6101 41.3191V42.2996C96.5675 42.2926 96.5249 42.2891 96.4823 42.2891C96.4468 42.2891 96.4113 42.2891 96.3758 42.2891C95.8289 42.2891 95.3957 42.4508 95.0761 42.7741C94.7565 43.0974 94.5967 43.5649 94.5967 44.1764V46.96H93.574Z" fill="white"/>
<path d="M98.3445 49.0687C98.0746 49.0687 97.8118 49.023 97.5562 48.9317C97.3005 48.8473 97.0803 48.7208 96.8957 48.5521L97.3325 47.7929C97.4745 47.9265 97.6307 48.0284 97.8012 48.0987C97.9716 48.169 98.1527 48.2041 98.3445 48.2041C98.5931 48.2041 98.799 48.1409 98.9624 48.0143C99.1257 47.8878 99.2784 47.6629 99.4204 47.3396L99.772 46.5699L99.8785 46.4433L102.094 41.3718H103.096L100.358 47.5188C100.195 47.9124 100.01 48.2217 99.804 48.4466C99.6051 48.6716 99.3849 48.8297 99.1435 48.9211C98.902 49.0195 98.6357 49.0687 98.3445 49.0687ZM99.6868 47.1392L97.1087 41.3718H98.174L100.369 46.3484L99.6868 47.1392Z" fill="white"/>
<path d="M106.312 47.0232C105.744 47.0232 105.24 46.9002 104.8 46.6542C104.359 46.4082 104.011 46.0708 103.756 45.642C103.5 45.2062 103.372 44.7142 103.372 44.1659C103.372 43.6106 103.5 43.1185 103.756 42.6898C104.011 42.261 104.359 41.9271 104.8 41.6881C105.24 41.4421 105.744 41.3191 106.312 41.3191C106.873 41.3191 107.374 41.4421 107.814 41.6881C108.262 41.9271 108.61 42.261 108.858 42.6898C109.114 43.1115 109.242 43.6035 109.242 44.1659C109.242 44.7212 109.114 45.2132 108.858 45.642C108.61 46.0708 108.262 46.4082 107.814 46.6542C107.374 46.9002 106.873 47.0232 106.312 47.0232ZM106.312 46.1376C106.675 46.1376 106.998 46.0567 107.282 45.8951C107.573 45.7334 107.8 45.5049 107.964 45.2097C108.127 44.9075 108.209 44.5595 108.209 44.1659C108.209 43.7652 108.127 43.4208 107.964 43.1326C107.8 42.8374 107.573 42.6089 107.282 42.4472C106.998 42.2856 106.675 42.2047 106.312 42.2047C105.95 42.2047 105.627 42.2856 105.343 42.4472C105.059 42.6089 104.832 42.8374 104.661 43.1326C104.491 43.4208 104.405 43.7652 104.405 44.1659C104.405 44.5595 104.491 44.9075 104.661 45.2097C104.832 45.5049 105.059 45.7334 105.343 45.8951C105.627 46.0567 105.95 46.1376 106.312 46.1376Z" fill="white"/>
<path d="M113.032 47.0232C112.549 47.0232 112.123 46.9354 111.754 46.7596C111.391 46.5839 111.107 46.3168 110.901 45.9583C110.702 45.5928 110.603 45.1359 110.603 44.5876V41.3718H111.626V44.4716C111.626 45.0199 111.757 45.4311 112.02 45.7053C112.29 45.9794 112.666 46.1165 113.149 46.1165C113.504 46.1165 113.813 46.0462 114.076 45.9056C114.339 45.758 114.541 45.5471 114.683 45.273C114.825 44.9918 114.896 44.6544 114.896 44.2608V41.3718H115.919V46.96H114.949V45.4522L115.109 45.8529C114.925 46.2254 114.648 46.5136 114.278 46.7175C113.909 46.9213 113.494 47.0232 113.032 47.0232Z" fill="white"/>
<path d="M117.866 46.96V41.3718H118.846V42.8901L118.75 42.5105C118.906 42.1239 119.169 41.8287 119.538 41.6248C119.908 41.421 120.362 41.3191 120.902 41.3191V42.2996C120.859 42.2926 120.817 42.2891 120.774 42.2891C120.739 42.2891 120.703 42.2891 120.668 42.2891C120.121 42.2891 119.687 42.4508 119.368 42.7741C119.048 43.0974 118.889 43.5649 118.889 44.1764V46.96H117.866Z" fill="white"/>
<path d="M126.96 46.96L124.468 39.5793H125.565L127.855 46.3906H127.301L129.677 39.5793H130.657L132.979 46.3906H132.447L134.769 39.5793H135.781L133.288 46.96H132.17L129.997 40.6443H130.284L128.1 46.96H126.96Z" fill="white"/>
<path d="M138.927 47.0232C138.359 47.0232 137.854 46.9002 137.414 46.6542C136.974 46.4082 136.626 46.0708 136.37 45.642C136.114 45.2062 135.987 44.7142 135.987 44.1659C135.987 43.6106 136.114 43.1185 136.37 42.6898C136.626 42.261 136.974 41.9271 137.414 41.6881C137.854 41.4421 138.359 41.3191 138.927 41.3191C139.488 41.3191 139.989 41.4421 140.429 41.6881C140.876 41.9271 141.224 42.261 141.473 42.6898C141.729 43.1115 141.856 43.6035 141.856 44.1659C141.856 44.7212 141.729 45.2132 141.473 45.642C141.224 46.0708 140.876 46.4082 140.429 46.6542C139.989 46.9002 139.488 47.0232 138.927 47.0232ZM138.927 46.1376C139.289 46.1376 139.612 46.0567 139.896 45.8951C140.187 45.7334 140.415 45.5049 140.578 45.2097C140.741 44.9075 140.823 44.5595 140.823 44.1659C140.823 43.7652 140.741 43.4208 140.578 43.1326C140.415 42.8374 140.187 42.6089 139.896 42.4472C139.612 42.2856 139.289 42.2047 138.927 42.2047C138.565 42.2047 138.242 42.2856 137.957 42.4472C137.673 42.6089 137.446 42.8374 137.276 43.1326C137.105 43.4208 137.02 43.7652 137.02 44.1659C137.02 44.5595 137.105 44.9075 137.276 45.2097C137.446 45.5049 137.673 45.7334 137.957 45.8951C138.242 46.0567 138.565 46.1376 138.927 46.1376Z" fill="white"/>
<path d="M143.271 46.96V41.3718H144.251V42.8901L144.155 42.5105C144.311 42.1239 144.574 41.8287 144.943 41.6248C145.313 41.421 145.767 41.3191 146.307 41.3191V42.2996C146.264 42.2926 146.222 42.2891 146.179 42.2891C146.144 42.2891 146.108 42.2891 146.073 42.2891C145.526 42.2891 145.092 42.4508 144.773 42.7741C144.453 43.0974 144.293 43.5649 144.293 44.1764V46.96H143.271Z" fill="white"/>
<path d="M148.398 45.6104L148.42 44.3135L151.669 41.3718H152.905L150.412 43.7968L149.858 44.2608L148.398 45.6104ZM147.567 46.96V39.1365H148.59V46.96H147.567ZM151.882 46.96L149.666 44.2397L150.327 43.4278L153.139 46.96H151.882Z" fill="white"/>
<path d="M154.281 46.96V40.8762C154.281 40.3279 154.441 39.8921 154.76 39.5688C155.087 39.2384 155.549 39.0732 156.145 39.0732C156.365 39.0732 156.575 39.1014 156.774 39.1576C156.98 39.2068 157.154 39.2876 157.296 39.4001L156.987 40.1698C156.88 40.0854 156.76 40.0222 156.625 39.98C156.49 39.9308 156.348 39.9062 156.199 39.9062C155.9 39.9062 155.673 39.9905 155.517 40.1592C155.361 40.3209 155.282 40.5634 155.282 40.8868V41.6354L155.304 42.0993V46.96H154.281ZM153.322 42.2047V41.3718H156.923V42.2047H153.322Z" fill="white"/>
<path d="M160.223 47.0232C159.654 47.0232 159.15 46.9002 158.71 46.6542C158.269 46.4082 157.921 46.0708 157.666 45.642C157.41 45.2062 157.282 44.7142 157.282 44.1659C157.282 43.6106 157.41 43.1185 157.666 42.6898C157.921 42.261 158.269 41.9271 158.71 41.6881C159.15 41.4421 159.654 41.3191 160.223 41.3191C160.784 41.3191 161.284 41.4421 161.725 41.6881C162.172 41.9271 162.52 42.261 162.769 42.6898C163.024 43.1115 163.152 43.6035 163.152 44.1659C163.152 44.7212 163.024 45.2132 162.769 45.642C162.52 46.0708 162.172 46.4082 161.725 46.6542C161.284 46.9002 160.784 47.0232 160.223 47.0232ZM160.223 46.1376C160.585 46.1376 160.908 46.0567 161.192 45.8951C161.483 45.7334 161.71 45.5049 161.874 45.2097C162.037 44.9075 162.119 44.5595 162.119 44.1659C162.119 43.7652 162.037 43.4208 161.874 43.1326C161.71 42.8374 161.483 42.6089 161.192 42.4472C160.908 42.2856 160.585 42.2047 160.223 42.2047C159.86 42.2047 159.537 42.2856 159.253 42.4472C158.969 42.6089 158.742 42.8374 158.571 43.1326C158.401 43.4208 158.316 43.7652 158.316 44.1659C158.316 44.5595 158.401 44.9075 158.571 45.2097C158.742 45.5049 158.969 45.7334 159.253 45.8951C159.537 46.0567 159.86 46.1376 160.223 46.1376Z" fill="white"/>
<path d="M164.566 46.96V41.3718H165.547V42.8901L165.451 42.5105C165.607 42.1239 165.87 41.8287 166.239 41.6248C166.608 41.421 167.063 41.3191 167.603 41.3191V42.2996C167.56 42.2926 167.517 42.2891 167.475 42.2891C167.439 42.2891 167.404 42.2891 167.368 42.2891C166.821 42.2891 166.388 42.4508 166.069 42.7741C165.749 43.0974 165.589 43.5649 165.589 44.1764V46.96H164.566Z" fill="white"/>
<path d="M171.272 47.0232C170.697 47.0232 170.182 46.9002 169.727 46.6542C169.28 46.4082 168.928 46.0708 168.673 45.642C168.417 45.2132 168.289 44.7212 168.289 44.1659C168.289 43.6106 168.417 43.1185 168.673 42.6898C168.928 42.261 169.28 41.9271 169.727 41.6881C170.182 41.4421 170.697 41.3191 171.272 41.3191C171.783 41.3191 172.238 41.421 172.635 41.6248C173.04 41.8216 173.353 42.1169 173.573 42.5105L172.795 43.0061C172.611 42.7319 172.383 42.5316 172.113 42.4051C171.851 42.2715 171.567 42.2047 171.261 42.2047C170.892 42.2047 170.562 42.2856 170.27 42.4472C169.979 42.6089 169.748 42.8374 169.578 43.1326C169.408 43.4208 169.322 43.7652 169.322 44.1659C169.322 44.5665 169.408 44.9145 169.578 45.2097C169.748 45.5049 169.979 45.7334 170.27 45.8951C170.562 46.0567 170.892 46.1376 171.261 46.1376C171.567 46.1376 171.851 46.0743 172.113 45.9478C172.383 45.8142 172.611 45.6104 172.795 45.3362L173.573 45.8212C173.353 46.2079 173.04 46.5066 172.635 46.7175C172.238 46.9213 171.783 47.0232 171.272 47.0232Z" fill="white"/>
<path d="M177.328 47.0232C176.724 47.0232 176.192 46.9002 175.73 46.6542C175.275 46.4082 174.92 46.0708 174.665 45.642C174.416 45.2132 174.292 44.7212 174.292 44.1659C174.292 43.6106 174.412 43.1185 174.654 42.6898C174.903 42.261 175.24 41.9271 175.666 41.6881C176.099 41.4421 176.586 41.3191 177.125 41.3191C177.672 41.3191 178.155 41.4386 178.574 41.6776C178.993 41.9165 179.32 42.2539 179.554 42.6898C179.796 43.1185 179.917 43.6211 179.917 44.1975C179.917 44.2397 179.913 44.2889 179.906 44.3451C179.906 44.4014 179.902 44.4541 179.895 44.5033H175.091V43.7758H179.363L178.947 44.0288C178.954 43.6703 178.88 43.3505 178.723 43.0693C178.567 42.7882 178.351 42.5703 178.074 42.4156C177.804 42.2539 177.488 42.1731 177.125 42.1731C176.77 42.1731 176.454 42.2539 176.177 42.4156C175.9 42.5703 175.684 42.7917 175.528 43.0799C175.371 43.361 175.293 43.6844 175.293 44.0499V44.2186C175.293 44.5911 175.378 44.925 175.549 45.2203C175.726 45.5085 175.971 45.7334 176.284 45.8951C176.596 46.0567 176.955 46.1376 177.36 46.1376C177.694 46.1376 177.995 46.0813 178.265 45.9689C178.542 45.8564 178.784 45.6877 178.99 45.4628L179.554 46.1165C179.299 46.4117 178.979 46.6366 178.596 46.7913C178.219 46.9459 177.797 47.0232 177.328 47.0232Z" fill="white"/>
</g>
</svg>
