<svg width="131" height="59" viewBox="0 0 131 59" fill="none" xmlns="http://www.w3.org/2000/svg">
<path opacity="0.6" d="M12.9037 1C12.3644 2.97436 12.0948 5.34615 12.0948 8.11539C12.0948 10.859 12.1462 12.6154 12.2489 13.3846C12.3773 14.1538 12.5699 14.7692 12.8267 15.2308C13.3146 16 14.2647 16.3846 15.677 16.3846H26C26 17.8205 25.6533 18.9231 24.96 19.6923C23.7017 21.0769 22.161 21.7692 20.3378 21.7692C19.439 21.7692 18.643 21.641 17.9496 21.3846C16.6914 20.8718 15.7156 20.6154 15.0222 20.6154C14.3289 20.6154 13.764 20.7564 13.3274 21.0385C12.8909 21.2949 12.5442 21.6795 12.2874 22.1923C11.8252 23.1154 11.5941 25.1282 11.5941 28.2308C11.5941 31.3333 11.684 34.5128 11.8637 37.7692C12.0691 41.0256 12.557 43.7564 13.3274 45.9615C14.0978 48.141 15.2662 49.7821 16.8326 50.8846C18.399 51.9872 20.556 52.5385 23.3037 52.5385C23.3037 53.3333 22.7644 54.2821 21.6859 55.3846C21.4035 55.6923 21.1595 55.8974 20.9541 56C16.4089 56 13.0064 55.4615 10.7467 54.3846C8.15309 53.1026 6.3042 50.8205 5.2 47.5385C4.0958 44.2051 3.5437 39.2692 3.5437 32.7308C3.5437 27.0128 3.38963 23.641 3.08148 22.6154C2.77333 21.5641 2.49086 20.8718 2.23407 20.5385C1.92593 20.1538 1.18123 19.6795 0 19.1154C1.5921 17.9103 3.17136 15.6667 4.73778 12.3846L6.6637 8.34615C8.02469 5.26923 9.18025 3.28205 10.1304 2.38462C11.1062 1.46154 12.0306 1 12.9037 1Z" fill="white"/>
<line opacity="0.6" x1="40.5" x2="40.5" y2="59" stroke="white"/>
<g opacity="0.6">
<path d="M60.9411 5.42999H55V2.31259H70.3318V5.42999H64.3908V21.6733H60.9411V5.42999Z" fill="white"/>
<path d="M77.8776 19.8685H77.7954C77.3209 20.6159 76.7185 21.1628 75.9885 21.5092C75.2584 21.8373 74.4553 22.0014 73.5792 22.0014C72.9768 22.0014 72.3836 21.9194 71.7996 21.7553C71.2338 21.5912 70.7227 21.3451 70.2664 21.017C69.8283 20.6888 69.4724 20.2786 69.1986 19.7864C68.9249 19.2942 68.788 18.7199 68.788 18.0637C68.788 17.3527 68.9157 16.7511 69.1713 16.2588C69.4268 15.7484 69.7645 15.3291 70.1843 15.0009C70.6223 14.6546 71.1242 14.3811 71.6901 14.1806C72.2559 13.98 72.84 13.8342 73.4423 13.743C74.0629 13.6337 74.6834 13.5699 75.304 13.5516C75.9246 13.5152 76.5086 13.4969 77.0562 13.4969H77.8776V13.1414C77.8776 12.3211 77.5947 11.7104 77.0288 11.3093C76.463 10.89 75.7421 10.6803 74.8659 10.6803C74.1724 10.6803 73.5244 10.808 72.9221 11.0632C72.3198 11.3002 71.7996 11.6283 71.3615 12.0476L69.6367 10.3248C70.3668 9.5774 71.2155 9.0396 72.1829 8.71146C73.1685 8.38331 74.1815 8.21924 75.2219 8.21924C76.1527 8.21924 76.9376 8.32862 77.5764 8.54738C78.2152 8.74792 78.7445 9.01226 79.1643 9.34041C79.5841 9.66855 79.9036 10.0514 80.1226 10.4889C80.3599 10.9082 80.5241 11.3366 80.6154 11.7742C80.7249 12.2117 80.7888 12.6401 80.807 13.0594C80.8253 13.4605 80.8344 13.816 80.8344 14.1259V21.6733H77.8776V19.8685ZM77.6859 15.794H77.0015C76.5451 15.794 76.0341 15.8122 75.4683 15.8487C74.9025 15.8851 74.364 15.9763 73.8529 16.1221C73.3601 16.2497 72.9403 16.4503 72.5935 16.7237C72.2468 16.9789 72.0734 17.3435 72.0734 17.8175C72.0734 18.1275 72.1372 18.3918 72.265 18.6106C72.411 18.8111 72.5935 18.9843 72.8126 19.1301C73.0316 19.276 73.278 19.3854 73.5518 19.4583C73.8256 19.513 74.0994 19.5403 74.3731 19.5403C75.5048 19.5403 76.3352 19.276 76.8646 18.7473C77.4121 18.2004 77.6859 17.462 77.6859 16.5323V15.794Z" fill="white"/>
<path d="M84.424 1H87.7094V21.6733H84.424V1Z" fill="white"/>
<path d="M94.1095 16.2588C94.219 17.2433 94.6023 18.009 95.2594 18.5559C95.9164 19.1028 96.7104 19.3762 97.6413 19.3762C98.4626 19.3762 99.1471 19.2122 99.6946 18.884C100.26 18.5376 100.753 18.1092 101.173 17.5988L103.528 19.3762C102.761 20.3242 101.903 20.9987 100.954 21.3998C100.005 21.8009 99.0102 22.0014 97.9698 22.0014C96.9842 22.0014 96.0533 21.8373 95.1772 21.5092C94.3011 21.181 93.5436 20.7162 92.9048 20.1146C92.266 19.513 91.7549 18.7929 91.3716 17.9543C91.0066 17.0974 90.8241 16.1495 90.8241 15.1103C90.8241 14.0712 91.0066 13.1323 91.3716 12.2937C91.7549 11.4369 92.266 10.7077 92.9048 10.1061C93.5436 9.50448 94.3011 9.0396 95.1772 8.71146C96.0533 8.38331 96.9842 8.21924 97.9698 8.21924C98.8824 8.21924 99.7129 8.38331 100.461 8.71146C101.228 9.02137 101.876 9.47713 102.405 10.0787C102.953 10.6803 103.372 11.4278 103.664 12.3211C103.975 13.1961 104.13 14.2079 104.13 15.3564V16.2588H94.1095ZM100.845 13.7977C100.826 12.8315 100.525 12.075 99.941 11.5281C99.357 10.9629 98.5447 10.6803 97.5044 10.6803C96.5188 10.6803 95.7339 10.9629 95.1498 11.5281C94.584 12.0932 94.2372 12.8498 94.1095 13.7977H100.845Z" fill="white"/>
<path d="M107.202 8.54738H110.323V10.653H110.378C110.688 9.9967 111.163 9.43156 111.802 8.95757C112.441 8.46535 113.308 8.21924 114.403 8.21924C115.279 8.21924 116.018 8.36508 116.62 8.65677C117.241 8.94845 117.743 9.33129 118.126 9.80528C118.51 10.2793 118.783 10.8262 118.948 11.446C119.112 12.0659 119.194 12.713 119.194 13.3876V21.6733H115.909V15.0283C115.909 14.6637 115.89 14.2626 115.854 13.8251C115.817 13.3693 115.717 12.95 115.553 12.5672C115.407 12.1661 115.169 11.838 114.841 11.5827C114.512 11.3093 114.065 11.1726 113.499 11.1726C112.952 11.1726 112.486 11.2637 112.103 11.446C111.738 11.6283 111.428 11.8744 111.172 12.1843C110.935 12.4943 110.761 12.8498 110.652 13.2508C110.542 13.6519 110.488 14.0712 110.488 14.5087V21.6733H107.202V8.54738Z" fill="white"/>
<path d="M121.39 11.3366V8.54738H124.101V4.74635H127.386V8.54738H131V11.3366H127.386V17.0792C127.386 17.7355 127.505 18.2551 127.742 18.6379C127.998 19.0207 128.49 19.2122 129.22 19.2122C129.512 19.2122 129.832 19.1848 130.179 19.1301C130.525 19.0572 130.799 18.9478 131 18.802V21.5639C130.653 21.728 130.224 21.8373 129.713 21.892C129.22 21.965 128.782 22.0014 128.399 22.0014C127.523 22.0014 126.802 21.9011 126.236 21.7006C125.689 21.5183 125.251 21.2357 124.922 20.8529C124.612 20.4518 124.393 19.9596 124.265 19.3762C124.155 18.7929 124.101 18.1183 124.101 17.3527V11.3366H121.39Z" fill="white"/>
<path d="M66.4715 37.2329C66.1065 36.7042 65.6137 36.3214 64.9931 36.0844C64.3908 35.8292 63.7519 35.7016 63.0766 35.7016C62.675 35.7016 62.2826 35.7471 61.8993 35.8383C61.5343 35.9294 61.1966 36.0753 60.8863 36.2758C60.5943 36.4763 60.357 36.7407 60.1745 37.0688C59.992 37.3788 59.9007 37.7525 59.9007 38.19C59.9007 38.8463 60.1289 39.3476 60.5852 39.694C61.0415 40.0404 61.6073 40.3412 62.2826 40.5964C62.958 40.8516 63.6972 41.0978 64.5003 41.3348C65.3034 41.5717 66.0426 41.8999 66.7179 42.3192C67.3932 42.7385 67.9591 43.2945 68.4154 43.9873C68.8717 44.68 69.0998 45.6007 69.0998 46.7492C69.0998 47.7883 68.9082 48.6998 68.5249 49.4837C68.1416 50.2494 67.6214 50.8875 66.9643 51.3979C66.3255 51.9084 65.5771 52.2912 64.7193 52.5464C63.8614 52.8017 62.958 52.9293 62.0088 52.9293C60.8042 52.9293 59.6452 52.7287 58.5318 52.3277C57.4184 51.9266 56.4602 51.2521 55.6571 50.3041L58.258 47.7883C58.6778 48.4264 59.2254 48.9277 59.9007 49.2923C60.5943 49.6387 61.3244 49.8119 62.091 49.8119C62.4925 49.8119 62.8941 49.7572 63.2956 49.6478C63.6972 49.5384 64.0622 49.3744 64.3908 49.1556C64.7193 48.9368 64.984 48.6634 65.1847 48.3352C65.3855 47.9888 65.4859 47.5969 65.4859 47.1594C65.4859 46.4484 65.2577 45.9015 64.8014 45.5186C64.3451 45.1358 63.7793 44.8168 63.104 44.5615C62.4286 44.2881 61.6894 44.0328 60.8863 43.7959C60.0832 43.5589 59.344 43.2398 58.6687 42.8388C57.9934 42.4195 57.4275 41.8725 56.9712 41.198C56.5149 40.5053 56.2868 39.5846 56.2868 38.4361C56.2868 37.4334 56.4876 36.5675 56.8891 35.8383C57.3089 35.1091 57.8473 34.5075 58.5044 34.0335C59.1798 33.5413 59.9463 33.1766 60.8042 32.9396C61.6621 32.7027 62.5382 32.5842 63.4325 32.5842C64.4546 32.5842 65.4403 32.7391 66.3894 33.049C67.3567 33.359 68.2237 33.8694 68.9903 34.5804L66.4715 37.2329Z" fill="white"/>
<path d="M70.858 42.1004V39.3112H73.5685V35.5101H76.8539V39.3112H80.4678V42.1004H76.8539V47.843C76.8539 48.4993 76.9725 49.0189 77.2098 49.4017C77.4653 49.7845 77.9581 49.976 78.6882 49.976C78.9802 49.976 79.2997 49.9486 79.6465 49.8939C79.9932 49.821 80.267 49.7116 80.4678 49.5658V52.3277C80.121 52.4917 79.6921 52.6011 79.181 52.6558C78.6882 52.7287 78.2502 52.7652 77.8669 52.7652C76.9908 52.7652 76.2698 52.6649 75.704 52.4644C75.1564 52.2821 74.7184 51.9995 74.3898 51.6167C74.0795 51.2156 73.8605 50.7234 73.7327 50.14C73.6232 49.5567 73.5685 48.8821 73.5685 48.1165V42.1004H70.858Z" fill="white"/>
<path d="M91.2459 50.6323H91.1637C90.6892 51.3797 90.0869 51.9266 89.3568 52.273C88.6267 52.6011 87.8236 52.7652 86.9475 52.7652C86.3451 52.7652 85.752 52.6832 85.1679 52.5191C84.6021 52.355 84.091 52.1089 83.6347 51.7808C83.1966 51.4526 82.8407 51.0424 82.5669 50.5502C82.2932 50.058 82.1563 49.4837 82.1563 48.8274C82.1563 48.1165 82.284 47.5149 82.5396 47.0226C82.7951 46.5122 83.1328 46.0929 83.5526 45.7647C83.9906 45.4184 84.4926 45.1449 85.0584 44.9444C85.6242 44.7438 86.2083 44.598 86.8106 44.5068C87.4312 44.3975 88.0517 44.3336 88.6723 44.3154C89.2929 44.279 89.8769 44.2607 90.4245 44.2607H91.2459V43.9052C91.2459 43.0849 90.963 42.4741 90.3971 42.0731C89.8313 41.6538 89.1104 41.4441 88.2343 41.4441C87.5407 41.4441 86.8927 41.5717 86.2904 41.827C85.6881 42.064 85.1679 42.3921 84.7298 42.8114L83.005 41.0886C83.7351 40.3412 84.5838 39.8034 85.5512 39.4753C86.5368 39.1471 87.5498 38.983 88.5902 38.983C89.521 38.983 90.3059 39.0924 90.9447 39.3112C91.5835 39.5117 92.1128 39.7761 92.5326 40.1042C92.9524 40.4323 93.2719 40.8152 93.4909 41.2527C93.7282 41.672 93.8924 42.1004 93.9837 42.538C94.0932 42.9755 94.1571 43.4039 94.1753 43.8232C94.1936 44.2243 94.2027 44.5798 94.2027 44.8897V52.4371H91.2459V50.6323ZM91.0542 46.5578H90.3698C89.9135 46.5578 89.4024 46.576 88.8366 46.6124C88.2708 46.6489 87.7323 46.7401 87.2213 46.8859C86.7284 47.0135 86.3086 47.2141 85.9619 47.4875C85.6151 47.7427 85.4417 48.1073 85.4417 48.5813C85.4417 48.8912 85.5056 49.1556 85.6333 49.3744C85.7793 49.5749 85.9619 49.7481 86.1809 49.8939C86.3999 50.0398 86.6463 50.1491 86.9201 50.2221C87.1939 50.2768 87.4677 50.3041 87.7414 50.3041C88.8731 50.3041 89.7036 50.0398 90.2329 49.5111C90.7804 48.9642 91.0542 48.2258 91.0542 47.2961V46.5578Z" fill="white"/>
<path d="M111.262 39.3112V51.2612C111.262 52.4462 111.116 53.5127 110.824 54.4606C110.532 55.4268 110.076 56.2381 109.455 56.8944C108.853 57.5689 108.087 58.0885 107.156 58.4531C106.225 58.8177 105.121 59 103.843 59C102.62 59 101.461 58.845 100.366 58.5351C99.2707 58.2252 98.2577 57.6601 97.3268 56.8397L99.2981 54.1598C99.9552 54.7614 100.64 55.2263 101.351 55.5545C102.063 55.8826 102.885 56.0467 103.815 56.0467C104.6 56.0467 105.257 55.9373 105.787 55.7185C106.334 55.4998 106.763 55.199 107.074 54.8161C107.402 54.4333 107.63 53.9684 107.758 53.4215C107.904 52.8928 107.977 52.3003 107.977 51.644V50.6869H107.922C107.448 51.325 106.818 51.8081 106.033 52.1363C105.248 52.4462 104.445 52.6011 103.624 52.6011C102.638 52.6011 101.744 52.4279 100.941 52.0816C100.138 51.717 99.4441 51.2339 98.86 50.6323C98.2942 50.0306 97.8562 49.3197 97.5459 48.4993C97.2356 47.6789 97.0804 46.8039 97.0804 45.8741C97.0804 44.9079 97.2265 44.0055 97.5185 43.1669C97.8105 42.3283 98.2395 41.5991 98.8053 40.9793C99.3711 40.3594 100.046 39.8763 100.831 39.5299C101.634 39.1653 102.547 38.983 103.569 38.983C104.5 38.983 105.367 39.1653 106.17 39.5299C106.973 39.8946 107.612 40.4779 108.087 41.2801H108.141V39.3112H111.262ZM104.254 41.9364C103.669 41.9364 103.14 42.0366 102.666 42.2372C102.191 42.4195 101.78 42.6838 101.434 43.0302C101.105 43.3583 100.84 43.7685 100.64 44.2607C100.457 44.7347 100.366 45.2634 100.366 45.8468C100.366 46.3755 100.457 46.8677 100.64 47.3234C100.84 47.7792 101.114 48.1803 101.461 48.5266C101.808 48.873 102.218 49.1465 102.693 49.347C103.168 49.5475 103.679 49.6478 104.226 49.6478C104.828 49.6478 105.367 49.5475 105.841 49.347C106.334 49.1465 106.745 48.8821 107.074 48.554C107.42 48.2076 107.685 47.7974 107.867 47.3234C108.05 46.8494 108.141 46.339 108.141 45.7921C108.141 44.6436 107.794 43.7138 107.101 43.0028C106.407 42.2918 105.458 41.9364 104.254 41.9364Z" fill="white"/>
</g>
</svg>
