<svg width="93" height="59" viewBox="0 0 93 59" fill="none" xmlns="http://www.w3.org/2000/svg">
<g opacity="0.6">
<path d="M34.0819 2.54168C16.8886 8.54475 4.25764 24.5643 3.49336 43.8535C3.30132 48.6975 3.8755 53.3942 5.0999 57.8307L5.24418 57.781C4.03537 53.4108 3.48361 48.7764 3.69808 43.9948C3.7439 42.9537 3.82968 41.9233 3.94666 40.9036C7.46974 41.471 11.0562 41.8326 14.6933 41.9896C15.0267 46.0352 15.7832 50.0076 16.8984 53.8251L17.0037 53.79C15.8904 49.9881 15.1515 46.0313 14.8444 41.9974C17.8274 42.1212 20.8436 42.1046 23.8851 41.9399C25.9196 41.8287 27.9336 41.6523 29.9291 41.4134C30.515 43.8739 31.1866 46.314 31.9412 48.7179L32.0006 48.6965C31.248 46.2984 30.5764 43.8603 29.9973 41.4037C36.2694 40.6511 42.3369 39.2805 48.1411 37.3591L51.1982 46.0352L48.2853 37.3103C53.9482 35.424 59.3615 33.0132 64.4667 30.1365C65.422 32.2802 66.3218 34.4931 67.1524 36.7576L67.2128 36.7381C66.3803 34.4697 65.4796 32.2529 64.5271 30.1024C68.6371 27.7823 72.5491 25.1609 76.233 22.2695C78.134 25.3032 79.7805 28.5758 81.1189 32.017L81.2301 31.9789C79.8858 28.5222 78.2422 25.233 76.3481 22.1769C78.8427 20.2126 81.233 18.1245 83.5083 15.9214C86.7876 19.6414 89.4489 23.9034 91.3333 28.5475L91.4834 28.4978C84.9384 12.3983 69.4462 0.767474 50.9466 0.0363434C46.2918 -0.147901 41.7734 0.372663 37.4909 1.50055C37.1244 1.58731 36.7608 1.68187 36.4011 1.78521C36.1213 1.85247 35.8473 1.93533 35.5793 2.03184C35.5578 2.03964 35.5383 2.05036 35.5178 2.05816C35.3258 2.11958 35.1347 2.18197 34.9456 2.24728C34.9086 2.25995 34.8725 2.27653 34.8355 2.29017C34.583 2.37304 34.3315 2.45297 34.0829 2.54071H34.0819V2.54168ZM35.6017 2.82244C35.7118 2.78832 35.821 2.7542 35.9302 2.72008L37.7746 7.94912C35.0548 8.82453 32.3126 9.50205 29.5645 9.99044C30.9312 6.33966 32.9852 3.86259 35.6017 2.82244ZM36.6574 2.49879C36.7247 2.48027 36.791 2.4637 36.8583 2.44517C38.7504 2.04646 40.8902 2.32722 43.2444 3.3781C44.0789 3.75049 44.9182 4.21256 45.7585 4.7536C43.5018 5.84152 41.1583 6.80759 38.7299 7.6323C38.6227 7.66934 38.5145 7.70151 38.4073 7.73758L36.6574 2.49977V2.49879ZM32.4715 4.08681C31.0658 5.52275 29.9262 7.54164 29.0907 10.0704C27.3458 10.3658 25.5979 10.5851 23.8539 10.7294C26.3339 7.91305 29.2379 5.66312 32.4705 4.08681H32.4715ZM40.1025 1.75109C42.6049 1.39625 45.2253 1.39625 47.9344 1.78521C48.7708 1.90609 49.5994 2.06304 50.4232 2.25216C49.0525 3.06517 47.6439 3.83042 46.1972 4.54206C45.1454 3.80703 44.0916 3.19678 43.0475 2.72008C42.0239 2.25411 41.0413 1.93241 40.1015 1.75109H40.1025ZM27.9628 6.01602C26.1613 7.37592 24.5021 8.97661 23.0126 10.7957C22.1859 10.8522 21.3612 10.8912 20.5355 10.9156C22.8391 9.05557 25.3259 7.41199 27.9628 6.01602ZM45.3647 0.867882C47.252 0.70021 49.1695 0.640745 51.1104 0.708008C51.6632 0.72653 52.2149 0.757725 52.7618 0.795744C52.2247 1.14766 51.6827 1.49276 51.1328 1.82713C50.0186 1.52882 48.8897 1.29291 47.754 1.12232C46.9498 1.00144 46.1524 0.920524 45.3647 0.867882ZM19.8151 11.5102C20.7178 11.4956 21.6244 11.4615 22.53 11.4069C20.8328 13.5876 19.3677 16.0588 18.1706 18.7796C16.4919 18.7162 14.823 18.5934 13.1677 18.4111C15.1359 15.8863 17.3663 13.572 19.8151 11.5112V11.5102ZM53.7103 0.871782C57.4946 1.21395 61.1328 2.01137 64.573 3.20847C63.3495 4.21159 62.0891 5.17765 60.7945 6.0979C57.9606 4.32467 54.9776 2.94624 51.8991 2.04159C52.5093 1.66043 53.1147 1.27244 53.7093 0.871782H53.7103ZM23.3148 11.3591C23.3148 11.3591 23.3187 11.3591 23.3187 11.3581C25.1748 11.2226 27.0338 11.0023 28.8938 10.6962C28.2192 12.9393 27.7688 15.5539 27.567 18.4891C24.5704 18.7845 21.5903 18.8839 18.6404 18.7932C19.9272 16.0325 21.4987 13.5398 23.3148 11.3591ZM51.2352 2.45102C54.4239 3.27184 57.5132 4.5947 60.4445 6.34746C58.062 8.01834 55.5596 9.54104 52.9529 10.9107C50.9116 8.49796 48.8225 6.47322 46.7305 4.93004C48.2756 4.16089 49.7788 3.33325 51.2362 2.452L51.2352 2.45102ZM29.3413 10.6182C32.2229 10.123 35.1026 9.41821 37.9637 8.49698L40.587 15.936C38.4697 16.5657 36.3036 17.1019 34.0897 17.5347C31.9909 17.9442 29.8911 18.2503 27.803 18.4638C28.0564 15.4827 28.5799 12.8506 29.3413 10.6173V10.6182ZM46.322 5.12599C48.4803 6.60287 50.6396 8.60227 52.7462 11.0199C49.0652 12.9364 45.1717 14.5371 41.09 15.7839L38.5866 8.28934C38.6929 8.25425 38.7992 8.2211 38.9054 8.18601C41.4741 7.31255 43.9463 6.28605 46.321 5.12599H46.322ZM12.9415 18.6997C14.6309 18.8781 16.3349 18.9921 18.0497 19.0477C16.6625 22.2676 15.6516 25.8306 15.0706 29.6656C12.379 29.5214 9.7109 29.2387 7.072 28.8283C8.5869 25.1863 10.5717 21.7909 12.9415 18.7006V18.6997ZM64.8459 3.30303C68.1526 4.47674 71.2701 6.02186 74.1556 7.88186C72.4448 9.51374 70.656 11.0735 68.7969 12.5523C66.3706 10.1064 63.7521 7.9735 60.9875 6.22073C62.3084 5.28878 63.5971 4.31687 64.8459 3.30206V3.30303ZM18.5157 19.0594C21.4996 19.1344 24.5158 19.0223 27.5515 18.7084C27.3467 21.8942 27.4306 25.4543 27.8322 29.3245C23.6355 29.7758 19.4593 29.8879 15.3308 29.6803C15.9645 25.8355 17.0495 22.2695 18.5157 19.0584V19.0594ZM60.6405 6.46347C63.4626 8.17236 66.1317 10.28 68.601 12.7093C65.5556 15.1181 62.3182 17.3173 58.9013 19.2758C57.0413 16.2187 55.0829 13.4462 53.0728 11.053C55.7078 9.67557 58.2316 8.14019 60.6405 6.46347ZM27.7883 18.6811C29.8141 18.4647 31.8485 18.1625 33.886 17.7648C36.1895 17.3154 38.4424 16.7539 40.6465 16.0959L44.0808 25.8433C42.2823 26.4292 40.4525 26.9556 38.5866 27.4186C35.045 28.2979 31.4927 28.9228 27.956 29.3089C27.5807 25.4231 27.532 21.8572 27.7864 18.6811H27.7874H27.7883ZM52.87 11.1573C54.9142 13.5203 56.9068 16.2782 58.7941 19.3343C54.2962 21.902 49.4922 24.0574 44.4152 25.7351L41.1456 15.9448C45.2468 14.6872 49.1656 13.0778 52.87 11.1573ZM6.9131 29.227C9.58417 29.6247 12.2903 29.8938 15.017 30.0195C14.5588 33.2072 14.396 36.5782 14.5666 40.0935C14.5929 40.6307 14.628 41.1658 14.6699 41.702C11.0562 41.5246 7.48826 41.1346 3.98371 40.5458C4.46723 36.589 5.46839 32.7939 6.91213 29.227H6.9131ZM74.4081 8.04173C77.6612 10.1698 80.6101 12.7044 83.1875 15.5665C80.9464 17.7736 78.5892 19.8617 76.1316 21.8309C74.025 18.4842 71.6201 15.4193 68.9783 12.7278C70.8617 11.2431 72.6739 9.67849 74.4081 8.04173ZM15.2753 30.0302C19.4291 30.2096 23.6336 30.0683 27.8595 29.5877C28.0564 31.4272 28.3225 33.334 28.6657 35.3051C29.0059 37.2694 29.4114 39.2337 29.8735 41.1892C27.9979 41.4086 26.1028 41.5685 24.1922 41.6728C21.0385 41.8443 17.9142 41.8521 14.8239 41.7069C14.7898 41.2214 14.7567 40.734 14.7362 40.2475C14.5763 36.6767 14.7693 33.257 15.2753 30.0312V30.0302ZM68.7823 12.8886C71.4573 15.548 73.8924 18.5885 76.0156 21.9244C72.3619 24.8402 68.4821 27.483 64.3994 29.8216C62.7442 26.1192 60.93 22.6302 59.0037 19.4454C62.4449 17.485 65.7106 15.2945 68.7823 12.8886ZM27.9784 29.575C31.4333 29.1773 34.8978 28.5563 38.3634 27.6955C40.3258 27.2081 42.252 26.6475 44.1432 26.0285L48.0601 37.1436C42.2696 39.0748 36.21 40.4425 29.9398 41.1795C29.4963 39.2854 29.1102 37.3805 28.7836 35.4757C28.4356 33.4383 28.1676 31.4691 27.9794 29.576H27.9784V29.575ZM58.8965 19.5049C60.8422 22.6721 62.673 26.1552 64.3361 29.8557C59.2533 32.7617 53.8604 35.1959 48.2093 37.092L44.4786 25.9193C49.5633 24.229 54.381 22.0687 58.8974 19.5049H58.8965Z" fill="#DFDFDF"/>
<path d="M89.4908 26.2231H2.4375V43.8678H89.4908V26.2231Z" fill="black"/>
<path d="M27.7016 52.45C27.7016 54.5644 27.2376 56.0822 26.3105 57.0015C25.3834 57.9208 23.8539 58.3809 21.7239 58.3809C19.5938 58.3809 18.1452 57.9062 17.1947 56.9557C16.2443 56.0052 15.7695 54.504 15.7695 52.45C15.7695 50.396 16.2297 48.8177 17.1489 47.8984C18.0682 46.9792 19.5929 46.519 21.7239 46.519C23.8549 46.519 25.3249 46.9938 26.2754 47.9443C27.2259 48.8947 27.7006 50.396 27.7006 52.45H27.7016ZM20.828 52.3808C20.828 52.8867 20.8894 53.2318 21.0122 53.4151C21.1351 53.5993 21.3719 53.6909 21.7248 53.6909C22.0777 53.6909 22.3185 53.5993 22.4491 53.4151C22.5788 53.2308 22.6441 52.8867 22.6441 52.3808C22.6441 51.8748 22.5788 51.5297 22.4491 51.3465C22.3185 51.1622 22.0777 51.0706 21.7248 51.0706C21.3719 51.0706 21.1351 51.1622 21.0122 51.3465C20.8894 51.5307 20.828 51.8748 20.828 52.3808Z" fill="white"/>
<path d="M40.3013 46.7485H45.8413L42.9217 58.1045H36.9908L36.5082 54.0589L36.0257 58.1045H30.3014L27.3359 46.7485H32.8993L33.3361 53.5763L34.3938 46.7485H38.8761L39.8646 53.5763L40.3013 46.7485Z" fill="white"/>
<path d="M55.7943 53.9444V57.6225C55.2581 57.8369 54.5338 58.0173 53.6224 58.1625C52.7099 58.3078 51.7721 58.3809 50.806 58.3809C48.9363 58.3809 47.5842 57.9179 46.7488 56.9898C45.9133 56.0627 45.4961 54.5644 45.4961 52.4958C45.4961 50.4272 45.9523 48.9522 46.8638 47.9784C47.7753 47.0055 49.182 46.519 51.0819 46.519C52.9819 46.519 54.2082 46.8719 55.0359 47.5767C55.8635 48.2816 56.2769 49.4309 56.2769 51.0248C56.2769 51.5765 56.2691 52.0327 56.2535 52.3925C56.2379 52.7531 56.2076 53.1324 56.1618 53.5301H50.4376C50.4532 53.806 50.5487 53.9941 50.7251 54.0936C50.9016 54.193 51.196 54.2427 51.6103 54.2427C52.3463 54.2427 53.1047 54.2125 53.8865 54.1511C54.6684 54.0897 55.304 54.0214 55.7943 53.9444ZM51.8637 50.7723C51.8326 50.5422 51.7643 50.3892 51.6571 50.3121C51.5499 50.2361 51.3812 50.1971 51.1511 50.1971C50.9055 50.1971 50.7261 50.2741 50.6111 50.4272C50.4961 50.5802 50.4385 50.8717 50.4385 51.3006H51.8872V51.0248C51.8872 50.9477 51.8793 50.8639 51.8647 50.7723H51.8637Z" fill="white"/>
<path d="M92.9979 29.4502V28.5845C92.9979 27.2275 91.8973 26.127 90.5403 26.127H90.1602V29.4502H92.9989H92.9979Z" fill="#ACACAC"/>
<path d="M64.1697 31.1865C63.1559 31.1865 62.3292 31.5063 61.6917 32.1438C61.0531 32.7823 60.7344 33.6012 60.7344 34.5994C60.7344 35.5977 61.0531 36.4399 61.6917 37.0775C62.3302 37.716 63.1637 38.0348 64.1931 38.0348C65.2225 38.0348 66.0365 37.716 66.6828 37.0775C67.3282 36.439 67.6518 35.6201 67.6518 34.6219C67.6518 33.6236 67.3292 32.8009 66.6828 32.1545C66.0365 31.5082 65.1991 31.1855 64.1707 31.1855L64.1697 31.1865Z" fill="#ACACAC"/>
<path d="M88.7076 40.2485C88.0018 39.569 87.6489 38.5903 87.6489 37.3142V31.4106H85.6885V29.4502H87.6489V26.127H75.7071V30.5995C76.5786 29.6461 77.7289 29.1685 79.16 29.1685C80.591 29.1685 81.7414 29.6188 82.6129 30.5206C83.4844 31.4223 83.9201 32.597 83.9201 34.0466V40.9864H81.3963V34.2493C81.3963 33.371 81.1467 32.6662 80.6466 32.1368C80.1475 31.6075 79.467 31.3424 78.6072 31.3424C77.7474 31.3424 77.0485 31.6075 76.5123 32.1368C75.9752 32.6662 75.7071 33.37 75.7071 34.2493V40.9864H73.2057V26.127H19.8273V30.5995C20.6988 29.6461 21.8491 29.1685 23.2802 29.1685C24.7112 29.1685 25.8615 29.6188 26.733 30.5206C27.6046 31.4223 28.0403 32.597 28.0403 34.0466V40.9864H25.5165V34.2493C25.5165 33.371 25.2669 32.6662 24.7668 32.1368C24.2677 31.6075 23.5872 31.3424 22.7274 31.3424C21.8676 31.3424 21.1687 31.6075 20.6325 32.1368C20.0954 32.6662 19.8273 33.37 19.8273 34.2493V40.9864H17.3258V26.127H15.3771V28.1546H10.5332V40.9864H7.97615V28.1546H3.13216V26.127H2.45757C1.10059 26.127 0 27.2275 0 28.5845V42.0315C0 43.3885 1.10059 44.489 2.45757 44.489H61.955C61.5544 44.3877 61.1693 44.2551 60.8018 44.0894C59.863 43.6653 59.1007 43.0853 58.5148 42.3493V42.1348L59.7655 40.85H59.9459C60.9149 42.1114 62.2475 42.7431 63.9456 42.7431C64.9897 42.7431 65.8456 42.4692 66.5143 41.9203C67.1831 41.3725 67.5174 40.576 67.5174 39.532V38.6537C66.5036 39.5778 65.2646 40.0389 63.7994 40.0389C62.1841 40.0389 60.8515 39.5203 59.7996 38.484C58.7478 37.4478 58.2224 36.1522 58.2224 34.5973C58.2224 33.0425 58.7517 31.7674 59.8104 30.7272C60.869 29.6871 62.2065 29.1665 63.8209 29.1665C65.4352 29.1665 66.6937 29.6851 67.73 30.7214V29.4482H69.8931V39.2044C69.8931 41.0215 69.3316 42.3961 68.2086 43.328C67.5467 43.8769 66.7805 44.2629 65.9109 44.4881H90.5403C91.8972 44.4881 92.9978 43.3875 92.9978 42.0305V40.9816C92.5241 41.1687 92.0103 41.2662 91.4547 41.2662C90.3277 41.2662 89.4114 40.926 88.7056 40.2465L88.7076 40.2485ZM41.1149 39.533C39.9324 40.6901 38.4389 41.2682 36.6365 41.2682C34.834 41.2682 33.3639 40.6901 32.1805 39.533C30.998 38.3768 30.4063 36.9379 30.4063 35.2183C30.4063 33.4987 30.998 32.0598 32.1805 30.9037C33.3639 29.7475 34.8486 29.1685 36.6365 29.1685C38.4243 29.1685 39.9314 29.7465 41.1149 30.9037C42.2974 32.0608 42.8891 33.4987 42.8891 35.2183C42.8891 36.9379 42.2974 38.3768 41.1149 39.533ZM55.6868 40.9864H53.4671V39.6012C52.618 40.7057 51.4277 41.2614 49.8962 41.2682C48.5139 41.2682 47.3948 40.8217 46.5389 39.9278C45.683 39.0338 45.254 37.8553 45.254 36.3901V29.4502H47.7662V36.2994C47.7662 37.1329 48.0041 37.8075 48.4817 38.3212C48.9584 38.8359 49.5989 39.0933 50.4022 39.0933C51.2513 39.0933 51.9249 38.8281 52.424 38.2988C52.9231 37.7695 53.1736 37.0656 53.1736 36.1863V29.4492H55.6858V40.9855L55.6868 40.9864Z" fill="#ACACAC"/>
<path d="M90.1611 37.1568C90.1611 38.4485 90.709 39.0948 91.8057 39.0948C92.2756 39.0948 92.6733 38.9525 92.9989 38.6708V31.4121H90.1602V37.1578L90.1611 37.1568Z" fill="#ACACAC"/>
<path d="M36.636 31.3657C35.5617 31.3657 34.6737 31.7323 33.9718 32.4644C33.2689 33.1965 32.918 34.1148 32.918 35.2193C32.918 36.3238 33.2689 37.2411 33.9718 37.9742C34.6737 38.7063 35.5617 39.0728 36.636 39.0728C37.7103 39.0728 38.6208 38.7063 39.3227 37.9742C40.0246 37.2421 40.3765 36.3238 40.3765 35.2193C40.3765 34.1148 40.0255 33.1974 39.3227 32.4644C38.6208 31.7323 37.7249 31.3657 36.636 31.3657Z" fill="#ACACAC"/>
<path d="M14.064 45.2766C13.0755 44.4568 11.3705 44.0464 8.94904 44.0464H3.31641V49.6576L5.35187 44.3827L8.7063 44.3603L6.01769 48.3191L8.73262 48.4029L4.76892 53.1378L5.33433 49.5006L3.31641 49.6663V58.4594H8.53473V54.9656H9.01727C11.2701 54.9656 12.9215 54.521 13.9714 53.632C15.0213 52.7429 15.5458 51.3489 15.5458 49.448C15.5458 47.547 15.0515 46.0955 14.063 45.2757L14.064 45.2766ZM10.0526 50.2766C9.92973 50.415 9.71526 50.4833 9.40916 50.4833H8.5357V48.7588H9.40916C9.69966 48.7588 9.9112 48.828 10.0409 48.9654C10.1705 49.1029 10.2358 49.3183 10.2358 49.6088C10.2358 49.9159 10.1744 50.1372 10.0516 50.2756L10.0526 50.2766Z" fill="white"/>
<path d="M63.0755 48.6359C62.8328 48.7558 62.7109 48.8903 62.7109 49.0405C62.7109 49.1594 62.7519 49.2579 62.8338 49.3368C62.9157 49.4158 63.0102 49.4548 63.1204 49.4548C63.2461 49.4548 63.4616 49.3651 63.7657 49.1867C64.0699 49.0083 64.2297 48.8689 64.2463 48.7714V48.632C64.0864 48.515 63.9275 48.4565 63.7677 48.4565C63.5493 48.4565 63.3183 48.516 63.0755 48.6359Z" fill="black"/>
<path d="M64.7391 46.4961C64.6475 46.4814 64.5626 46.4727 64.4866 46.4727H64.0957C63.7126 46.4727 63.349 46.5643 63.0039 46.7485C62.8099 46.8519 62.6208 46.9903 62.4336 47.1609H64.7391V46.4951V46.4961Z" fill="black"/>
<path d="M64.6828 50.7113H64.5658L64.246 50.3554V49.4323C63.9292 49.6506 63.6485 49.7608 63.4038 49.7608C63.1776 49.7608 62.9544 49.6487 62.735 49.4254C62.5157 49.2022 62.4055 48.9936 62.4055 48.7986C62.4055 48.6709 62.4553 48.5491 62.5557 48.434C62.6561 48.319 62.8043 48.2293 63.0022 48.166C63.1991 48.1016 63.3667 48.0704 63.5042 48.0704C63.7508 48.0704 63.9984 48.1942 64.247 48.4428V47.5557H62.078V47.5304C62.0527 47.5606 62.0263 47.5908 62.001 47.622H61.9094L61.7709 46.7485H57.0352V58.1045H62.0926V51.5759C62.3071 51.4843 62.541 51.419 62.7935 51.381C63.046 51.343 63.3414 51.3235 63.6787 51.3235C63.8473 51.3235 64.016 51.3274 64.1846 51.3352C64.3533 51.343 64.5366 51.3625 64.7364 51.3927V47.5567H64.6828V50.7122V50.7113Z" fill="white"/>
</g>
</svg>
