<svg width="112" height="67" viewBox="0 0 112 67" fill="none" xmlns="http://www.w3.org/2000/svg">
<g opacity="0.6">
<g clip-path="url(#clip0_16394_18881)">
<path d="M19.0945 6.47217C19.1553 6.30538 19.1452 6.11476 19.0451 5.97055C19.0147 5.92666 18.9969 5.87273 18.9982 5.81505C18.9994 5.73479 19.0387 5.66331 19.097 5.61565L19.1401 3.56152L19.495 3.56905L19.4519 5.62318C19.5065 5.67334 19.5432 5.74607 19.5419 5.82633C19.5419 5.88277 19.5204 5.93669 19.4887 5.97933C19.381 6.11978 19.3632 6.3104 19.4177 6.47844L19.6484 7.19701L18.8359 7.1807L19.097 6.47217" fill="#E6E6E6"/>
<path d="M52.8756 32.7545L52.8693 25.8222C52.868 23.9649 51.8642 22.2494 50.2367 21.3214L30.6004 10.129C28.9729 9.20228 26.9702 9.20353 25.3453 10.134L5.72922 21.3628C4.10427 22.2933 3.1042 24.0101 3.10547 25.8686L3.12702 48.2897C3.12829 50.1469 4.13216 51.8625 5.75964 52.7905L25.396 63.9828" stroke="white" stroke-width="6" stroke-miterlimit="10" stroke-linecap="round"/>
<path d="M28.8988 6.09592C28.8988 6.09592 32.1436 5.267 35.718 6.88723L39.6993 5.1579L29.4705 0L18.457 3.22039L20.9008 4.86696L21.3064 4.14337L21.2227 5.07764L22.4865 5.93415L22.2165 8.81345C22.4636 8.67425 22.7146 8.54508 22.9706 8.42469C23.2267 8.3043 23.4878 8.19395 23.7527 8.09237C24.0176 7.99204 24.2851 7.9005 24.5576 7.81899C24.8301 7.73873 25.1039 7.66725 25.3802 7.60705C25.6578 7.54686 25.9366 7.4967 26.218 7.45657C26.4981 7.41644 26.7808 7.38759 27.0634 7.36878C27.3461 7.34997 27.63 7.34245 27.9139 7.34496C28.1979 7.34746 28.4818 7.36 28.7644 7.38383C29.0471 7.40766 29.3285 7.44152 29.6086 7.48541C29.8887 7.53055 30.1663 7.58448 30.4426 7.64969C30.7177 7.7149 30.9915 7.79014 31.2614 7.87542C31.5314 7.96069 31.7976 8.05725 32.0613 8.16259C32.3249 8.26793 32.5835 8.38331 32.837 8.50746C33.0905 8.63286 33.3402 8.76579 33.5835 8.90875C33.8282 9.05297 34.0665 9.20471 34.2984 9.36523C34.5304 9.52574 34.7572 9.6963 34.9753 9.87312L35.1806 7.6848C32.2767 5.94168 28.9001 6.09718 28.9001 6.09718L28.8988 6.09592Z" fill="#E6E6E6"/>
<path d="M28.0984 22.0348C31.1149 22.0348 33.5601 19.1024 33.5601 15.4849C33.5601 11.8675 31.1149 8.93506 28.0984 8.93506C25.082 8.93506 22.6367 11.8675 22.6367 15.4849C22.6367 19.1024 25.082 22.0348 28.0984 22.0348Z" fill="#E6E6E6"/>
<path d="M14.1372 14.0304C14.1372 14.0304 16.1931 16.9774 19.2516 19.8931C21.8475 22.3673 23.8096 23.5624 27.0798 24.6509C32.345 26.0304 37.8346 16.4419 40.8766 13.0522C40.7955 13.5087 41.0427 13.7746 38.7168 25.5225C32.7012 43.4993 16.2451 47.4621 9.05066 48.3336C8.19762 48.4365 7.79836 47.2978 8.51704 46.8074C12.2397 44.2655 18.3098 39.0938 19.1489 31.9771C20.092 23.9725 14.5796 22.0337 14.1359 14.0304" fill="#E6E6E6"/>
<path d="M27.8483 24.7048C27.8483 24.7048 29.0753 27.5227 26.4883 30.7631L27.5948 32.1714L29.1146 30.6565C29.1146 30.6565 29.9815 27.8123 28.6849 24.6597L27.8483 24.7036" fill="#E6E6E6"/>
<path d="M36.1748 46.9239C36.8022 47.3038 37.3345 47.5697 37.7718 47.7227C38.2091 47.8757 38.6363 47.9522 39.0533 47.9522C39.4703 47.9522 39.8125 47.8606 40.0686 47.6775C40.3233 47.4944 40.4514 47.2599 40.4514 46.9728C40.4514 46.5602 39.9976 46.0974 39.0888 45.5833C38.943 45.4993 38.8315 45.4353 38.7516 45.3889L38.0634 45.0064C37.3941 44.6315 36.8973 44.2076 36.574 43.7348C36.2508 43.262 36.0898 42.7278 36.0898 42.1296C36.0898 41.3195 36.3991 40.6549 37.0164 40.1357C37.6349 39.6165 38.4322 39.3569 39.4107 39.3569C39.7707 39.3569 40.1624 39.3983 40.5832 39.4823C41.004 39.5664 41.473 39.6955 41.9876 39.8711V42.2337C41.4958 41.9277 41.0306 41.692 40.5908 41.5252C40.151 41.3584 39.7758 41.2756 39.4678 41.2756C39.1255 41.2756 38.8568 41.3484 38.6604 41.4938C38.4639 41.6393 38.365 41.8374 38.365 42.0882C38.365 42.2638 38.4233 42.4281 38.5399 42.5811C38.6566 42.7341 38.8327 42.8733 39.0672 42.9974L40.2612 43.6508C41.2588 44.1976 41.9293 44.7017 42.2728 45.1657C42.6163 45.6284 42.7887 46.1777 42.7887 46.8122C42.7887 47.7942 42.4502 48.588 41.7734 49.1924C41.0965 49.7969 40.1991 50.0991 39.0799 50.0991C38.7009 50.0991 38.289 50.0602 37.8441 49.9812C37.3992 49.9022 36.9099 49.7793 36.3763 49.6125L36.1722 46.9239H36.1748Z" fill="#E6E6E6"/>
<path d="M44.5599 49.773V39.6992H50.8303V41.7759H46.9187V43.5968H50.2687V45.6597H46.9187V47.6536H50.886V49.773H44.5586H44.5599Z" fill="#E6E6E6"/>
<path d="M52.7422 49.773V39.6992H55.172V47.6123H59.1393V49.773H52.7422Z" fill="#E6E6E6"/>
<path d="M60.3333 49.773V39.6992H66.6037V41.7759H62.6921V43.5968H66.0422V45.6597H62.6921V47.6536H66.6595V49.773H60.332H60.3333Z" fill="#E6E6E6"/>
<path d="M76.0329 42.8871C75.5931 42.4381 75.1469 42.1046 74.6957 41.8863C74.2445 41.6681 73.7704 41.5603 73.2735 41.5603C72.4116 41.5603 71.7082 41.855 71.1593 42.4431C70.6118 43.0313 70.338 43.7862 70.338 44.708C70.338 45.6297 70.6092 46.3771 71.153 46.9489C71.6955 47.5208 72.4028 47.8067 73.2735 47.8067C73.7882 47.8067 74.3028 47.7001 74.8148 47.4869C75.3269 47.2737 75.839 46.954 76.3498 46.5276L76.1952 49.2025C75.7604 49.4947 75.2838 49.7166 74.7667 49.8696C74.2495 50.0226 73.7121 50.0991 73.1557 50.0991C72.5561 50.0991 71.982 50.0063 71.4318 49.8207C70.8817 49.6351 70.3747 49.3617 69.9121 49.0006C69.2568 48.4914 68.7549 47.8694 68.4063 47.1345C68.0577 46.4009 67.8828 45.6008 67.8828 44.7343C67.8828 43.9881 68.0121 43.2896 68.2694 42.6363C68.5267 41.9829 68.9019 41.406 69.3924 40.9069C69.888 40.4066 70.4622 40.0241 71.1124 39.757C71.7627 39.4911 72.4484 39.3569 73.1696 39.3569C73.7413 39.3569 74.2863 39.4359 74.806 39.5927C75.3256 39.7507 75.8212 39.989 76.2953 40.3088L76.0355 42.8858L76.0329 42.8871Z" fill="#E6E6E6"/>
<path d="M80.0029 49.7733V41.8038H76.7656V39.6982H85.656V41.8038H82.4327V49.7733H80.0029Z" fill="#E6E6E6"/>
<path d="M90.1406 49.7731L92.2548 39.3721H92.431L96.2716 45.9307L99.8954 39.3721H100.078L102.206 49.7731H99.8954L99.0322 45.1733L96.3007 50.1406H96.1398L93.2042 45.1031L92.3119 49.7719H90.1419L90.1406 49.7731Z" fill="#E6E6E6"/>
<path d="M105.653 49.7733V44.9928L102.016 39.6982H104.951L107.079 42.8873L109.424 39.6982H112.001L108.076 44.895V49.772H105.653V49.7733Z" fill="#E6E6E6"/>
<path d="M42.8553 56.9799C42.4814 56.5987 42.1024 56.3153 41.7183 56.1297C41.3343 55.9453 40.9312 55.8526 40.5104 55.8526C39.7778 55.8526 39.1795 56.1021 38.7143 56.6025C38.2491 57.1028 38.0159 57.7437 38.0159 58.5274C38.0159 59.3112 38.2466 59.9458 38.708 60.4311C39.1693 60.9177 39.7702 61.1597 40.5104 61.1597C40.9477 61.1597 41.385 61.0694 41.8197 60.8876C42.2545 60.7057 42.6905 60.4348 43.124 60.0724L42.9922 62.346C42.6221 62.5943 42.2177 62.7824 41.7779 62.9128C41.3381 63.0433 40.8818 63.1072 40.4077 63.1072C39.8982 63.1072 39.4102 63.0282 38.9425 62.8715C38.4748 62.7147 38.0438 62.4814 37.6509 62.1742C37.0932 61.7416 36.6673 61.2123 36.3707 60.5891C36.0741 59.9658 35.9258 59.2849 35.9258 58.5488C35.9258 57.9155 36.0348 57.321 36.2541 56.7655C36.4733 56.21 36.7915 55.7209 37.2085 55.2958C37.6306 54.8706 38.1173 54.5446 38.6712 54.3188C39.2239 54.0931 39.8069 53.979 40.4204 53.979C40.9058 53.979 41.3697 54.0455 41.8108 54.1797C42.2519 54.3138 42.674 54.5157 43.0758 54.7879L42.8553 56.9787V56.9799Z" fill="#E6E6E6"/>
<path d="M43.8516 60.1689C43.8516 59.3225 44.1304 58.6265 44.6907 58.0784C45.2496 57.5317 45.9569 57.2583 46.8125 57.2583C47.668 57.2583 48.3817 57.5317 48.9432 58.0784C49.5047 58.6252 49.7848 59.3225 49.7848 60.1689C49.7848 61.0154 49.5047 61.7127 48.9432 62.2619C48.3817 62.8112 47.6718 63.0859 46.8125 63.0859C45.9531 63.0859 45.2547 62.8112 44.6945 62.2619C44.1342 61.7127 43.8528 61.0154 43.8528 60.1689H43.8516ZM45.7604 60.1689C45.7604 60.6217 45.8593 60.9866 46.0558 61.2637C46.2522 61.5409 46.5045 61.6801 46.8112 61.6801C47.1179 61.6801 47.3689 61.5409 47.5666 61.2612C47.7631 60.9816 47.862 60.6179 47.862 60.1689C47.862 59.72 47.7631 59.3613 47.5666 59.0792C47.3702 58.797 47.1179 58.6566 46.8112 58.6566C46.5045 58.6566 46.2535 58.7958 46.0558 59.0754C45.858 59.3551 45.7604 59.7187 45.7604 60.1677V60.1689Z" fill="#E6E6E6"/>
<path d="M52.7244 62.8314H50.832V54.4055L52.7244 54.1509V62.8301V62.8314Z" fill="#E6E6E6"/>
<path d="M55.9783 62.8314H54.0859V54.4055L55.9783 54.1509V62.8301V62.8314Z" fill="#E6E6E6"/>
<path d="M62.3996 60.9304L62.1904 62.5657C61.8241 62.7387 61.4642 62.8666 61.1105 62.9494C60.7569 63.0322 60.3982 63.0735 60.0369 63.0735C59.1421 63.0735 58.4196 62.819 57.8708 62.3086C57.3219 61.7994 57.0469 61.1348 57.0469 60.3159C57.0469 59.497 57.3473 58.7408 57.9481 58.1514C58.5489 57.5633 59.279 57.2686 60.1383 57.2686C60.8748 57.2686 61.4781 57.4842 61.9496 57.9156C62.4211 58.347 62.6569 58.9051 62.6569 59.5898C62.6569 59.6964 62.6493 59.8657 62.6328 60.0977L62.6265 60.1328L62.4592 60.3748L58.7884 60.4752C58.8163 60.8338 58.9672 61.1235 59.2422 61.3467C59.5173 61.5699 59.8633 61.6803 60.2803 61.6803C60.5744 61.6803 60.9014 61.6176 61.2626 61.4909C61.6226 61.3655 62.0016 61.1774 62.3996 60.9304ZM58.8315 59.6726L61.165 59.6011V59.5183C61.165 59.2387 61.0662 59.0092 60.8672 58.8298C60.6682 58.6505 60.4172 58.5615 60.1155 58.5615C59.7771 58.5615 59.4944 58.6593 59.2676 58.8537C59.0407 59.048 58.8949 59.3214 58.8315 59.6713V59.6726Z" fill="#E6E6E6"/>
<path d="M69.0593 57.5117V62.336C69.0593 62.8238 69.0352 63.1913 68.9883 63.4371C68.9401 63.6829 68.8628 63.9086 68.7551 64.113C68.532 64.5381 68.2075 64.8604 67.7829 65.0786C67.357 65.2968 66.8424 65.4059 66.2378 65.4059C65.8753 65.4059 65.509 65.367 65.1363 65.288C64.7637 65.209 64.3695 65.0874 63.9512 64.9219L63.9271 63.4458C64.3251 63.659 64.6876 63.8145 65.0134 63.9149C65.3391 64.0152 65.6458 64.0653 65.9323 64.0653C66.3506 64.0653 66.6738 63.9663 66.9045 63.7706C67.1352 63.5737 67.2505 63.2966 67.2505 62.9379V62.578C67.035 62.7122 66.8234 62.81 66.6117 62.8727C66.4013 62.9354 66.1782 62.9668 65.9437 62.9668C65.1832 62.9668 64.5697 62.7147 64.1033 62.2106C63.6356 61.7065 63.4023 61.0431 63.4023 60.2204C63.4023 59.3978 63.6673 58.6591 64.1958 58.0973C64.7244 57.5368 65.3936 57.2559 66.201 57.2559C66.3886 57.2559 66.5825 57.2822 66.7853 57.3324C66.9881 57.3838 67.2125 57.4628 67.4597 57.5681L69.0593 57.5092V57.5117ZM67.1846 58.8635C67.0731 58.8008 66.9666 58.7557 66.8652 58.7281C66.7638 58.7005 66.6637 58.6867 66.5635 58.6867C66.2099 58.6867 65.9108 58.8334 65.6687 59.1269C65.4253 59.4203 65.3049 59.789 65.3049 60.2342C65.3049 60.6518 65.4114 60.9992 65.6243 61.2763C65.8372 61.5535 66.0971 61.6927 66.4025 61.6927C66.5217 61.6927 66.6484 61.6588 66.7815 61.5924C66.9146 61.5259 67.049 61.4268 67.1846 61.2977V58.8648V58.8635Z" fill="#E6E6E6"/>
<path d="M75.505 60.9304L75.2959 62.5657C74.9296 62.7387 74.5696 62.8666 74.216 62.9494C73.8624 63.0322 73.5036 63.0735 73.1424 63.0735C72.2475 63.0735 71.5251 62.819 70.9762 62.3086C70.4274 61.7994 70.1523 61.1348 70.1523 60.3159C70.1523 59.497 70.4527 58.7408 71.0535 58.1514C71.6543 57.5633 72.3844 57.2686 73.2438 57.2686C73.9802 57.2686 74.5836 57.4842 75.0551 57.9156C75.5266 58.347 75.7624 58.9051 75.7624 59.5898C75.7624 59.6964 75.7548 59.8657 75.7383 60.0977L75.7319 60.1328L75.5646 60.3748L71.8939 60.4752C71.9218 60.8338 72.0726 61.1235 72.3477 61.3467C72.6227 61.5699 72.9688 61.6803 73.3858 61.6803C73.6798 61.6803 74.0068 61.6176 74.3681 61.4909C74.7281 61.3655 75.1071 61.1774 75.505 60.9304ZM71.9357 59.6726L74.2692 59.6011V59.5183C74.2692 59.2387 74.1704 59.0092 73.9714 58.8298C73.7724 58.6505 73.5214 58.5615 73.2197 58.5615C72.8813 58.5615 72.5986 58.6593 72.3718 58.8537C72.1449 59.048 71.9991 59.3214 71.9357 59.6713V59.6726Z" fill="#E6E6E6"/>
</g>
</g>
<defs>
<clipPath id="clip0_16394_18881">
<rect width="112" height="67" fill="white"/>
</clipPath>
</defs>
</svg>
