<svg width="162" height="45" viewBox="0 0 162 45" fill="none" xmlns="http://www.w3.org/2000/svg">
<g opacity="0.6">
<path d="M74.5296 13.7785C74.3732 13.9055 74.1501 14.0459 73.8538 14.2029C73.5576 14.36 73.2047 14.5104 72.7952 14.6608C72.3857 14.8079 71.9396 14.9349 71.4536 15.0318C70.9676 15.1321 70.4616 15.1822 69.9422 15.1822C68.827 15.1822 67.8017 15.0118 66.8662 14.6742C65.9274 14.3333 65.1185 13.8386 64.4327 13.1869C63.7502 12.5352 63.2143 11.7397 62.8248 10.7972C62.4353 9.85474 62.2422 8.78524 62.2422 7.58205C62.2422 6.37886 62.4353 5.30936 62.8248 4.37689C63.2109 3.44441 63.7502 2.64897 64.4427 1.99724C65.1318 1.34551 65.9607 0.850867 66.9261 0.509963C67.8915 0.169059 68.9602 0.00195312 70.1287 0.00195312C71.0175 0.00195312 71.8997 0.122268 72.7819 0.362906C73.6641 0.603544 74.463 0.887633 75.1821 1.21183C74.9557 1.63629 74.8059 1.99724 74.726 2.2947C74.6495 2.59215 74.5896 2.83947 74.5463 3.03666C74.5463 3.10685 74.5429 3.2138 74.5363 3.35418C74.5296 3.49455 74.5263 3.57476 74.5263 3.58813L73.5742 3.63158C73.4344 3.49121 73.2546 3.31741 73.0349 3.11019C72.8152 2.90632 72.5588 2.71581 72.2626 2.53868C71.9663 2.36154 71.64 2.21114 71.2805 2.08079C70.921 1.95379 70.5381 1.89029 70.1287 1.89029C69.4529 1.89029 68.8203 2.00393 68.2344 2.2312C67.6485 2.45847 67.1425 2.80271 66.7131 3.27062C66.2836 3.73853 65.9441 4.33009 65.6977 5.04198C65.4514 5.75721 65.3282 6.60279 65.3282 7.57871C65.3282 8.55463 65.4514 9.40021 65.6977 10.1154C65.9441 10.8307 66.2836 11.4222 66.7131 11.8868C67.1425 12.3547 67.6519 12.7023 68.2344 12.9262C68.8203 13.1535 69.4495 13.2671 70.1287 13.2671C70.5381 13.2671 70.9343 13.2036 71.3238 13.0766C71.7099 12.9496 72.0795 12.7892 72.4224 12.5987C72.7686 12.4082 73.0848 12.2076 73.3745 12.0038C73.6641 11.7999 73.9138 11.6194 74.1235 11.4623L74.7793 12.1208L74.5263 13.7785H74.5296Z" fill="#E6E7E8"/>
<path d="M76.4141 9.66386C76.4141 8.67457 76.5739 7.83234 76.8901 7.13716C77.2064 6.44533 77.6158 5.87715 78.1152 5.43933C78.6145 5.0015 79.1838 4.68733 79.8163 4.49348C80.4522 4.30298 81.0847 4.20605 81.7205 4.20605C82.3564 4.20605 82.9889 4.30298 83.6247 4.49348C84.2606 4.68399 84.8265 4.99816 85.3259 5.43933C85.8252 5.87715 86.2347 6.44533 86.551 7.13716C86.8672 7.83234 87.027 8.67457 87.027 9.66386C87.027 10.6532 86.8672 11.5154 86.551 12.2006C86.2347 12.8857 85.8252 13.4506 85.3259 13.8884C84.8265 14.3262 84.2573 14.6404 83.6247 14.8342C82.9889 15.0247 82.3564 15.1217 81.7205 15.1217C81.0847 15.1217 80.4522 15.0247 79.8163 14.8342C79.1805 14.6437 78.6145 14.3296 78.1152 13.8884C77.6158 13.4506 77.2064 12.8857 76.8901 12.2006C76.5739 11.5154 76.4141 10.6699 76.4141 9.66386ZM79.2903 9.66386C79.2903 10.1318 79.3303 10.583 79.4069 11.0241C79.4834 11.462 79.6166 11.853 79.8097 12.1906C80.0028 12.5281 80.2491 12.8022 80.562 13.0094C80.8716 13.2166 81.2611 13.3169 81.7239 13.3169C82.1866 13.3169 82.5761 13.2133 82.8857 13.0094C83.1953 12.8055 83.445 12.5315 83.6347 12.1906C83.8245 11.8497 83.9576 11.462 84.0375 11.0241C84.1141 10.5863 84.1541 10.1318 84.1541 9.66386C84.1541 9.19595 84.1141 8.74476 84.0375 8.30359C83.961 7.86576 83.8245 7.47472 83.6347 7.13716C83.445 6.79626 83.1953 6.52554 82.8857 6.31833C82.5761 6.11445 82.1866 6.01084 81.7239 6.01084C81.2611 6.01084 80.8716 6.11445 80.562 6.31833C80.2524 6.5222 80.0028 6.79626 79.8097 7.13716C79.6166 7.47807 79.4868 7.86576 79.4069 8.30359C79.3303 8.74141 79.2903 9.19595 79.2903 9.66386Z" fill="#E6E7E8"/>
<path d="M94.3989 7.00576C94.1226 6.59467 93.7531 6.3908 93.2904 6.3908C92.5713 6.3908 92.0486 6.61807 91.7257 7.06926C91.4028 7.5238 91.2397 8.1655 91.2397 9.00105V10.6788C91.2397 11.2604 91.2563 11.9255 91.293 12.6741C91.3296 13.4261 91.3895 14.2182 91.4727 15.0538C91.1199 14.9836 90.8103 14.9268 90.5439 14.8833C90.2743 14.8399 90.0712 14.8198 89.9314 14.8198C89.7916 14.8198 89.5885 14.8399 89.3288 14.8833C89.0692 14.9268 88.7529 14.9836 88.3867 15.0538C88.4866 14.2182 88.5532 13.4261 88.5865 12.6741C88.6231 11.9255 88.6397 11.2604 88.6397 10.6788V8.6401C88.6397 8.05855 88.6231 7.3968 88.5865 6.65483C88.5498 5.91286 88.4833 5.11408 88.3867 4.26516C88.7529 4.33535 89.0658 4.39216 89.3288 4.43561C89.5885 4.47906 89.7916 4.49912 89.9314 4.49912C90.0313 4.49912 90.201 4.47906 90.4507 4.43561C90.6971 4.39216 90.9967 4.33535 91.3496 4.26516C91.3496 4.40553 91.3462 4.54256 91.3396 4.66957C91.3329 4.79657 91.3229 4.91689 91.3063 5.03052C91.6458 4.76315 92.022 4.55593 92.4381 4.41556C92.8543 4.27519 93.317 4.20166 93.823 4.20166C94.2458 4.20166 94.6786 4.26182 95.1247 4.38214C95.5674 4.50246 95.9669 4.71301 96.3198 5.00713C96.6727 5.30458 96.9623 5.71233 97.1853 6.22703C97.4117 6.74507 97.5249 7.3968 97.5249 8.19224C97.5249 8.74371 97.5116 9.3219 97.4816 9.9235C97.4517 10.5251 97.4383 11.1501 97.4383 11.8018C97.4383 12.0157 97.4383 12.2664 97.4483 12.5538C97.455 12.8446 97.4616 13.1387 97.4683 13.4361C97.475 13.7336 97.4816 14.0244 97.4883 14.3051C97.4949 14.5892 97.5049 14.8365 97.5216 15.0471C97.1554 14.9769 96.8491 14.9201 96.6028 14.8766C96.3564 14.8332 96.1766 14.8131 96.0635 14.8131C95.9503 14.8131 95.7705 14.8332 95.5242 14.8766C95.2778 14.9201 94.9915 14.9769 94.6686 15.0471L94.7518 12.7109C94.7951 11.8052 94.8151 10.8927 94.8151 9.97363V8.76376C94.8151 7.99839 94.6786 7.41351 94.4023 7.00242L94.3989 7.00576Z" fill="#E6E7E8"/>
<path d="M104.973 7.00576C104.697 6.59467 104.327 6.3908 103.865 6.3908C103.146 6.3908 102.623 6.61807 102.3 7.06926C101.977 7.5238 101.814 8.1655 101.814 9.00105V10.6788C101.814 11.2604 101.831 11.9255 101.867 12.6741C101.904 13.4261 101.964 14.2182 102.047 15.0538C101.694 14.9836 101.384 14.9268 101.118 14.8833C100.848 14.8399 100.645 14.8198 100.506 14.8198C100.366 14.8198 100.163 14.8399 99.9031 14.8833C99.6434 14.9268 99.3271 14.9836 98.9609 15.0538C99.0608 14.2182 99.1274 13.4261 99.1607 12.6741C99.1973 11.9255 99.2139 11.2604 99.2139 10.6788V8.6401C99.2139 8.05855 99.1973 7.3968 99.1607 6.65483C99.1241 5.91286 99.0575 5.11408 98.9609 4.26516C99.3271 4.33535 99.6401 4.39216 99.9031 4.43561C100.163 4.47906 100.366 4.49912 100.506 4.49912C100.605 4.49912 100.775 4.47906 101.025 4.43561C101.271 4.39216 101.571 4.33535 101.924 4.26516C101.924 4.40553 101.92 4.54256 101.914 4.66957C101.907 4.79657 101.897 4.91689 101.88 5.03052C102.22 4.76315 102.596 4.55593 103.012 4.41556C103.428 4.27519 103.891 4.20166 104.397 4.20166C104.82 4.20166 105.253 4.26182 105.699 4.38214C106.142 4.50246 106.541 4.71301 106.894 5.00713C107.247 5.30458 107.537 5.71233 107.76 6.22703C107.986 6.74507 108.099 7.3968 108.099 8.19224C108.099 8.74371 108.086 9.3219 108.056 9.9235C108.026 10.5251 108.013 11.1501 108.013 11.8018C108.013 12.0157 108.013 12.2664 108.023 12.5538C108.029 12.8446 108.036 13.1387 108.043 13.4361C108.049 13.7336 108.056 14.0244 108.062 14.3051C108.069 14.5892 108.079 14.8365 108.096 15.0471C107.73 14.9769 107.423 14.9201 107.177 14.8766C106.931 14.8332 106.751 14.8131 106.638 14.8131C106.524 14.8131 106.345 14.8332 106.098 14.8766C105.852 14.9201 105.566 14.9769 105.243 15.0471L105.326 12.7109C105.369 11.8052 105.389 10.8927 105.389 9.97363V8.76376C105.389 7.99839 105.253 7.41351 104.976 7.00242L104.973 7.00576Z" fill="#E6E7E8"/>
<path d="M109.441 9.93792C109.441 9.06226 109.551 8.26683 109.768 7.56162C109.987 6.85308 110.31 6.25148 110.74 5.75683C111.169 5.26219 111.698 4.88118 112.324 4.61046C112.95 4.34309 113.666 4.20605 114.472 4.20605C115.277 4.20605 115.923 4.32637 116.502 4.56701C117.082 4.80765 117.561 5.13853 117.94 5.55296C118.32 5.96739 118.606 6.45535 118.796 7.00682C118.986 7.55828 119.082 8.1465 119.082 8.76815C119.082 8.83834 119.079 8.93526 119.072 9.05558C119.066 9.1759 119.059 9.30625 119.052 9.44662C119.046 9.58699 119.039 9.72402 119.032 9.85102C119.026 9.97803 119.022 10.0716 119.022 10.1284H118.58C118.396 10.1284 118.21 10.1251 118.02 10.1184C117.831 10.1117 117.647 10.1084 117.471 10.1084H117.038C116.572 10.095 116.116 10.085 115.663 10.075C115.211 10.0683 114.761 10.0649 114.308 10.0649C114.025 10.0649 113.746 10.0683 113.463 10.075C113.18 10.0816 112.9 10.0917 112.617 10.1084H112.321C112.321 10.5328 112.381 10.9306 112.501 11.2982C112.621 11.6658 112.8 11.9833 113.04 12.2541C113.28 12.5248 113.573 12.7353 113.919 12.8924C114.265 13.0495 114.661 13.1264 115.114 13.1264C115.327 13.1264 115.557 13.0829 115.813 12.9994C116.069 12.9158 116.319 12.7988 116.576 12.6484C116.829 12.498 117.075 12.3276 117.315 12.1271C117.554 11.9299 117.781 11.7093 117.99 11.4686L118.753 12.1906L118.583 13.6344C118.09 14.0321 117.498 14.3764 116.805 14.6738C116.113 14.9713 115.43 15.1183 114.755 15.1183C113.966 15.1183 113.246 14.988 112.597 14.7239C111.948 14.4633 111.392 14.099 110.926 13.631C110.46 13.1631 110.097 12.615 109.838 11.9867C109.578 11.3584 109.445 10.6732 109.445 9.93792H109.441ZM114.518 6.01084C114.192 6.01084 113.916 6.07434 113.683 6.20135C113.45 6.32835 113.25 6.4988 113.08 6.70936C112.91 6.91992 112.777 7.1639 112.677 7.43127C112.577 7.69865 112.501 7.96937 112.444 8.23674H112.551C112.847 8.25011 113.147 8.25679 113.45 8.25679H115.204C115.507 8.25679 115.807 8.25011 116.103 8.23674H116.313C116.286 7.98274 116.236 7.72205 116.166 7.45133C116.096 7.18395 115.99 6.93997 115.85 6.72941C115.71 6.51886 115.53 6.34506 115.31 6.20803C115.091 6.07434 114.828 6.0075 114.518 6.0075V6.01084Z" fill="#E6E7E8"/>
<path d="M120.332 9.66052C120.332 8.71134 120.492 7.89584 120.808 7.20735C121.124 6.5222 121.544 5.95403 122.066 5.50951C122.589 5.065 123.178 4.73413 123.844 4.52357C124.507 4.31301 125.189 4.20605 125.895 4.20605C126.274 4.20605 126.657 4.24282 127.037 4.31301C127.416 4.38319 127.776 4.48012 128.115 4.60044C128.455 4.72076 128.761 4.86113 129.034 5.0249C129.31 5.18866 129.537 5.35243 129.72 5.52288C129.58 5.82034 129.454 6.1345 129.34 6.46872C129.227 6.80294 129.137 7.15053 129.064 7.51817H128.092C127.992 7.34772 127.869 7.17393 127.722 6.99679C127.576 6.81965 127.41 6.65588 127.226 6.50883C127.043 6.36177 126.844 6.24146 126.624 6.14787C126.404 6.05764 126.174 6.01084 125.938 6.01084C125.445 6.01084 125.029 6.10443 124.69 6.28825C124.35 6.47207 124.071 6.72607 123.844 7.05361C123.618 7.3778 123.455 7.76216 123.358 8.19998C123.258 8.63781 123.212 9.11908 123.212 9.64381C123.212 10.7902 123.451 11.6592 123.931 12.244C124.41 12.8323 125.099 13.1264 126.005 13.1264C126.441 13.1264 126.927 12.966 127.463 12.6484C127.999 12.3309 128.472 11.9366 128.881 11.4687L129.643 12.1906C129.6 12.4312 129.567 12.6718 129.537 12.9125C129.507 13.1531 129.487 13.3938 129.474 13.6344C129.234 13.8316 128.961 14.0187 128.658 14.1959C128.355 14.373 128.039 14.5334 127.706 14.6738C127.373 14.8142 127.033 14.9245 126.68 15.0013C126.328 15.0782 125.981 15.1183 125.645 15.1183C125.009 15.1183 124.38 15.0181 123.751 14.8209C123.125 14.6237 122.556 14.3062 122.05 13.865C121.544 13.4272 121.131 12.859 120.811 12.1672C120.495 11.4753 120.335 10.6398 120.335 9.66052H120.332Z" fill="#E6E7E8"/>
<path d="M133.611 1.78606H134.456C134.373 2.77535 134.31 3.7379 134.266 4.67371C134.589 4.66034 134.952 4.64364 135.355 4.62024C135.758 4.60019 136.114 4.58013 136.424 4.56677C136.354 4.97451 136.314 5.2352 136.307 5.35552C136.3 5.47584 136.297 5.55606 136.297 5.59616V5.68974C136.297 5.72317 136.297 5.77664 136.307 5.84683C136.314 5.91701 136.327 6.01059 136.35 6.13091C136.37 6.25123 136.397 6.415 136.424 6.62556C136.254 6.61219 136.064 6.60216 135.854 6.59214C135.645 6.58545 135.435 6.57877 135.232 6.57208C135.029 6.5654 134.832 6.55872 134.649 6.55203C134.466 6.54535 134.316 6.542 134.206 6.542C134.193 6.75591 134.183 7.03665 134.177 7.38423C134.17 7.73182 134.163 8.10949 134.157 8.5139C134.15 8.9183 134.143 9.33608 134.137 9.77056C134.13 10.205 134.127 10.5961 134.127 10.9537C134.127 11.2512 134.133 11.5386 134.147 11.816C134.16 12.0934 134.2 12.3441 134.263 12.5713C134.326 12.7986 134.426 12.9791 134.559 13.1128C134.693 13.2464 134.879 13.3133 135.119 13.3133C135.189 13.3133 135.368 13.2799 135.658 13.2164C135.948 13.1529 136.254 13.0727 136.577 12.9724V14.6502C136.211 14.7772 135.841 14.8875 135.468 14.9777C135.095 15.0679 134.772 15.1147 134.506 15.1147C133.491 15.1147 132.742 14.844 132.256 14.3059C131.77 13.7678 131.527 13.0225 131.527 12.07C131.527 11.7291 131.53 11.3748 131.537 11.0072C131.543 10.6395 131.553 10.2385 131.57 9.80399C131.583 9.37284 131.597 8.88822 131.613 8.35681C131.626 7.82541 131.64 7.21712 131.656 6.53866H130.238C130.265 6.31473 130.295 6.10418 130.322 5.91033C130.348 5.71314 130.365 5.60284 130.365 5.57276C130.351 5.54603 130.331 5.42571 130.312 5.21515C130.292 5.00459 130.265 4.78066 130.238 4.54337C130.521 4.57345 130.791 4.5935 131.054 4.60687C131.314 4.62024 131.493 4.62692 131.593 4.62692V4.60687C131.593 4.47987 131.59 4.32947 131.583 4.16236C131.577 3.99191 131.57 3.81811 131.563 3.64098C131.557 3.46384 131.55 3.2867 131.543 3.10957C131.537 2.93243 131.533 2.78203 131.533 2.65169L133.627 1.78271L133.611 1.78606Z" fill="#E6E7E8"/>
<path d="M136.805 1.57083C136.805 1.14637 136.961 0.778735 137.271 0.46791C137.58 0.157086 137.953 0 138.393 0C138.832 0 139.202 0.157086 139.515 0.46791C139.824 0.778735 139.981 1.14637 139.981 1.57083C139.981 1.99529 139.824 2.38633 139.515 2.69715C139.205 3.00798 138.832 3.16506 138.393 3.16506C137.953 3.16506 137.58 3.00798 137.271 2.69715C136.961 2.38633 136.805 2.012 136.805 1.57083ZM137.078 8.64292C137.078 8.06138 137.064 7.39962 137.034 6.65765C137.004 5.91569 136.941 5.1169 136.845 4.26799C137.198 4.33817 137.507 4.39499 137.773 4.43844C138.04 4.48188 138.246 4.50194 138.386 4.50194C138.526 4.50194 138.732 4.48188 138.999 4.43844C139.265 4.39499 139.578 4.33817 139.927 4.26799C139.827 5.1169 139.764 5.91234 139.738 6.65765C139.708 7.39962 139.694 8.06138 139.694 8.64292V10.6817C139.694 11.2632 139.708 11.9283 139.738 12.677C139.764 13.4289 139.827 14.221 139.927 15.0566C139.574 14.9864 139.265 14.9296 138.999 14.8861C138.732 14.8427 138.526 14.8226 138.386 14.8226C138.246 14.8226 138.04 14.8427 137.773 14.8861C137.507 14.9296 137.194 14.9864 136.845 15.0566C136.945 14.221 137.008 13.4289 137.034 12.677C137.061 11.9283 137.078 11.2632 137.078 10.6817V8.64292Z" fill="#E6E7E8"/>
<path d="M146.926 7.00576C146.65 6.59467 146.28 6.3908 145.818 6.3908C145.099 6.3908 144.576 6.61807 144.253 7.06926C143.93 7.5238 143.767 8.1655 143.767 9.00105V10.6788C143.767 11.2604 143.784 11.9255 143.82 12.6741C143.857 13.4261 143.917 14.2182 144 15.0538C143.647 14.9836 143.338 14.9268 143.071 14.8833C142.805 14.8399 142.599 14.8198 142.459 14.8198C142.319 14.8198 142.116 14.8399 141.856 14.8833C141.597 14.9268 141.28 14.9836 140.914 15.0538C141.014 14.2182 141.081 13.4261 141.114 12.6741C141.15 11.9255 141.167 11.2604 141.167 10.6788V8.6401C141.167 8.05855 141.15 7.3968 141.114 6.65483C141.077 5.91286 141.011 5.11408 140.914 4.26516C141.28 4.33535 141.593 4.39216 141.856 4.43561C142.116 4.47906 142.319 4.49912 142.459 4.49912C142.555 4.49912 142.728 4.47906 142.978 4.43561C143.224 4.39216 143.524 4.33535 143.877 4.26516C143.877 4.40553 143.874 4.54256 143.867 4.66957C143.86 4.79657 143.85 4.91689 143.837 5.03052C144.177 4.76315 144.553 4.55593 144.969 4.41556C145.385 4.27519 145.848 4.20166 146.354 4.20166C146.776 4.20166 147.209 4.26182 147.655 4.38214C148.098 4.50246 148.498 4.71301 148.85 5.00713C149.203 5.30458 149.493 5.71233 149.716 6.22703C149.942 6.74507 150.056 7.3968 150.056 8.19224C150.056 8.74371 150.042 9.3219 150.012 9.9235C149.982 10.5251 149.969 11.1501 149.969 11.8018C149.969 12.0157 149.972 12.2664 149.979 12.5538C149.986 12.8446 149.992 13.1387 149.999 13.4361C150.006 13.7336 150.012 14.0244 150.019 14.3051C150.026 14.5892 150.036 14.8365 150.052 15.0471C149.686 14.9769 149.38 14.9201 149.133 14.8766C148.887 14.8332 148.707 14.8131 148.594 14.8131C148.481 14.8131 148.301 14.8332 148.055 14.8766C147.808 14.9201 147.522 14.9769 147.199 15.0471L147.282 12.7109C147.326 11.8052 147.346 10.8927 147.346 9.97363V8.76376C147.346 7.99839 147.209 7.41351 146.933 7.00242L146.926 7.00576Z" fill="#E6E7E8"/>
<path d="M151.754 7.98695C151.754 7.34859 151.867 6.79379 152.094 6.3192C152.32 5.84461 152.63 5.45357 153.023 5.1394C153.415 4.82858 153.875 4.59462 154.397 4.43754C154.92 4.28046 155.469 4.20359 156.045 4.20359C156.215 4.20359 156.385 4.20693 156.551 4.21361C156.721 4.2203 156.904 4.23032 157.101 4.24369C157.184 4.25706 157.277 4.26374 157.377 4.26374C157.477 4.26374 157.58 4.27043 157.693 4.2838H157.989C158.216 4.31053 158.416 4.33059 158.592 4.33727C158.768 4.34396 158.898 4.3473 158.982 4.3473C159.348 4.3473 159.731 4.3239 160.133 4.27377C160.536 4.22364 160.912 4.1568 161.265 4.07324C161.222 4.35733 161.189 4.61468 161.159 4.84863C161.129 5.08258 161.115 5.21961 161.115 5.26306C161.115 5.31988 161.125 5.45023 161.145 5.6541C161.165 5.85797 161.199 6.0819 161.242 6.32254C161.199 6.32254 161.115 6.31586 160.989 6.30249C160.862 6.28912 160.726 6.27575 160.576 6.25904C160.43 6.24567 160.29 6.2323 160.163 6.21559C160.037 6.20222 159.95 6.19553 159.91 6.19553H159.784V6.17548H159.764C160.117 6.74031 160.293 7.35194 160.293 8.00032C160.293 9.17677 159.914 10.0892 159.151 10.7376C158.389 11.3893 157.367 11.7135 156.085 11.7135H155.493C155.409 11.7001 155.326 11.6934 155.25 11.6934H155.007C154.923 11.6934 154.84 11.7202 154.764 11.777C154.687 11.8338 154.647 11.904 154.647 11.9909C154.647 12.1313 154.687 12.2349 154.764 12.2984C154.84 12.3619 154.993 12.402 155.22 12.4154C155.403 12.4287 155.586 12.4388 155.769 12.4454C155.952 12.4521 156.129 12.4555 156.298 12.4555H157.357C158.046 12.4822 158.642 12.5791 159.145 12.7429C159.644 12.9067 160.05 13.1239 160.36 13.4013C160.669 13.6787 160.899 13.9996 161.046 14.3672C161.192 14.7348 161.269 15.1326 161.269 15.557C161.269 16.0818 161.169 16.6098 160.972 17.1479C160.776 17.686 160.466 18.174 160.043 18.6118C159.621 19.0496 159.081 19.4106 158.426 19.6947C157.77 19.9787 156.984 20.1191 156.069 20.1191C155.363 20.1191 154.724 20.0423 154.144 19.8852C153.565 19.7281 153.076 19.5042 152.673 19.2067C152.27 18.9092 151.961 18.5516 151.744 18.1339C151.524 17.7161 151.418 17.2382 151.418 16.7001C151.418 16.0784 151.554 15.5503 151.831 15.1192C152.107 14.6881 152.447 14.3304 152.856 14.0464C152.673 13.8492 152.53 13.6186 152.423 13.3579C152.317 13.0972 152.264 12.8164 152.264 12.519C152.264 12.1647 152.337 11.8472 152.487 11.5631C152.633 11.279 152.829 11.0384 153.069 10.8412C152.646 10.517 152.32 10.1159 152.097 9.64134C151.871 9.16674 151.758 8.61194 151.758 7.97358L151.754 7.98695ZM158.669 16.416C158.669 15.8511 158.482 15.4434 158.109 15.1961C157.736 14.9487 157.134 14.8251 156.302 14.8251C155.526 14.8251 154.92 14.9487 154.484 15.1961C154.048 15.4434 153.828 15.8779 153.828 16.5029C153.828 17.1813 154.048 17.666 154.484 17.9567C154.92 18.2475 155.463 18.3912 156.112 18.3912C156.435 18.3912 156.751 18.3511 157.054 18.2742C157.357 18.1974 157.63 18.077 157.87 17.9133C158.109 17.7495 158.302 17.5456 158.452 17.2983C158.602 17.051 158.675 16.7569 158.675 16.416H158.669ZM157.61 7.88C157.61 7.25835 157.467 6.78042 157.177 6.4462C156.888 6.11198 156.518 5.94821 156.069 5.94821C155.546 5.94821 155.146 6.13203 154.864 6.49967C154.581 6.86732 154.441 7.36196 154.441 7.98695C154.441 8.61194 154.571 9.12664 154.83 9.49428C155.09 9.86193 155.496 10.0457 156.045 10.0457C156.312 10.0457 156.545 9.98559 156.744 9.86527C156.941 9.74495 157.104 9.58786 157.23 9.38733C157.357 9.19014 157.453 8.95953 157.517 8.69884C157.58 8.43815 157.613 8.16409 157.613 7.88H157.61Z" fill="#E6E7E8"/>
<path d="M68.3358 39.0944C68.0293 38.2542 67.6325 37.2169 67.1493 35.9783C66.666 34.7398 66.1396 33.4342 65.5778 32.0577C65.012 30.6811 64.4384 29.2927 63.8491 27.8924C63.2598 26.4922 62.7254 25.2142 62.2422 24.0506C62.7686 24.1374 63.2165 24.2084 63.5858 24.2597C63.9512 24.311 64.1948 24.3386 64.3127 24.3386C64.4738 24.3386 64.6781 24.3228 64.9295 24.2952C65.177 24.2676 65.456 24.2202 65.7663 24.1611C66.3674 25.9558 67.0078 27.7583 67.6914 29.5609C68.3751 31.3635 69.149 33.2922 70.0134 35.3354C70.2491 34.7595 70.4966 34.1482 70.7598 33.4895C71.0231 32.8308 71.2863 32.1602 71.5535 31.47C71.8167 30.7797 72.076 30.0855 72.3353 29.3952C72.5907 28.705 72.8342 28.0384 73.0621 27.3955C73.29 26.7565 73.4982 26.1569 73.6907 25.5968C73.8793 25.0367 74.0443 24.5437 74.174 24.1177C74.4372 24.1926 74.6769 24.2479 74.889 24.2834C75.1012 24.3189 75.2505 24.3386 75.3408 24.3386C75.4312 24.3386 75.6355 24.307 75.9576 24.24C76.2798 24.1729 76.6766 24.0822 77.1442 23.9639C76.6177 25.1432 76.0637 26.3975 75.4823 27.7307C74.9008 29.0639 74.3272 30.4168 73.7536 31.7934C73.18 33.17 72.6221 34.5268 72.0799 35.8679C71.5377 37.209 71.0466 38.4593 70.6066 39.6229C70.3591 39.548 70.143 39.4928 69.9702 39.4573C69.7934 39.4218 69.6637 39.402 69.5733 39.402C69.483 39.402 69.3965 39.402 69.3101 39.4139C69.2237 39.4218 69.149 39.4375 69.0901 39.4691L68.3436 39.0944H68.3358Z" fill="#E6E7E8"/>
<path d="M74.957 34.0343C74.957 33.0048 75.122 32.1292 75.4521 31.4074C75.7821 30.6856 76.2064 30.0979 76.7289 29.6403C77.2475 29.1828 77.8408 28.8554 78.5008 28.6582C79.1608 28.461 79.8209 28.3584 80.4809 28.3584C81.141 28.3584 81.801 28.457 82.4611 28.6582C83.1211 28.8554 83.7104 29.1828 84.2329 29.6403C84.7515 30.0979 85.1798 30.6856 85.5098 31.4074C85.8398 32.1292 86.0048 33.0048 86.0048 34.0343C86.0048 35.0638 85.8398 35.9592 85.5098 36.6731C85.1798 37.387 84.7555 37.9708 84.2329 38.4283C83.7104 38.8859 83.1211 39.2132 82.4611 39.4105C81.801 39.6077 81.141 39.7102 80.4809 39.7102C79.8209 39.7102 79.1608 39.6116 78.5008 39.4105C77.8408 39.2093 77.2515 38.8859 76.7289 38.4283C76.2064 37.9708 75.7821 37.387 75.4521 36.6731C75.122 35.9592 74.957 35.0796 74.957 34.0343ZM77.9508 34.0343C77.9508 34.5195 77.9901 34.9928 78.0726 35.4464C78.1511 35.9039 78.2926 36.3063 78.489 36.6612C78.6855 37.0162 78.9487 37.3002 79.2709 37.5132C79.593 37.7262 79.9977 37.8327 80.4809 37.8327C80.9642 37.8327 81.3688 37.7262 81.691 37.5132C82.0132 37.3002 82.2725 37.0162 82.4728 36.6612C82.6693 36.3063 82.8107 35.9039 82.8893 35.4464C82.9679 34.9888 83.0111 34.5195 83.0111 34.0343C83.0111 33.5492 82.9718 33.0758 82.8893 32.6222C82.8068 32.1647 82.6693 31.7624 82.4728 31.4074C82.2764 31.0524 82.0132 30.7723 81.691 30.5554C81.3688 30.3424 80.9642 30.2359 80.4809 30.2359C79.9977 30.2359 79.593 30.3424 79.2709 30.5554C78.9487 30.7684 78.6894 31.0524 78.489 31.4074C78.2926 31.7624 78.1511 32.1647 78.0726 32.6222C77.9901 33.0798 77.9508 33.5492 77.9508 34.0343Z" fill="#E6E7E8"/>
<path d="M86.5977 25.6159C86.5977 25.1741 86.7587 24.7915 87.0809 24.4681C87.4031 24.1446 87.792 23.9829 88.2477 23.9829C88.7035 23.9829 89.0924 24.1446 89.4146 24.4681C89.7368 24.7915 89.8978 25.1741 89.8978 25.6159C89.8978 26.0576 89.7368 26.4639 89.4146 26.7873C89.0924 27.1108 88.7035 27.2725 88.2477 27.2725C87.792 27.2725 87.4031 27.1108 87.0809 26.7873C86.7587 26.4639 86.5977 26.0734 86.5977 25.6159ZM86.8845 32.9681C86.8845 32.3646 86.8687 31.6744 86.8412 30.9013C86.8098 30.1282 86.7469 29.2999 86.6448 28.4163C87.0102 28.4913 87.3323 28.5505 87.6113 28.5938C87.8902 28.6372 88.1024 28.6609 88.2477 28.6609C88.3931 28.6609 88.6053 28.6372 88.8842 28.5938C89.1632 28.5505 89.4853 28.4913 89.8507 28.4163C89.7486 29.2999 89.6818 30.1282 89.6543 30.9013C89.6228 31.6744 89.611 32.3646 89.611 32.9681V35.0902C89.611 35.6937 89.6268 36.3879 89.6543 37.1649C89.6818 37.9459 89.7486 38.7703 89.8507 39.638C89.4853 39.5631 89.1592 39.5039 88.8842 39.4605C88.6053 39.4171 88.3931 39.3935 88.2477 39.3935C88.1024 39.3935 87.8863 39.4171 87.6113 39.4605C87.3323 39.5039 87.0102 39.5631 86.6448 39.638C86.7469 38.7703 86.8137 37.9459 86.8412 37.1649C86.8687 36.3839 86.8845 35.6937 86.8845 35.0902V32.9681Z" fill="#E6E7E8"/>
<path d="M90.8412 35.0958C90.8412 34.6264 90.8412 34.1018 90.8295 33.5259C90.8216 32.9501 90.8059 32.3663 90.7862 31.7707C90.7627 31.1751 90.7391 30.5874 90.7077 30.0155C90.6762 29.4396 90.6409 28.9111 90.5977 28.4259C90.9788 28.5008 91.3009 28.56 91.5641 28.6034C91.8274 28.6468 92.0317 28.6705 92.181 28.6705C92.342 28.6705 92.5503 28.6507 92.8096 28.6152C93.0649 28.5797 93.3635 28.5245 93.7014 28.4496C93.67 28.5837 93.6582 28.6744 93.6582 28.7257V28.8479C93.6582 28.8795 93.6582 28.8992 93.67 28.915C93.6778 28.9308 93.6896 29.0412 93.7014 29.2463C94.0393 28.9821 94.4243 28.7691 94.8565 28.6073C95.2886 28.4456 95.8073 28.3628 96.4084 28.3628C97.0095 28.3628 97.5752 28.4693 98.1449 28.6823C98.7185 28.8953 99.2214 29.2305 99.6614 29.6881C100.101 30.1456 100.459 30.7255 100.73 31.4315C101.001 32.1375 101.139 32.9856 101.139 33.9717C101.139 34.9577 100.993 35.786 100.699 36.5C100.404 37.2139 100.023 37.8095 99.5553 38.2907C99.0839 38.768 98.5535 39.1269 97.9602 39.3636C97.367 39.6002 96.7698 39.7186 96.1687 39.7186C95.1276 39.7186 94.2554 39.4227 93.5521 38.835C93.5521 39.2768 93.5521 39.758 93.5639 40.2826C93.5718 40.8072 93.5875 41.3357 93.6071 41.8722C93.6307 42.4086 93.6543 42.945 93.6857 43.4854C93.7171 44.0218 93.7525 44.5267 93.7957 45C93.4303 44.9251 93.1082 44.8659 92.8292 44.8225C92.5503 44.7792 92.3381 44.7555 92.1927 44.7555C92.0474 44.7555 91.8352 44.7792 91.5641 44.8225C91.2931 44.8659 90.9748 44.9251 90.6055 45C90.6487 44.4833 90.6841 43.9351 90.7155 43.3552C90.743 42.7715 90.7705 42.1877 90.7941 41.6C90.8177 41.0123 90.8294 40.4404 90.8373 39.8882C90.8452 39.336 90.8491 38.839 90.8491 38.3972V35.1076L90.8412 35.0958ZM98.1488 33.948C98.1488 33.2577 98.082 32.6858 97.9524 32.2361C97.8227 31.7865 97.6499 31.4315 97.4456 31.1633C97.2413 30.899 97.0095 30.7097 96.7541 30.5992C96.4987 30.4888 96.2355 30.4336 95.9723 30.4336C95.5322 30.4336 95.159 30.5282 94.8486 30.7215C94.5422 30.9148 94.2907 31.1791 94.1022 31.5183C93.9096 31.8575 93.7721 32.2519 93.6857 32.7016C93.5993 33.1512 93.5521 33.6245 93.5521 34.1255C93.5521 35.3167 93.7525 36.216 94.1572 36.8195C94.5618 37.423 95.1433 37.7267 95.9055 37.7267C96.2866 37.7267 96.6205 37.632 96.9073 37.4387C97.1941 37.2455 97.4298 36.9772 97.6106 36.6341C97.7913 36.2909 97.9288 35.8886 98.0192 35.4311C98.1056 34.9735 98.1528 34.4805 98.1528 33.9519L98.1488 33.948Z" fill="#E6E7E8"/>
<path fill-rule="evenodd" clip-rule="evenodd" d="M25.7125 22.2009C18.1106 22.261 10.746 24.9437 4.51017 29.9531L4.39038 30.0733C1.59842 32.9365 0.412064 36.2737 1.00409 39.7335C1.12388 40.6286 1.59842 41.4033 2.25034 42L4.50787 44.0861C5.16209 44.6828 6.11118 44.921 7.00267 44.5625L13.0611 42.4163C15.0215 41.7017 16.2079 39.7937 15.9706 37.7053L15.5559 34.486C22.6833 31.7431 29.0389 31.6229 36.2239 34.2478L35.9267 37.4671C35.6894 39.5532 36.9357 41.4611 38.896 42.118L45.0144 44.1462C45.846 44.4445 46.7951 44.2063 47.4493 43.6097L49.6469 41.5236C50.3012 40.9269 50.7158 40.092 50.8356 39.197C51.37 35.7395 50.1238 32.4601 47.212 29.6571C47.212 29.6571 47.1521 29.5969 47.0923 29.5368C40.7366 24.7078 33.3144 22.0829 25.7102 22.2032L25.7125 22.2009Z" fill="#F1F2F2"/>
<path fill-rule="evenodd" clip-rule="evenodd" d="M39.3732 41.2224C38.5416 40.9241 38.0072 40.0892 38.0671 39.2543V38.4194C41.2138 39.1942 44.1255 40.3274 46.9751 41.759L45.4317 43.2507L39.3732 41.2224Z" fill="#BCBEC0"/>
<path fill-rule="evenodd" clip-rule="evenodd" d="M11.8779 41.5183L5.87935 43.6645L4.33594 42.233C7.1279 40.7413 10.0374 39.6104 13.0666 38.7153L13.1864 39.4901C13.3062 40.3851 12.7717 41.22 11.9401 41.5183H11.8802H11.8779Z" fill="#BCBEC0"/>
<path d="M4.51736 29.3054C10.7532 24.2984 18.1155 21.6734 25.7174 21.6156C33.3193 21.4953 40.7415 24.0601 47.0948 28.8891C47.1547 28.9492 47.2146 29.0093 47.2146 29.0093C48.4056 30.1565 49.3178 31.3845 49.9421 32.6704C50.2393 33.2832 51.1469 33.1676 51.2828 32.5015C52.2964 27.5824 51.9301 22.1591 49.7325 16.6456C47.2837 10.5007 42.4001 5.62319 36.261 3.21334C17.6479 -4.09252 0 9.49004 0 27.2101C0 29.2429 0.232665 31.2203 0.670349 33.119C0.797047 33.6648 1.5365 33.7296 1.76456 33.2185C2.35659 31.8887 3.23656 30.6167 4.39758 29.428L4.51736 29.3077V29.3054Z" fill="white"/>
<mask id="mask0_16394_18912" style="mask-type:luminance" maskUnits="userSpaceOnUse" x="0" y="1" width="52" height="33">
<path d="M4.51736 29.3064C10.7532 24.2993 18.1155 21.6744 25.7174 21.6166C33.3193 21.4963 40.7415 24.0611 47.0948 28.8901C47.1547 28.9502 47.2146 29.0103 47.2146 29.0103C48.4056 30.1574 49.3178 31.3855 49.9421 32.6714C50.2393 33.2842 51.1469 33.1686 51.2828 32.5025C52.2964 27.5834 51.9301 22.1601 49.7325 16.6466C47.2837 10.5017 42.4001 5.62416 36.261 3.21432C17.6479 -4.09155 0 9.49102 0 27.211C0 29.2439 0.232665 31.2213 0.670349 33.12C0.797047 33.6658 1.5365 33.7306 1.76456 33.2195C2.35659 31.8897 3.23656 30.6177 4.39758 29.4289L4.51736 29.3087V29.3064Z" fill="white"/>
</mask>
<g mask="url(#mask0_16394_18912)">
<path fill-rule="evenodd" clip-rule="evenodd" d="M30.4548 14.3007L25.5758 19.2638C25.2694 21.2527 26.7253 25.2098 28.4023 27.1224C34.1037 26.01 39.7476 24.6015 43.6314 23.2278L43.5738 22.9294L43.8042 21.3406C44.0207 19.6778 44.1405 19.502 45.8152 19.021L49.994 17.5894C46.9463 6.61093 36.0549 -0.445157 24.9492 1.33332C25.6956 2.80883 26.6608 4.62431 27.1031 4.92496C27.6329 5.28343 29.6163 5.20712 30.904 5.10998C31.7471 5.10073 32.3115 4.83477 32.3069 5.60721L32.3714 7.13823C31.2288 7.97775 30.1899 8.56749 31.6158 9.98518C32.7031 11.2387 33.1477 11.1531 34.675 10.6998L37.6536 9.80942C39.045 9.4602 39.4596 9.61052 40.1161 11.0259L41.5513 13.6786C42.5626 15.3322 41.5282 15.1495 40.2843 15.4686L36.7621 13.1467C35.2717 12.5893 30.5424 14.3585 30.5424 14.3585L30.4548 14.2984V14.3007Z" fill="#BCBEC0"/>
<path fill-rule="evenodd" clip-rule="evenodd" d="M1.32812 18.7188C3.18713 17.9672 5.0853 16.3714 7.05027 17.5463C8.10763 18.1083 8.24584 18.1268 8.74342 19.748C9.53125 22.3984 11.692 20.4117 13.2055 19.6162C16.8129 10.733 16.0412 8.50821 12.7217 4.68066C7.33822 7.597 3.17331 12.5832 1.32812 18.7188Z" fill="#F1F2F2"/>
</g>
</g>
</svg>
