<svg width="127" height="49" viewBox="0 0 127 49" fill="none" xmlns="http://www.w3.org/2000/svg">
<g opacity="0.6">
<path d="M0 0.649969H8.59036C10.6706 0.649969 12.6408 0.878662 14.5008 1.33605C16.3853 1.79343 18.0251 2.53969 19.4201 3.57483C20.8151 4.58589 21.9164 5.9099 22.7241 7.54686C23.5562 9.18382 23.9722 11.1698 23.9722 13.5049C23.9722 15.5752 23.5684 17.4047 22.7608 18.9935C21.9776 20.5583 20.913 21.8823 19.5669 22.9656C18.2209 24.0248 16.6668 24.8312 14.9046 25.3849C13.1425 25.9386 11.2947 26.2154 9.36129 26.2154H0V0.649969ZM5.7269 21.0157H8.70049C10.0221 21.0157 11.2458 20.8833 12.3716 20.6185C13.5219 20.3537 14.5131 19.9203 15.3452 19.3185C16.1773 18.6926 16.8258 17.8862 17.2908 16.8992C17.7803 15.8881 18.0251 14.6604 18.0251 13.216C18.0251 11.9642 17.7803 10.881 17.2908 9.96619C16.8258 9.02735 16.1895 8.25701 15.3819 7.65519C14.5742 7.05337 13.6198 6.60802 12.5184 6.31914C11.4416 6.00619 10.3035 5.84972 9.10431 5.84972H5.7269V21.0157Z" fill="white"/>
<path d="M40.7047 6.89689C40.2397 6.31914 39.6033 5.89787 38.7957 5.63306C38.0125 5.34419 37.2661 5.19975 36.5563 5.19975C36.1403 5.19975 35.712 5.2479 35.2715 5.34419C34.8309 5.44048 34.4149 5.59696 34.0233 5.81361C33.6317 6.00619 33.3135 6.271 33.0688 6.60802C32.8241 6.94504 32.7017 7.35428 32.7017 7.83574C32.7017 8.60607 32.9954 9.19586 33.5827 9.6051C34.1701 10.0143 34.9043 10.3634 35.7854 10.6523C36.6909 10.9411 37.6577 11.23 38.6856 11.5189C39.7135 11.8078 40.668 12.217 41.549 12.7466C42.4546 13.2762 43.201 13.9864 43.7884 14.8771C44.3758 15.7678 44.6694 16.9594 44.6694 18.4519C44.6694 19.8722 44.4002 21.112 43.8618 22.1712C43.3234 23.2304 42.5892 24.109 41.6592 24.8071C40.7536 25.5053 39.689 26.0228 38.4653 26.3599C37.2661 26.6969 35.9934 26.8654 34.6474 26.8654C32.9587 26.8654 31.3923 26.6126 29.9484 26.1071C28.5044 25.6016 27.1583 24.7831 25.9102 23.6516L29.9851 19.2463C30.5725 20.0166 31.3067 20.6185 32.1877 21.0518C33.0933 21.461 34.0233 21.6656 34.9778 21.6656C35.4428 21.6656 35.9078 21.6175 36.3728 21.5212C36.8623 21.4008 37.2906 21.2323 37.6577 21.0157C38.0492 20.799 38.3552 20.5222 38.5754 20.1851C38.8202 19.8481 38.9425 19.4509 38.9425 18.9935C38.9425 18.2232 38.6366 17.6214 38.0248 17.1881C37.4374 16.7307 36.6909 16.3455 35.7854 16.0326C34.8799 15.7196 33.9009 15.4067 32.8485 15.0937C31.7962 14.7808 30.8172 14.3595 29.9117 13.8299C29.0061 13.3003 28.2474 12.6022 27.6356 11.7355C27.0482 10.8689 26.7545 9.72546 26.7545 8.30516C26.7545 6.933 27.0237 5.72936 27.5622 4.69422C28.1251 3.65908 28.8593 2.79246 29.7648 2.09434C30.6948 1.39623 31.7594 0.878661 32.9587 0.54164C34.1579 0.180547 35.3938 0 36.6665 0C38.1349 0 39.5544 0.204619 40.9249 0.613858C42.2955 1.0231 43.5314 1.70918 44.6327 2.67209L40.7047 6.89689Z" fill="white"/>
<path d="M48.2384 8.66625H53.5248V11.0495H53.5982C53.7696 10.7125 54.0143 10.3754 54.3325 10.0384C54.6506 9.70139 55.03 9.40048 55.4705 9.13567C55.911 8.87087 56.4127 8.65421 56.9756 8.4857C57.5385 8.31719 58.1504 8.23294 58.8112 8.23294C60.0594 8.23294 61.1607 8.48571 62.1152 8.99124C63.0941 9.49677 63.8283 10.2912 64.3178 11.3745C64.9541 10.243 65.7251 9.43659 66.6306 8.95513C67.5361 8.47367 68.6497 8.23294 69.9713 8.23294C71.1705 8.23294 72.174 8.43756 72.9816 8.8468C73.8137 9.23197 74.4623 9.77361 74.9273 10.4717C75.4168 11.1458 75.7594 11.9522 75.9552 12.8911C76.1755 13.8058 76.2856 14.7928 76.2856 15.852V26.2154H70.7789V15.9965C70.7789 15.178 70.5954 14.4799 70.2283 13.9021C69.8857 13.3003 69.2616 12.9994 68.356 12.9994C67.7197 12.9994 67.1813 13.1077 66.7407 13.3244C66.3247 13.5169 65.9821 13.7938 65.7128 14.1549C65.4681 14.516 65.2845 14.9372 65.1622 15.4187C65.0643 15.9002 65.0153 16.4057 65.0153 16.9353V26.2154H59.5087V16.9353C59.5087 16.6224 59.4965 16.2372 59.472 15.7798C59.4475 15.3224 59.3618 14.8891 59.215 14.4799C59.0682 14.0706 58.8234 13.7216 58.4808 13.4327C58.1626 13.1438 57.6854 12.9994 57.0491 12.9994C56.3393 12.9994 55.7642 13.1318 55.3236 13.3966C54.8831 13.6373 54.5405 13.9743 54.2957 14.4076C54.0755 14.8169 53.9286 15.2863 53.8552 15.8159C53.7818 16.3455 53.7451 16.8992 53.7451 17.4769V26.2154H48.2384V8.66625Z" fill="white"/>
<path d="M91.3781 24.0127H91.3046C90.6928 24.9516 89.8729 25.6256 88.845 26.0349C87.8416 26.4441 86.777 26.6487 85.6512 26.6487C84.8191 26.6487 84.0114 26.5284 83.2282 26.2876C82.4696 26.071 81.7965 25.734 81.2091 25.2766C80.6218 24.8192 80.1568 24.2535 79.8141 23.5794C79.4715 22.9054 79.3002 22.123 79.3002 21.2323C79.3002 20.2213 79.4837 19.3667 79.8508 18.6686C80.2424 17.9704 80.7564 17.3927 81.3927 16.9353C82.0535 16.4779 82.7999 16.1289 83.6321 15.8881C84.4642 15.6233 85.3208 15.4307 86.2018 15.3104C87.1074 15.19 88.0007 15.1178 88.8817 15.0937C89.7873 15.0696 90.6194 15.0576 91.3781 15.0576C91.3781 14.0947 91.0232 13.3364 90.3135 12.7827C89.6282 12.205 88.8083 11.9161 87.8538 11.9161C86.9483 11.9161 86.1162 12.1087 85.3575 12.4938C84.6233 12.8549 83.9625 13.3605 83.3751 14.0104L80.4382 11.0495C81.4661 10.1106 82.6653 9.41251 84.0359 8.95513C85.4064 8.47367 86.8259 8.23294 88.2944 8.23294C89.9096 8.23294 91.2312 8.43756 92.2591 8.8468C93.3115 9.23197 94.1436 9.80972 94.7555 10.58C95.3918 11.3504 95.8323 12.3013 96.0771 13.4327C96.3218 14.54 96.4442 15.8279 96.4442 17.2964V26.2154H91.3781V24.0127ZM90.0198 18.5241C89.6037 18.5241 89.0775 18.5482 88.4412 18.5963C87.8294 18.6204 87.2297 18.7167 86.6424 18.8852C86.0795 19.0537 85.59 19.3065 85.1739 19.6435C84.7823 19.9805 84.5865 20.4499 84.5865 21.0518C84.5865 21.7017 84.868 22.1832 85.4309 22.4961C85.9938 22.8091 86.5812 22.9656 87.193 22.9656C87.7315 22.9656 88.2454 22.8934 88.7349 22.7489C89.2488 22.6045 89.7016 22.3999 90.0932 22.1351C90.4848 21.8703 90.7907 21.5332 91.011 21.124C91.2557 20.7148 91.3781 20.2333 91.3781 19.6796V18.5241H90.0198Z" fill="white"/>
<path d="M99.899 8.66625H105.406V11.4828H105.479C106.066 10.3995 106.764 9.59306 107.572 9.06346C108.379 8.50978 109.395 8.23294 110.619 8.23294C110.937 8.23294 111.255 8.24498 111.573 8.26905C111.891 8.29312 112.185 8.34127 112.454 8.41349V13.3605C112.063 13.2401 111.671 13.1559 111.279 13.1077C110.912 13.0355 110.521 12.9994 110.105 12.9994C109.052 12.9994 108.22 13.1438 107.608 13.4327C106.996 13.7216 106.519 14.1308 106.177 14.6604C105.858 15.1659 105.65 15.7798 105.552 16.502C105.455 17.2242 105.406 18.0186 105.406 18.8852V26.2154H99.899V8.66625Z" fill="white"/>
<path d="M127 12.9994H122.154V18.8491C122.154 19.3306 122.179 19.7759 122.228 20.1851C122.277 20.5703 122.387 20.9073 122.558 21.1962C122.729 21.4851 122.986 21.7138 123.329 21.8823C123.696 22.0267 124.173 22.0989 124.761 22.0989C125.054 22.0989 125.434 22.0749 125.899 22.0267C126.388 21.9545 126.755 21.8101 127 21.5934V26.1071C126.388 26.3237 125.752 26.4682 125.091 26.5404C124.43 26.6126 123.782 26.6487 123.145 26.6487C122.215 26.6487 121.359 26.5524 120.576 26.3599C119.792 26.1673 119.107 25.8664 118.52 25.4571C117.932 25.0238 117.467 24.4701 117.125 23.7961C116.807 23.122 116.648 22.3036 116.648 21.3406V12.9994H113.123V8.66625H116.648V3.4665H122.154V8.66625H127V12.9994Z" fill="white"/>
<g opacity="0.76">
<path d="M20.0984 38.854C19.9293 38.6449 19.7179 38.4724 19.4642 38.3364C19.2211 38.19 18.9198 38.1168 18.5605 38.1168C18.2222 38.1168 17.9263 38.19 17.6726 38.3364C17.4295 38.4724 17.3079 38.6763 17.3079 38.9482C17.3079 39.1678 17.3766 39.3455 17.514 39.4815C17.662 39.6174 17.8311 39.7272 18.0214 39.8109C18.2222 39.8945 18.4336 39.9573 18.6556 39.9991C18.8776 40.041 19.0678 40.0776 19.2264 40.1089C19.5329 40.1821 19.8183 40.271 20.0825 40.3756C20.3574 40.4802 20.5899 40.6161 20.7802 40.7834C20.981 40.9507 21.1342 41.1547 21.2399 41.3952C21.3562 41.6357 21.4144 41.9285 21.4144 42.2736C21.4144 42.6919 21.3245 43.0527 21.1448 43.3559C20.9651 43.6487 20.7326 43.8892 20.4472 44.0775C20.1618 44.2657 19.8341 44.4017 19.4642 44.4853C19.1048 44.569 18.7402 44.6108 18.3702 44.6108C17.7466 44.6108 17.1969 44.5167 16.7213 44.3285C16.2562 44.1402 15.8387 43.7951 15.4688 43.2932L16.5469 42.4148C16.7794 42.6448 17.0384 42.8487 17.3238 43.0265C17.6092 43.2043 17.958 43.2932 18.3702 43.2932C18.5499 43.2932 18.7296 43.2775 18.9093 43.2461C19.0995 43.2043 19.2634 43.1468 19.4008 43.0736C19.5488 42.9899 19.665 42.8906 19.7496 42.7755C19.8447 42.6501 19.8923 42.5089 19.8923 42.352C19.8923 42.1429 19.8236 41.9703 19.6862 41.8344C19.5593 41.6984 19.4008 41.5939 19.2105 41.5207C19.0308 41.437 18.8353 41.3743 18.6239 41.3324C18.4231 41.2801 18.2434 41.2383 18.0848 41.2069C17.7783 41.1337 17.4876 41.0501 17.2128 40.956C16.938 40.8618 16.6949 40.7364 16.4835 40.5795C16.2721 40.4226 16.1029 40.224 15.9761 39.9834C15.8493 39.7429 15.7858 39.4449 15.7858 39.0893C15.7858 38.7024 15.8651 38.3678 16.0237 38.0854C16.1928 37.7926 16.4095 37.5521 16.6737 37.3639C16.9485 37.1756 17.2551 37.0345 17.5933 36.9404C17.9421 36.8462 18.2909 36.7992 18.6397 36.7992C19.1471 36.7992 19.6333 36.8933 20.0984 37.0815C20.5635 37.2698 20.9334 37.5835 21.2082 38.0227L20.0984 38.854Z" fill="white"/>
<path d="M24.226 41.2226C24.226 41.5468 24.2947 41.8448 24.4321 42.1167C24.5801 42.3782 24.7704 42.603 25.0029 42.7912C25.2354 42.9795 25.505 43.1259 25.8115 43.2304C26.118 43.335 26.4351 43.3873 26.7628 43.3873C27.2067 43.3873 27.5925 43.2879 27.9202 43.0893C28.2479 42.8801 28.5491 42.6082 28.8239 42.2736L29.9021 43.0893C29.1093 44.1036 27.9995 44.6108 26.5725 44.6108C25.9806 44.6108 25.4415 44.5115 24.9553 44.3128C24.4797 44.1141 24.0727 43.8422 23.7345 43.4971C23.4068 43.1415 23.1532 42.7285 22.9735 42.2579C22.7938 41.7769 22.7039 41.2592 22.7039 40.705C22.7039 40.1508 22.7991 39.6383 22.9893 39.1678C23.1901 38.6867 23.4597 38.2737 23.7979 37.9286C24.1467 37.573 24.559 37.2959 25.0346 37.0972C25.5103 36.8985 26.0282 36.7992 26.5884 36.7992C27.2543 36.7992 27.8145 36.9142 28.269 37.1443C28.7341 37.3743 29.1146 37.6776 29.4106 38.0541C29.7065 38.4201 29.9179 38.8384 30.0448 39.3089C30.1822 39.7691 30.2509 40.2396 30.2509 40.7207V41.2226H24.226ZM28.7288 40.0932C28.7182 39.7795 28.6654 39.4919 28.5703 39.2305C28.4857 38.9691 28.3536 38.7442 28.1739 38.556C27.9942 38.3573 27.7669 38.2057 27.4921 38.1011C27.2279 37.9861 26.9161 37.9286 26.5567 37.9286C26.2079 37.9286 25.8855 37.9965 25.5895 38.1325C25.3041 38.258 25.061 38.4253 24.8602 38.6344C24.6594 38.8436 24.5008 39.0789 24.3846 39.3403C24.2789 39.5913 24.226 39.8423 24.226 40.0932H28.7288Z" fill="white"/>
<path d="M31.9579 36.9874H33.3848V38.1325H33.4165C33.5117 37.9338 33.6385 37.756 33.7971 37.5992C33.9556 37.4318 34.13 37.2907 34.3203 37.1756C34.5211 37.0606 34.7378 36.9717 34.9703 36.909C35.2029 36.8358 35.4354 36.7992 35.6679 36.7992C35.9005 36.7992 36.1119 36.8306 36.3021 36.8933L36.2387 38.4148C36.1224 38.3835 36.0062 38.3573 35.8899 38.3364C35.7736 38.3155 35.6574 38.305 35.5411 38.305C34.8435 38.305 34.3097 38.4985 33.9398 38.8854C33.5698 39.2723 33.3848 39.8736 33.3848 40.6893V44.4226H31.9579V36.9874Z" fill="white"/>
<path d="M36.9223 36.9874H38.5713L40.8227 42.6814L42.9789 36.9874H44.501L41.552 44.4226H39.9823L36.9223 36.9874Z" fill="white"/>
<path d="M45.8645 36.9874H47.2915V44.4226H45.8645V36.9874ZM45.5316 34.3208C45.5316 34.0384 45.632 33.7979 45.8328 33.5992C46.0442 33.3901 46.2926 33.2855 46.578 33.2855C46.8634 33.2855 47.1065 33.3901 47.3073 33.5992C47.5187 33.7979 47.6244 34.0384 47.6244 34.3208C47.6244 34.6031 47.5187 34.8489 47.3073 35.058C47.1065 35.2567 46.8634 35.3561 46.578 35.3561C46.2926 35.3561 46.0442 35.2567 45.8328 35.058C45.632 34.8489 45.5316 34.6031 45.5316 34.3208Z" fill="white"/>
<path d="M54.9373 38.9638C54.673 38.692 54.3929 38.488 54.097 38.3521C53.8116 38.2057 53.468 38.1325 53.0664 38.1325C52.6753 38.1325 52.3318 38.2057 52.0358 38.3521C51.7504 38.488 51.5073 38.6815 51.3065 38.9325C51.1162 39.173 50.9682 39.4553 50.8625 39.7795C50.7674 40.0932 50.7198 40.4226 50.7198 40.7677C50.7198 41.1128 50.778 41.4422 50.8943 41.756C51.0105 42.0592 51.1744 42.3259 51.3858 42.5559C51.5972 42.786 51.8508 42.969 52.1468 43.1049C52.4428 43.2304 52.7757 43.2932 53.1457 43.2932C53.5473 43.2932 53.8908 43.2252 54.1762 43.0893C54.4616 42.9429 54.7259 42.7337 54.969 42.4618L55.9837 43.4657C55.6137 43.8736 55.1804 44.1664 54.6836 44.3441C54.1974 44.5219 53.6794 44.6108 53.1298 44.6108C52.5485 44.6108 52.0147 44.5167 51.5285 44.3285C51.0528 44.1402 50.6406 43.8788 50.2918 43.5442C49.943 43.1991 49.6734 42.7912 49.4832 42.3206C49.2929 41.8396 49.1978 41.3115 49.1978 40.7364C49.1978 40.1612 49.2929 39.6331 49.4832 39.1521C49.6734 38.671 49.9377 38.258 50.2759 37.9129C50.6247 37.5678 51.0369 37.3011 51.5126 37.1129C51.9988 36.9142 52.5379 36.8149 53.1298 36.8149C53.6794 36.8149 54.2026 36.9142 54.6994 37.1129C55.2068 37.3011 55.6455 37.5939 56.0154 37.9913L54.9373 38.9638Z" fill="white"/>
<path d="M58.2893 41.2226C58.2893 41.5468 58.358 41.8448 58.4955 42.1167C58.6434 42.3782 58.8337 42.603 59.0662 42.7912C59.2988 42.9795 59.5683 43.1259 59.8748 43.2304C60.1814 43.335 60.4985 43.3873 60.8261 43.3873C61.2701 43.3873 61.6559 43.2879 61.9835 43.0893C62.3112 42.8801 62.6125 42.6082 62.8873 42.2736L63.9654 43.0893C63.1727 44.1036 62.0628 44.6108 60.6359 44.6108C60.044 44.6108 59.5049 44.5115 59.0187 44.3128C58.543 44.1141 58.1361 43.8422 57.7978 43.4971C57.4702 43.1415 57.2165 42.7285 57.0368 42.2579C56.8571 41.7769 56.7673 41.2592 56.7673 40.705C56.7673 40.1508 56.8624 39.6383 57.0527 39.1678C57.2535 38.6867 57.523 38.2737 57.8613 37.9286C58.2101 37.573 58.6223 37.2959 59.0979 37.0972C59.5736 36.8985 60.0915 36.7992 60.6517 36.7992C61.3176 36.7992 61.8778 36.9142 62.3323 37.1443C62.7974 37.3743 63.1779 37.6776 63.4739 38.0541C63.7699 38.4201 63.9813 38.8384 64.1081 39.3089C64.2455 39.7691 64.3142 40.2396 64.3142 40.7207V41.2226H58.2893ZM62.7921 40.0932C62.7816 39.7795 62.7287 39.4919 62.6336 39.2305C62.549 38.9691 62.4169 38.7442 62.2372 38.556C62.0575 38.3573 61.8303 38.2057 61.5555 38.1011C61.2912 37.9861 60.9794 37.9286 60.62 37.9286C60.2712 37.9286 59.9488 37.9965 59.6529 38.1325C59.3675 38.258 59.1244 38.4253 58.9235 38.6344C58.7227 38.8436 58.5642 39.0789 58.4479 39.3403C58.3422 39.5913 58.2893 39.8423 58.2893 40.0932H62.7921Z" fill="white"/>
<path d="M70.0167 38.854C69.8475 38.6449 69.6361 38.4724 69.3825 38.3364C69.1394 38.19 68.8381 38.1168 68.4787 38.1168C68.1405 38.1168 67.8445 38.19 67.5909 38.3364C67.3478 38.4724 67.2262 38.6763 67.2262 38.9482C67.2262 39.1678 67.2949 39.3455 67.4323 39.4815C67.5803 39.6174 67.7494 39.7272 67.9397 39.8109C68.1405 39.8945 68.3519 39.9573 68.5739 39.9991C68.7958 40.041 68.9861 40.0776 69.1446 40.1089C69.4512 40.1821 69.7366 40.271 70.0008 40.3756C70.2756 40.4802 70.5082 40.6161 70.6984 40.7834C70.8993 40.9507 71.0525 41.1547 71.1582 41.3952C71.2745 41.6357 71.3326 41.9285 71.3326 42.2736C71.3326 42.6919 71.2428 43.0527 71.0631 43.3559C70.8834 43.6487 70.6509 43.8892 70.3655 44.0775C70.0801 44.2657 69.7524 44.4017 69.3825 44.4853C69.0231 44.569 68.6584 44.6108 68.2885 44.6108C67.6649 44.6108 67.1152 44.5167 66.6396 44.3285C66.1745 44.1402 65.757 43.7951 65.387 43.2932L66.4652 42.4148C66.6977 42.6448 66.9567 42.8487 67.2421 43.0265C67.5274 43.2043 67.8763 43.2932 68.2885 43.2932C68.4682 43.2932 68.6479 43.2775 68.8275 43.2461C69.0178 43.2043 69.1816 43.1468 69.3191 43.0736C69.467 42.9899 69.5833 42.8906 69.6679 42.7755C69.763 42.6501 69.8106 42.5089 69.8106 42.352C69.8106 42.1429 69.7419 41.9703 69.6044 41.8344C69.4776 41.6984 69.3191 41.5939 69.1288 41.5207C68.9491 41.437 68.7536 41.3743 68.5422 41.3324C68.3413 41.2801 68.1616 41.2383 68.0031 41.2069C67.6966 41.1337 67.4059 41.0501 67.1311 40.956C66.8563 40.8618 66.6131 40.7364 66.4017 40.5795C66.1903 40.4226 66.0212 40.224 65.8944 39.9834C65.7675 39.7429 65.7041 39.4449 65.7041 39.0893C65.7041 38.7024 65.7834 38.3678 65.9419 38.0854C66.1111 37.7926 66.3278 37.5521 66.592 37.3639C66.8668 37.1756 67.1734 37.0345 67.5116 36.9404C67.8604 36.8462 68.2092 36.7992 68.558 36.7992C69.0654 36.7992 69.5516 36.8933 70.0167 37.0815C70.4818 37.2698 70.8517 37.5835 71.1265 38.0227L70.0167 38.854Z" fill="white"/>
<path d="M77.4789 36.9874H78.9058V38.0541H78.9375C79.2124 37.6567 79.5876 37.3482 80.0632 37.1286C80.5495 36.909 81.0462 36.7992 81.5536 36.7992C82.135 36.7992 82.6582 36.8985 83.1233 37.0972C83.5989 37.2959 84.0006 37.573 84.3282 37.9286C84.6665 38.2841 84.9254 38.7024 85.1051 39.1834C85.2848 39.654 85.3747 40.1612 85.3747 40.705C85.3747 41.2592 85.2848 41.7769 85.1051 42.2579C84.9254 42.7285 84.6665 43.1415 84.3282 43.4971C84.0006 43.8422 83.5989 44.1141 83.1233 44.3128C82.6582 44.5115 82.135 44.6108 81.5536 44.6108C81.0145 44.6108 80.5072 44.501 80.0315 44.2814C79.5559 44.0513 79.1912 43.7428 78.9375 43.3559H78.9058V48.846H77.4789V36.9874ZM81.3792 38.1168C80.9987 38.1168 80.6552 38.1848 80.3486 38.3207C80.0421 38.4462 79.7831 38.624 79.5717 38.854C79.3603 39.0736 79.1965 39.3455 79.0802 39.6697C78.964 39.9834 78.9058 40.3285 78.9058 40.705C78.9058 41.0815 78.964 41.4318 79.0802 41.756C79.1965 42.0697 79.3603 42.3416 79.5717 42.5716C79.7831 42.7912 80.0421 42.969 80.3486 43.1049C80.6552 43.2304 80.9987 43.2932 81.3792 43.2932C81.7597 43.2932 82.1033 43.2304 82.4098 43.1049C82.7163 42.969 82.9753 42.7912 83.1867 42.5716C83.3981 42.3416 83.5619 42.0697 83.6782 41.756C83.7944 41.4318 83.8526 41.0815 83.8526 40.705C83.8526 40.3285 83.7944 39.9834 83.6782 39.6697C83.5619 39.3455 83.3981 39.0736 83.1867 38.854C82.9753 38.624 82.7163 38.4462 82.4098 38.3207C82.1033 38.1848 81.7597 38.1168 81.3792 38.1168Z" fill="white"/>
<path d="M86.2677 36.9874H87.9166L90.168 42.6814L92.3243 36.9874H93.8464L90.8974 44.4226H89.3277L86.2677 36.9874Z" fill="white"/>
<path d="M99.1261 38.2109H97.0808V41.5834C97.0808 41.7926 97.0861 42.0017 97.0967 42.2108C97.1072 42.4095 97.1442 42.5925 97.2076 42.7599C97.2816 42.9167 97.3873 43.0474 97.5247 43.152C97.6727 43.2461 97.8841 43.2932 98.1589 43.2932C98.3281 43.2932 98.5025 43.2775 98.6821 43.2461C98.8618 43.2147 99.0257 43.1572 99.1736 43.0736V44.3598C99.0045 44.4539 98.7826 44.5167 98.5077 44.5481C98.2435 44.5899 98.0374 44.6108 97.8894 44.6108C97.3398 44.6108 96.9117 44.5376 96.6051 44.3912C96.3092 44.2343 96.0872 44.0356 95.9392 43.7951C95.8018 43.5546 95.7173 43.2879 95.6856 42.9951C95.6644 42.6919 95.6539 42.3886 95.6539 42.0854V38.2109H94.0049V36.9874H95.6539V34.9012H97.0808V36.9874H99.1261V38.2109Z" fill="white"/>
<path d="M102.093 44.5167C101.807 44.5167 101.559 44.4173 101.348 44.2187C101.147 44.0095 101.046 43.7638 101.046 43.4814C101.046 43.1991 101.147 42.9585 101.348 42.7599C101.559 42.5507 101.807 42.4461 102.093 42.4461C102.378 42.4461 102.621 42.5507 102.822 42.7599C103.034 42.9585 103.139 43.1991 103.139 43.4814C103.139 43.7638 103.034 44.0095 102.822 44.2187C102.621 44.4173 102.378 44.5167 102.093 44.5167Z" fill="white"/>
<path d="M109.904 32.564H111.331V44.4226H109.904V32.564Z" fill="white"/>
<path d="M117.629 38.2109H115.583V41.5834C115.583 41.7926 115.589 42.0017 115.599 42.2108C115.61 42.4095 115.647 42.5925 115.71 42.7599C115.784 42.9167 115.89 43.0474 116.027 43.152C116.175 43.2461 116.387 43.2932 116.662 43.2932C116.831 43.2932 117.005 43.2775 117.185 43.2461C117.364 43.2147 117.528 43.1572 117.676 43.0736V44.3598C117.507 44.4539 117.285 44.5167 117.01 44.5481C116.746 44.5899 116.54 44.6108 116.392 44.6108C115.842 44.6108 115.414 44.5376 115.108 44.3912C114.812 44.2343 114.59 44.0356 114.442 43.7951C114.304 43.5546 114.22 43.2879 114.188 42.9951C114.167 42.6919 114.156 42.3886 114.156 42.0854V38.2109H112.508V36.9874H114.156V34.9012H115.583V36.9874H117.629V38.2109Z" fill="white"/>
<path d="M127.001 44.4226H125.574V43.3559H125.542C125.267 43.7533 124.887 44.0618 124.401 44.2814C123.925 44.501 123.433 44.6108 122.926 44.6108C122.345 44.6108 121.816 44.5115 121.341 44.3128C120.876 44.1141 120.474 43.837 120.136 43.4814C119.808 43.1259 119.554 42.7128 119.375 42.2422C119.195 41.7716 119.105 41.2592 119.105 40.705C119.105 40.1508 119.195 39.6383 119.375 39.1678C119.554 38.6867 119.808 38.2737 120.136 37.9286C120.474 37.573 120.876 37.2959 121.341 37.0972C121.816 36.8985 122.345 36.7992 122.926 36.7992C123.465 36.7992 123.973 36.9142 124.448 37.1443C124.924 37.3639 125.288 37.6671 125.542 38.0541H125.574V32.564H127.001V44.4226ZM123.1 43.2932C123.481 43.2932 123.825 43.2304 124.131 43.1049C124.438 42.969 124.697 42.7912 124.908 42.5716C125.119 42.3416 125.283 42.0697 125.399 41.756C125.516 41.4318 125.574 41.0815 125.574 40.705C125.574 40.3285 125.516 39.9834 125.399 39.6697C125.283 39.3455 125.119 39.0736 124.908 38.854C124.697 38.624 124.438 38.4462 124.131 38.3207C123.825 38.1848 123.481 38.1168 123.1 38.1168C122.72 38.1168 122.376 38.1848 122.07 38.3207C121.763 38.4462 121.504 38.624 121.293 38.854C121.082 39.0736 120.918 39.3455 120.802 39.6697C120.685 39.9834 120.627 40.3285 120.627 40.705C120.627 41.0815 120.685 41.4318 120.802 41.756C120.918 42.0697 121.082 42.3416 121.293 42.5716C121.504 42.7912 121.763 42.969 122.07 43.1049C122.376 43.2304 122.72 43.2932 123.1 43.2932Z" fill="white"/>
</g>
</g>
</svg>
