<svg width="143" height="54" viewBox="0 0 143 54" fill="none" xmlns="http://www.w3.org/2000/svg">
<g opacity="0.6">
<circle cx="20.6766" cy="30.1854" r="16.9435" transform="rotate(-9.11984 20.6766 30.1854)" fill="#D9D9D9"/>
<circle cx="34.5086" cy="19.8865" r="16.9435" transform="rotate(-9.11984 34.5086 19.8865)" fill="white"/>
<path d="M81.504 14.76C81.504 15.784 81.328 16.712 80.976 17.544C80.624 18.36 80.144 19.056 79.536 19.632C78.928 20.208 78.208 20.656 77.376 20.976C76.544 21.28 75.64 21.432 74.664 21.432C73.688 21.432 72.784 21.28 71.952 20.976C71.12 20.656 70.392 20.208 69.768 19.632C69.16 19.056 68.68 18.36 68.328 17.544C67.992 16.712 67.824 15.784 67.824 14.76V4.008H70.848V14.664C70.848 15.08 70.912 15.52 71.04 15.984C71.168 16.432 71.376 16.848 71.664 17.232C71.968 17.616 72.36 17.936 72.84 18.192C73.336 18.432 73.944 18.552 74.664 18.552C75.384 18.552 75.984 18.432 76.464 18.192C76.96 17.936 77.352 17.616 77.64 17.232C77.944 16.848 78.16 16.432 78.288 15.984C78.416 15.52 78.48 15.08 78.48 14.664V4.008H81.504V14.76ZM83.6083 11.928V9.48H85.9843V6.144H88.8643V9.48H92.0323V11.928H88.8643V16.968C88.8643 17.544 88.9683 18 89.1763 18.336C89.4003 18.672 89.8323 18.84 90.4723 18.84C90.7283 18.84 91.0083 18.816 91.3123 18.768C91.6163 18.704 91.8563 18.608 92.0323 18.48V20.904C91.7283 21.048 91.3523 21.144 90.9043 21.192C90.4723 21.256 90.0883 21.288 89.7523 21.288C88.9843 21.288 88.3523 21.2 87.8563 21.024C87.3763 20.864 86.9923 20.616 86.7043 20.28C86.4323 19.928 86.2403 19.496 86.1283 18.984C86.0323 18.472 85.9843 17.88 85.9843 17.208V11.928H83.6083ZM94.3519 9.48H97.2319V21H94.3519V9.48ZM93.9439 5.568C93.9439 5.104 94.1119 4.704 94.4479 4.368C94.7999 4.016 95.2399 3.84 95.7679 3.84C96.2959 3.84 96.7359 4.008 97.0879 4.344C97.4559 4.664 97.6399 5.072 97.6399 5.568C97.6399 6.064 97.4559 6.48 97.0879 6.816C96.7359 7.136 96.2959 7.296 95.7679 7.296C95.2399 7.296 94.7999 7.128 94.4479 6.792C94.1119 6.44 93.9439 6.032 93.9439 5.568ZM100.586 2.856H103.466V21H100.586V2.856ZM106.844 9.48H109.724V21H106.844V9.48ZM106.436 5.568C106.436 5.104 106.604 4.704 106.94 4.368C107.292 4.016 107.732 3.84 108.26 3.84C108.788 3.84 109.228 4.008 109.58 4.344C109.948 4.664 110.132 5.072 110.132 5.568C110.132 6.064 109.948 6.48 109.58 6.816C109.228 7.136 108.788 7.296 108.26 7.296C107.732 7.296 107.292 7.128 106.94 6.792C106.604 6.44 106.436 6.032 106.436 5.568ZM111.686 11.928V9.48H114.062V6.144H116.942V9.48H120.11V11.928H116.942V16.968C116.942 17.544 117.046 18 117.254 18.336C117.478 18.672 117.91 18.84 118.55 18.84C118.806 18.84 119.086 18.816 119.39 18.768C119.694 18.704 119.934 18.608 120.11 18.48V20.904C119.806 21.048 119.43 21.144 118.982 21.192C118.55 21.256 118.166 21.288 117.83 21.288C117.062 21.288 116.43 21.2 115.934 21.024C115.454 20.864 115.07 20.616 114.782 20.28C114.51 19.928 114.318 19.496 114.206 18.984C114.11 18.472 114.062 17.88 114.062 17.208V11.928H111.686ZM120.799 9.48H123.967L127.183 17.472H127.231L130.111 9.48H133.111L127.663 23.472C127.455 24.016 127.223 24.488 126.967 24.888C126.727 25.304 126.439 25.648 126.103 25.92C125.767 26.208 125.367 26.416 124.903 26.544C124.455 26.688 123.911 26.76 123.271 26.76C122.519 26.76 121.783 26.664 121.063 26.472L121.423 23.88C121.647 23.96 121.879 24.024 122.119 24.072C122.375 24.136 122.631 24.168 122.887 24.168C123.239 24.168 123.535 24.136 123.775 24.072C124.015 24.008 124.215 23.904 124.375 23.76C124.551 23.632 124.695 23.456 124.807 23.232C124.919 23.024 125.039 22.768 125.167 22.464L125.719 21.096L120.799 9.48ZM79.56 34.992C78.936 34.32 78.328 33.872 77.736 33.648C77.16 33.424 76.576 33.312 75.984 33.312C75.104 33.312 74.304 33.472 73.584 33.792C72.88 34.096 72.272 34.528 71.76 35.088C71.248 35.632 70.848 36.272 70.56 37.008C70.288 37.744 70.152 38.536 70.152 39.384C70.152 40.296 70.288 41.136 70.56 41.904C70.848 42.672 71.248 43.336 71.76 43.896C72.272 44.456 72.88 44.896 73.584 45.216C74.304 45.536 75.104 45.696 75.984 45.696C76.672 45.696 77.336 45.536 77.976 45.216C78.632 44.88 79.24 44.352 79.8 43.632L82.296 45.408C81.528 46.464 80.592 47.232 79.488 47.712C78.384 48.192 77.208 48.432 75.96 48.432C74.648 48.432 73.44 48.224 72.336 47.808C71.248 47.376 70.304 46.776 69.504 46.008C68.72 45.224 68.104 44.288 67.656 43.2C67.208 42.112 66.984 40.904 66.984 39.576C66.984 38.216 67.208 36.984 67.656 35.88C68.104 34.76 68.72 33.808 69.504 33.024C70.304 32.24 71.248 31.64 72.336 31.224C73.44 30.792 74.648 30.576 75.96 30.576C77.112 30.576 78.176 30.784 79.152 31.2C80.144 31.6 81.064 32.288 81.912 33.264L79.56 34.992ZM86.9417 38.088H86.9897C87.2137 37.608 87.6057 37.176 88.1657 36.792C88.7417 36.392 89.4777 36.192 90.3737 36.192C91.1417 36.192 91.7897 36.32 92.3177 36.576C92.8617 36.832 93.3017 37.168 93.6377 37.584C93.9737 38 94.2137 38.48 94.3577 39.024C94.5017 39.568 94.5737 40.136 94.5737 40.728V48H91.6937V42.168C91.6937 41.848 91.6777 41.496 91.6457 41.112C91.6137 40.712 91.5257 40.344 91.3817 40.008C91.2537 39.656 91.0457 39.368 90.7577 39.144C90.4697 38.904 90.0777 38.784 89.5817 38.784C89.1017 38.784 88.6937 38.864 88.3577 39.024C88.0377 39.184 87.7657 39.4 87.5417 39.672C87.3337 39.944 87.1817 40.256 87.0857 40.608C86.9897 40.96 86.9417 41.328 86.9417 41.712V48H84.0617V29.856H86.9417V38.088ZM97.2669 42.24C97.2669 41.328 97.4269 40.504 97.7469 39.768C98.0829 39.016 98.5309 38.376 99.0909 37.848C99.6509 37.32 100.315 36.912 101.083 36.624C101.851 36.336 102.667 36.192 103.531 36.192C104.395 36.192 105.211 36.336 105.979 36.624C106.747 36.912 107.411 37.32 107.971 37.848C108.531 38.376 108.971 39.016 109.291 39.768C109.627 40.504 109.795 41.328 109.795 42.24C109.795 43.152 109.627 43.984 109.291 44.736C108.971 45.472 108.531 46.104 107.971 46.632C107.411 47.16 106.747 47.568 105.979 47.856C105.211 48.144 104.395 48.288 103.531 48.288C102.667 48.288 101.851 48.144 101.083 47.856C100.315 47.568 99.6509 47.16 99.0909 46.632C98.5309 46.104 98.0829 45.472 97.7469 44.736C97.4269 43.984 97.2669 43.152 97.2669 42.24ZM100.147 42.24C100.147 42.688 100.219 43.12 100.363 43.536C100.523 43.952 100.747 44.32 101.035 44.64C101.339 44.96 101.699 45.216 102.115 45.408C102.531 45.6 103.003 45.696 103.531 45.696C104.059 45.696 104.531 45.6 104.947 45.408C105.363 45.216 105.715 44.96 106.003 44.64C106.307 44.32 106.531 43.952 106.675 43.536C106.835 43.12 106.915 42.688 106.915 42.24C106.915 41.792 106.835 41.36 106.675 40.944C106.531 40.528 106.307 40.16 106.003 39.84C105.715 39.52 105.363 39.264 104.947 39.072C104.531 38.88 104.059 38.784 103.531 38.784C103.003 38.784 102.531 38.88 102.115 39.072C101.699 39.264 101.339 39.52 101.035 39.84C100.747 40.16 100.523 40.528 100.363 40.944C100.219 41.36 100.147 41.792 100.147 42.24ZM112.539 36.48H115.419V48H112.539V36.48ZM112.131 32.568C112.131 32.104 112.299 31.704 112.635 31.368C112.987 31.016 113.427 30.84 113.955 30.84C114.483 30.84 114.923 31.008 115.275 31.344C115.643 31.664 115.827 32.072 115.827 32.568C115.827 33.064 115.643 33.48 115.275 33.816C114.923 34.136 114.483 34.296 113.955 34.296C113.427 34.296 112.987 34.128 112.635 33.792C112.299 33.44 112.131 33.032 112.131 32.568ZM126.598 39.936C126.262 39.584 125.91 39.304 125.542 39.096C125.174 38.888 124.798 38.784 124.414 38.784C123.886 38.784 123.414 38.88 122.998 39.072C122.582 39.264 122.222 39.52 121.918 39.84C121.63 40.16 121.406 40.528 121.246 40.944C121.102 41.36 121.03 41.792 121.03 42.24C121.03 42.688 121.102 43.12 121.246 43.536C121.406 43.952 121.63 44.32 121.918 44.64C122.222 44.96 122.582 45.216 122.998 45.408C123.414 45.6 123.886 45.696 124.414 45.696C124.862 45.696 125.278 45.608 125.662 45.432C126.046 45.24 126.374 44.968 126.646 44.616L128.566 46.68C128.278 46.968 127.942 47.216 127.558 47.424C127.19 47.632 126.814 47.8 126.43 47.928C126.046 48.056 125.678 48.144 125.326 48.192C124.974 48.256 124.67 48.288 124.414 48.288C123.55 48.288 122.734 48.144 121.966 47.856C121.198 47.568 120.534 47.16 119.974 46.632C119.414 46.104 118.966 45.472 118.63 44.736C118.31 43.984 118.15 43.152 118.15 42.24C118.15 41.328 118.31 40.504 118.63 39.768C118.966 39.016 119.414 38.376 119.974 37.848C120.534 37.32 121.198 36.912 121.966 36.624C122.734 36.336 123.55 36.192 124.414 36.192C125.15 36.192 125.886 36.336 126.622 36.624C127.374 36.896 128.03 37.336 128.59 37.944L126.598 39.936ZM132.608 43.248C132.704 44.112 133.04 44.784 133.616 45.264C134.192 45.744 134.888 45.984 135.704 45.984C136.424 45.984 137.024 45.84 137.504 45.552C138 45.248 138.432 44.872 138.8 44.424L140.864 45.984C140.192 46.816 139.44 47.408 138.608 47.76C137.776 48.112 136.904 48.288 135.992 48.288C135.128 48.288 134.312 48.144 133.544 47.856C132.776 47.568 132.112 47.16 131.552 46.632C130.992 46.104 130.544 45.472 130.208 44.736C129.888 43.984 129.728 43.152 129.728 42.24C129.728 41.328 129.888 40.504 130.208 39.768C130.544 39.016 130.992 38.376 131.552 37.848C132.112 37.32 132.776 36.912 133.544 36.624C134.312 36.336 135.128 36.192 135.992 36.192C136.792 36.192 137.52 36.336 138.176 36.624C138.848 36.896 139.416 37.296 139.88 37.824C140.36 38.352 140.728 39.008 140.984 39.792C141.256 40.56 141.392 41.448 141.392 42.456V43.248H132.608ZM138.512 41.088C138.496 40.24 138.232 39.576 137.72 39.096C137.208 38.6 136.496 38.352 135.584 38.352C134.72 38.352 134.032 38.6 133.52 39.096C133.024 39.592 132.72 40.256 132.608 41.088H138.512Z" fill="white"/>
</g>
</svg>
