<svg width="49" height="49" viewBox="0 0 49 49" fill="none" xmlns="http://www.w3.org/2000/svg">
<path d="M32.6667 46.4478H16.3333C8.88125 46.4478 4.59375 42.1603 4.59375 34.7082V14.2916C4.59375 6.8395 8.88125 2.552 16.3333 2.552H32.6667C40.1188 2.552 44.4062 6.8395 44.4062 14.2916V34.7082C44.4062 42.1603 40.1188 46.4478 32.6667 46.4478ZM16.3333 5.6145C10.4942 5.6145 7.65625 8.45242 7.65625 14.2916V34.7082C7.65625 40.5474 10.4942 43.3853 16.3333 43.3853H32.6667C38.5058 43.3853 41.3438 40.5474 41.3438 34.7082V14.2916C41.3438 8.45242 38.5058 5.6145 32.6667 5.6145H16.3333Z" fill="#292D32"/>
<path d="M37.7682 18.8854H33.6849C30.5816 18.8854 28.0703 16.3742 28.0703 13.2708V9.1875C28.0703 8.35042 28.7645 7.65625 29.6016 7.65625C30.4386 7.65625 31.1328 8.35042 31.1328 9.1875V13.2708C31.1328 14.6796 32.2761 15.8229 33.6849 15.8229H37.7682C38.6053 15.8229 39.2995 16.5171 39.2995 17.3542C39.2995 18.1913 38.6053 18.8854 37.7682 18.8854Z" fill="#292D32"/>
<path d="M20.4142 36.2395C20.0262 36.2395 19.6383 36.0966 19.3321 35.7904L15.2487 31.7071C14.6567 31.115 14.6567 30.1349 15.2487 29.5428L19.3321 25.4594C19.9242 24.8674 20.9042 24.8674 21.4962 25.4594C22.0883 26.0515 22.0883 27.0316 21.4962 27.6237L18.495 30.6249L21.4962 33.6261C22.0883 34.2182 22.0883 35.1983 21.4962 35.7904C21.19 36.0966 20.8021 36.2395 20.4142 36.2395Z" fill="#292D32"/>
<path d="M28.5808 36.2395C28.1929 36.2395 27.805 36.0966 27.4987 35.7904C26.9067 35.1983 26.9067 34.2182 27.4987 33.6261L30.5 30.6249L27.4987 27.6237C26.9067 27.0316 26.9067 26.0515 27.4987 25.4594C28.0908 24.8674 29.0708 24.8674 29.6629 25.4594L33.7462 29.5428C34.3383 30.1349 34.3383 31.115 33.7462 31.7071L29.6629 35.7904C29.3567 36.0966 28.9687 36.2395 28.5808 36.2395Z" fill="#292D32"/>
</svg>
