<svg width="39" height="39" viewBox="0 0 39 39" fill="none" xmlns="http://www.w3.org/2000/svg">
<path d="M31.0699 24.2773L31.5899 25.3336C31.8499 25.8536 32.5161 26.3411 33.0686 26.4386L33.7674 26.5523C35.8961 26.9098 36.3836 28.4698 34.8724 29.9973L34.2224 30.6473C33.7836 31.0861 33.5561 31.9311 33.6861 32.5486L33.7674 32.9386C34.3524 35.5061 32.9874 36.4973 30.7611 35.1486L30.2899 34.8561C29.7211 34.5148 28.7786 34.5148 28.2099 34.8561L27.7386 35.1486C25.4961 36.4973 24.1474 35.5061 24.7324 32.9386L24.8136 32.5486C24.9436 31.9473 24.7161 31.0861 24.2774 30.6473L23.6274 29.9973C22.1161 28.4536 22.6036 26.9098 24.7324 26.5523L25.4311 26.4386C25.9999 26.3411 26.6499 25.8536 26.9099 25.3336L27.4299 24.2773C28.4374 22.2461 30.0624 22.2461 31.0699 24.2773Z" fill="white"/>
<path d="M26.3088 3.25H12.6912C6.77625 3.25 3.25 6.77625 3.25 12.6912V26.3088C3.25 32.2238 6.77625 35.75 12.6912 35.75H21.2712C21.84 35.75 22.2463 35.165 22.1812 34.5963C22.1162 33.9788 22.1488 33.2475 22.3438 32.4025C22.3762 32.2888 22.3438 32.1587 22.2463 32.0612L21.8888 31.7038C20.5075 30.3062 20.0037 28.6162 20.4912 27.0725C20.995 25.545 22.3925 24.4725 24.3263 24.1475L24.8138 24.0662L25.2525 23.1888C26.1462 21.3688 27.6087 20.3125 29.25 20.3125C30.8913 20.3125 32.3537 21.3688 33.2475 23.1888L33.4913 23.6925C33.605 23.9363 33.8325 24.0987 34.0925 24.1475C34.2387 24.18 34.385 24.2125 34.5312 24.245C35.1 24.3913 35.75 23.9362 35.75 23.335V12.6912C35.75 6.77625 32.2238 3.25 26.3088 3.25ZM26.4225 14.56L22.6687 19.4025C22.1975 20.0037 21.5312 20.3938 20.7675 20.475C20.02 20.5725 19.2563 20.3612 18.6712 19.89L15.6975 17.5825C15.5837 17.485 15.4538 17.485 15.3888 17.5013C15.3238 17.5013 15.21 17.5337 15.1125 17.6637L11.245 22.685C11.0013 22.9937 10.6438 23.1562 10.27 23.1562C10.01 23.1562 9.75 23.075 9.5225 22.8962C8.98625 22.49 8.88875 21.7262 9.295 21.19L13.1625 16.1687C13.6338 15.5675 14.3 15.1775 15.0638 15.08C15.8275 14.9825 16.575 15.1938 17.1762 15.665L20.15 18.005C20.2638 18.1025 20.3775 18.0863 20.4587 18.0863C20.5238 18.0863 20.6375 18.0538 20.735 17.9237L24.4888 13.0813C24.895 12.545 25.6588 12.4475 26.195 12.87C26.7475 13.2762 26.8288 14.04 26.4225 14.56Z" fill="white"/>
</svg>
