<svg width="49" height="49" viewBox="0 0 49 49" fill="none" xmlns="http://www.w3.org/2000/svg">
<path d="M34.1753 39.9962H14.8407C13.2278 39.9962 12.0641 39.9349 11.0637 39.792C3.97907 39.0162 2.57031 34.7695 2.57031 27.7258V14.8224C2.57031 7.77869 3.95866 3.53195 11.1045 2.75612C12.0845 2.6132 13.2483 2.552 14.8407 2.552H34.1753C35.7678 2.552 36.9316 2.6132 37.9524 2.75612C45.0574 3.53195 46.4457 7.77869 46.4457 14.8224V27.7258C46.4457 34.7695 45.0574 39.0162 37.9116 39.792C36.952 39.9349 35.7883 39.9962 34.1753 39.9962ZM14.8203 5.6145C13.3707 5.6145 12.3295 5.67581 11.472 5.79831C7.06198 6.28831 5.61241 7.65621 5.61241 14.8429V27.7462C5.61241 34.9125 7.062 36.3008 11.4312 36.7704C12.3295 36.8929 13.3707 36.954 14.8407 36.954H34.1753C35.6453 36.954 36.6662 36.8929 37.5237 36.7704C41.9337 36.2804 43.3832 34.9125 43.3832 27.7258V14.8224C43.3832 7.65619 41.9336 6.26789 37.5645 5.79831C36.6457 5.67581 35.6249 5.6145 34.1549 5.6145H14.8203Z" fill="#292D32"/>
<path d="M35.2399 18.5181H27.7266C26.8895 18.5181 26.1953 17.8239 26.1953 16.9868C26.1953 16.1497 26.8895 15.4556 27.7266 15.4556H35.2399C36.077 15.4556 36.7711 16.1497 36.7711 16.9868C36.7711 17.8239 36.0974 18.5181 35.2399 18.5181Z" fill="#292D32"/>
<path d="M20.4167 19.0284C19.2938 19.0284 18.375 18.1097 18.375 16.9867C18.375 15.8638 19.2733 14.9451 20.4167 14.9451C21.5396 14.9451 22.4583 15.8638 22.4583 16.9867C22.4583 18.1097 21.56 19.0284 20.4167 19.0284Z" fill="#292D32"/>
<path d="M13.987 19.0284C12.8641 19.0284 11.9453 18.1097 11.9453 16.9867C11.9453 15.8638 12.8436 14.9451 13.987 14.9451H14.0074C15.1303 14.9451 16.0491 15.8638 16.0491 16.9867C16.0491 18.1097 15.1099 19.0284 13.987 19.0284Z" fill="#292D32"/>
<path d="M35.24 30.3391H13.7821C12.945 30.3391 12.2305 29.6449 12.2305 28.8079C12.2305 27.9708 12.9042 27.2766 13.7413 27.2766H35.24C36.0771 27.2766 36.7713 27.9708 36.7713 28.8079C36.7713 29.6449 36.0975 30.3391 35.24 30.3391Z" fill="#292D32"/>
<path d="M34.7096 46.448H14.293C13.4559 46.448 12.7617 45.7538 12.7617 44.9167C12.7617 44.0797 13.4559 43.3855 14.293 43.3855H34.7096C35.5467 43.3855 36.2409 44.0797 36.2409 44.9167C36.2409 45.7538 35.5467 46.448 34.7096 46.448Z" fill="#292D32"/>
</svg>
