<svg width="275" height="50" viewBox="0 0 275 50" fill="none" xmlns="http://www.w3.org/2000/svg">
<path d="M79.1361 44.8733H85.1162V45.9526H78V34.0121H84.9269V35.0915H79.1361V39.2066H84.5482V40.2691H79.1361V44.8733Z" fill="white"/>
<path d="M89.0104 41.8713L86.2806 38.0598H87.6534L89.6731 41.0618L91.6927 38.0598H92.9866L90.3042 41.8207L93.2391 45.9526H91.8505L89.6573 42.6639L87.4009 45.9526H86.1071L89.0104 41.8713Z" fill="white"/>
<path d="M95.9905 50.0002H94.9175V38.0598H95.9905V39.4258H96.0378C96.3429 38.9086 96.7479 38.5207 97.2528 38.2621C97.7682 37.9923 98.2889 37.8574 98.8149 37.8574C99.3934 37.8574 99.9141 37.9642 100.377 38.1778C100.85 38.3914 101.25 38.6838 101.576 39.0548C101.913 39.4258 102.17 39.8643 102.349 40.3703C102.539 40.8762 102.633 41.4215 102.633 42.0062C102.633 42.5909 102.539 43.1362 102.349 43.6421C102.17 44.1481 101.913 44.5866 101.576 44.9576C101.25 45.3286 100.85 45.6209 100.377 45.8346C99.9141 46.0482 99.3934 46.155 98.8149 46.155C98.2889 46.155 97.7682 46.0257 97.2528 45.7671C96.7479 45.4973 96.3429 45.115 96.0378 44.6203H95.9905V50.0002ZM101.497 42.0062C101.497 41.5677 101.434 41.1573 101.308 40.775C101.182 40.3815 100.998 40.0442 100.756 39.7631C100.524 39.4708 100.235 39.2403 99.8878 39.0717C99.5407 38.903 99.1462 38.8187 98.7044 38.8187C98.2942 38.8187 97.9155 38.903 97.5684 39.0717C97.2212 39.2291 96.9214 39.4539 96.669 39.7463C96.4165 40.0274 96.2166 40.3647 96.0694 40.7582C95.9326 41.1405 95.8643 41.5565 95.8643 42.0062C95.8643 42.4559 95.9326 42.8776 96.0694 43.2711C96.2166 43.6534 96.4165 43.985 96.669 44.2661C96.9214 44.5472 97.2212 44.7721 97.5684 44.9407C97.9155 45.0981 98.2942 45.1768 98.7044 45.1768C99.1462 45.1768 99.5407 45.0981 99.8878 44.9407C100.235 44.7721 100.524 44.5472 100.756 44.2661C100.998 43.9738 101.182 43.6365 101.308 43.2542C101.434 42.8607 101.497 42.4447 101.497 42.0062Z" fill="white"/>
<path d="M110.566 41.3991C110.535 40.657 110.309 40.0442 109.888 39.5608C109.478 39.0661 108.889 38.8187 108.121 38.8187C107.763 38.8187 107.432 38.8918 107.127 39.0379C106.822 39.1729 106.553 39.364 106.322 39.6114C106.09 39.8475 105.906 40.1229 105.77 40.4377C105.633 40.7413 105.554 41.0618 105.533 41.3991H110.566ZM111.655 41.7701C111.655 41.8488 111.655 41.9331 111.655 42.0231C111.655 42.113 111.65 42.2086 111.639 42.3098H105.517C105.528 42.7033 105.601 43.0743 105.738 43.4229C105.875 43.7714 106.064 44.075 106.306 44.3336C106.548 44.5922 106.832 44.8002 107.158 44.9576C107.484 45.1037 107.837 45.1768 108.215 45.1768C108.773 45.1768 109.251 45.0419 109.651 44.7721C110.061 44.491 110.372 44.1705 110.582 43.8108L111.387 44.4854C110.945 45.0813 110.456 45.5085 109.919 45.7671C109.393 46.0257 108.825 46.155 108.215 46.155C107.668 46.155 107.158 46.0538 106.685 45.8514C106.222 45.6378 105.822 45.3455 105.486 44.9745C105.149 44.6034 104.881 44.1649 104.681 43.659C104.492 43.153 104.397 42.6021 104.397 42.0062C104.397 41.4103 104.492 40.8594 104.681 40.3534C104.87 39.8475 105.133 39.409 105.47 39.0379C105.806 38.6669 106.201 38.3802 106.653 38.1778C107.106 37.9642 107.595 37.8574 108.121 37.8574C108.699 37.8574 109.209 37.9642 109.651 38.1778C110.093 38.3802 110.461 38.6613 110.756 39.0211C111.05 39.3696 111.271 39.78 111.418 40.2522C111.576 40.7245 111.655 41.2304 111.655 41.7701Z" fill="white"/>
<path d="M113.963 39.7969C113.963 39.5832 113.958 39.3078 113.947 38.9705C113.937 38.6332 113.921 38.3296 113.9 38.0598H114.925C114.947 38.2734 114.962 38.5095 114.973 38.7681C114.983 39.0267 114.989 39.2403 114.989 39.409H115.02C115.231 38.948 115.546 38.577 115.967 38.2959C116.388 38.0036 116.861 37.8574 117.387 37.8574C117.524 37.8574 117.645 37.863 117.75 37.8743C117.866 37.8855 117.981 37.908 118.097 37.9417L117.955 39.0211C117.892 38.9986 117.787 38.9761 117.639 38.9536C117.492 38.9311 117.345 38.9199 117.198 38.9199C116.914 38.9199 116.64 38.9761 116.377 39.0885C116.114 39.201 115.883 39.3809 115.683 39.6282C115.493 39.8643 115.336 40.1735 115.209 40.5558C115.094 40.9268 115.036 41.3766 115.036 41.905V45.9526H113.963V39.7969Z" fill="white"/>
<path d="M120.738 45.9526H119.665V38.0598H120.738V45.9526ZM120.958 35.0241C120.958 35.2602 120.88 35.4569 120.722 35.6143C120.564 35.7605 120.39 35.8336 120.201 35.8336C120.012 35.8336 119.838 35.7605 119.68 35.6143C119.523 35.4569 119.444 35.2602 119.444 35.0241C119.444 34.7879 119.523 34.5968 119.68 34.4506C119.838 34.2932 120.012 34.2145 120.201 34.2145C120.39 34.2145 120.564 34.2932 120.722 34.4506C120.88 34.5968 120.958 34.7879 120.958 35.0241Z" fill="white"/>
<path d="M129.227 41.3991C129.195 40.657 128.969 40.0442 128.548 39.5608C128.138 39.0661 127.549 38.8187 126.781 38.8187C126.423 38.8187 126.092 38.8918 125.787 39.0379C125.482 39.1729 125.213 39.364 124.982 39.6114C124.751 39.8475 124.567 40.1229 124.43 40.4377C124.293 40.7413 124.214 41.0618 124.193 41.3991H129.227ZM130.315 41.7701C130.315 41.8488 130.315 41.9331 130.315 42.0231C130.315 42.113 130.31 42.2086 130.3 42.3098H124.177C124.188 42.7033 124.262 43.0743 124.398 43.4229C124.535 43.7714 124.724 44.075 124.966 44.3336C125.208 44.5922 125.492 44.8002 125.818 44.9576C126.144 45.1037 126.497 45.1768 126.876 45.1768C127.433 45.1768 127.912 45.0419 128.311 44.7721C128.722 44.491 129.032 44.1705 129.242 43.8108L130.047 44.4854C129.605 45.0813 129.116 45.5085 128.58 45.7671C128.054 46.0257 127.486 46.155 126.876 46.155C126.329 46.155 125.818 46.0538 125.345 45.8514C124.882 45.6378 124.482 45.3455 124.146 44.9745C123.809 44.6034 123.541 44.1649 123.341 43.659C123.152 43.153 123.057 42.6021 123.057 42.0062C123.057 41.4103 123.152 40.8594 123.341 40.3534C123.53 39.8475 123.793 39.409 124.13 39.0379C124.467 38.6669 124.861 38.3802 125.313 38.1778C125.766 37.9642 126.255 37.8574 126.781 37.8574C127.359 37.8574 127.87 37.9642 128.311 38.1778C128.753 38.3802 129.121 38.6613 129.416 39.0211C129.71 39.3696 129.931 39.78 130.079 40.2522C130.236 40.7245 130.315 41.2304 130.315 41.7701Z" fill="white"/>
<path d="M133.586 38.0598C133.607 38.2734 133.622 38.5095 133.633 38.7681C133.644 39.0267 133.649 39.2403 133.649 39.409H133.68C133.891 38.948 134.233 38.577 134.706 38.2959C135.179 38.0036 135.679 37.8574 136.205 37.8574C137.141 37.8574 137.841 38.1553 138.304 38.7512C138.777 39.3471 139.014 40.1342 139.014 41.1123V45.9526H137.941V41.5846C137.941 41.1686 137.909 40.7919 137.846 40.4546C137.783 40.1173 137.672 39.8306 137.515 39.5945C137.367 39.3471 137.162 39.156 136.899 39.0211C136.647 38.8862 136.326 38.8187 135.937 38.8187C135.653 38.8187 135.374 38.8805 135.1 39.0042C134.837 39.1279 134.601 39.319 134.39 39.5776C134.18 39.825 134.012 40.1454 133.885 40.5389C133.759 40.9212 133.696 41.3766 133.696 41.905V45.9526H132.623V39.7969C132.623 39.5832 132.618 39.3078 132.607 38.9705C132.597 38.6332 132.581 38.3296 132.56 38.0598H133.586Z" fill="white"/>
<path d="M147.109 39.8643C146.93 39.5608 146.667 39.3134 146.32 39.1223C145.983 38.9199 145.615 38.8187 145.215 38.8187C144.784 38.8187 144.395 38.903 144.048 39.0717C143.701 39.2291 143.401 39.4539 143.148 39.7463C142.907 40.0274 142.717 40.3647 142.58 40.7582C142.454 41.1405 142.391 41.5565 142.391 42.0062C142.391 42.4559 142.454 42.8719 142.58 43.2542C142.717 43.6365 142.907 43.9738 143.148 44.2661C143.39 44.5472 143.685 44.7721 144.032 44.9407C144.379 45.0981 144.768 45.1768 145.2 45.1768C145.673 45.1768 146.073 45.0813 146.399 44.8901C146.725 44.699 146.993 44.4516 147.204 44.1481L148.008 44.7889C147.693 45.2049 147.304 45.5366 146.841 45.784C146.388 46.0313 145.841 46.155 145.2 46.155C144.6 46.155 144.058 46.0538 143.574 45.8514C143.091 45.6378 142.675 45.3455 142.328 44.9745C141.991 44.6034 141.728 44.1649 141.539 43.659C141.35 43.153 141.255 42.6021 141.255 42.0062C141.255 41.4103 141.35 40.8594 141.539 40.3534C141.728 39.8475 141.991 39.409 142.328 39.0379C142.675 38.6669 143.091 38.3802 143.574 38.1778C144.058 37.9642 144.6 37.8574 145.2 37.8574C145.694 37.8574 146.194 37.9754 146.699 38.2116C147.214 38.4364 147.63 38.7737 147.945 39.2235L147.109 39.8643Z" fill="white"/>
<path d="M155.314 41.3991C155.282 40.657 155.056 40.0442 154.635 39.5608C154.225 39.0661 153.636 38.8187 152.868 38.8187C152.511 38.8187 152.179 38.8918 151.874 39.0379C151.569 39.1729 151.301 39.364 151.069 39.6114C150.838 39.8475 150.654 40.1229 150.517 40.4377C150.38 40.7413 150.301 41.0618 150.28 41.3991H155.314ZM156.403 41.7701C156.403 41.8488 156.403 41.9331 156.403 42.0231C156.403 42.113 156.397 42.2086 156.387 42.3098H150.265C150.275 42.7033 150.349 43.0743 150.486 43.4229C150.622 43.7714 150.812 44.075 151.054 44.3336C151.296 44.5922 151.58 44.8002 151.906 44.9576C152.232 45.1037 152.584 45.1768 152.963 45.1768C153.52 45.1768 153.999 45.0419 154.399 44.7721C154.809 44.491 155.119 44.1705 155.33 43.8108L156.134 44.4854C155.693 45.0813 155.203 45.5085 154.667 45.7671C154.141 46.0257 153.573 46.155 152.963 46.155C152.416 46.155 151.906 46.0538 151.432 45.8514C150.969 45.6378 150.57 45.3455 150.233 44.9745C149.897 44.6034 149.628 44.1649 149.428 43.659C149.239 43.153 149.144 42.6021 149.144 42.0062C149.144 41.4103 149.239 40.8594 149.428 40.3534C149.618 39.8475 149.881 39.409 150.217 39.0379C150.554 38.6669 150.948 38.3802 151.401 38.1778C151.853 37.9642 152.342 37.8574 152.868 37.8574C153.447 37.8574 153.957 37.9642 154.399 38.1778C154.841 38.3802 155.209 38.6613 155.503 39.0211C155.798 39.3696 156.019 39.78 156.166 40.2522C156.324 40.7245 156.403 41.2304 156.403 41.7701Z" fill="white"/>
<path d="M165.984 39.0211H163.902V43.6252C163.902 43.9176 163.928 44.1593 163.981 44.3504C164.033 44.5416 164.107 44.6934 164.201 44.8058C164.307 44.907 164.428 44.9801 164.564 45.025C164.701 45.0588 164.848 45.0756 165.006 45.0756C165.153 45.0756 165.306 45.0532 165.464 45.0082C165.632 44.9632 165.79 44.9014 165.937 44.8227L165.984 45.8177C165.795 45.8964 165.595 45.9526 165.385 45.9864C165.185 46.0313 164.964 46.0538 164.722 46.0538C164.522 46.0538 164.312 46.0257 164.091 45.9695C163.87 45.9133 163.665 45.8065 163.476 45.6491C163.286 45.4916 163.129 45.278 163.002 45.0082C162.887 44.7383 162.829 44.3842 162.829 43.9457V39.0211H161.298V38.0598H162.829V35.8336H163.902V38.0598H165.984V39.0211Z" fill="white"/>
<path d="M168.799 39.3584C168.999 38.8974 169.33 38.532 169.793 38.2621C170.256 37.9923 170.75 37.8574 171.276 37.8574C172.213 37.8574 172.912 38.1553 173.375 38.7512C173.848 39.3471 174.085 40.1342 174.085 41.1123V45.9526H173.012V41.5846C173.012 41.1686 172.981 40.7919 172.917 40.4546C172.854 40.1173 172.744 39.8306 172.586 39.5945C172.439 39.3471 172.234 39.156 171.971 39.0211C171.718 38.8862 171.397 38.8187 171.008 38.8187C170.724 38.8187 170.445 38.8805 170.172 39.0042C169.909 39.1279 169.672 39.319 169.462 39.5776C169.251 39.825 169.083 40.1454 168.957 40.5389C168.831 40.9212 168.768 41.3766 168.768 41.905V45.9526H167.695V33.2026H168.768V39.3584H168.799Z" fill="white"/>
<path d="M182.495 41.3991C182.464 40.657 182.238 40.0442 181.817 39.5608C181.406 39.0661 180.817 38.8187 180.05 38.8187C179.692 38.8187 179.361 38.8918 179.055 39.0379C178.75 39.1729 178.482 39.364 178.251 39.6114C178.019 39.8475 177.835 40.1229 177.698 40.4377C177.562 40.7413 177.483 41.0618 177.462 41.3991H182.495ZM183.584 41.7701C183.584 41.8488 183.584 41.9331 183.584 42.0231C183.584 42.113 183.579 42.2086 183.568 42.3098H177.446C177.457 42.7033 177.53 43.0743 177.667 43.4229C177.804 43.7714 177.993 44.075 178.235 44.3336C178.477 44.5922 178.761 44.8002 179.087 44.9576C179.413 45.1037 179.766 45.1768 180.144 45.1768C180.702 45.1768 181.18 45.0419 181.58 44.7721C181.99 44.491 182.301 44.1705 182.511 43.8108L183.316 44.4854C182.874 45.0813 182.385 45.5085 181.848 45.7671C181.322 46.0257 180.754 46.155 180.144 46.155C179.597 46.155 179.087 46.0538 178.614 45.8514C178.151 45.6378 177.751 45.3455 177.414 44.9745C177.078 44.6034 176.81 44.1649 176.61 43.659C176.42 43.153 176.326 42.6021 176.326 42.0062C176.326 41.4103 176.42 40.8594 176.61 40.3534C176.799 39.8475 177.062 39.409 177.399 39.0379C177.735 38.6669 178.13 38.3802 178.582 38.1778C179.034 37.9642 179.524 37.8574 180.05 37.8574C180.628 37.8574 181.138 37.9642 181.58 38.1778C182.022 38.3802 182.39 38.6613 182.685 39.0211C182.979 39.3696 183.2 39.78 183.347 40.2522C183.505 40.7245 183.584 41.2304 183.584 41.7701Z" fill="white"/>
<path d="M189.9 34.0121H193.608C194.302 34.0121 194.996 34.1358 195.69 34.3832C196.395 34.6305 197.026 35.0072 197.584 35.5131C198.152 36.0078 198.61 36.6319 198.957 37.3852C199.304 38.1272 199.477 38.993 199.477 39.9824C199.477 40.983 199.304 41.8544 198.957 42.5965C198.61 43.3385 198.152 43.9625 197.584 44.4685C197.026 44.9632 196.395 45.3342 195.69 45.5816C194.996 45.8289 194.302 45.9526 193.608 45.9526H189.9V34.0121ZM191.036 44.8733H193.292C194.134 44.8733 194.865 44.7327 195.485 44.4516C196.116 44.1705 196.637 43.8051 197.047 43.3554C197.458 42.8944 197.763 42.3716 197.963 41.787C198.173 41.2023 198.278 40.6008 198.278 39.9824C198.278 39.364 198.173 38.7625 197.963 38.1778C197.763 37.5932 197.458 37.076 197.047 36.6262C196.637 36.1653 196.116 35.7942 195.485 35.5131C194.865 35.2321 194.134 35.0915 193.292 35.0915H191.036V44.8733Z" fill="white"/>
<path d="M202.867 45.9526H201.794V38.0598H202.867V45.9526ZM203.088 35.0241C203.088 35.2602 203.009 35.4569 202.851 35.6143C202.694 35.7605 202.52 35.8336 202.331 35.8336C202.141 35.8336 201.968 35.7605 201.81 35.6143C201.652 35.4569 201.573 35.2602 201.573 35.0241C201.573 34.7879 201.652 34.5968 201.81 34.4506C201.968 34.2932 202.141 34.2145 202.331 34.2145C202.52 34.2145 202.694 34.2932 202.851 34.4506C203.009 34.5968 203.088 34.7879 203.088 35.0241Z" fill="white"/>
<path d="M208.847 39.0211H207.112V45.9526H206.039V39.0211H204.492V38.0598H206.039V35.901C206.039 35.0016 206.244 34.2932 206.654 33.776C207.064 33.2588 207.695 33.0002 208.548 33.0002C208.684 33.0002 208.832 33.0115 208.989 33.034C209.147 33.0452 209.294 33.0733 209.431 33.1183L209.242 34.1302C209.126 34.0965 209.01 34.0684 208.895 34.0459C208.779 34.0234 208.647 34.0121 208.5 34.0121C208.216 34.0121 207.979 34.0627 207.79 34.1639C207.611 34.2651 207.469 34.4113 207.364 34.6024C207.269 34.7823 207.201 34.9959 207.159 35.2433C207.127 35.4907 207.112 35.7549 207.112 36.036V38.0598H208.847V39.0211Z" fill="white"/>
<path d="M213.223 39.0211H211.488V45.9526H210.415V39.0211H208.869V38.0598H210.415V35.901C210.415 35.0016 210.62 34.2932 211.03 33.776C211.44 33.2588 212.072 33.0002 212.924 33.0002C213.06 33.0002 213.208 33.0115 213.365 33.034C213.523 33.0452 213.671 33.0733 213.807 33.1183L213.618 34.1302C213.502 34.0965 213.387 34.0684 213.271 34.0459C213.155 34.0234 213.024 34.0121 212.876 34.0121C212.592 34.0121 212.356 34.0627 212.166 34.1639C211.987 34.2651 211.845 34.4113 211.74 34.6024C211.646 34.7823 211.577 34.9959 211.535 35.2433C211.504 35.4907 211.488 35.7549 211.488 36.036V38.0598H213.223V39.0211Z" fill="white"/>
<path d="M220.386 41.3991C220.354 40.657 220.128 40.0442 219.707 39.5608C219.297 39.0661 218.708 38.8187 217.94 38.8187C217.582 38.8187 217.251 38.8918 216.946 39.0379C216.641 39.1729 216.373 39.364 216.141 39.6114C215.91 39.8475 215.726 40.1229 215.589 40.4377C215.452 40.7413 215.373 41.0618 215.352 41.3991H220.386ZM221.475 41.7701C221.475 41.8488 221.475 41.9331 221.475 42.0231C221.475 42.113 221.469 42.2086 221.459 42.3098H215.337C215.347 42.7033 215.421 43.0743 215.557 43.4229C215.694 43.7714 215.884 44.075 216.126 44.3336C216.367 44.5922 216.651 44.8002 216.978 44.9576C217.304 45.1037 217.656 45.1768 218.035 45.1768C218.592 45.1768 219.071 45.0419 219.471 44.7721C219.881 44.491 220.191 44.1705 220.402 43.8108L221.206 44.4854C220.764 45.0813 220.275 45.5085 219.739 45.7671C219.213 46.0257 218.645 46.155 218.035 46.155C217.488 46.155 216.978 46.0538 216.504 45.8514C216.041 45.6378 215.642 45.3455 215.305 44.9745C214.968 44.6034 214.7 44.1649 214.5 43.659C214.311 43.153 214.216 42.6021 214.216 42.0062C214.216 41.4103 214.311 40.8594 214.5 40.3534C214.69 39.8475 214.953 39.409 215.289 39.0379C215.626 38.6669 216.02 38.3802 216.473 38.1778C216.925 37.9642 217.414 37.8574 217.94 37.8574C218.519 37.8574 219.029 37.9642 219.471 38.1778C219.912 38.3802 220.281 38.6613 220.575 39.0211C220.87 39.3696 221.091 39.78 221.238 40.2522C221.396 40.7245 221.475 41.2304 221.475 41.7701Z" fill="white"/>
<path d="M223.782 39.7969C223.782 39.5832 223.777 39.3078 223.767 38.9705C223.756 38.6332 223.74 38.3296 223.719 38.0598H224.745C224.766 38.2734 224.782 38.5095 224.792 38.7681C224.803 39.0267 224.808 39.2403 224.808 39.409H224.84C225.05 38.948 225.366 38.577 225.786 38.2959C226.207 38.0036 226.68 37.8574 227.206 37.8574C227.343 37.8574 227.464 37.863 227.569 37.8743C227.685 37.8855 227.801 37.908 227.916 37.9417L227.774 39.0211C227.711 38.9986 227.606 38.9761 227.459 38.9536C227.312 38.9311 227.164 38.9199 227.017 38.9199C226.733 38.9199 226.46 38.9761 226.197 39.0885C225.934 39.201 225.702 39.3809 225.502 39.6282C225.313 39.8643 225.155 40.1735 225.029 40.5558C224.913 40.9268 224.855 41.3766 224.855 41.905V45.9526H223.782V39.7969Z" fill="white"/>
<path d="M234.824 41.3991C234.792 40.657 234.566 40.0442 234.145 39.5608C233.735 39.0661 233.146 38.8187 232.378 38.8187C232.021 38.8187 231.689 38.8918 231.384 39.0379C231.079 39.1729 230.811 39.364 230.579 39.6114C230.348 39.8475 230.164 40.1229 230.027 40.4377C229.89 40.7413 229.812 41.0618 229.791 41.3991H234.824ZM235.913 41.7701C235.913 41.8488 235.913 41.9331 235.913 42.0231C235.913 42.113 235.907 42.2086 235.897 42.3098H229.775C229.785 42.7033 229.859 43.0743 229.996 43.4229C230.132 43.7714 230.322 44.075 230.564 44.3336C230.806 44.5922 231.09 44.8002 231.416 44.9576C231.742 45.1037 232.094 45.1768 232.473 45.1768C233.03 45.1768 233.509 45.0419 233.909 44.7721C234.319 44.491 234.629 44.1705 234.84 43.8108L235.644 44.4854C235.203 45.0813 234.714 45.5085 234.177 45.7671C233.651 46.0257 233.083 46.155 232.473 46.155C231.926 46.155 231.416 46.0538 230.942 45.8514C230.48 45.6378 230.08 45.3455 229.743 44.9745C229.407 44.6034 229.138 44.1649 228.938 43.659C228.749 43.153 228.654 42.6021 228.654 42.0062C228.654 41.4103 228.749 40.8594 228.938 40.3534C229.128 39.8475 229.391 39.409 229.727 39.0379C230.064 38.6669 230.459 38.3802 230.911 38.1778C231.363 37.9642 231.852 37.8574 232.378 37.8574C232.957 37.8574 233.467 37.9642 233.909 38.1778C234.351 38.3802 234.719 38.6613 235.013 39.0211C235.308 39.3696 235.529 39.78 235.676 40.2522C235.834 40.7245 235.913 41.2304 235.913 41.7701Z" fill="white"/>
<path d="M239.183 38.0598C239.204 38.2734 239.22 38.5095 239.23 38.7681C239.241 39.0267 239.246 39.2403 239.246 39.409H239.278C239.488 38.948 239.83 38.577 240.303 38.2959C240.777 38.0036 241.276 37.8574 241.802 37.8574C242.739 37.8574 243.438 38.1553 243.901 38.7512C244.374 39.3471 244.611 40.1342 244.611 41.1123V45.9526H243.538V41.5846C243.538 41.1686 243.506 40.7919 243.443 40.4546C243.38 40.1173 243.27 39.8306 243.112 39.5945C242.965 39.3471 242.76 39.156 242.497 39.0211C242.244 38.8862 241.923 38.8187 241.534 38.8187C241.25 38.8187 240.971 38.8805 240.698 39.0042C240.435 39.1279 240.198 39.319 239.988 39.5776C239.777 39.825 239.609 40.1454 239.483 40.5389C239.357 40.9212 239.294 41.3766 239.294 41.905V45.9526H238.221V39.7969C238.221 39.5832 238.215 39.3078 238.205 38.9705C238.194 38.6332 238.178 38.3296 238.157 38.0598H239.183Z" fill="white"/>
<path d="M252.706 39.8643C252.527 39.5608 252.265 39.3134 251.917 39.1223C251.581 38.9199 251.213 38.8187 250.813 38.8187C250.382 38.8187 249.992 38.903 249.645 39.0717C249.298 39.2291 248.998 39.4539 248.746 39.7463C248.504 40.0274 248.315 40.3647 248.178 40.7582C248.052 41.1405 247.988 41.5565 247.988 42.0062C247.988 42.4559 248.052 42.8719 248.178 43.2542C248.315 43.6365 248.504 43.9738 248.746 44.2661C248.988 44.5472 249.282 44.7721 249.629 44.9407C249.977 45.0981 250.366 45.1768 250.797 45.1768C251.27 45.1768 251.67 45.0813 251.996 44.8901C252.322 44.699 252.591 44.4516 252.801 44.1481L253.606 44.7889C253.29 45.2049 252.901 45.5366 252.438 45.784C251.986 46.0313 251.439 46.155 250.797 46.155C250.198 46.155 249.656 46.0538 249.172 45.8514C248.688 45.6378 248.273 45.3455 247.925 44.9745C247.589 44.6034 247.326 44.1649 247.136 43.659C246.947 43.153 246.852 42.6021 246.852 42.0062C246.852 41.4103 246.947 40.8594 247.136 40.3534C247.326 39.8475 247.589 39.409 247.925 39.0379C248.273 38.6669 248.688 38.3802 249.172 38.1778C249.656 37.9642 250.198 37.8574 250.797 37.8574C251.292 37.8574 251.791 37.9754 252.296 38.2116C252.812 38.4364 253.227 38.7737 253.543 39.2235L252.706 39.8643Z" fill="white"/>
<path d="M260.911 41.3991C260.88 40.657 260.654 40.0442 260.233 39.5608C259.823 39.0661 259.233 38.8187 258.466 38.8187C258.108 38.8187 257.777 38.8918 257.471 39.0379C257.166 39.1729 256.898 39.364 256.667 39.6114C256.435 39.8475 256.251 40.1229 256.115 40.4377C255.978 40.7413 255.899 41.0618 255.878 41.3991H260.911ZM262 41.7701C262 41.8488 262 41.9331 262 42.0231C262 42.113 261.995 42.2086 261.984 42.3098H255.862C255.873 42.7033 255.946 43.0743 256.083 43.4229C256.22 43.7714 256.409 44.075 256.651 44.3336C256.893 44.5922 257.177 44.8002 257.503 44.9576C257.829 45.1037 258.182 45.1768 258.56 45.1768C259.118 45.1768 259.596 45.0419 259.996 44.7721C260.406 44.491 260.717 44.1705 260.927 43.8108L261.732 44.4854C261.29 45.0813 260.801 45.5085 260.264 45.7671C259.738 46.0257 259.17 46.155 258.56 46.155C258.013 46.155 257.503 46.0538 257.03 45.8514C256.567 45.6378 256.167 45.3455 255.831 44.9745C255.494 44.6034 255.226 44.1649 255.026 43.659C254.836 43.153 254.742 42.6021 254.742 42.0062C254.742 41.4103 254.836 40.8594 255.026 40.3534C255.215 39.8475 255.478 39.409 255.815 39.0379C256.151 38.6669 256.546 38.3802 256.998 38.1778C257.45 37.9642 257.94 37.8574 258.466 37.8574C259.044 37.8574 259.554 37.9642 259.996 38.1778C260.438 38.3802 260.806 38.6613 261.101 39.0211C261.395 39.3696 261.616 39.78 261.763 40.2522C261.921 40.7245 262 41.2304 262 41.7701Z" fill="white"/>
<path d="M34.2331 9.85656C32.6173 7.00397 30.371 4.79227 27.4985 3.21999C24.6246 1.64771 21.3102 0.862305 17.5555 0.862305L7.24887 1.10464C6.24996 1.10464 5.42752 1.06085 4.51147 1.44041C2.26509 2.37035 1.31836 3.25941 1.29688 5.30906L1.39201 6.08425L13.8499 5.93973C13.9282 5.93973 14.008 5.93973 14.0878 5.94557C17.956 6.18936 20.5875 7.01127 23.1009 8.2142C25.6388 9.43027 27.6213 11.1398 29.0483 13.3427C30.3172 15.3033 31.063 16.7311 31.2133 19.1501L31.8148 19.3851L31.3652 20.4289L31.2379 20.3793C31.2195 21.6348 31.0783 22.8173 30.8159 23.9297L31.8026 24.3151L31.1151 25.9122L30.308 25.5983C30.0717 26.2261 29.7909 26.829 29.4641 27.4042L30.216 27.6961L29.8677 28.5049L29.0759 28.1969L29.2861 27.7093C29.2247 27.81 29.1634 27.9108 29.0989 28.01C27.6719 30.229 25.5222 31.721 23.4047 33.5239C23.0012 33.867 22.4856 34.1648 21.8826 34.4115L21.6585 34.9283L21.0632 34.6977C19.2572 35.2335 16.8819 35.3736 14.3701 34.9838L12.3569 33.9707L12.983 34.686L16.5842 37.8963C17.4711 37.8963 18.3289 37.8875 19.1621 37.8525L19.8479 36.2714L21.7337 37.0028L21.4437 37.6714C22.5378 37.5357 23.5842 37.3196 24.5862 36.9795L24.5478 36.9649L23.4247 36.5284L24.2901 34.5327L26.248 35.2918L25.7386 36.4641L25.7063 36.5371C25.9656 36.4203 26.2204 36.2933 26.4735 36.1546C29.346 34.5823 32.6403 31.8466 34.2561 28.975C35.8718 26.1049 36.6805 22.6946 36.6805 18.7472C36.6805 14.7997 35.8488 12.7106 34.2331 9.85947V9.85656ZM27.7701 35.1473C27.7563 35.1605 27.7394 35.1721 27.7256 35.1853L28.011 34.5254L28.3041 34.6393C28.1307 34.813 27.9542 34.9838 27.7701 35.1473ZM27.9788 33.2451L26.1759 32.5429L26.9661 30.7064L28.769 31.4086L27.9788 33.2451ZM29.2493 33.578L29.5853 32.7969L29.7756 32.8714C29.6083 33.1137 29.4319 33.3488 29.2493 33.578ZM30.5505 30.9896L29.57 30.6071L30.0012 29.6057L30.9816 29.9881L30.5505 30.9896ZM32.2874 17.8377C32.3596 18.0245 32.4271 18.2158 32.493 18.407L32.1079 18.2596L32.289 17.8377H32.2874ZM31.0814 22.6275L31.4435 21.7851L32.2629 22.1049L31.9008 22.9472L31.0814 22.6275ZM32.2798 27.1691L31.5847 26.8976L32.9672 23.6859C32.8352 24.8421 32.5928 26.0231 32.2798 27.1677V27.1691Z" fill="#A7A9AC"/>
<path d="M0.403551 1.08129H8.16001C8.19531 1.08129 8.22446 1.10903 8.22446 1.14261V46.9387C8.22446 46.9723 8.19531 47 8.16001 47C3.65651 47 0 43.5211 0 39.2364V1.46378C0 1.2521 0.181061 1.07983 0.403551 1.07983V1.08129Z" fill="#A7A9AC"/>
<g filter="url(#filter0_d_16450_12346)">
<path d="M37.0278 22.914L36.6016 23.9043L37.5742 24.2833L38.0005 23.293L37.0278 22.914Z" fill="#F1F2F2"/>
</g>
<g filter="url(#filter1_d_16450_12346)">
<path d="M35.6192 29.0362L35.3555 29.6489L35.9517 29.8812L36.2155 29.2685L35.6192 29.0362Z" fill="#F1F2F2"/>
</g>
<g filter="url(#filter2_d_16450_12346)">
<path d="M35.1816 20.1761L34.957 20.6978L35.468 20.8968L35.6925 20.3752L35.1816 20.1761Z" fill="#F1F2F2"/>
</g>
<g filter="url(#filter3_d_16450_12346)">
<path d="M26.7167 36.6749L26.4922 37.1965L27.0031 37.3956L27.2277 36.874L26.7167 36.6749Z" fill="#F1F2F2"/>
</g>
<g filter="url(#filter4_d_16450_12346)">
<path d="M30.8788 35.1618L30.5078 36.0237L31.3456 36.3501L31.7166 35.4882L30.8788 35.1618Z" fill="#F1F2F2"/>
</g>
<g filter="url(#filter5_d_16450_12346)">
<path d="M36.7694 27.0148L36.3984 27.8767L37.2362 28.2031L37.6072 27.3412L36.7694 27.0148Z" fill="#F1F2F2"/>
</g>
<g filter="url(#filter6_d_16450_12346)">
<path d="M34.6522 22.0221L34.2812 22.884L35.119 23.2105L35.49 22.3485L34.6522 22.0221Z" fill="#F1F2F2"/>
</g>
<path d="M2.05223 12.9104L1.86719 13.5244L2.47187 13.6894L2.65691 13.0754L2.05223 12.9104Z" fill="white"/>
<path d="M2.67807 10.2108L2.5625 10.5942L2.93699 10.6964L3.05256 10.3129L2.67807 10.2108Z" fill="white"/>
<path d="M2.39291 9.28695L2.27734 9.67041L2.65184 9.77258L2.76741 9.38912L2.39291 9.28695Z" fill="white"/>
<path d="M3.5344 9.89066L3.02344 9.75068L3.16921 9.26367L3.6817 9.40365L3.5344 9.89066Z" fill="white"/>
<path d="M1.81863 10.9648L1.62109 11.6194L2.2906 11.8023L2.48813 11.1477L1.81863 10.9648Z" fill="white"/>
<path d="M3.14874 13.8105L2.87891 14.7058L3.74914 14.9432L4.01898 14.0479L3.14874 13.8105Z" fill="white"/>
<path d="M3.55085 11.1675L3.05078 12.5322L4.3881 12.9758L4.88818 11.6111L3.55085 11.1675Z" fill="white"/>
<path d="M4.15016 8.99998L3.85156 9.99072L4.82209 10.2555L5.12069 9.26476L4.15016 8.99998Z" fill="white"/>
<g filter="url(#filter7_d_16450_12346)">
<path d="M32.5767 17.689L32.4141 18.0603L32.8161 18.2117L32.968 17.8433L32.5767 17.689Z" fill="#F1F2F2"/>
</g>
<g filter="url(#filter8_d_16450_12346)">
<path d="M32.3438 34.1057L32.712 34.2469L32.8747 33.8741L32.5049 33.73L32.3453 34.1013L32.3438 34.1057Z" fill="#F1F2F2"/>
</g>
<g filter="url(#filter9_d_16450_12346)">
<path d="M33.0378 24.1535L31.9297 26.7317L34.2987 27.6533L35.4068 25.0751L33.0378 24.1535Z" fill="#F1F2F2"/>
</g>
<path d="M25.8918 27.0057L25.789 26.9663L25.3594 27.9634L25.5159 28.0247C25.6325 27.7868 25.7399 27.5152 25.8396 27.1868C25.8581 27.1269 25.8749 27.0656 25.8918 27.0057Z" fill="white"/>
<path d="M26.7662 27.346L25.8916 27.0059C25.8747 27.0657 25.8578 27.1256 25.8394 27.1869C25.7396 27.5154 25.6322 27.7869 25.5156 28.0248L26.3365 28.3446L26.7662 27.3475V27.346Z" fill="white"/>
<path d="M28.4274 19.1763L28.1328 19.8609L28.7957 20.1179L29.0826 19.4361L28.4274 19.1763Z" fill="white"/>
<path d="M25.8242 18.5065L26.6267 18.8189L26.975 17.9926L26.1802 17.6772L25.8242 18.5065Z" fill="white"/>
<path d="M30.2397 16.8495L29.5845 16.5896L29.293 17.2655L29.9558 17.5239L30.2397 16.8495Z" fill="white"/>
<path d="M23.8828 31.0484L24.2833 31.2027L24.4598 30.7964L24.0608 30.6421L23.8828 31.0484Z" fill="white"/>
<path d="M26.4366 21.9062L25.7461 23.5106L26.432 23.7778C26.5148 23.1165 26.5148 22.4931 26.4366 21.9048V21.9062Z" fill="white"/>
<path d="M28.4735 22.3124L26.577 21.5737L26.4343 21.9051C26.5125 22.4934 26.5125 23.1168 26.4297 23.7781L27.6403 24.2497L28.4735 22.3124Z" fill="white"/>
<path d="M31.1506 19.4157L30.9189 19.3252L30.6719 19.9004L31.166 20.0931C31.166 20.042 31.166 19.9924 31.166 19.9413C31.166 19.7559 31.1614 19.5821 31.1506 19.4157Z" fill="white"/>
<path d="M31.4799 19.5448L31.1484 19.415C31.1592 19.5813 31.1638 19.7548 31.1638 19.94C31.1638 19.991 31.1638 20.042 31.1638 20.0916L31.2344 20.1193L31.4814 19.5448H31.4799Z" fill="white"/>
<path d="M30.1351 29.9449L29.9141 30.4585L30.4179 30.6548L30.639 30.1412L30.1351 29.9449Z" fill="#F1F2F2"/>
<path d="M29.5331 27.6521L29.4609 27.8185C29.4932 27.7664 29.5238 27.7143 29.5545 27.6608L29.5331 27.6521Z" fill="white"/>
<path d="M29.7604 28.2329L29.9415 27.8121L29.5502 27.6606C29.5195 27.7145 29.4888 27.7669 29.4566 27.8194L29.3477 28.0727L29.7604 28.2329Z" fill="white"/>
<path d="M20.8323 32.8408L20.7188 33.1021C20.8384 33.0513 20.9581 32.9947 21.0747 32.9352L20.8323 32.8423V32.8408Z" fill="white"/>
<path d="M21.9761 33.2825L21.0754 32.9336C20.9588 32.9949 20.8406 33.0504 20.7194 33.1015L20.3281 34.0051L21.1015 34.3059C21.281 34.2533 21.4498 34.1935 21.6094 34.1292L21.9761 33.284V33.2825Z" fill="white"/>
<path d="M21.6095 34.1282C21.4499 34.1937 21.2796 34.2519 21.1016 34.3043L21.4714 34.447L21.611 34.1267L21.6095 34.1282Z" fill="white"/>
<path d="M20.0132 37.5576C20.1237 37.8153 20.0132 37.4505 19.8629 37.6589C19.8444 37.6835 19.823 37.7081 19.7969 37.7284C19.9963 37.7183 20.1928 37.7067 20.3876 37.6908L20.0117 37.5576H20.0132Z" fill="white"/>
<path d="M20.3921 37.6919C20.1972 37.7079 20.0008 37.7196 19.8013 37.7298C19.743 37.7794 19.6678 37.8173 19.5757 37.8465L19.5312 37.9471L20.6897 38.3962L20.9767 37.7356C20.88 37.7561 20.7833 37.7765 20.6867 37.7969L20.3936 37.6919H20.3921Z" fill="white"/>
<path d="M20.6837 37.7953C20.7804 37.7765 20.877 37.7562 20.9737 37.7345L21.0213 37.626C20.8141 37.652 20.6039 37.6723 20.3906 37.6897L20.6837 37.7939V37.7953Z" fill="white"/>
<path d="M19.6257 37.7384L19.5781 37.8468C19.6702 37.8179 19.7454 37.7789 19.8037 37.7312C19.7438 37.7341 19.6855 37.737 19.6257 37.7399V37.7384Z" fill="white"/>
<path d="M20.0454 36.7676L19.625 37.7384C19.6848 37.7355 19.7447 37.7326 19.803 37.7296C19.8291 37.7077 19.8506 37.6844 19.869 37.6596C20.0178 37.4493 20.1298 37.8172 20.0193 37.5574L20.3953 37.6917C20.6086 37.6742 20.8188 37.6537 21.0259 37.6274L21.2039 37.2172L20.0454 36.7676Z" fill="white"/>
<path d="M25.2066 36.7665L25.4106 36.2991C25.1805 36.4025 24.9472 36.4942 24.7109 36.5743L25.2081 36.7665H25.2066Z" fill="white"/>
<path d="M24.6875 36.5637L24.712 36.5725C24.9499 36.4924 25.1831 36.4007 25.4117 36.2973L25.4317 36.2522C25.1923 36.3672 24.9437 36.4706 24.6875 36.5637Z" fill="white"/>
<path d="M25.749 35.5208L24.526 35.0464L23.9844 36.2931L24.6856 36.5646C24.9418 36.4712 25.1904 36.3676 25.4298 36.2522L25.7474 35.5194L25.749 35.5208Z" fill="white"/>
<path d="M27.2143 31.3316L26.8125 32.2651L27.7284 32.622L28.1302 31.6885L27.2143 31.3316Z" fill="white"/>
<path d="M30.4358 24.2976L30.0859 25.1122L30.4818 25.267C30.5846 24.994 30.6706 24.7107 30.7396 24.4173L30.4358 24.2991V24.2976Z" fill="white"/>
<path d="M31.2454 24.6126L30.7422 24.417C30.6731 24.7104 30.5872 24.9936 30.4844 25.2666L30.8956 25.4272L31.2454 24.6126Z" fill="white"/>
<path d="M31.5506 22.0482L31.3516 22.5105L31.8029 22.6863L32.0019 22.224L31.5506 22.0482Z" fill="white"/>
<g filter="url(#filter10_d_16450_12346)">
<path d="M29.6456 32.9444L29.4258 33.4553L29.9169 33.6466L30.1367 33.1357L29.6456 32.9444Z" fill="#F1F2F2"/>
</g>
<g filter="url(#filter11_d_16450_12346)">
<path d="M28.0934 34.6898L27.918 35.0977L28.311 35.2507L28.4864 34.8428L28.0934 34.6898Z" fill="#F1F2F2"/>
</g>
<path d="M32.7489 19.2349C32.6707 18.9546 32.5848 18.6787 32.4927 18.4057L32.1076 18.2583L32.2886 17.8364C31.5429 15.902 30.3905 14.2013 28.649 12.7969C26.553 11.1064 23.969 9.64213 20.825 8.77642L9.39362 5.49756L6.48438 10.9706L9.77416 11.7677L15.4837 13.3414C17.371 13.8611 22.4177 15.9882 23.8064 17.1707C25.0738 18.251 25.7428 19.2101 26.0558 20.9357C26.0834 21.0846 26.1065 21.2364 26.1264 21.3882L26.3428 20.886L29.2152 22.0058L27.9524 24.9401L26.1187 24.2262C26.0313 24.9284 25.8809 25.6583 25.6661 26.4189L27.3309 27.0671L26.5131 28.9679L24.9495 28.3591C24.4232 29.4263 23.7818 30.1387 22.9087 31.0759C22.3594 31.6642 21.715 32.1285 21.0229 32.4891L22.473 33.0511L21.6597 34.927L19.82 34.2132L20.4506 32.7591C19.7386 33.0643 18.9929 33.2716 18.2625 33.4015C16.4749 33.7197 12.0896 32.9256 10.2023 32.4059L8.98547 32.0613L8.31493 31.7913C8.17376 32.6292 9.36447 34.1504 12.3903 36.0949C14.8991 37.7066 17.859 38.4161 19.0865 38.0278L19.8491 36.2701L21.7349 37.0015L21.3682 37.8468C22.4392 37.6161 23.5271 37.3373 24.549 36.9636L23.4258 36.5271L24.2913 34.5314L26.2492 35.2906L25.7397 36.4628C26.4717 36.111 27.1453 35.692 27.7268 35.1854L28.0122 34.5256L28.3053 34.6395C28.6398 34.3037 28.9543 33.9504 29.2505 33.5781L29.5865 32.7971L29.7768 32.8716C30.7404 31.4774 31.48 29.8525 32.0431 28.0014C32.1275 27.727 32.2058 27.4481 32.2825 27.1678L31.5874 26.8963L32.9699 23.6846C33.151 22.0948 33.1187 20.5561 32.752 19.2349H32.7489ZM31.8022 19.3838L31.3572 20.4189L30.3445 20.0247L30.7895 18.9897L31.8022 19.3838ZM29.4638 16.2743L30.5471 16.7035L30.0775 17.8159L28.9835 17.3911L29.4638 16.2743ZM26.7494 19.124L25.5157 18.6451L26.0635 17.3707L27.2834 17.8553L26.7494 19.124ZM28.9052 20.3853L27.8664 19.9824L28.3283 18.9094L29.3563 19.3167L28.9068 20.3853H28.9052ZM24.4631 31.6292L23.4197 31.2248L23.8816 30.162L24.925 30.5664L24.4631 31.6292ZM27.9784 33.2438L26.1755 32.5416L26.9657 30.7051L28.7687 31.4073L27.9784 33.2438ZM29.0756 28.1941L29.4239 27.3854L30.2156 27.6934L29.8673 28.5022L29.0756 28.1941ZM30.5501 30.9883L29.5696 30.6058L30.0008 29.6044L30.9813 29.9869L30.5501 30.9883ZM31.1148 25.9094L29.5313 25.2919L30.2187 23.6948L31.8022 24.3123L31.1148 25.9094ZM31.8989 22.9459L31.0795 22.6262L31.4416 21.7839L32.261 22.1036L31.8989 22.9459Z" fill="#F1F2F2"/>
<path d="M9.39561 5.52325L15.8899 7.36286L8.25636 31.756C4.0401 30.5617 1.63582 26.3346 2.89114 22.3232L7.90891 6.28869C8.09719 5.68704 8.76325 5.34412 9.39561 5.52325Z" fill="#F1F2F2"/>
<g filter="url(#filter12_d_16450_12346)">
<path d="M33.5121 28.5067L33.1016 29.4604L34.0359 29.8245L34.4464 28.8707L33.5121 28.5067Z" fill="#F1F2F2"/>
</g>
<g filter="url(#filter13_d_16450_12346)">
<path d="M32.1655 30.6452L31.5898 31.9827L32.9005 32.4933L33.4761 31.1558L32.1655 30.6452Z" fill="#F1F2F2"/>
</g>
<path d="M54.5483 6.05142H53.8848V11.5336H54.7742C56.0072 11.5336 56.9483 11.2975 57.5978 10.8253C58.2472 10.3437 58.5719 9.65425 58.5719 8.75708C58.5719 7.82214 58.2519 7.13746 57.6119 6.70304C56.9719 6.26863 55.9507 6.05142 54.5483 6.05142ZM49 22.8237V2.28332H54.266C55.8848 2.28332 57.1695 2.40136 58.1201 2.63746C59.0707 2.87356 59.9131 3.2702 60.6472 3.82739C61.4096 4.38458 61.9978 5.08342 62.412 5.92392C62.8355 6.75498 63.0473 7.63799 63.0473 8.57293C63.0473 10.6506 62.3084 12.2985 60.8308 13.5168C59.3625 14.735 57.3672 15.3442 54.8448 15.3442C54.5813 15.3442 54.3836 15.3442 54.2518 15.3442C54.1201 15.3347 53.9977 15.3253 53.8848 15.3158V22.8237H49Z" fill="white"/>
<path d="M72.2097 13.3043C71.9462 13.1532 71.6921 13.0446 71.4474 12.9785C71.2121 12.9124 70.9768 12.8793 70.7415 12.8793C69.9038 12.8793 69.1979 13.2335 68.6238 13.9418C68.0497 14.6406 67.7626 15.5236 67.7626 16.5908C67.7626 17.5918 68.012 18.4276 68.5109 19.0981C69.0191 19.7592 69.6356 20.0897 70.3603 20.0897C70.6521 20.0897 70.9485 20.0142 71.2497 19.8631C71.5603 19.7025 71.8803 19.4617 72.2097 19.1406V13.3043ZM76.6427 10.0603V18.0357C76.6427 19.0367 76.6616 19.8772 76.6992 20.5572C76.7369 21.2371 76.7933 21.8179 76.8686 22.2996L72.7603 23.4328L72.365 22.2146C71.8097 22.6301 71.2638 22.937 70.7274 23.1354C70.2003 23.3337 69.645 23.4328 69.0615 23.4328C67.4238 23.4328 66.0449 22.7765 64.9249 21.4638C63.8143 20.1511 63.259 18.5173 63.259 16.5624C63.259 14.5037 63.8849 12.8038 65.1367 11.4627C66.3885 10.1217 67.9697 9.45121 69.8803 9.45121C70.3227 9.45121 70.7838 9.51259 71.2638 9.63536C71.7439 9.75813 72.2756 9.94701 72.8592 10.202L76.6427 10.0603Z" fill="white"/>
<path d="M84.464 22.8237H80.0451V10.0603H84.1252V12.1994C84.8029 11.3589 85.5229 10.7356 86.2852 10.3295C87.0476 9.91396 87.8758 9.70619 88.77 9.70619C90.1159 9.70619 91.1371 10.0934 91.8335 10.8678C92.53 11.6422 92.8783 12.7754 92.8783 14.2676V22.8237H88.4876V15.5142C88.4876 14.8437 88.3511 14.3384 88.0782 13.9984C87.8053 13.6584 87.4005 13.4885 86.8641 13.4885C86.0923 13.4885 85.4993 13.7482 85.0852 14.2676C84.6711 14.787 84.464 15.5425 84.464 16.5341V22.8237Z" fill="white"/>
<path d="M96.8595 18.5315V13.4176H95.0101V10.0603H96.8595V6.23557L101.377 5.62644V10.0603H104.384V13.4176H101.377V18.8431C101.377 19.9953 101.533 20.8311 101.843 21.3505C102.154 21.8604 102.737 22.3326 103.594 22.7671L98.5678 23.107C97.9372 22.8048 97.4948 22.3562 97.2407 21.7613C96.9866 21.1569 96.8595 20.0803 96.8595 18.5315Z" fill="white"/>
<path d="M110.808 22.8237H106.389V2.60913L110.808 2V11.8594C111.429 11.1322 112.093 10.5939 112.799 10.2445C113.514 9.88562 114.286 9.70619 115.114 9.70619C116.46 9.70619 117.481 10.0934 118.177 10.8678C118.874 11.6422 119.222 12.7754 119.222 14.2676V22.8237H114.832V15.5142C114.832 14.8437 114.695 14.3384 114.422 13.9984C114.149 13.6584 113.744 13.4885 113.208 13.4885C112.436 13.4885 111.843 13.7482 111.429 14.2676C111.015 14.787 110.808 15.5425 110.808 16.5341V22.8237Z" fill="white"/>
<path d="M125.9 15.245L131.42 15.075V14.8767C131.42 14.2062 131.185 13.6584 130.714 13.2335C130.243 12.7991 129.651 12.5818 128.935 12.5818C128.135 12.5818 127.467 12.8179 126.931 13.2901C126.394 13.7529 126.051 14.4045 125.9 15.245ZM134.342 18.2623L133.848 22.1863C132.982 22.6018 132.131 22.9087 131.293 23.107C130.455 23.3054 129.608 23.4045 128.752 23.4045C126.634 23.4045 124.926 22.7954 123.627 21.5771C122.328 20.3494 121.679 18.7534 121.679 16.7891C121.679 14.7398 122.389 13.0115 123.81 11.6044C125.232 10.1878 126.959 9.47954 128.992 9.47954C130.733 9.47954 132.159 9.99895 133.269 11.0378C134.389 12.0672 134.949 13.4035 134.949 15.0467C134.949 15.3017 134.931 15.7078 134.893 16.265L134.879 16.3499L134.484 16.9307L125.801 17.1716C125.867 18.031 126.225 18.7298 126.874 19.2681C127.523 19.797 128.342 20.0614 129.331 20.0614C130.027 20.0614 130.799 19.9103 131.646 19.6081C132.502 19.3059 133.401 18.8573 134.342 18.2623Z" fill="white"/>
<path d="M141.175 16.4349C141.175 17.521 141.406 18.3993 141.867 19.0698C142.338 19.7309 142.935 20.0614 143.66 20.0614C144.385 20.0614 144.978 19.7261 145.439 19.0556C145.91 18.3851 146.145 17.5115 146.145 16.4349C146.145 15.3678 145.91 14.499 145.439 13.8284C144.978 13.1485 144.385 12.8085 143.66 12.8085C142.935 12.8085 142.338 13.1438 141.867 13.8143C141.406 14.4848 141.175 15.3583 141.175 16.4349ZM136.658 16.4349C136.658 14.4045 137.317 12.7329 138.634 11.4203C139.961 10.1076 141.637 9.45121 143.66 9.45121C145.693 9.45121 147.373 10.1076 148.7 11.4203C150.027 12.7329 150.691 14.4045 150.691 16.4349C150.691 18.4654 150.027 20.1417 148.7 21.4638C147.373 22.7765 145.693 23.4328 143.66 23.4328C141.646 23.4328 139.975 22.7765 138.648 21.4638C137.321 20.1417 136.658 18.4654 136.658 16.4349Z" fill="white"/>
<path d="M157.707 22.8237H153.289V10.0603H157.369V12.1994C158.046 11.3589 158.766 10.7356 159.529 10.3295C160.291 9.91396 161.119 9.70619 162.013 9.70619C163.359 9.70619 164.38 10.0934 165.077 10.8678C165.773 11.6422 166.122 12.7754 166.122 14.2676V22.8237H161.731V15.5142C161.731 14.8437 161.595 14.3384 161.322 13.9984C161.049 13.6584 160.644 13.4885 160.107 13.4885C159.336 13.4885 158.743 13.7482 158.329 14.2676C157.914 14.787 157.707 15.5425 157.707 16.5341V22.8237Z" fill="white"/>
<path d="M183.176 18.4182H184.249C186.385 18.4182 188.056 17.8987 189.261 16.8599C190.466 15.8211 191.068 14.3856 191.068 12.5535C191.068 10.7214 190.466 9.28122 189.261 8.23295C188.056 7.18468 186.385 6.66055 184.249 6.66055H183.176V18.4182ZM178.348 22.8237V2.28332H183.783C187.604 2.28332 190.597 3.19937 192.762 5.03148C194.927 6.86359 196.009 9.37093 196.009 12.5535C196.009 14.4612 195.581 16.1563 194.724 17.639C193.868 19.1123 192.611 20.3258 190.955 21.2796C190.014 21.8274 188.988 22.224 187.877 22.4696C186.776 22.7057 185.411 22.8237 183.783 22.8237H178.348Z" fill="white"/>
<path d="M198.508 5.30063C198.508 4.62067 198.743 4.0446 199.214 3.5724C199.684 3.10021 200.259 2.86411 200.936 2.86411C201.623 2.86411 202.197 3.10021 202.659 3.5724C203.129 4.03515 203.365 4.61123 203.365 5.30063C203.365 5.98059 203.129 6.56139 202.659 7.04302C202.188 7.52466 201.614 7.76548 200.936 7.76548C200.277 7.76548 199.708 7.52466 199.228 7.04302C198.748 6.55194 198.508 5.97114 198.508 5.30063ZM203.195 22.8237H198.72V10.0603L203.195 9.45121V22.8237Z" fill="white"/>
<path d="M214.715 13.3043C214.452 13.1532 214.198 13.0446 213.953 12.9785C213.718 12.9124 213.482 12.8793 213.247 12.8793C212.409 12.8793 211.703 13.2335 211.129 13.9418C210.555 14.6406 210.268 15.5236 210.268 16.5908C210.268 17.5918 210.518 18.4276 211.016 19.0981C211.525 19.7592 212.141 20.0897 212.866 20.0897C213.148 20.0897 213.445 20.0094 213.755 19.8489C214.075 19.6884 214.395 19.4523 214.715 19.1406V13.3043ZM219.148 10.0603V21.6338C219.148 22.8048 219.092 23.6831 218.979 24.2686C218.866 24.8636 218.682 25.4066 218.428 25.8977C217.901 26.9176 217.134 27.6873 216.127 28.2067C215.12 28.7356 213.901 29 212.471 29C211.614 29 210.743 28.9056 209.859 28.7167C208.983 28.5278 208.052 28.235 207.063 27.8384L207.007 24.297C207.948 24.8069 208.805 25.18 209.576 25.4161C210.348 25.6616 211.073 25.7844 211.751 25.7844C212.739 25.7844 213.506 25.5483 214.052 25.0761C214.598 24.6039 214.871 23.9381 214.871 23.0787V22.2146C214.362 22.5357 213.859 22.7718 213.36 22.9229C212.861 23.074 212.334 23.1495 211.779 23.1495C209.981 23.1495 208.527 22.5451 207.416 21.3363C206.315 20.1275 205.765 18.5362 205.765 16.5624C205.765 14.5131 206.39 12.8179 207.642 11.4769C208.894 10.1264 210.475 9.45121 212.386 9.45121C212.828 9.45121 213.289 9.51259 213.769 9.63536C214.249 9.75813 214.781 9.94701 215.365 10.202L219.148 10.0603Z" fill="white"/>
<path d="M222.226 5.30063C222.226 4.62067 222.461 4.0446 222.932 3.5724C223.402 3.10021 223.977 2.86411 224.654 2.86411C225.341 2.86411 225.915 3.10021 226.377 3.5724C226.847 4.03515 227.083 4.61123 227.083 5.30063C227.083 5.98059 226.847 6.56139 226.377 7.04302C225.906 7.52466 225.332 7.76548 224.654 7.76548C223.995 7.76548 223.426 7.52466 222.946 7.04302C222.466 6.55194 222.226 5.97114 222.226 5.30063ZM226.913 22.8237H222.438V10.0603L226.913 9.45121V22.8237Z" fill="white"/>
<path d="M230.979 18.5315V13.4176H229.13V10.0603H230.979V6.23557L235.497 5.62644V10.0603H238.504V13.4176H235.497V18.8431C235.497 19.9953 235.652 20.8311 235.963 21.3505C236.273 21.8604 236.857 22.3326 237.713 22.7671L232.687 23.107C232.057 22.8048 231.614 22.3562 231.36 21.7613C231.106 21.1569 230.979 20.0803 230.979 18.5315Z" fill="white"/>
<path d="M248.683 13.3043C248.419 13.1532 248.165 13.0446 247.92 12.9785C247.685 12.9124 247.45 12.8793 247.215 12.8793C246.377 12.8793 245.671 13.2335 245.097 13.9418C244.523 14.6406 244.236 15.5236 244.236 16.5908C244.236 17.5918 244.485 18.4276 244.984 19.0981C245.492 19.7592 246.109 20.0897 246.833 20.0897C247.125 20.0897 247.422 20.0142 247.723 19.8631C248.033 19.7025 248.353 19.4617 248.683 19.1406V13.3043ZM253.116 10.0603V18.0357C253.116 19.0367 253.135 19.8772 253.172 20.5572C253.21 21.2371 253.266 21.8179 253.342 22.2996L249.233 23.4328L248.838 22.2146C248.283 22.6301 247.737 22.937 247.2 23.1354C246.673 23.3337 246.118 23.4328 245.535 23.4328C243.897 23.4328 242.518 22.7765 241.398 21.4638C240.287 20.1511 239.732 18.5173 239.732 16.5624C239.732 14.5037 240.358 12.8038 241.61 11.4627C242.862 10.1217 244.443 9.45121 246.353 9.45121C246.796 9.45121 247.257 9.51259 247.737 9.63536C248.217 9.75813 248.749 9.94701 249.332 10.202L253.116 10.0603Z" fill="white"/>
<path d="M260.881 22.8237H256.405V2.60913L260.881 2V22.8237Z" fill="white"/>
<path d="M264.364 8.72613V3.96306H262.456V2.7048H267.695V3.96306H265.796V8.72613H264.364Z" fill="white"/>
<path d="M267.89 8.72613L269.136 2.50963H269.239L271.503 6.42972L273.638 2.50963H273.746L275 8.72613H273.638L273.129 5.97709L271.519 8.94622H271.424L269.694 5.93556L269.169 8.72613H267.89Z" fill="white"/>
<defs>
<filter id="filter0_d_16450_12346" x="29.6016" y="18.9141" width="9.39844" height="9.36914" filterUnits="userSpaceOnUse" color-interpolation-filters="sRGB">
<feFlood flood-opacity="0" result="BackgroundImageFix"/>
<feColorMatrix in="SourceAlpha" type="matrix" values="0 0 0 0 0 0 0 0 0 0 0 0 0 0 0 0 0 0 127 0" result="hardAlpha"/>
<feOffset dx="-3"/>
<feGaussianBlur stdDeviation="2"/>
<feColorMatrix type="matrix" values="0 0 0 0 0.00392157 0 0 0 0 0.00392157 0 0 0 0 0.00392157 0 0 0 0.32 0"/>
<feBlend mode="normal" in2="BackgroundImageFix" result="effect1_dropShadow_16450_12346"/>
<feBlend mode="normal" in="SourceGraphic" in2="effect1_dropShadow_16450_12346" result="shape"/>
</filter>
<filter id="filter1_d_16450_12346" x="28.3555" y="25.0361" width="8.85938" height="8.84521" filterUnits="userSpaceOnUse" color-interpolation-filters="sRGB">
<feFlood flood-opacity="0" result="BackgroundImageFix"/>
<feColorMatrix in="SourceAlpha" type="matrix" values="0 0 0 0 0 0 0 0 0 0 0 0 0 0 0 0 0 0 127 0" result="hardAlpha"/>
<feOffset dx="-3"/>
<feGaussianBlur stdDeviation="2"/>
<feColorMatrix type="matrix" values="0 0 0 0 0.00392157 0 0 0 0 0.00392157 0 0 0 0 0.00392157 0 0 0 0.32 0"/>
<feBlend mode="normal" in2="BackgroundImageFix" result="effect1_dropShadow_16450_12346"/>
<feBlend mode="normal" in="SourceGraphic" in2="effect1_dropShadow_16450_12346" result="shape"/>
</filter>
<filter id="filter2_d_16450_12346" x="27.957" y="16.176" width="8.73438" height="8.7207" filterUnits="userSpaceOnUse" color-interpolation-filters="sRGB">
<feFlood flood-opacity="0" result="BackgroundImageFix"/>
<feColorMatrix in="SourceAlpha" type="matrix" values="0 0 0 0 0 0 0 0 0 0 0 0 0 0 0 0 0 0 127 0" result="hardAlpha"/>
<feOffset dx="-3"/>
<feGaussianBlur stdDeviation="2"/>
<feColorMatrix type="matrix" values="0 0 0 0 0.00392157 0 0 0 0 0.00392157 0 0 0 0 0.00392157 0 0 0 0.32 0"/>
<feBlend mode="normal" in2="BackgroundImageFix" result="effect1_dropShadow_16450_12346"/>
<feBlend mode="normal" in="SourceGraphic" in2="effect1_dropShadow_16450_12346" result="shape"/>
</filter>
<filter id="filter3_d_16450_12346" x="19.4922" y="32.6748" width="8.73438" height="8.7207" filterUnits="userSpaceOnUse" color-interpolation-filters="sRGB">
<feFlood flood-opacity="0" result="BackgroundImageFix"/>
<feColorMatrix in="SourceAlpha" type="matrix" values="0 0 0 0 0 0 0 0 0 0 0 0 0 0 0 0 0 0 127 0" result="hardAlpha"/>
<feOffset dx="-3"/>
<feGaussianBlur stdDeviation="2"/>
<feColorMatrix type="matrix" values="0 0 0 0 0.00392157 0 0 0 0 0.00392157 0 0 0 0 0.00392157 0 0 0 0.32 0"/>
<feBlend mode="normal" in2="BackgroundImageFix" result="effect1_dropShadow_16450_12346"/>
<feBlend mode="normal" in="SourceGraphic" in2="effect1_dropShadow_16450_12346" result="shape"/>
</filter>
<filter id="filter4_d_16450_12346" x="23.5078" y="31.1619" width="9.20703" height="9.18823" filterUnits="userSpaceOnUse" color-interpolation-filters="sRGB">
<feFlood flood-opacity="0" result="BackgroundImageFix"/>
<feColorMatrix in="SourceAlpha" type="matrix" values="0 0 0 0 0 0 0 0 0 0 0 0 0 0 0 0 0 0 127 0" result="hardAlpha"/>
<feOffset dx="-3"/>
<feGaussianBlur stdDeviation="2"/>
<feColorMatrix type="matrix" values="0 0 0 0 0.00392157 0 0 0 0 0.00392157 0 0 0 0 0.00392157 0 0 0 0.32 0"/>
<feBlend mode="normal" in2="BackgroundImageFix" result="effect1_dropShadow_16450_12346"/>
<feBlend mode="normal" in="SourceGraphic" in2="effect1_dropShadow_16450_12346" result="shape"/>
</filter>
<filter id="filter5_d_16450_12346" x="29.3984" y="23.0149" width="9.20703" height="9.18823" filterUnits="userSpaceOnUse" color-interpolation-filters="sRGB">
<feFlood flood-opacity="0" result="BackgroundImageFix"/>
<feColorMatrix in="SourceAlpha" type="matrix" values="0 0 0 0 0 0 0 0 0 0 0 0 0 0 0 0 0 0 127 0" result="hardAlpha"/>
<feOffset dx="-3"/>
<feGaussianBlur stdDeviation="2"/>
<feColorMatrix type="matrix" values="0 0 0 0 0.00392157 0 0 0 0 0.00392157 0 0 0 0 0.00392157 0 0 0 0.32 0"/>
<feBlend mode="normal" in2="BackgroundImageFix" result="effect1_dropShadow_16450_12346"/>
<feBlend mode="normal" in="SourceGraphic" in2="effect1_dropShadow_16450_12346" result="shape"/>
</filter>
<filter id="filter6_d_16450_12346" x="27.2812" y="18.0222" width="9.20703" height="9.18823" filterUnits="userSpaceOnUse" color-interpolation-filters="sRGB">
<feFlood flood-opacity="0" result="BackgroundImageFix"/>
<feColorMatrix in="SourceAlpha" type="matrix" values="0 0 0 0 0 0 0 0 0 0 0 0 0 0 0 0 0 0 127 0" result="hardAlpha"/>
<feOffset dx="-3"/>
<feGaussianBlur stdDeviation="2"/>
<feColorMatrix type="matrix" values="0 0 0 0 0.00392157 0 0 0 0 0.00392157 0 0 0 0 0.00392157 0 0 0 0.32 0"/>
<feBlend mode="normal" in2="BackgroundImageFix" result="effect1_dropShadow_16450_12346"/>
<feBlend mode="normal" in="SourceGraphic" in2="effect1_dropShadow_16450_12346" result="shape"/>
</filter>
<filter id="filter7_d_16450_12346" x="25.4141" y="13.689" width="8.55469" height="8.52271" filterUnits="userSpaceOnUse" color-interpolation-filters="sRGB">
<feFlood flood-opacity="0" result="BackgroundImageFix"/>
<feColorMatrix in="SourceAlpha" type="matrix" values="0 0 0 0 0 0 0 0 0 0 0 0 0 0 0 0 0 0 127 0" result="hardAlpha"/>
<feOffset dx="-3"/>
<feGaussianBlur stdDeviation="2"/>
<feColorMatrix type="matrix" values="0 0 0 0 0.00392157 0 0 0 0 0.00392157 0 0 0 0 0.00392157 0 0 0 0.32 0"/>
<feBlend mode="normal" in2="BackgroundImageFix" result="effect1_dropShadow_16450_12346"/>
<feBlend mode="normal" in="SourceGraphic" in2="effect1_dropShadow_16450_12346" result="shape"/>
</filter>
<filter id="filter8_d_16450_12346" x="25.3438" y="29.73" width="8.53125" height="8.51685" filterUnits="userSpaceOnUse" color-interpolation-filters="sRGB">
<feFlood flood-opacity="0" result="BackgroundImageFix"/>
<feColorMatrix in="SourceAlpha" type="matrix" values="0 0 0 0 0 0 0 0 0 0 0 0 0 0 0 0 0 0 127 0" result="hardAlpha"/>
<feOffset dx="-3"/>
<feGaussianBlur stdDeviation="2"/>
<feColorMatrix type="matrix" values="0 0 0 0 0.00392157 0 0 0 0 0.00392157 0 0 0 0 0.00392157 0 0 0 0.32 0"/>
<feBlend mode="normal" in2="BackgroundImageFix" result="effect1_dropShadow_16450_12346"/>
<feBlend mode="normal" in="SourceGraphic" in2="effect1_dropShadow_16450_12346" result="shape"/>
</filter>
<filter id="filter9_d_16450_12346" x="24.9297" y="20.1536" width="11.4766" height="11.4998" filterUnits="userSpaceOnUse" color-interpolation-filters="sRGB">
<feFlood flood-opacity="0" result="BackgroundImageFix"/>
<feColorMatrix in="SourceAlpha" type="matrix" values="0 0 0 0 0 0 0 0 0 0 0 0 0 0 0 0 0 0 127 0" result="hardAlpha"/>
<feOffset dx="-3"/>
<feGaussianBlur stdDeviation="2"/>
<feColorMatrix type="matrix" values="0 0 0 0 0.00392157 0 0 0 0 0.00392157 0 0 0 0 0.00392157 0 0 0 0.32 0"/>
<feBlend mode="normal" in2="BackgroundImageFix" result="effect1_dropShadow_16450_12346"/>
<feBlend mode="normal" in="SourceGraphic" in2="effect1_dropShadow_16450_12346" result="shape"/>
</filter>
<filter id="filter10_d_16450_12346" x="22.4258" y="28.9443" width="8.71094" height="8.70215" filterUnits="userSpaceOnUse" color-interpolation-filters="sRGB">
<feFlood flood-opacity="0" result="BackgroundImageFix"/>
<feColorMatrix in="SourceAlpha" type="matrix" values="0 0 0 0 0 0 0 0 0 0 0 0 0 0 0 0 0 0 127 0" result="hardAlpha"/>
<feOffset dx="-3"/>
<feGaussianBlur stdDeviation="2"/>
<feColorMatrix type="matrix" values="0 0 0 0 0.00392157 0 0 0 0 0.00392157 0 0 0 0 0.00392157 0 0 0 0.32 0"/>
<feBlend mode="normal" in2="BackgroundImageFix" result="effect1_dropShadow_16450_12346"/>
<feBlend mode="normal" in="SourceGraphic" in2="effect1_dropShadow_16450_12346" result="shape"/>
</filter>
<filter id="filter11_d_16450_12346" x="20.918" y="30.6897" width="8.57031" height="8.56104" filterUnits="userSpaceOnUse" color-interpolation-filters="sRGB">
<feFlood flood-opacity="0" result="BackgroundImageFix"/>
<feColorMatrix in="SourceAlpha" type="matrix" values="0 0 0 0 0 0 0 0 0 0 0 0 0 0 0 0 0 0 127 0" result="hardAlpha"/>
<feOffset dx="-3"/>
<feGaussianBlur stdDeviation="2"/>
<feColorMatrix type="matrix" values="0 0 0 0 0.00392157 0 0 0 0 0.00392157 0 0 0 0 0.00392157 0 0 0 0.32 0"/>
<feBlend mode="normal" in2="BackgroundImageFix" result="effect1_dropShadow_16450_12346"/>
<feBlend mode="normal" in="SourceGraphic" in2="effect1_dropShadow_16450_12346" result="shape"/>
</filter>
<filter id="filter12_d_16450_12346" x="26.1016" y="24.5066" width="9.34375" height="9.31787" filterUnits="userSpaceOnUse" color-interpolation-filters="sRGB">
<feFlood flood-opacity="0" result="BackgroundImageFix"/>
<feColorMatrix in="SourceAlpha" type="matrix" values="0 0 0 0 0 0 0 0 0 0 0 0 0 0 0 0 0 0 127 0" result="hardAlpha"/>
<feOffset dx="-3"/>
<feGaussianBlur stdDeviation="2"/>
<feColorMatrix type="matrix" values="0 0 0 0 0.00392157 0 0 0 0 0.00392157 0 0 0 0 0.00392157 0 0 0 0.32 0"/>
<feBlend mode="normal" in2="BackgroundImageFix" result="effect1_dropShadow_16450_12346"/>
<feBlend mode="normal" in="SourceGraphic" in2="effect1_dropShadow_16450_12346" result="shape"/>
</filter>
<filter id="filter13_d_16450_12346" x="24.5898" y="26.6453" width="9.88672" height="9.84814" filterUnits="userSpaceOnUse" color-interpolation-filters="sRGB">
<feFlood flood-opacity="0" result="BackgroundImageFix"/>
<feColorMatrix in="SourceAlpha" type="matrix" values="0 0 0 0 0 0 0 0 0 0 0 0 0 0 0 0 0 0 127 0" result="hardAlpha"/>
<feOffset dx="-3"/>
<feGaussianBlur stdDeviation="2"/>
<feColorMatrix type="matrix" values="0 0 0 0 0.00392157 0 0 0 0 0.00392157 0 0 0 0 0.00392157 0 0 0 0.32 0"/>
<feBlend mode="normal" in2="BackgroundImageFix" result="effect1_dropShadow_16450_12346"/>
<feBlend mode="normal" in="SourceGraphic" in2="effect1_dropShadow_16450_12346" result="shape"/>
</filter>
</defs>
</svg>
