<svg width="21" height="21" viewBox="0 0 21 21" fill="none" xmlns="http://www.w3.org/2000/svg">
<path d="M17.0625 7C18.2706 7 19.25 6.02062 19.25 4.8125C19.25 3.60438 18.2706 2.625 17.0625 2.625C15.8544 2.625 14.875 3.60438 14.875 4.8125C14.875 6.02062 15.8544 7 17.0625 7Z" fill="white"/>
<path d="M17.0625 7C18.2706 7 19.25 6.02062 19.25 4.8125C19.25 3.60438 18.2706 2.625 17.0625 2.625C15.8544 2.625 14.875 3.60438 14.875 4.8125C14.875 6.02062 15.8544 7 17.0625 7Z" fill="white"/>
<path d="M18.13 8.14625C17.5175 8.33875 16.8438 8.37375 16.1438 8.19875C14.9713 7.8925 14.0175 6.95625 13.6937 5.78375C13.5363 5.215 13.5275 4.655 13.6237 4.1475C13.7375 3.5875 13.3438 3.0625 12.7837 3.0625H6.125C3.5 3.0625 1.75 4.375 1.75 7.4375V13.5625C1.75 16.625 3.5 17.9375 6.125 17.9375H14.875C17.5 17.9375 19.25 16.625 19.25 13.5625V8.9775C19.25 8.4 18.69 7.9625 18.13 8.14625ZM13.58 9.75625L12.5475 10.5788C11.97 11.0425 11.235 11.27 10.5 11.27C9.765 11.27 9.02125 11.0425 8.4525 10.5788L5.71375 8.39125C5.43375 8.16375 5.39 7.74375 5.60875 7.46375C5.83625 7.18375 6.2475 7.13125 6.5275 7.35875L9.26625 9.54625C9.93125 10.08 11.06 10.08 11.725 9.54625L12.7575 8.72375C13.0375 8.49625 13.4575 8.54 13.6763 8.82875C13.9038 9.10875 13.86 9.52875 13.58 9.75625Z" fill="white"/>
</svg>
