<svg width="17" height="17" viewBox="0 0 17 17" fill="none" xmlns="http://www.w3.org/2000/svg">
<path d="M9.49784 8.62332L14.3227 8.58787C14.8079 8.58529 15.2007 8.18243 15.1942 7.7031L15.1741 5.39089C15.1715 4.90565 14.7686 4.5129 14.2893 4.51938L9.46444 4.55483L9.49784 8.62332Z" fill="#292D32"/>
<path d="M9.4929 8.21428L7.99202 8.22619L5.71515 8.24417L5.4185 8.24378L5.41741 8.03947L5.39443 5.19094L5.39334 4.98663L9.46775 4.95713L9.4929 8.21428Z" fill="#292D32"/>
<path d="M2.06014 8.06494L5.42537 8.04313L5.40238 5.1946L2.03715 5.2164C1.64425 5.22046 1.33162 5.54038 1.33567 5.93328L1.34918 7.36736C1.34732 7.75636 1.66724 8.06899 2.06014 8.06494Z" fill="#292D32"/>
<path d="M11.7288 15.4489C11.6579 15.4772 11.58 15.4985 11.5092 15.4985C11.3038 15.4985 11.1125 15.378 11.0204 15.1797L8.37835 9.34305L5.70085 15.1868C5.60877 15.378 5.41752 15.4985 5.2121 15.4985C5.14127 15.4985 5.06335 15.4772 4.99252 15.4489C4.73043 15.3214 4.61002 15.0097 4.73043 14.7405L7.79085 8.2168H9.0371L11.9908 14.7476C12.1113 15.0097 11.9908 15.3285 11.7288 15.4489Z" fill="#292D32"/>
</svg>
