<svg width="35" height="35" viewBox="0 0 35 35" fill="none" xmlns="http://www.w3.org/2000/svg">
<path d="M21.6432 15.8959L29.8974 10.3688C30.7286 9.81461 30.9474 8.6771 30.3932 7.86044L27.7391 3.90835C27.1849 3.0771 26.0474 2.85835 25.2307 3.41252L16.9766 8.93961L21.6432 15.8959Z" fill="#292D32"/>
<path d="M21.1768 15.1958L18.6102 16.9167L14.7164 19.5271L14.206 19.8625L13.9727 19.5125L10.706 14.6417L10.4727 14.2917L17.4435 9.625L21.1768 15.1958Z" fill="#292D32"/>
<path d="M8.22388 23.3624L13.9843 19.5124L10.7176 14.6416L4.95721 18.4916C4.28638 18.9437 4.11138 19.8479 4.56346 20.5187L6.21138 22.9687C6.64888 23.6395 7.55305 23.8145 8.22388 23.3624Z" fill="#292D32"/>
<path d="M24.1493 31.8063C24.0035 31.8647 23.843 31.9084 23.6972 31.9084C23.2743 31.9084 22.8805 31.6605 22.691 31.2522L17.2514 19.2355L11.7389 31.2667C11.5493 31.6605 11.1555 31.9084 10.7326 31.9084C10.5868 31.9084 10.4264 31.8647 10.2805 31.8063C9.74097 31.5438 9.49305 30.9022 9.74097 30.348L14.7139 19.5272L18.6076 16.9167L24.6889 30.3626C24.9368 30.9022 24.6889 31.5584 24.1493 31.8063Z" fill="#292D32"/>
</svg>
