<svg width="49" height="49" viewBox="0 0 49 49" fill="none" xmlns="http://www.w3.org/2000/svg">
<path d="M30.6263 46.4478H18.3763C9.37255 46.4478 6.63672 43.712 6.63672 34.7083V14.2916C6.63672 5.28784 9.37255 2.552 18.3763 2.552H30.6263C39.6301 2.552 42.3659 5.28784 42.3659 14.2916V34.7083C42.3659 43.712 39.6301 46.4478 30.6263 46.4478ZM18.3763 5.6145C11.0671 5.6145 9.69922 7.00284 9.69922 14.2916V34.7083C9.69922 41.997 11.0671 43.3853 18.3763 43.3853H30.6263C37.9355 43.3853 39.3034 41.997 39.3034 34.7083V14.2916C39.3034 7.00284 37.9355 5.6145 30.6263 5.6145H18.3763Z" fill="#292D32"/>
<path d="M28.5846 12.7605H20.418C19.5809 12.7605 18.8867 12.0663 18.8867 11.2292C18.8867 10.3922 19.5809 9.698 20.418 9.698H28.5846C29.4217 9.698 30.1159 10.3922 30.1159 11.2292C30.1159 12.0663 29.4217 12.7605 28.5846 12.7605Z" fill="#292D32"/>
<path d="M24.5005 40.5474C21.9076 40.5474 19.8047 38.4445 19.8047 35.8516C19.8047 33.2587 21.9076 31.1558 24.5005 31.1558C27.0934 31.1558 29.1964 33.2587 29.1964 35.8516C29.1964 38.4445 27.0934 40.5474 24.5005 40.5474ZM24.5005 34.1978C23.6022 34.1978 22.8672 34.9328 22.8672 35.8312C22.8672 36.7295 23.6022 37.4645 24.5005 37.4645C25.3989 37.4645 26.1339 36.7295 26.1339 35.8312C26.1339 34.9328 25.3989 34.1978 24.5005 34.1978Z" fill="#292D32"/>
</svg>
