<svg width="49" height="62" viewBox="0 0 49 62" fill="none" xmlns="http://www.w3.org/2000/svg">
<g clip-path="url(#clip0_16394_18808)">
<path d="M24.4994 4.37665C24.1482 4.37665 23.8633 4.09427 23.8633 3.74587V0.630788C23.8633 0.282379 24.1482 0 24.4994 0C24.8505 0 25.1348 0.282379 25.1348 0.630788V3.74587C25.1348 4.09427 24.8505 4.37665 24.4994 4.37665Z" fill="#FFCC03"/>
<path d="M39.1512 10.3983C38.9888 10.3983 38.8263 10.3368 38.7018 10.2136C38.4536 9.96734 38.4536 9.56778 38.7018 9.3216L40.9219 7.11891C41.1702 6.87247 41.5731 6.87247 41.8213 7.11891C42.0696 7.36503 42.0696 7.76471 41.8213 8.01089L39.6006 10.2136C39.4768 10.3368 39.3143 10.3983 39.1512 10.3983Z" fill="#FFCC03"/>
<path d="M7.62436 41.6767C7.46125 41.6767 7.29879 41.6151 7.17498 41.4919C6.92605 41.2457 6.92605 40.8461 7.17498 40.5999L9.39505 38.3972C9.64332 38.1508 10.0455 38.1508 10.2938 38.3972C10.5427 38.6434 10.5427 39.043 10.2938 39.2892L8.07375 41.4919C7.94994 41.6151 7.78682 41.6767 7.62436 41.6767Z" fill="#FFCC03"/>
<path d="M48.3618 24.9364H45.222C44.8709 24.9364 44.5859 24.6541 44.5859 24.3056C44.5859 23.9571 44.8709 23.6748 45.222 23.6748H48.3618C48.713 23.6748 48.9979 23.9571 48.9979 24.3056C48.9979 24.6541 48.713 24.9364 48.3618 24.9364Z" fill="#FFCC03"/>
<path d="M3.77522 24.9364H0.635425C0.284302 24.9364 0 24.6541 0 24.3056C0 23.9571 0.284302 23.6748 0.635425 23.6748H3.77522C4.12634 23.6748 4.41131 23.9571 4.41131 24.3056C4.41131 24.6541 4.12634 24.9364 3.77522 24.9364Z" fill="#FFCC03"/>
<path d="M41.3713 41.6767C41.2088 41.6767 41.0464 41.6151 40.9219 41.4919L38.7018 39.2892C38.4536 39.043 38.4536 38.6434 38.7018 38.3972C38.9501 38.1508 39.3523 38.1508 39.6006 38.3972L41.8213 40.5999C42.0696 40.8461 42.0696 41.2457 41.8213 41.4919C41.6969 41.6151 41.5344 41.6767 41.3713 41.6767Z" fill="#FFCC03"/>
<path d="M9.84443 10.3983C9.68197 10.3983 9.51886 10.3368 9.39505 10.2136L7.17498 8.01089C6.92605 7.76471 6.92605 7.36503 7.17498 7.11891C7.42325 6.87247 7.82547 6.87247 8.07375 7.11891L10.2938 9.3216C10.5427 9.56778 10.5427 9.96734 10.2938 10.2136C10.17 10.3368 10.0069 10.3983 9.84443 10.3983Z" fill="#FFCC03"/>
<path d="M32.503 5.97203C32.4211 5.97203 32.3379 5.95623 32.2573 5.92296C31.9337 5.78823 31.7811 5.41883 31.9167 5.09753L33.1292 2.22414C33.2648 1.90258 33.6382 1.75187 33.9612 1.88574C34.2848 2.0204 34.4381 2.39006 34.3025 2.71124L33.0893 5.58456C32.9877 5.82645 32.7513 5.97203 32.503 5.97203Z" fill="#FFCC03"/>
<path d="M43.6749 17.141C43.4247 17.141 43.1875 16.9934 43.0866 16.7492C42.9537 16.4268 43.1089 16.0585 43.4338 15.9262L46.3391 14.7451C46.664 14.6128 47.0355 14.7673 47.1685 15.0897C47.3021 15.4121 47.1462 15.7804 46.8213 15.9127L43.916 17.0938C43.8374 17.1258 43.7555 17.141 43.6749 17.141Z" fill="#FFCC03"/>
<path d="M2.41775 33.9134C2.16686 33.9134 1.92972 33.7657 1.82883 33.5215C1.69585 33.1992 1.85111 32.8308 2.17603 32.6986L5.08131 31.5175C5.40688 31.3854 5.77766 31.5396 5.9113 31.862C6.04428 32.1844 5.88902 32.5527 5.5641 32.685L2.65817 33.8661C2.57956 33.8982 2.49767 33.9134 2.41775 33.9134Z" fill="#FFCC03"/>
<path d="M46.5129 34.0797C46.4304 34.0797 46.3472 34.0639 46.2673 34.0306L43.3712 32.8275C43.0476 32.6928 42.8943 32.3235 43.0299 32.002C43.1655 31.6805 43.5389 31.5296 43.8618 31.6636L46.7586 32.8667C47.0822 33.0015 47.2348 33.3711 47.0992 33.6922C46.9977 33.9341 46.7612 34.0797 46.5129 34.0797Z" fill="#FFCC03"/>
<path d="M5.38345 16.9967C5.30157 16.9967 5.21837 16.9809 5.13845 16.9475L2.24235 15.7445C1.91808 15.6097 1.76544 15.2403 1.90105 14.919C2.03665 14.5975 2.4107 14.4467 2.733 14.5806L5.62911 15.7837C5.95337 15.9184 6.106 16.288 5.9704 16.6092C5.86821 16.851 5.63238 16.9967 5.38345 16.9967Z" fill="#FFCC03"/>
<path d="M16.6432 5.91186C16.393 5.91186 16.1558 5.76426 16.0543 5.5201L14.864 2.63768C14.731 2.31534 14.8863 1.94691 15.2112 1.81472C15.5361 1.68292 15.9075 1.83688 16.0412 2.1593L17.2315 5.04165C17.3644 5.36399 17.2092 5.73235 16.8843 5.86467C16.805 5.89671 16.7238 5.91186 16.6432 5.91186Z" fill="#FFCC03"/>
<path d="M30.0684 54.3192H19.3277C18.7218 54.3192 18.2305 53.8318 18.2305 53.2307C18.2305 52.6295 18.7218 52.1421 19.3277 52.1421H30.0684C30.6744 52.1421 31.1657 52.6295 31.1657 53.2307C31.1657 53.8318 30.6744 54.3192 30.0684 54.3192Z" fill="white"/>
<path d="M30.0684 57.7387H19.3277C18.7218 57.7387 18.2305 57.2513 18.2305 56.6501C18.2305 56.0489 18.7218 55.5615 19.3277 55.5615H30.0684C30.6744 55.5615 31.1657 56.0489 31.1657 56.6501C31.1657 57.2513 30.6744 57.7387 30.0684 57.7387Z" fill="white"/>
<path d="M22.094 59.0269C21.828 59.0269 21.6262 59.2667 21.6754 59.526C21.9394 60.9285 23.1781 61.9904 24.6691 61.9904C26.1594 61.9904 27.3982 60.9285 27.6628 59.526C27.7113 59.2667 27.5095 59.0269 27.2436 59.0269H22.094Z" fill="white"/>
<path d="M28.933 50.7703H20.3088C18.8153 50.7703 17.5575 49.6116 17.4455 48.1324C17.08 43.3089 15.0957 40.2525 12.9955 37.0168C10.7047 33.488 8.33594 29.8391 8.33594 23.9386C8.33594 15.9712 14.0803 9.26593 21.9957 7.99558C23.8456 7.69838 25.7951 7.72165 27.6359 8.06246C35.3259 9.48898 40.9072 16.1658 40.9072 23.9386C40.9072 29.8391 38.5384 33.488 36.2469 37.0168C34.1461 40.2525 32.1625 43.3089 31.797 48.1324C31.685 49.6116 30.4265 50.7703 28.933 50.7703Z" fill="#FFCC03"/>
<path d="M16.7286 34.0609C16.4017 34.0609 16.0788 33.9109 15.8711 33.6284C9.9872 25.6109 14.3245 18.0861 14.5125 17.7697C14.8086 17.2691 15.4584 17.1019 15.9628 17.3961C16.4666 17.6903 16.6356 18.3332 16.3408 18.8333C16.1784 19.111 12.5413 25.5187 17.5848 32.3906C17.9294 32.86 17.8252 33.5178 17.3516 33.8593C17.1636 33.9954 16.9448 34.0609 16.7286 34.0609Z" fill="white"/>
</g>
<defs>
<clipPath id="clip0_16394_18808">
<rect width="49" height="62" fill="white"/>
</clipPath>
</defs>
</svg>
