<svg width="38" height="38" viewBox="0 0 38 38" fill="none" xmlns="http://www.w3.org/2000/svg">
<path d="M28.5013 4.75H9.5013C6.00214 4.75 3.16797 7.56833 3.16797 11.0358V26.9642C3.16797 30.4317 6.00214 33.25 9.5013 33.25H28.5013C32.0005 33.25 34.8346 30.4317 34.8346 26.9642V11.0358C34.8346 7.56833 32.0005 4.75 28.5013 4.75ZM13.4596 11.3525C15.4705 11.3525 17.1171 12.9992 17.1171 15.01C17.1171 17.0208 15.4705 18.6675 13.4596 18.6675C11.4488 18.6675 9.80213 17.0208 9.80213 15.01C9.80213 12.9992 11.4488 11.3525 13.4596 11.3525ZM19.5871 26.3783C19.4446 26.5367 19.223 26.6317 19.0013 26.6317H7.91797C7.6963 26.6317 7.47464 26.5367 7.33214 26.3783C7.18964 26.22 7.11047 25.9983 7.1263 25.7767C7.39547 23.1167 9.51714 21.0108 12.1771 20.7575C13.0163 20.6783 13.8871 20.6783 14.7263 20.7575C17.3863 21.0108 19.5238 23.1167 19.7771 25.7767C19.8088 25.9983 19.7296 26.22 19.5871 26.3783ZM30.0846 26.5208H26.918C26.2688 26.5208 25.7305 25.9825 25.7305 25.3333C25.7305 24.6842 26.2688 24.1458 26.918 24.1458H30.0846C30.7338 24.1458 31.2721 24.6842 31.2721 25.3333C31.2721 25.9825 30.7338 26.5208 30.0846 26.5208ZM30.0846 20.1875H23.7513C23.1021 20.1875 22.5638 19.6492 22.5638 19C22.5638 18.3508 23.1021 17.8125 23.7513 17.8125H30.0846C30.7338 17.8125 31.2721 18.3508 31.2721 19C31.2721 19.6492 30.7338 20.1875 30.0846 20.1875ZM30.0846 13.8542H22.168C21.5188 13.8542 20.9805 13.3158 20.9805 12.6667C20.9805 12.0175 21.5188 11.4792 22.168 11.4792H30.0846C30.7338 11.4792 31.2721 12.0175 31.2721 12.6667C31.2721 13.3158 30.7338 13.8542 30.0846 13.8542Z" fill="white"/>
</svg>
