<svg width="39" height="39" viewBox="0 0 39 39" fill="none" xmlns="http://www.w3.org/2000/svg">
<path d="M26.3088 3.25H12.6913C6.77625 3.25 3.25 6.77625 3.25 12.6912V26.2925C3.25 32.2238 6.77625 35.75 12.6913 35.75H26.2925C32.2075 35.75 35.7338 32.2238 35.7338 26.3088V12.6912C35.75 6.77625 32.2238 3.25 26.3088 3.25ZM12.3988 29.4937C12.3988 30.16 11.8463 30.7125 11.18 30.7125C10.5138 30.7125 9.96125 30.16 9.96125 29.4937V26.13C9.96125 25.4637 10.5138 24.9112 11.18 24.9112C11.8463 24.9112 12.3988 25.4637 12.3988 26.13V29.4937ZM20.7188 29.4937C20.7188 30.16 20.1663 30.7125 19.5 30.7125C18.8338 30.7125 18.2813 30.16 18.2813 29.4937V22.75C18.2813 22.0837 18.8338 21.5312 19.5 21.5312C20.1663 21.5312 20.7188 22.0837 20.7188 22.75V29.4937ZM29.0388 29.4937C29.0388 30.16 28.4863 30.7125 27.82 30.7125C27.1538 30.7125 26.6013 30.16 26.6013 29.4937V19.3862C26.6013 18.72 27.1538 18.1675 27.82 18.1675C28.4863 18.1675 29.0388 18.72 29.0388 19.3862V29.4937ZM29.0388 14.2513C29.0388 14.9175 28.4863 15.47 27.82 15.47C27.1538 15.47 26.6013 14.9175 26.6013 14.2513V12.675C22.4575 16.9325 17.2738 19.9387 11.4725 21.385C11.375 21.4175 11.2775 21.4175 11.18 21.4175C10.6275 21.4175 10.14 21.0437 9.99375 20.4912C9.83125 19.8412 10.2213 19.175 10.8875 19.0125C16.3638 17.6475 21.2388 14.7712 25.1063 10.7088H23.075C22.4088 10.7088 21.8563 10.1563 21.8563 9.49C21.8563 8.82375 22.4088 8.27125 23.075 8.27125H27.8363C27.9013 8.27125 27.95 8.30375 28.015 8.30375C28.0963 8.32 28.1775 8.32 28.2588 8.3525C28.34 8.385 28.405 8.43375 28.4863 8.4825C28.535 8.515 28.5838 8.53125 28.6325 8.56375C28.6488 8.58 28.6488 8.59625 28.665 8.59625C28.73 8.66125 28.7788 8.72625 28.8275 8.79125C28.8763 8.85625 28.925 8.905 28.9413 8.97C28.9738 9.035 28.9738 9.1 28.99 9.18125C29.0063 9.2625 29.0388 9.34375 29.0388 9.44125C29.0388 9.4575 29.055 9.47375 29.055 9.49V14.2513H29.0388Z" fill="white"/>
</svg>
