<svg width="31" height="31" viewBox="0 0 31 31" fill="none" xmlns="http://www.w3.org/2000/svg">
<path d="M15.7597 15.2417L13.9384 17.063C12.9309 18.0705 12.9309 19.7109 13.9384 20.7184C14.9459 21.7259 16.5863 21.7259 17.5938 20.7184L20.4614 17.8509C22.4764 15.8359 22.4764 12.568 20.4614 10.5401C18.4464 8.52506 15.1784 8.52506 13.1505 10.5401L10.0247 13.6659C8.29385 15.3967 8.29385 18.1996 10.0247 19.9305" stroke="white" stroke-width="1.5" stroke-linecap="round" stroke-linejoin="round"/>
<path d="M11.6276 28.4166H19.3776C25.8359 28.4166 28.4193 25.8333 28.4193 19.3749V11.6249C28.4193 5.16659 25.8359 2.58325 19.3776 2.58325H11.6276C5.16927 2.58325 2.58594 5.16659 2.58594 11.6249V19.3749C2.58594 25.8333 5.16927 28.4166 11.6276 28.4166Z" stroke="white" stroke-width="1.5" stroke-linecap="round" stroke-linejoin="round"/>
</svg>
