<svg width="17" height="16" viewBox="0 0 17 16" fill="none" xmlns="http://www.w3.org/2000/svg">
<g clip-path="url(#clip0_17145_10727)">
<path fill-rule="evenodd" clip-rule="evenodd" d="M10.1366 8.93531C9.83383 9.05906 9.6404 9.53312 9.44415 9.77531C9.34352 9.89937 9.22352 9.91875 9.06883 9.85656C7.93227 9.40375 7.06102 8.64531 6.43383 7.59937C6.32758 7.43719 6.34665 7.30906 6.47477 7.15844C6.66415 6.93531 6.90227 6.68187 6.95352 6.38125C7.06727 5.71625 6.1979 3.65344 5.04977 4.58813C1.74602 7.28031 10.561 14.4206 12.152 10.5588C12.602 9.46406 10.6385 8.72969 10.1366 8.93531ZM8.22665 14.6025C7.05821 14.6025 5.90852 14.2919 4.90196 13.7037C4.7404 13.6091 4.54508 13.5841 4.36446 13.6331L2.17727 14.2334L2.93915 12.555C3.0429 12.3266 3.01633 12.0606 2.86977 11.8575C2.05477 10.7278 1.62383 9.39406 1.62383 8C1.62383 4.35906 4.58571 1.39719 8.22665 1.39719C11.8676 1.39719 14.8291 4.35906 14.8291 8C14.8291 11.6406 11.8673 14.6025 8.22665 14.6025ZM8.22665 0C3.8154 0 0.226646 3.58875 0.226646 8C0.226646 9.55188 0.667271 11.0422 1.50446 12.3356L0.289146 15.0122C0.176959 15.2594 0.217896 15.5487 0.393521 15.7547C0.528521 15.9125 0.723834 16 0.925396 16C1.37602 16 3.83321 15.2278 4.45852 15.0562C5.61446 15.6747 6.91102 16 8.22665 16C12.6376 16 16.2266 12.4109 16.2266 8C16.2266 3.58875 12.6376 0 8.22665 0Z" fill="white"/>
</g>
<defs>
<clipPath id="clip0_17145_10727">
<rect width="16" height="16" fill="white" transform="translate(0.226562)"/>
</clipPath>
</defs>
</svg>
