<svg width="97" height="97" viewBox="0 0 97 97" fill="none" xmlns="http://www.w3.org/2000/svg">
<circle cx="48.5" cy="48.5" r="48.5" fill="white"/>
<path d="M48.3906 12.25C28.3806 12.25 12.1406 28.49 12.1406 48.5C12.1406 68.51 28.3806 84.75 48.3906 84.75C68.4006 84.75 84.6406 68.51 84.6406 48.5C84.6406 28.49 68.4369 12.25 48.3906 12.25ZM59.2656 56.5837L48.7531 62.6375C47.4481 63.3988 45.9981 63.7612 44.5844 63.7612C43.1344 63.7612 41.7206 63.3988 40.4156 62.6375C37.8056 61.115 36.2469 58.4325 36.2469 55.3875V43.2438C36.2469 40.235 37.8056 37.5163 40.4156 35.9938C43.0256 34.4713 46.1431 34.4713 48.7894 35.9938L59.3019 42.0475C61.9119 43.57 63.4706 46.2525 63.4706 49.2975C63.4706 52.3425 61.9119 55.0612 59.2656 56.5837Z" fill="#F61313"/>
</svg>
