<svg width="41" height="41" viewBox="0 0 41 41" fill="none" xmlns="http://www.w3.org/2000/svg">
<path d="M28.0521 13.5813C32.2205 17.7497 32.2205 24.5147 28.0521 28.683C23.8838 32.8513 17.1188 32.8513 12.9505 28.683C8.78214 24.5147 8.78214 17.7497 12.9505 13.5813C17.1188 9.41299 23.8838 9.41299 28.0521 13.5813Z" fill="#292D32"/>
<path d="M14.0923 38.2496C13.9385 38.2496 13.7677 38.2154 13.614 38.1641C9.77021 36.6266 6.66105 33.9104 4.57688 30.3229C2.56105 26.8208 1.75813 22.8575 2.28771 18.8258C2.37313 18.1254 3.03938 17.63 3.72271 17.7154C4.42313 17.8008 4.91855 18.45 4.83313 19.1504C4.38896 22.6183 5.0723 26.035 6.79771 29.0416C8.57438 32.1166 11.2565 34.4571 14.5535 35.7725C15.2027 36.0458 15.5273 36.7804 15.271 37.4466C15.0831 37.9421 14.5877 38.2496 14.0923 38.2496Z" fill="#292D32"/>
<path d="M9.99554 8.93465C9.6197 8.93465 9.24387 8.76382 8.98762 8.43924C8.54345 7.89257 8.64595 7.08965 9.2097 6.64549C12.4555 4.10007 16.3676 2.75049 20.5018 2.75049C24.5335 2.75049 28.3772 4.04882 31.606 6.50882C32.1697 6.9359 32.2722 7.73882 31.8451 8.30257C31.418 8.86632 30.6151 8.96882 30.0514 8.54174C27.2668 6.4234 23.9697 5.31299 20.5018 5.31299C16.9485 5.31299 13.583 6.47465 10.7814 8.66132C10.5422 8.84924 10.2689 8.93465 9.99554 8.93465Z" fill="#292D32"/>
<path d="M26.9069 38.2496C26.3944 38.2496 25.916 37.9421 25.711 37.4466C25.4548 36.7975 25.7623 36.0458 26.4285 35.7725C29.7256 34.44 32.4077 32.1166 34.1844 29.0416C35.9269 26.035 36.6102 22.6183 36.1489 19.1675C36.0635 18.4671 36.5589 17.8179 37.2594 17.7325C37.9427 17.6471 38.6089 18.1425 38.6944 18.8429C39.2069 22.8575 38.421 26.8379 36.4052 30.34C34.3381 33.9275 31.2119 36.6266 27.3681 38.1812C27.2314 38.2154 27.0777 38.2496 26.9069 38.2496Z" fill="#292D32"/>
</svg>
