<svg width="72" height="72" viewBox="0 0 72 72" fill="none" xmlns="http://www.w3.org/2000/svg">
<path d="M42.6731 54.8748C45.6283 44.2782 44.565 38.9366 39.3841 37.9104C40.1755 41.5085 41.0657 45.2056 37.2821 47.7032C35.3038 49.0139 33.7334 48.507 30.2218 45.8114C28.6021 49.1376 29.1461 52.4513 29.9004 56C24.8679 55.1221 20.8988 53.0325 19.0565 48.1731C17.1523 43.7465 18.2033 38.6151 21.6654 35.2767C22.8772 34.0402 24.1878 32.915 25.5851 31.9011C31.2481 27.6476 32.3486 23.5178 29.3563 17.1252C29.2203 16.7543 29.109 16.3833 29.0348 16C35.3285 16.9521 41.2883 19.4869 46.3579 23.3447C57.3996 32.3709 56.0642 48.6059 43.8725 54.5657C43.4521 54.5904 43.0565 54.6893 42.6731 54.8748V54.8748Z" fill="#EE4854"/>
</svg>
