<svg width="71" height="71" viewBox="0 0 71 71" fill="none" xmlns="http://www.w3.org/2000/svg">
<path d="M15.7812 15.7778H55.2257V55.2223H15.7812V15.7778Z" fill="#34BDB2"/>
<path d="M41.7369 29.189C39.6543 27.9807 37.8057 27.0305 35.3873 27.0724C34.0036 27.0964 32.8157 27.8485 32.5659 29.2249C32.3334 30.5054 33.4717 31.2157 34.656 31.6518C36.6201 32.375 38.3299 33.1387 40.2597 33.9428C43.768 35.4049 45.5669 37.7726 45.3542 40.8106C45.0837 44.676 42.7574 47.4484 39.0602 48.3624C34.2292 49.5568 29.5379 47.7374 25.5742 45.1976C26.5747 43.6736 27.7353 42.6332 28.7298 41.1185C31.0197 42.0932 32.8187 43.4102 35.2144 43.6156C36.9036 43.7605 38.8175 43.6799 39.197 41.6958C39.5391 39.9066 37.982 38.9475 36.4632 38.4117C34.6551 37.774 32.8503 36.9939 31.0772 36.2697C27.7994 34.9309 26.4657 32.3123 26.6902 29.2275C26.6902 27.4188 28.191 23.7629 31.8705 22.6258C37.524 20.8785 40.6389 22.6677 44.7385 25.3023C43.6496 26.7424 42.8125 27.7662 41.7369 29.189" fill="white"/>
</svg>
