<svg width="71" height="71" viewBox="0 0 71 71" fill="none" xmlns="http://www.w3.org/2000/svg">
<path d="M51.65 15.7778H19.357C17.3821 15.7778 15.7812 17.3787 15.7812 19.3536V51.6465C15.7812 53.6214 17.3821 55.2223 19.357 55.2223H51.65C53.6248 55.2223 55.2257 53.6214 55.2257 51.6465V19.3536C55.2257 17.3787 53.6248 15.7778 51.65 15.7778Z" fill="#DC395F"/>
<path d="M28.961 28.1882C30.2722 28.1882 31.3706 27.1605 31.3706 25.8135C31.3706 24.4675 30.2722 23.4399 28.961 23.4399C27.6498 23.4399 26.5516 24.4675 26.5516 25.8135C26.5516 27.1604 27.6498 28.1882 28.961 28.1882ZM23.9648 40.9029C23.8232 41.5054 23.7521 42.1559 23.7521 42.6866C23.7521 44.7776 24.886 46.1657 27.2957 46.1657C29.2941 46.1657 30.9142 44.979 32.0808 43.0627L31.3685 45.9213H35.3368L37.6049 36.8246C38.1719 34.5214 39.2703 33.3259 40.9359 33.3259C42.247 33.3259 43.0619 34.1413 43.0619 35.4873C43.0619 35.8773 43.0265 36.3021 42.8847 36.7629L41.7152 40.9442C41.538 41.5467 41.4675 42.1494 41.4675 42.716C41.4675 44.701 42.6365 46.1529 45.0816 46.1529C47.1723 46.1529 48.8376 44.807 49.759 41.5823L48.2 40.9804C47.4204 43.1408 46.747 43.5314 46.2155 43.5314C45.6839 43.5314 45.4004 43.1773 45.4004 42.469C45.4004 42.1501 45.4716 41.7961 45.5776 41.3699L46.7117 37.2964C46.9951 36.3398 47.1016 35.4916 47.1016 34.7123C47.1016 31.6649 45.2588 30.0745 43.0265 30.0745C40.9359 30.0745 38.8096 31.9603 37.7468 33.945L38.5261 30.3826H32.4671L31.6165 33.5203H34.4515L32.7057 40.5094C31.3349 43.5568 28.8168 43.6063 28.5007 43.5355C27.9818 43.4184 27.6499 43.2214 27.6499 42.5471C27.6499 42.1581 27.7208 41.5992 27.898 40.9254L30.5559 30.3826H23.8232L22.9727 33.5203H25.7718L23.9649 40.9029" fill="white"/>
</svg>
