<svg width="72" height="72" viewBox="0 0 72 72" fill="none" xmlns="http://www.w3.org/2000/svg">
<path d="M18.8438 35.9994C18.8438 42.7909 22.7904 48.6595 28.5134 51.4411L20.3292 29.0169C19.3481 31.2139 18.8419 33.5933 18.8438 35.9994V35.9994ZM47.5835 35.1336C47.5835 33.0132 46.8218 31.5447 46.1686 30.4017C45.2989 28.9885 44.484 27.7916 44.484 26.3783C44.484 24.8012 45.6798 23.333 47.3648 23.333C47.4408 23.333 47.513 23.3425 47.5874 23.3467C44.5346 20.5502 40.4678 18.8428 36.001 18.8428C30.007 18.8428 24.7336 21.9181 21.6658 26.5762C22.0683 26.5883 22.448 26.5964 22.7699 26.5964C24.5645 26.5964 27.3424 26.3787 27.3424 26.3787C28.2673 26.3241 28.3763 27.6826 27.4527 27.7919C27.4527 27.7919 26.523 27.9013 25.4887 27.9555L31.7367 46.5398L35.4917 35.2789L32.8183 27.9552C31.8944 27.901 31.0191 27.7916 31.0191 27.7916C30.0945 27.7374 30.2029 26.3238 31.1275 26.3783C31.1275 26.3783 33.9609 26.5961 35.6468 26.5961C37.4411 26.5961 40.2193 26.3783 40.2193 26.3783C41.1449 26.3238 41.2536 27.6823 40.3293 27.7916C40.3293 27.7916 39.3979 27.901 38.3656 27.9552L44.5659 46.3987L46.277 40.68C47.019 38.3069 47.5835 36.6024 47.5835 35.1336V35.1336Z" fill="#00749A"/>
<path d="M36.304 37.4999L31.1562 52.4581C32.7301 52.9219 34.3623 53.1574 36.003 53.1574C38.001 53.1574 39.9171 52.8117 41.7006 52.1848C41.6527 52.11 41.6119 52.0308 41.5785 51.9485L36.304 37.4999ZM51.0578 27.7676C51.1316 28.3141 51.1734 28.9011 51.1734 29.5318C51.1734 31.2729 50.8482 33.2301 49.8688 35.6773L44.628 50.8297C49.7288 47.8552 53.1597 42.3291 53.1597 35.9992C53.1642 33.122 52.4412 30.2904 51.0578 27.7676V27.7676Z" fill="#00749A"/>
<path d="M36.0002 16C24.9724 16 16 24.9717 16 35.9995C16 47.0286 24.972 56.0003 36.0002 56.0003C47.0277 56.0003 56.0014 47.0289 56.0014 35.9995C56.001 24.9717 47.0277 16 36.0002 16ZM36.0002 55.0832C25.4781 55.0832 16.9171 46.5223 16.9171 35.9995C16.9171 25.4777 25.4777 16.9174 36.0002 16.9174C46.522 16.9174 55.0823 25.4777 55.0823 35.9995C55.0823 46.5223 46.5217 55.0832 36.0002 55.0832Z" fill="#00749A"/>
</svg>
