<svg width="72" height="72" viewBox="0 0 72 72" fill="none" xmlns="http://www.w3.org/2000/svg">
<path d="M54.0691 50.9946C54.0839 53.7409 51.8691 55.9771 49.1244 55.9919C48.9204 55.9936 48.7147 55.9821 48.5123 55.9574C45.9651 55.5806 44.0992 53.3641 44.1617 50.7906V21.2015C44.1008 18.6247 45.9717 16.4082 48.5205 16.0347C51.2471 15.7155 53.7169 17.667 54.0361 20.3936C54.0592 20.5943 54.0707 20.7951 54.0691 20.9975V50.9946Z" fill="#F9AB00"/>
<path d="M22.8881 46.0909C25.6246 46.0909 27.8427 48.309 27.8427 51.0454C27.8427 53.7819 25.6246 56 22.8881 56C20.1517 56 17.9336 53.7819 17.9336 51.0454C17.9336 48.309 20.1517 46.0909 22.8881 46.0909ZM35.9236 31.0759C33.174 31.2272 31.0415 33.5326 31.1057 36.2855V49.5925C31.1057 53.2043 32.6952 55.3961 35.0236 55.8634C37.7106 56.4081 40.3286 54.6721 40.8732 51.985C40.9407 51.6559 40.9736 51.3219 40.972 50.9862V36.0551C40.9769 33.3088 38.7555 31.0792 36.0092 31.0742C35.9812 31.0742 35.9516 31.0742 35.9236 31.0759Z" fill="#E37400"/>
</svg>
