<svg width="72" height="72" viewBox="0 0 72 72" fill="none" xmlns="http://www.w3.org/2000/svg">
<path d="M17.668 18.167H54.3346V53.8336H17.668V18.167Z" fill="#2E001E"/>
<path d="M16 16.5V55.5H56V16.5H16ZM17.6667 18.1667H54.3333V53.8333H17.6667V18.1667Z" fill="#FF2BC2"/>
<path d="M45.0507 32.8833C44.8007 32.7666 44.4841 32.7166 44.0841 32.7166C41.9841 32.7166 40.5841 34.3333 40.5841 37.0166C40.5841 40.0833 42.0174 41.3166 43.8841 41.3166C44.2841 41.3166 44.7174 41.2666 45.0341 41.1333V32.8833H45.0507ZM37.5841 37.15C37.5841 33.2666 40.0841 30.2333 44.1841 30.2333C44.5341 30.2333 44.7174 30.2333 45.0507 30.2667V25.9333C45.0507 25.8333 45.1341 25.7667 45.2174 25.7667H47.9007C48.0341 25.7667 48.0674 25.8167 48.0674 25.9V41.1333C48.0674 41.5833 48.0674 42.15 48.1507 42.7666C48.1507 42.8833 48.1507 42.9 48.0507 42.95C46.6507 43.6166 45.1841 43.9166 43.7841 43.9166C40.1674 43.9166 37.5841 41.6833 37.5841 37.15V37.15ZM31.9008 34.45L36.5674 43.5C36.6508 43.6333 36.6008 43.7666 36.4674 43.7666H33.5674C33.3841 43.7666 33.3008 43.7166 33.2174 43.55C32.1508 41.35 31.0674 39.0666 29.9508 36.7H29.9174C28.9174 38.9333 27.8174 41.3666 26.7508 43.5666C26.6674 43.7 26.5841 43.75 26.4508 43.75H23.6841C23.5174 43.75 23.5008 43.6166 23.5841 43.5166L28.1508 34.7333L23.7341 26C23.6341 25.8667 23.7341 25.75 23.8508 25.75H26.7174C26.8841 25.75 26.9674 25.7833 27.0174 25.9333C28.0674 28.15 29.1341 30.3333 30.1341 32.5667H30.1674C31.1341 30.3667 32.2008 28.15 33.2174 25.9667C33.3008 25.8333 33.3508 25.75 33.5174 25.75H36.2008C36.3341 25.75 36.3841 25.85 36.3008 26L31.9008 34.45V34.45Z" fill="#FF2BC2"/>
</svg>
