<svg width="72" height="72" viewBox="0 0 72 72" fill="none" xmlns="http://www.w3.org/2000/svg">
<path d="M29.3307 55.9998C33.0107 55.9998 35.9974 53.0132 35.9974 49.3332V42.6665H29.3307C25.6507 42.6665 22.6641 45.6532 22.6641 49.3332C22.6641 53.0132 25.6507 55.9998 29.3307 55.9998Z" fill="#0ACF83"/>
<path d="M22.6641 35.9997C22.6641 32.3197 25.6507 29.333 29.3307 29.333H35.9974V42.6663H29.3307C25.6507 42.6663 22.6641 39.6797 22.6641 35.9997Z" fill="#A259FF"/>
<path d="M22.6641 22.6667C22.6641 18.9867 25.6507 16 29.3307 16H35.9974V29.3333H29.3307C25.6507 29.3333 22.6641 26.3467 22.6641 22.6667Z" fill="#F24E1E"/>
<path d="M36 16H42.6667C46.3467 16 49.3334 18.9867 49.3334 22.6667C49.3334 26.3467 46.3467 29.3333 42.6667 29.3333H36V16Z" fill="#FF7262"/>
<path d="M49.3334 35.9997C49.3334 39.6797 46.3467 42.6663 42.6667 42.6663C38.9867 42.6663 36 39.6797 36 35.9997C36 32.3197 38.9867 29.333 42.6667 29.333C46.3467 29.333 49.3334 32.3197 49.3334 35.9997Z" fill="#1ABCFE"/>
</svg>
