<svg width="73" height="72" viewBox="0 0 73 72" fill="none" xmlns="http://www.w3.org/2000/svg">
<path d="M17.9141 18.167H55.09V53.8337H17.9141V18.167Z" fill="url(#paint0_radial_16421_24005)"/>
<path d="M17.9124 18.1666H55.0884V53.8333H17.9124V18.1666ZM16.2227 55.5H56.7782V16.5H16.2227V55.5ZM44.9157 35.3C45.7774 35.3 46.0816 35.3 46.1661 35.2667C46.1661 35.15 46.1999 35.0666 46.1999 34.9833C46.1999 34.0833 45.7605 32.4167 44.0032 32.4167C42.3809 32.4167 41.6881 33.8166 41.5191 35.3H44.9157V35.3ZM41.4854 37.5833C41.5192 39.8333 42.6007 41.35 45.1692 41.35C46.1662 41.35 47.0279 41.2168 47.9236 40.8334C48.0419 40.7834 48.1264 40.8001 48.1264 40.9501V43.0334C48.1264 43.2 48.0757 43.2834 47.9575 43.3667C47.0619 43.8 45.9465 44 44.5609 44C40.0999 44 38.4269 40.7501 38.4269 37.1334C38.4269 33.2001 40.4885 29.9835 44.1216 29.9835C47.8054 29.9835 49.0897 33.0334 49.0897 35.5168C49.0897 36.3168 49.039 36.9668 48.9545 37.2835C48.9207 37.4168 48.8701 37.4669 48.7348 37.5002C48.3968 37.5502 47.3998 37.6168 45.9128 37.6168H41.4854V37.5833ZM32.4281 35.8833C31.9549 34.0333 30.8058 30 30.3833 28.05H30.3495C29.9947 30 29.0652 33.2999 28.3724 35.8833H32.4281V35.8833ZM27.6796 38.5834L26.3446 43.5667C26.3109 43.6999 26.2602 43.75 26.0911 43.75H23.6071C23.4381 43.75 23.4043 43.7 23.4381 43.5L28.2372 26.95C28.3217 26.65 28.3724 26.4167 28.4061 25.5834C28.4061 25.4667 28.4568 25.4167 28.5413 25.4167H32.0899C32.2082 25.4167 32.2589 25.4501 32.2927 25.5834L37.6663 43.5334C37.7001 43.6666 37.6663 43.75 37.5312 43.75H34.743C34.6078 43.75 34.5233 43.7 34.4895 43.5834L33.1038 38.5834H27.6796V38.5834Z" fill="#D8A1FF"/>
<defs>
<radialGradient id="paint0_radial_16421_24005" cx="0" cy="0" r="1" gradientUnits="userSpaceOnUse" gradientTransform="translate(30.158 26.1599) scale(28.2537 26.98)">
<stop stop-color="#442F55" stop-opacity="0.98"/>
<stop offset="1" stop-color="#12002C"/>
</radialGradient>
</defs>
</svg>
