<svg width="72" height="72" viewBox="0 0 72 72" fill="none" xmlns="http://www.w3.org/2000/svg">
<path d="M17.668 18.167H54.3347V53.8338H17.668V18.167Z" fill="url(#paint0_radial_16421_24002)"/>
<path d="M17.6666 18.1666H54.3334V53.8334H17.6666V18.1666ZM16 55.5001H56.0001V16.5H16V55.5001ZM39.4167 32.9167C39.4167 32.7167 39.4167 32.2334 39.3334 31.3C39.3334 31.1667 39.3667 31.1333 39.4667 31.0833C40.4834 30.6667 42.9001 29.9334 45.6 29.9334C45.7334 29.9334 45.8001 29.9667 45.8001 30.1V32.5C45.8001 32.6333 45.7501 32.6667 45.6 32.6667C44.5501 32.6167 43.0001 32.75 42.4167 33V43.5167C42.4167 43.65 42.3667 43.7167 42.2167 43.7167H39.6C39.4667 43.7167 39.4 43.6667 39.4 43.5167V32.9166H39.4167V32.9167V32.9167ZM27.0834 43.7167C26.8834 43.7167 26.8334 43.6334 26.8334 43.4667V25.55C26.8334 25.4167 26.8834 25.3333 27.0334 25.3333H29.6667C29.8 25.3333 29.8333 25.3833 29.8333 25.5333V40.9667H36.6999C36.8333 40.9667 36.8833 41.0167 36.8499 41.1667L36.4333 43.5334C36.4 43.6667 36.3167 43.7334 36.1833 43.7334H27.0834V43.7167V43.7167Z" fill="#AAD1EB"/>
<defs>
<radialGradient id="paint0_radial_16421_24002" cx="0" cy="0" r="1" gradientUnits="userSpaceOnUse" gradientTransform="translate(29.7442 26.16) scale(27.8667 26.9801)">
<stop stop-color="#39464D" stop-opacity="0.98"/>
<stop offset="1" stop-color="#05151F"/>
</radialGradient>
</defs>
</svg>
