<svg width="73" height="72" viewBox="0 0 73 72" fill="none" xmlns="http://www.w3.org/2000/svg">
<path d="M17.9141 18.167H55.0901V53.8338H17.9141V18.167Z" fill="url(#paint0_radial_16421_24004)"/>
<path d="M17.9125 18.1666H55.0885V53.8334H17.9125V18.1666ZM16.2227 55.5001H56.7783V16.5H16.2227V55.5001ZM41.8741 32.7C41.6206 32.5833 41.2826 32.5333 40.8771 32.5333C38.6972 32.5333 37.1764 34.1834 37.1764 36.9334C37.1764 40.0667 38.731 41.3333 40.6744 41.3333C41.0968 41.3333 41.5361 41.2833 41.8741 41.1333V32.7ZM40.9784 29.9833C41.3333 29.9833 41.5361 29.9833 41.8741 30.0167V25.5833C41.8741 25.4667 41.9585 25.4167 42.0429 25.4167H44.7805C44.9157 25.4167 44.9495 25.4667 44.9495 25.55V41.1334C44.9495 41.6 44.9495 42.1834 45.0339 42.8167C45.0339 42.9334 45.0001 42.95 44.8819 43.0168C43.4286 43.7001 41.891 44.0001 40.4546 44.0001C36.7201 44.0001 34.0502 41.7168 34.0502 37.0667C34.0333 33.0833 36.7032 29.9833 40.9784 29.9833V29.9833ZM31.0593 43.5334C31.0593 43.7 31.0255 43.7501 30.8396 43.7501H28.2373C28.0683 43.7501 28.0176 43.6667 28.0176 43.5334V25.6333C28.0176 25.4667 28.102 25.4166 28.2373 25.4166H30.8565C30.9917 25.4166 31.0593 25.4666 31.0593 25.6167V43.5334Z" fill="#FF408C"/>
<defs>
<radialGradient id="paint0_radial_16421_24004" cx="0" cy="0" r="1" gradientUnits="userSpaceOnUse" gradientTransform="translate(30.158 26.16) scale(28.2537 26.9801)">
<stop stop-color="#4B2B36" stop-opacity="0.98"/>
<stop offset="1" stop-color="#250012"/>
</radialGradient>
</defs>
</svg>
