<svg width="71" height="71" viewBox="0 0 71 71" fill="none" xmlns="http://www.w3.org/2000/svg">
<path fill-rule="evenodd" clip-rule="evenodd" d="M23.8746 30.4102L35.6073 53.2448L15.8867 30.4102H23.8746Z" fill="#EA6C00"/>
<path fill-rule="evenodd" clip-rule="evenodd" d="M47.3442 30.4102L35.6115 53.2448L55.332 30.4102H47.3442Z" fill="#EA6C00"/>
<path fill-rule="evenodd" clip-rule="evenodd" d="M23.875 30.4102H47.3404L35.6077 53.2448L23.875 30.4102Z" fill="#FDAD00"/>
<path fill-rule="evenodd" clip-rule="evenodd" d="M35.6077 17.7549L24.4925 18.9232L23.875 30.4098L35.6077 17.7549Z" fill="#FDD231"/>
<path fill-rule="evenodd" clip-rule="evenodd" d="M35.6071 17.7549L46.7223 18.9232L47.3398 30.4098L35.6071 17.7549Z" fill="#FDD231"/>
<path fill-rule="evenodd" clip-rule="evenodd" d="M55.332 30.41L46.7267 18.9233L47.3442 30.41H55.332Z" fill="#FDAD00"/>
<path fill-rule="evenodd" clip-rule="evenodd" d="M15.8867 30.41L24.4921 18.9233L23.8746 30.41H15.8867Z" fill="#FDAD00"/>
<path fill-rule="evenodd" clip-rule="evenodd" d="M35.6077 17.7549L23.875 30.4098H47.3404L35.6077 17.7549Z" fill="#FEEEB7"/>
</svg>
