<svg width="41" height="41" viewBox="0 0 41 41" fill="none" xmlns="http://www.w3.org/2000/svg">
<path d="M15.3754 24.2925H6.69705C5.65497 24.2925 4.6983 24.8221 4.15163 25.7104C3.60497 26.5816 3.55372 27.6237 3.99788 28.5462C6.09913 32.8512 9.89163 36.2337 14.4016 37.8225C14.7091 37.925 15.0508 37.9933 15.3754 37.9933C15.9733 37.9933 16.5712 37.8054 17.0837 37.4466C17.8866 36.8829 18.365 35.9604 18.365 34.9866L18.382 27.2991C18.382 26.4962 18.0745 25.7446 17.5108 25.1808C16.93 24.6171 16.1783 24.2925 15.3754 24.2925Z" fill="#292D32"/>
<path d="M38.4036 16.4001C36.4903 7.99508 29.1274 2.1355 20.5003 2.1355C11.8732 2.1355 4.51028 7.99508 2.59695 16.4001C2.39195 17.2884 2.59695 18.1938 3.17778 18.9113C3.75862 19.6288 4.61278 20.0388 5.53528 20.0388H35.4824C36.4049 20.0388 37.259 19.6288 37.8399 18.9113C38.4036 18.1938 38.6086 17.2713 38.4036 16.4001Z" fill="#292D32"/>
<path d="M34.2705 24.3779L25.6263 24.3608C24.8234 24.3608 24.0717 24.6683 23.508 25.2321C22.9442 25.7958 22.6367 26.5475 22.6367 27.3504L22.6538 35.0038C22.6538 35.9775 23.1321 36.9 23.9351 37.4638C24.4476 37.8225 25.0455 38.0104 25.6434 38.0104C25.968 38.0104 26.2926 37.9592 26.6001 37.8396C31.0759 36.2679 34.8684 32.9025 36.9696 28.6488C37.4138 27.7433 37.3626 26.6842 36.833 25.83C36.2692 24.9075 35.3126 24.3779 34.2705 24.3779Z" fill="#292D32"/>
</svg>
