<svg width="41" height="41" viewBox="0 0 41 41" fill="none" xmlns="http://www.w3.org/2000/svg">
<path d="M37.5827 9.75464V26.1205C37.5827 30.8355 33.7561 34.6621 29.0411 34.6621H11.9577C11.1719 34.6621 10.4202 34.5596 9.68565 34.3546C8.62648 34.0642 8.28481 32.7146 9.07065 31.9288L27.2302 13.7692C27.6061 13.3934 28.1698 13.308 28.6994 13.4105C29.2461 13.513 29.844 13.3592 30.2711 12.9492L34.6615 8.54172C36.2673 6.93589 37.5827 7.46547 37.5827 9.75464Z" fill="#292D32"/>
<path d="M25.0113 12.5734L7.12505 30.4597C6.30505 31.2797 4.93839 31.0747 4.39172 30.0497C3.75964 28.888 3.41797 27.5384 3.41797 26.1205V9.75468C3.41797 7.46551 4.73339 6.93593 6.33922 8.54176L10.7467 12.9663C11.413 13.6155 12.5063 13.6155 13.1726 12.9663L19.2884 6.83343C19.9546 6.16718 21.048 6.16718 21.7142 6.83343L25.0284 10.1476C25.6776 10.8138 25.6776 11.9072 25.0113 12.5734Z" fill="#292D32"/>
</svg>
