<svg width="41" height="41" viewBox="0 0 41 41" fill="none" xmlns="http://www.w3.org/2000/svg">
<path d="M27.6592 3.41675H13.3434C7.12505 3.41675 3.41797 7.12383 3.41797 13.3422V27.6409C3.41797 33.8763 7.12505 37.5834 13.3434 37.5834H27.6421C33.8605 37.5834 37.5676 33.8763 37.5676 27.658V13.3422C37.5846 7.12383 33.8776 3.41675 27.6592 3.41675ZM28.6671 16.5709L18.9809 26.2572C18.7417 26.4963 18.4171 26.633 18.0755 26.633C17.7338 26.633 17.4092 26.4963 17.1701 26.2572L12.3355 21.4226C11.8401 20.9272 11.8401 20.1072 12.3355 19.6117C12.8309 19.1163 13.6509 19.1163 14.1463 19.6117L18.0755 23.5409L26.8563 14.7601C27.3517 14.2647 28.1717 14.2647 28.6671 14.7601C29.1626 15.2555 29.1626 16.0584 28.6671 16.5709Z" fill="#292D32"/>
</svg>
