<svg width="42" height="42" viewBox="0 0 42 42" fill="none" xmlns="http://www.w3.org/2000/svg">
<path d="M16.3118 23.2401H21.7193V35.8401C21.7193 37.6951 24.0293 38.5701 25.2543 37.1701L38.5018 22.1201C39.6568 20.8076 38.7293 18.7601 36.9793 18.7601H31.5718V6.16007C31.5718 4.30507 29.2618 3.43007 28.0368 4.83007L14.7893 19.8801C13.6518 21.1926 14.5793 23.2401 16.3118 23.2401Z" fill="#292D32"/>
<path d="M14.875 8.3125H2.625C1.9075 8.3125 1.3125 7.7175 1.3125 7C1.3125 6.2825 1.9075 5.6875 2.625 5.6875H14.875C15.5925 5.6875 16.1875 6.2825 16.1875 7C16.1875 7.7175 15.5925 8.3125 14.875 8.3125Z" fill="#292D32"/>
<path d="M13.125 36.3125H2.625C1.9075 36.3125 1.3125 35.7175 1.3125 35C1.3125 34.2825 1.9075 33.6875 2.625 33.6875H13.125C13.8425 33.6875 14.4375 34.2825 14.4375 35C14.4375 35.7175 13.8425 36.3125 13.125 36.3125Z" fill="#292D32"/>
<path d="M7.875 22.3125H2.625C1.9075 22.3125 1.3125 21.7175 1.3125 21C1.3125 20.2825 1.9075 19.6875 2.625 19.6875H7.875C8.5925 19.6875 9.1875 20.2825 9.1875 21C9.1875 21.7175 8.5925 22.3125 7.875 22.3125Z" fill="#292D32"/>
</svg>
