<svg width="39" height="39" viewBox="0 0 39 39" fill="none" xmlns="http://www.w3.org/2000/svg">
<path d="M26 3.25H13C7.3125 3.25 4.875 6.5 4.875 11.375V27.625C4.875 32.5 7.3125 35.75 13 35.75H26C31.6875 35.75 34.125 32.5 34.125 27.625V11.375C34.125 6.5 31.6875 3.25 26 3.25ZM17.1112 26.7637C17.5825 27.235 17.5825 28.015 17.1112 28.4863C16.8675 28.73 16.5588 28.8438 16.25 28.8438C15.9412 28.8438 15.6325 28.73 15.3888 28.4863L12.1387 25.2362C11.6675 24.765 11.6675 23.985 12.1387 23.5138L15.3888 20.2638C15.86 19.7925 16.64 19.7925 17.1112 20.2638C17.5825 20.735 17.5825 21.515 17.1112 21.9862L14.7225 24.375L17.1112 26.7637ZM26.8613 25.2362L23.6112 28.4863C23.3675 28.73 23.0588 28.8438 22.75 28.8438C22.4412 28.8438 22.1325 28.73 21.8888 28.4863C21.4175 28.015 21.4175 27.235 21.8888 26.7637L24.2775 24.375L21.8888 21.9862C21.4175 21.515 21.4175 20.735 21.8888 20.2638C22.36 19.7925 23.14 19.7925 23.6112 20.2638L26.8613 23.5138C27.3325 23.985 27.3325 24.765 26.8613 25.2362ZM30.0625 15.0312H26.8125C24.3425 15.0312 22.3438 13.0325 22.3438 10.5625V7.3125C22.3438 6.64625 22.8962 6.09375 23.5625 6.09375C24.2288 6.09375 24.7812 6.64625 24.7812 7.3125V10.5625C24.7812 11.6838 25.6912 12.5938 26.8125 12.5938H30.0625C30.7288 12.5938 31.2812 13.1462 31.2812 13.8125C31.2812 14.4788 30.7288 15.0312 30.0625 15.0312Z" fill="#292D32"/>
</svg>
