<svg width="40" height="40" viewBox="0 0 40 40" fill="none" xmlns="http://www.w3.org/2000/svg">
<path d="M35.8823 28.85V28.5833C35.8823 25.3667 34.249 23.75 31.049 23.75C27.849 23.75 26.2156 25.3833 26.2156 28.5833V28.85C24.4656 29.2833 23.7656 30.4833 23.7656 32.8833V34.1167C23.7656 37.2 24.9156 38.3333 27.9823 38.3333H34.1156C37.199 38.3333 38.3323 37.1833 38.3323 34.1167V32.8833C38.3323 30.5 37.6323 29.2833 35.8823 28.85ZM31.0323 26.05C33.1823 26.05 33.5656 26.8667 33.5656 28.5833V28.6667H28.499V28.5833C28.499 26.8667 28.8823 26.05 31.0323 26.05Z" fill="#292D32"/>
<path d="M11.9098 3.37416C12.4627 3.33169 12.9154 3.78461 12.9154 4.33907V12.0002C12.9154 12.5524 12.4676 13.0002 11.9154 13.0002H4.33203C3.77975 13.0002 3.32775 12.5508 3.36639 11.9999C3.7232 6.91313 6.84158 3.76345 11.9098 3.37416Z" fill="#292D32"/>
<path d="M34.882 13.0002H28.082C27.5297 13.0002 27.082 12.5524 27.082 12.0002V4.33975C27.082 3.78503 27.5345 3.33198 28.0875 3.37485C32.8611 3.7449 35.9092 6.56335 36.5487 11.1335C36.682 12.1168 35.882 13.0002 34.882 13.0002Z" fill="#292D32"/>
<path d="M11.9154 27.1665C12.4677 27.1665 12.9154 27.6142 12.9154 28.1665V34.8665C12.9154 35.8665 12.032 36.6665 11.032 36.5332C6.53131 35.8635 3.77682 32.8655 3.38043 28.1784C3.33348 27.6231 3.78754 27.1665 4.34477 27.1665H11.9154Z" fill="#292D32"/>
<path d="M12.9154 16.5C12.9154 15.9477 12.4676 15.5 11.9154 15.5H4.33203C3.77975 15.5 3.33203 15.9477 3.33203 16.5V23.6667C3.33203 24.219 3.77975 24.6667 4.33203 24.6667H11.9154C12.4677 24.6667 12.9154 24.219 12.9154 23.6667V16.5Z" fill="#292D32"/>
<path d="M24.5846 16.5C24.5846 15.9477 24.1369 15.5 23.5846 15.5H16.418C15.8657 15.5 15.418 15.9477 15.418 16.5V23.6667C15.418 24.219 15.8657 24.6667 16.418 24.6667H22.918C23.8346 24.6667 24.5846 23.9167 24.5846 23V16.5Z" fill="#292D32"/>
<path d="M24.5846 4.3335C24.5846 3.78121 24.1369 3.3335 23.5846 3.3335H16.418C15.8657 3.3335 15.418 3.78121 15.418 4.3335V12.0002C15.418 12.5524 15.8657 13.0002 16.418 13.0002H23.5846C24.1369 13.0002 24.5846 12.5524 24.5846 12.0002V4.3335Z" fill="#292D32"/>
</svg>
