<svg width="42" height="42" viewBox="0 0 42 42" fill="none" xmlns="http://www.w3.org/2000/svg">
<path d="M28.3325 3.5H13.6675C7.2975 3.5 3.5 7.2975 3.5 13.6675V28.315C3.5 34.7025 7.2975 38.5 13.6675 38.5H28.315C34.685 38.5 38.4825 34.7025 38.4825 28.3325V13.6675C38.5 7.2975 34.7025 3.5 28.3325 3.5ZM28.7175 17.2025C27.65 20.2475 24.78 22.295 21.56 22.295C21.5425 22.295 21.5425 22.295 21.525 22.295L17.92 22.2775C17.92 22.2775 17.92 22.2775 17.9025 22.2775C16.5725 22.2775 15.4175 23.17 15.0675 24.4475C16.625 24.9375 17.7625 26.39 17.7625 28.105C17.7625 30.2225 16.03 31.955 13.9125 31.955C11.795 31.955 10.0625 30.2225 10.0625 28.105C10.0625 26.5475 11.0075 25.2 12.3375 24.605V16.975C11.0075 16.45 10.0625 15.155 10.0625 13.65C10.0625 11.6725 11.6725 10.0625 13.65 10.0625C15.6275 10.0625 17.2375 11.6725 17.2375 13.65C17.2375 15.1725 16.2925 16.45 14.9625 16.975V20.51C15.82 19.9675 16.835 19.6525 17.9025 19.6525H17.92L21.525 19.67C23.59 19.74 25.4275 18.41 26.1625 16.485C25.305 15.82 24.745 14.805 24.745 13.65C24.745 11.6725 26.355 10.0625 28.3325 10.0625C30.31 10.0625 31.92 11.6725 31.92 13.65C31.9375 15.505 30.52 17.01 28.7175 17.2025Z" fill="#292D32"/>
</svg>
