<svg width="46" height="46" viewBox="0 0 46 46" fill="none" xmlns="http://www.w3.org/2000/svg">
<path d="M34.1349 10.5227V11.941L27.3499 8.01183C24.7816 6.536 21.1974 6.536 18.6483 8.01183L11.8633 11.9602V10.5227C11.8633 6.21016 14.2208 3.8335 18.5333 3.8335H27.4649C31.7774 3.8335 34.1349 6.21016 34.1349 10.5227Z" fill="#292D32"/>
<path d="M34.192 15.2758L33.9237 15.1416L31.317 13.6466L25.912 10.5225C24.2637 9.56413 21.7337 9.56413 20.0854 10.5225L14.6804 13.6275L12.0737 15.1608L11.7287 15.3333C8.37453 17.595 8.14453 18.0166 8.14453 21.6391V30.3025C8.14453 33.925 8.37453 34.3466 11.8054 36.6658L20.0854 41.4383C20.9095 41.9366 21.9445 42.1475 22.9987 42.1475C24.0337 42.1475 25.0879 41.9175 25.912 41.4383L34.2687 36.6083C37.642 34.3466 37.8529 33.9441 37.8529 30.3025V21.6391C37.8529 18.0166 37.6229 17.595 34.192 15.2758ZM28.3462 25.875L27.177 27.3125C26.9854 27.5233 26.8512 27.9258 26.8704 28.2133L26.9854 30.0533C27.062 31.1841 26.257 31.7591 25.2029 31.3566L23.497 30.6666C23.2287 30.5708 22.7879 30.5708 22.5195 30.6666L20.8137 31.3375C19.7595 31.7591 18.9545 31.165 19.0312 30.0341L19.1462 28.1941C19.1654 27.9066 19.0312 27.5041 18.8395 27.2933L17.6512 25.875C16.9229 25.0125 17.2487 24.0541 18.3412 23.7666L20.1237 23.3066C20.4112 23.23 20.737 22.9616 20.8904 22.7316L21.887 21.1983C22.5004 20.24 23.4779 20.24 24.1104 21.1983L25.107 22.7316C25.2604 22.9808 25.6054 23.23 25.8737 23.3066L27.6562 23.7666C28.7487 24.0541 29.0745 25.0125 28.3462 25.875Z" fill="#292D32"/>
</svg>
