<svg width="39" height="39" viewBox="0 0 39 39" fill="none" xmlns="http://www.w3.org/2000/svg">
<path d="M35.75 7.88123V27.2025C35.75 28.7787 34.4662 30.225 32.89 30.42L32.3863 30.485C29.7213 30.8425 25.9675 31.9475 22.945 33.215C21.8887 33.6537 20.7188 32.8575 20.7188 31.7037V9.09998C20.7188 8.49873 21.06 7.94623 21.5962 7.65373C24.57 6.04498 29.0713 4.61498 32.1263 4.35498H32.2238C34.1737 4.35498 35.75 5.93123 35.75 7.88123Z" fill="#292D32"/>
<path d="M17.4044 7.65373C14.4306 6.04498 9.92937 4.61498 6.87437 4.35498H6.76062C4.81062 4.35498 3.23438 5.93123 3.23438 7.88123V27.2025C3.23438 28.7787 4.51812 30.225 6.09437 30.42L6.59812 30.485C9.26312 30.8425 13.0169 31.9475 16.0394 33.215C17.0956 33.6537 18.2656 32.8575 18.2656 31.7037V9.09998C18.2656 8.48248 17.9406 7.94623 17.4044 7.65373ZM8.12562 12.5775H11.7819C12.4481 12.5775 13.0006 13.13 13.0006 13.7962C13.0006 14.4787 12.4481 15.015 11.7819 15.015H8.12562C7.45937 15.015 6.90687 14.4787 6.90687 13.7962C6.90687 13.13 7.45937 12.5775 8.12562 12.5775ZM13.0006 19.89H8.12562C7.45937 19.89 6.90687 19.3537 6.90687 18.6712C6.90687 18.005 7.45937 17.4525 8.12562 17.4525H13.0006C13.6669 17.4525 14.2194 18.005 14.2194 18.6712C14.2194 19.3537 13.6669 19.89 13.0006 19.89Z" fill="#292D32"/>
</svg>
