<svg width="42" height="42" viewBox="0 0 42 42" fill="none" xmlns="http://www.w3.org/2000/svg">
<path d="M34.3519 12.6702C34.8769 13.4927 34.5969 14.5952 33.7569 15.1027L32.7244 15.7152L9.78192 29.4702C8.94192 29.9777 7.83942 29.6977 7.34942 28.8402C5.59942 25.7952 4.81192 22.0852 5.49442 18.2002C6.64942 11.6027 12.0744 6.3527 18.7069 5.4077C25.2694 4.4802 31.2019 7.6302 34.3519 12.6702Z" fill="#292D32"/>
<path d="M36.557 23.5024C35.367 30.9399 28.787 36.6274 21.2445 36.7499C17.9195 36.8024 14.8395 35.8399 12.2845 34.1074C11.1995 33.3899 11.2345 31.7799 12.3545 31.1149L34.072 18.3574C35.2095 17.6924 36.6095 18.4624 36.7145 19.7749C36.802 20.9999 36.7495 22.2424 36.557 23.5024Z" fill="#292D32"/>
</svg>
