<svg width="45" height="45" viewBox="0 0 45 45" fill="none" xmlns="http://www.w3.org/2000/svg">
<path d="M34.6498 22.9688C35.1748 22.9688 35.6248 22.5187 35.5873 21.9937C35.0811 15.1875 29.4186 9.84375 22.4998 9.84375C15.5811 9.84375 9.91859 15.1875 9.41234 21.9937C9.37484 22.5187 9.82484 22.9688 10.3498 22.9688H34.6498Z" fill="#292D32"/>
<path d="M41.25 24.375H41.1C40.0687 24.375 39.225 23.5312 39.225 22.5C39.225 21.4688 40.0687 20.625 41.1 20.625C42.1312 20.625 43.05 21.4688 43.05 22.5C43.05 23.5312 42.2812 24.375 41.25 24.375ZM3.9 24.375H3.75C2.71875 24.375 1.875 23.5312 1.875 22.5C1.875 21.4688 2.71875 20.625 3.75 20.625C4.78125 20.625 5.7 21.4688 5.7 22.5C5.7 23.5312 4.93125 24.375 3.9 24.375ZM35.6437 11.2312C35.1562 11.2312 34.6875 11.0437 34.3125 10.6875C33.5812 9.95625 33.5812 8.775 34.3125 8.04375L34.5563 7.8C35.2875 7.06875 36.4688 7.06875 37.2 7.8C37.9313 8.53125 37.9313 9.7125 37.2 10.4438L36.9562 10.6875C36.6 11.0437 36.1313 11.2312 35.6437 11.2312ZM9.35625 11.2312C8.86875 11.2312 8.4 11.0437 8.025 10.6875L7.78125 10.425C7.05 9.69375 7.05 8.5125 7.78125 7.78125C8.5125 7.05 9.69375 7.05 10.425 7.78125L10.6687 8.025C11.4 8.75625 11.4 9.9375 10.6687 10.6687C10.3125 11.0437 9.825 11.2312 9.35625 11.2312ZM22.5 5.7C21.4688 5.7 20.625 4.93125 20.625 3.9V3.75C20.625 2.71875 21.4688 1.875 22.5 1.875C23.5312 1.875 24.375 2.71875 24.375 3.75C24.375 4.78125 23.5312 5.7 22.5 5.7Z" fill="#292D32"/>
<path d="M37.5 29.5312H7.5C6.73125 29.5312 6.09375 28.8937 6.09375 28.125C6.09375 27.3562 6.73125 26.7188 7.5 26.7188H37.5C38.2687 26.7188 38.9062 27.3562 38.9062 28.125C38.9062 28.8937 38.2687 29.5312 37.5 29.5312Z" fill="#292D32"/>
<path d="M33.75 35.1562H11.25C10.4812 35.1562 9.84375 34.5187 9.84375 33.75C9.84375 32.9812 10.4812 32.3438 11.25 32.3438H33.75C34.5187 32.3438 35.1562 32.9812 35.1562 33.75C35.1562 34.5187 34.5187 35.1562 33.75 35.1562Z" fill="#292D32"/>
<path d="M28.125 40.7812H16.875C16.1062 40.7812 15.4688 40.1437 15.4688 39.375C15.4688 38.6062 16.1062 37.9688 16.875 37.9688H28.125C28.8938 37.9688 29.5312 38.6062 29.5312 39.375C29.5312 40.1437 28.8938 40.7812 28.125 40.7812Z" fill="#292D32"/>
</svg>
