<svg width="43" height="43" viewBox="0 0 43 43" fill="none" xmlns="http://www.w3.org/2000/svg">
<path d="M36.4783 13.9392L8.13417 30.96C7.04125 31.6229 5.57208 30.96 5.42875 29.6879C5.39292 29.3475 5.375 29.0071 5.375 28.6667V14.3333C5.375 8.95833 8.95833 5.375 14.3333 5.375H28.6667C34.0417 5.375 36.2454 8.13417 37.2846 11.9146C37.4996 12.7029 37.1592 13.5271 36.4783 13.9392Z" fill="#292D32"/>
<path d="M37.6243 19.8695V28.6666C37.6243 34.0416 34.041 37.6249 28.666 37.6249H14.3326C12.6843 37.6249 11.1255 37.177 9.79971 36.3887C8.65304 35.7258 8.72471 34.0416 9.85346 33.3608L34.901 18.3287C36.1014 17.612 37.6243 18.472 37.6243 19.8695Z" fill="#292D32"/>
</svg>
