<svg width="41" height="41" viewBox="0 0 41 41" fill="none" xmlns="http://www.w3.org/2000/svg">
<path d="M6.68089 29.3491C6.3563 29.3491 6.03172 29.2295 5.77547 28.9733C3.43505 26.6158 2.13672 23.5066 2.13672 20.2095C2.13672 13.3591 7.6888 7.78994 14.5221 7.78994L24.8917 7.8241L23.0296 6.04744C22.5171 5.55202 22.5001 4.7491 22.9955 4.2366C23.4909 3.7241 24.2938 3.70702 24.8063 4.20244L28.9746 8.19994C29.3505 8.55869 29.4701 9.12244 29.2821 9.60077C29.0942 10.0791 28.6159 10.4037 28.0863 10.4037L14.5221 10.3695C9.10672 10.3695 4.69922 14.7941 4.69922 20.2266C4.69922 22.8404 5.72422 25.3174 7.5863 27.1795C8.08172 27.6749 8.08172 28.4949 7.5863 28.9904C7.33005 29.2295 7.00547 29.3491 6.68089 29.3491Z" fill="#292D32"/>
<path d="M17.0846 37.1562C16.76 37.1562 16.4525 37.0366 16.1963 36.7974L12.028 32.7999C11.6521 32.4412 11.5325 31.8774 11.7205 31.3991C11.9084 30.9208 12.3867 30.5962 12.9163 30.5962L26.4975 30.6303C31.913 30.6303 36.3205 26.2058 36.3205 20.7733C36.3205 18.1595 35.2955 15.6824 33.4334 13.8203C32.938 13.3249 32.938 12.5049 33.4334 12.0095C33.9288 11.5141 34.7488 11.5141 35.2442 12.0095C37.5846 14.367 38.883 17.4762 38.883 20.7733C38.883 27.6237 33.3309 33.1928 26.4975 33.1928L16.128 33.1587L17.99 34.9353C18.5025 35.4308 18.5196 36.2337 18.0242 36.7462C17.7509 37.0195 17.4263 37.1562 17.0846 37.1562Z" fill="#292D32"/>
<path d="M15.3737 26.4791H25.6237C28.9037 26.4791 31.6029 23.797 31.6029 20.4999C31.6029 17.2199 28.9208 14.5208 25.6237 14.5208H15.3737C12.0937 14.5208 9.39453 17.2028 9.39453 20.4999C9.39453 23.797 12.0766 26.4791 15.3737 26.4791Z" fill="#292D32"/>
</svg>
