<svg width="41" height="41" viewBox="0 0 41 41" fill="none" xmlns="http://www.w3.org/2000/svg">
<path d="M27.6592 3.4165H13.3434C7.12505 3.4165 3.41797 7.12359 3.41797 13.3419V27.6407C3.41797 33.8761 7.12505 37.5832 13.3434 37.5832H27.6421C33.8605 37.5832 37.5676 33.8761 37.5676 27.6578V13.3419C37.5846 7.12359 33.8776 3.4165 27.6592 3.4165ZM31.6055 28.0165C31.6055 30.579 30.5805 31.604 28.018 31.604H21.5263C18.9638 31.604 17.9388 30.579 17.9388 28.0165V24.9415C17.9388 22.379 18.9638 21.354 21.5263 21.354H28.018C30.5805 21.354 31.6055 22.379 31.6055 24.9415V28.0165Z" fill="#292D32"/>
</svg>
