<svg width="41" height="41" viewBox="0 0 41 41" fill="none" xmlns="http://www.w3.org/2000/svg">
<path d="M27.6592 3.4165H13.3434C7.12505 3.4165 3.41797 7.12359 3.41797 13.3419V27.6407C3.41797 33.8761 7.12505 37.5832 13.3434 37.5832H27.6421C33.8605 37.5832 37.5676 33.8761 37.5676 27.6578V13.3419C37.5846 7.12359 33.8776 3.4165 27.6592 3.4165ZM11.1055 21.4736H15.8376C16.538 21.4736 17.1188 22.0544 17.1188 22.7548C17.1188 23.4553 16.538 24.0361 15.8376 24.0361H11.1055C10.4051 24.0361 9.82422 23.4553 9.82422 22.7548C9.82422 22.0544 10.4051 21.4736 11.1055 21.4736ZM22.1584 30.4594H11.1055C10.4051 30.4594 9.82422 29.8786 9.82422 29.1782C9.82422 28.4778 10.4051 27.8969 11.1055 27.8969H22.1584C22.8588 27.8969 23.4396 28.4778 23.4396 29.1782C23.4396 29.8786 22.8759 30.4594 22.1584 30.4594ZM29.8971 30.4594H26.7367C26.0363 30.4594 25.4555 29.8786 25.4555 29.1782C25.4555 28.4778 26.0363 27.8969 26.7367 27.8969H29.8971C30.5976 27.8969 31.1784 28.4778 31.1784 29.1782C31.1784 29.8786 30.5976 30.4594 29.8971 30.4594ZM29.8971 24.0361H20.4501C19.7496 24.0361 19.1688 23.4553 19.1688 22.7548C19.1688 22.0544 19.7496 21.4736 20.4501 21.4736H29.8971C30.5976 21.4736 31.1784 22.0544 31.1784 22.7548C31.1784 23.4553 30.5976 24.0361 29.8971 24.0361Z" fill="#292D32"/>
</svg>
