<svg width="25" height="25" viewBox="0 0 25 25" fill="none" xmlns="http://www.w3.org/2000/svg">
<g clip-path="url(#clip0_16421_23356)">
<path d="M12.1745 0C5.45078 0 0 5.45078 0 12.1745C0 17.8839 3.93091 22.6748 9.23365 23.9906V15.8951H6.72326V12.1745H9.23365V10.5714C9.23365 6.42766 11.109 4.50701 15.1773 4.50701C15.9486 4.50701 17.2796 4.65846 17.824 4.80943V8.18177C17.5367 8.15158 17.0375 8.13648 16.4176 8.13648C14.4215 8.13648 13.6501 8.89276 13.6501 10.8587V12.1745H17.6268L16.9435 15.8951H13.6501V24.2599C19.6784 23.5319 24.3495 18.3991 24.3495 12.1745C24.3491 5.45078 18.8983 0 12.1745 0Z" fill="white"/>
</g>
<defs>
<clipPath id="clip0_16421_23356">
<rect width="24.3491" height="24.3491" fill="white"/>
</clipPath>
</defs>
</svg>
