<svg width="24" height="25" viewBox="0 0 24 25" fill="none" xmlns="http://www.w3.org/2000/svg">
<g clip-path="url(#clip0_16421_23358)">
<path d="M12.1492 2.19237C15.29 2.19237 15.6619 2.20663 16.8971 2.2637C18.045 2.31601 18.6649 2.51575 19.0781 2.6822C19.6245 2.90096 20.0194 3.16728 20.4281 3.59053C20.8413 4.01855 21.0939 4.42278 21.3051 4.9887C21.4658 5.41671 21.6586 6.06349 21.7091 7.24765C21.7642 8.53168 21.778 8.91689 21.778 12.165C21.778 15.4179 21.7642 15.8031 21.7091 17.0824C21.6586 18.2713 21.4658 18.9133 21.3051 19.3413C21.0939 19.9073 20.8367 20.3162 20.4281 20.7395C20.0148 21.1675 19.6245 21.4291 19.0781 21.6478C18.6649 21.8143 18.0404 22.014 16.8971 22.0663C15.6573 22.1234 15.2854 22.1377 12.1492 22.1377C9.00854 22.1377 8.63661 22.1234 7.40145 22.0663C6.25352 22.014 5.63365 21.8143 5.22039 21.6478C4.67398 21.4291 4.2791 21.1628 3.87044 20.7395C3.45719 20.3115 3.20464 19.9073 2.99343 19.3413C2.83272 18.9133 2.63987 18.2666 2.58936 17.0824C2.53426 15.7984 2.52048 15.4131 2.52048 12.165C2.52048 8.91214 2.53426 8.52693 2.58936 7.24765C2.63987 6.05873 2.83272 5.41671 2.99343 4.9887C3.20464 4.42278 3.46178 4.01379 3.87044 3.59053C4.28369 3.16252 4.67398 2.90096 5.22039 2.6822C5.63365 2.51575 6.25812 2.31601 7.40145 2.2637C8.63661 2.20663 9.00854 2.19237 12.1492 2.19237ZM12.1492 0C8.95803 0 8.55855 0.014267 7.30502 0.0713351C6.05608 0.128403 5.19744 0.337653 4.45358 0.63726C3.67759 0.951135 3.02098 1.36488 2.36896 2.04494C1.71235 2.72025 1.31287 3.40031 1.00982 4.19926C0.720541 4.97444 0.518507 5.85899 0.463407 7.15253C0.408306 8.45559 0.394531 8.86933 0.394531 12.1745C0.394531 15.4797 0.408306 15.8935 0.463407 17.1918C0.518507 18.4853 0.720541 19.3746 1.00982 20.145C1.31287 20.9487 1.71235 21.6288 2.36896 22.3041C3.02098 22.9794 3.67759 23.3979 4.44899 23.707C5.19744 24.0066 6.05149 24.2159 7.30043 24.273C8.55396 24.33 8.95343 24.3443 12.1447 24.3443C15.3359 24.3443 15.7354 24.33 16.9889 24.273C18.2378 24.2159 19.0965 24.0066 19.8403 23.707C20.6117 23.3979 21.2683 22.9794 21.9204 22.3041C22.5724 21.6288 22.9764 20.9487 23.2749 20.1498C23.5642 19.3746 23.7662 18.4901 23.8213 17.1965C23.8764 15.8982 23.8902 15.4845 23.8902 12.1793C23.8902 8.87409 23.8764 8.46035 23.8213 7.16205C23.7662 5.8685 23.5642 4.97919 23.2749 4.20877C22.9856 3.40031 22.5862 2.72025 21.9295 2.04494C21.2775 1.36963 20.6209 0.951135 19.8495 0.642016C19.1011 0.342409 18.247 0.133159 16.9981 0.0760908C15.7399 0.014267 15.3405 0 12.1492 0Z" fill="white"/>
<path d="M12.1474 5.9209C8.81388 5.9209 6.10938 8.72199 6.10938 12.1746C6.10938 15.6272 8.81388 18.4283 12.1474 18.4283C15.481 18.4283 18.1855 15.6272 18.1855 12.1746C18.1855 8.72199 15.481 5.9209 12.1474 5.9209ZM12.1474 16.2312C9.98476 16.2312 8.23073 14.4145 8.23073 12.1746C8.23073 9.93469 9.98476 8.11802 12.1474 8.11802C14.3101 8.11802 16.0641 9.93469 16.0641 12.1746C16.0641 14.4145 14.3101 16.2312 12.1474 16.2312Z" fill="white"/>
<path d="M19.8349 5.67337C19.8349 6.48184 19.2013 7.13337 18.4253 7.13337C17.6447 7.13337 17.0156 6.47708 17.0156 5.67337C17.0156 4.86491 17.6493 4.21338 18.4253 4.21338C19.2013 4.21338 19.8349 4.86966 19.8349 5.67337Z" fill="white"/>
</g>
<defs>
<clipPath id="clip0_16421_23358">
<rect width="23.5094" height="24.3491" fill="white" transform="translate(0.394531)"/>
</clipPath>
</defs>
</svg>
