<svg width="24" height="25" viewBox="0 0 24 25" fill="none" xmlns="http://www.w3.org/2000/svg">
<g clip-path="url(#clip0_16421_23359)">
<path d="M21.8629 0H1.82941C0.869745 0 0.09375 0.784687 0.09375 1.75484V22.5895C0.09375 23.5596 0.869745 24.3491 1.82941 24.3491H21.8629C22.8226 24.3491 23.6032 23.5596 23.6032 22.5942V1.75484C23.6032 0.784687 22.8226 0 21.8629 0ZM7.06852 20.749H3.57884V9.12614H7.06852V20.749ZM5.32368 7.5425C4.20331 7.5425 3.29875 6.60563 3.29875 5.45C3.29875 4.29437 4.20331 3.35751 5.32368 3.35751C6.43946 3.35751 7.34402 4.29437 7.34402 5.45C7.34402 6.60088 6.43946 7.5425 5.32368 7.5425ZM20.1273 20.749H16.6422V15.0993C16.6422 13.7534 16.6192 12.0176 14.8285 12.0176C13.0148 12.0176 12.7393 13.4871 12.7393 15.0042V20.749H9.25876V9.12614H12.6015V10.7145H12.6474C13.1112 9.80145 14.2499 8.83604 15.9443 8.83604C19.4753 8.83604 20.1273 11.2424 20.1273 14.3717V20.749Z" fill="white"/>
</g>
<defs>
<clipPath id="clip0_16421_23359">
<rect width="23.5094" height="24.3491" fill="white" transform="translate(0.09375)"/>
</clipPath>
</defs>
</svg>
