<svg width="25" height="25" viewBox="0 0 25 25" fill="none" xmlns="http://www.w3.org/2000/svg">
<g clip-path="url(#clip0_16421_23361)">
<path d="M12.8269 0C6.10235 0 0.652344 5.45 0.652344 12.1745C0.652344 17.3344 3.86242 21.7382 8.38983 23.5121C8.2852 22.5467 8.18533 21.0724 8.43263 20.0214C8.65615 19.0703 9.85933 13.9722 9.85933 13.9722C9.85933 13.9722 9.49314 13.2446 9.49314 12.165C9.49314 10.472 10.4728 9.20699 11.695 9.20699C12.7318 9.20699 13.2359 9.98692 13.2359 10.9238C13.2359 11.97 12.5701 13.5299 12.2277 14.9756C11.9423 16.1883 12.8364 17.1775 14.0301 17.1775C16.1939 17.1775 17.8584 14.8948 17.8584 11.6038C17.8584 8.68862 15.7659 6.64843 12.7746 6.64843C9.31243 6.64843 7.277 9.24503 7.277 11.932C7.277 12.9782 7.68123 14.1006 8.18533 14.7093C8.2852 14.8282 8.29947 14.9376 8.27093 15.0565C8.18058 15.4417 7.97133 16.2692 7.93328 16.4356C7.88097 16.6591 7.75732 16.7067 7.52429 16.5973C6.00248 15.8887 5.05134 13.6678 5.05134 11.8797C5.05134 8.03709 7.84293 4.51314 13.0932 4.51314C17.3162 4.51314 20.5976 7.52348 20.5976 11.5468C20.5976 15.7413 17.9535 19.1178 14.2821 19.1178C13.0504 19.1178 11.89 18.4758 11.4905 17.7196C11.4905 17.7196 10.8818 20.0452 10.7344 20.6159C10.4585 21.6716 9.71666 22.9984 9.22207 23.8069C10.3634 24.1588 11.5714 24.3491 12.8269 24.3491C19.5514 24.3491 25.0014 18.8991 25.0014 12.1745C25.0014 5.45 19.5514 0 12.8269 0Z" fill="white"/>
</g>
<defs>
<clipPath id="clip0_16421_23361">
<rect width="24.3491" height="24.3491" fill="white" transform="translate(0.652344)"/>
</clipPath>
</defs>
</svg>
