<svg width="25" height="25" viewBox="0 0 25 25" fill="none" xmlns="http://www.w3.org/2000/svg">
<g clip-path="url(#clip0_16421_23360)">
<path d="M24.0682 7.30478C24.0682 7.30478 23.8386 5.62603 23.1315 4.8889C22.2361 3.91874 21.2352 3.91398 20.776 3.85691C17.4883 3.60962 12.5523 3.60962 12.5523 3.60962H12.5431C12.5431 3.60962 7.60703 3.60962 4.31938 3.85691C3.86022 3.91398 2.85923 3.91874 1.96385 4.8889C1.25673 5.62603 1.03174 7.30478 1.03174 7.30478C1.03174 7.30478 0.792969 9.27838 0.792969 11.2472V13.0924C0.792969 15.0613 1.02714 17.0349 1.02714 17.0349C1.02714 17.0349 1.25673 18.7136 1.95926 19.4508C2.85464 20.4209 4.03011 20.3876 4.55356 20.4923C6.43615 20.6777 12.5477 20.7348 12.5477 20.7348C12.5477 20.7348 17.4883 20.7253 20.776 20.4828C21.2352 20.4257 22.2361 20.4209 23.1315 19.4508C23.8386 18.7136 24.0682 17.0349 24.0682 17.0349C24.0682 17.0349 24.3024 15.066 24.3024 13.0924V11.2472C24.3024 9.27838 24.0682 7.30478 24.0682 7.30478ZM10.1187 15.3324V8.48894L16.469 11.9225L10.1187 15.3324Z" fill="white"/>
</g>
<defs>
<clipPath id="clip0_16421_23360">
<rect width="23.5094" height="24.3491" fill="white" transform="translate(0.792969)"/>
</clipPath>
</defs>
</svg>
